<?xml version="1.0" encoding="UTF-8"?>
<svg width="25px" height="25px" viewBox="0 0 25 25" version="1.1" xmlns="http://www.w3.org/2000/svg" xmlns:xlink="http://www.w3.org/1999/xlink">
    <!-- Generator: Sketch 43.2 (39069) - http://www.bohemiancoding.com/sketch -->
    <title>accuracy-check</title>
    <desc>Created with Sketch.</desc>
    <defs></defs>
    <g id="Page-1" stroke="none" stroke-width="1" fill="none" fill-rule="evenodd">
        <g id="Send-Message-One" transform="translate(-59.000000, -98.000000)">
            <g id="accuracy-check" transform="translate(59.000000, 98.000000)">
                <g id="destination-card-copy-2" fill="#CCCC66">
                    <path d="M1.64782719,1.43315814 C2.42003524,0.641646757 3.93384591,0 5.0525011,0 L22.9935324,0 C24.1016739,0 25,0.898230174 25,1.99907745 L25,19.8740294 C25,20.9780894 24.3599884,22.4908803 23.5602638,23.2628174 L23.2002838,23.6102894 C22.4051394,24.3778054 20.8669397,25 19.752372,25 L2.00817553,25 C0.89909081,25 0,24.1015762 0,23.0004915 L0,5.12168552 C0,4.01738748 0.63114012,2.47525995 1.39820635,1.68901891 L1.64782719,1.43315814 Z" id="Rectangle"></path>
                </g>
                <g id="checkmark-copy" transform="translate(5.000000, 8.000000)" fill-rule="nonzero" fill="#FFFFFF">
                    <path d="M5.33394608,9.98709524 L5.33247549,9.98709524 C5.1727451,9.98709524 5.01936275,9.924 4.90651961,9.81435714 L0.175171569,5.185 C-0.0597794118,4.95533333 -0.0578186275,4.5847381 0.177622549,4.35745238 C0.415514706,4.1282619 0.795539216,4.13064286 1.0295098,4.35983333 L5.33490196,8.57307143 L13.9711029,0.184047619 C14.2070343,-0.0446666667 14.5880392,-0.0446666667 14.8229902,0.184047619 C15.0584314,0.412285714 15.0584314,0.782880952 14.8229902,1.01159524 L5.75987745,9.81580952 C5.64703431,9.92540476 5.49367647,9.98709524 5.33394608,9.98709524 Z" id="Shape"></path>
                </g>
            </g>
        </g>
    </g>
</svg>