<?xml version="1.0" encoding="UTF-8"?>
<svg width="40px" height="40px" viewBox="0 0 40 40" version="1.1" xmlns="http://www.w3.org/2000/svg" xmlns:xlink="http://www.w3.org/1999/xlink">
    <!-- Generator: Sketch 43.2 (39069) - http://www.bohemiancoding.com/sketch -->
    <title>animal-trade-logo</title>
    <desc>Created with Sketch.</desc>
    <defs></defs>
    <g id="Page-1" stroke="none" stroke-width="1" fill="none" fill-rule="evenodd">
        <g id="animal-trade-logo">
            <rect id="Rectangle" fill="#4A90E2" fill-rule="nonzero" x="0" y="0" width="40" height="40"></rect>
            <path d="M17.731,28 C17.534999,28 17.4020004,27.902001 17.332,27.706 L16.744,25.753 C16.7299999,25.6829996 16.6880004,25.648 16.618,25.648 L11.473,25.648 C11.4029996,25.648 11.3610001,25.6829996 11.347,25.753 L10.759,27.706 C10.6889996,27.902001 10.556001,28 10.36,28 L7.924,28 C7.79799937,28 7.70700028,27.9615004 7.651,27.8845 C7.59499972,27.8074996 7.58799979,27.7130006 7.63,27.601 L12.103,13.594 C12.1730003,13.397999 12.305999,13.3 12.502,13.3 L15.589,13.3 C15.785001,13.3 15.9179996,13.397999 15.988,13.594 L20.461,27.601 C20.4750001,27.6290001 20.482,27.6709997 20.482,27.727 C20.482,27.8110004 20.4540003,27.8774998 20.398,27.9265 C20.3419997,27.9755002 20.2650005,28 20.167,28 L17.731,28 Z M12.082,23.212 C12.0679999,23.3100005 12.1029996,23.359 12.187,23.359 L15.904,23.359 C15.9880004,23.359 16.0230001,23.3100005 16.009,23.212 L14.119,16.807 C14.1049999,16.7509997 14.0805002,16.723 14.0455,16.723 C14.0104998,16.723 13.9790001,16.7509997 13.951,16.807 L12.082,23.212 Z M32.41,13.3 C32.6480012,13.3 32.767,13.4189988 32.767,13.657 L32.767,15.505 C32.767,15.7430012 32.6480012,15.862 32.41,15.862 L28.777,15.862 C28.6929996,15.862 28.651,15.9039996 28.651,15.988 L28.651,27.643 C28.651,27.8810012 28.5320012,28 28.294,28 L26.047,28 C25.8089988,28 25.69,27.8810012 25.69,27.643 L25.69,15.988 C25.69,15.9039996 25.6480004,15.862 25.564,15.862 L22.036,15.862 C21.7979988,15.862 21.679,15.7430012 21.679,15.505 L21.679,13.657 C21.679,13.4189988 21.7979988,13.3 22.036,13.3 L32.41,13.3 Z" id="AT" fill="#FFFFFF"></path>
        </g>
    </g>
</svg>