<?xml version="1.0" encoding="UTF-8"?>
<svg width="64px" height="64px" viewBox="0 0 64 64" version="1.1" xmlns="http://www.w3.org/2000/svg" xmlns:xlink="http://www.w3.org/1999/xlink">
    <!-- Generator: Sketch 41.2 (35397) - http://www.bohemiancoding.com/sketch -->
    <title>Layer_88</title>
    <desc>Created with Sketch.</desc>
    <defs></defs>
    <g id="Page-1" stroke="none" stroke-width="1" fill="none" fill-rule="evenodd">
        <g id="Layer_88" fill="#fff">
            <g id="Group">
                <path d="M32,0 C14.327,0 0,14.328 0,32 C0,49.674 14.327,64 32,64 C49.673,64 64,49.674 64,32 C64,14.328 49.673,0 32,0 Z M32,60 C16.537,60 4,47.463 4,32 C4,16.537 16.537,4 32,4 C47.463,4 60,16.537 60,32 C60,47.463 47.463,60 32,60 Z" id="Shape"></path>
                <path d="M39.416,26.586 C38.635,25.805 37.367,25.805 36.586,26.586 L31.224,31.949 L28.564,29.289 C28.559,29.285 28.556,29.279 28.551,29.273 C27.77,28.492 26.502,28.494 25.723,29.273 C24.942,30.054 24.942,31.32 25.722,32.101 L25.721,32.103 L29.811,36.191 L29.811,36.191 C30.592,36.97 31.858,36.972 32.639,36.191 L39.406,29.423 C39.409,29.419 39.414,29.417 39.417,29.413 C40.195,28.633 40.195,27.367 39.416,26.586 Z" id="Shape"></path>
            </g>
        </g>
    </g>
</svg>