<?xml version="1.0" encoding="UTF-8"?>
<svg width="130px" height="130px" viewBox="0 0 130 130" version="1.1" xmlns="http://www.w3.org/2000/svg" xmlns:xlink="http://www.w3.org/1999/xlink">
    <!-- Generator: Sketch 43.2 (39069) - http://www.bohemiancoding.com/sketch -->
    <title>destination-card</title>
    <desc>Created with Sketch.</desc>
    <defs></defs>
    <g id="Page-1" stroke="none" stroke-width="1" fill="none" fill-rule="evenodd">
        <g id="Reis-Niet-Bekend-Copy" transform="translate(-22.000000, -204.000000)">
            <g id="destination-card" transform="translate(22.000000, 204.000000)">
                <g id="Group">
                    <path d="M16.5705682,0.0452892445 L129.117153,112.617918 L122.436264,119.356224 C121.657993,120.141183 120.135708,120.781261 119.021731,120.78594 L10.2537574,121.242747 C9.14623333,121.247399 8.24840764,120.36113 8.24840764,119.24882 L8.24840764,10.6435994 C8.24840764,9.53773248 8.87392229,7.99515606 9.64135022,7.20247963 L16.5705682,0.0452892445 Z" id="Rectangle-2" fill="#81C85B" transform="translate(68.682780, 60.644027) scale(-1, -1) translate(-68.682780, -60.644027) "></path>
                    <path d="M15.0940831,2.13380898 C15.6782804,1.53486961 16.9454902,1 17.7763681,1 L127.502086,1 C128.052165,1 128.5,1.44695673 128.5,1.9910163 L128.5,111.337896 C128.5,112.170516 127.969795,113.416273 127.360213,114.004811 L113.470265,127.415236 C112.856681,128.007636 111.56704,128.529966 110.715336,128.529966 L2.00430004,128.529966 C1.45003531,128.529966 1,128.082148 1,127.538521 L1,18.1680651 C1,17.3251996 1.51931565,16.0511327 2.1160944,15.4392944 L15.0940831,2.13380898 L15.0940831,2.13380898 Z" id="Rectangle-Copy" stroke="#E5E5E5" stroke-width="2"></path>
                </g>
                <g id="checkmark" transform="translate(63.000000, 17.500000)" fill-rule="nonzero" fill="#030303">
                    <path d="M16.713031,32.0561398 C16.2079346,32.0561398 15.7273366,31.8536195 15.3737614,31.5016927 L0.548870915,16.6425854 C-0.187308824,15.9054114 -0.181165033,14.7158911 0.556550654,13.9863593 C1.30194608,13.2507138 2.49268954,13.2583561 3.22579739,13.9940016 L16.7160261,27.5174683 L43.7761225,0.590747967 C44.5153742,-0.143369106 45.7091895,-0.143369106 46.4453693,0.590747967 C47.183085,1.32333659 47.183085,2.51285691 46.4453693,3.24697398 L18.047616,31.5063545 C17.6940408,31.8581285 17.2135196,32.0561398 16.713031,32.0561398 Z" id="Shape"></path>
                </g>
                <path d="M15.1663764,93.2273092 L17.6273139,93.2273092 L17.6273139,73.4987936 L15.1800483,73.4987936 L9.93004827,77.2722311 L9.93004827,79.8698874 L14.9476264,76.2331686 L15.1663764,76.2331686 L15.1663764,93.2273092 Z M25.7912983,90.9714499 C26.7756733,90.9714499 27.568642,90.1648092 27.568642,89.1941061 C27.568642,88.2097311 26.7756733,87.4167624 25.7912983,87.4167624 C24.8205952,87.4167624 24.0139545,88.2097311 24.0139545,89.1941061 C24.0139545,90.1648092 24.8205952,90.9714499 25.7912983,90.9714499 Z M25.7912983,80.457778 C26.7756733,80.457778 27.568642,79.6511374 27.568642,78.6804342 C27.568642,77.6960592 26.7756733,76.9030905 25.7912983,76.9030905 C24.8205952,76.9030905 24.0139545,77.6960592 24.0139545,78.6804342 C24.0139545,79.6511374 24.8205952,80.457778 25.7912983,80.457778 Z M36.3752045,84.1355124 L38.8771577,84.1355124 C41.679892,84.1355124 43.4162202,85.5573874 43.4162202,87.8405905 C43.4162202,90.0007467 41.570517,91.5456686 38.9728608,91.5456686 C36.429892,91.5456686 34.6525483,90.192153 34.4337983,88.0866842 L32.054892,88.0866842 C32.2326264,91.4636374 34.9943452,93.692153 39.0002045,93.692153 C42.8966889,93.692153 45.945517,91.1628561 45.945517,87.9089499 C45.945517,85.2155905 44.3185639,83.3562155 41.6388764,83.0144186 L41.6388764,82.7956686 C43.7990327,82.2761374 45.0978608,80.5534811 45.0978608,78.2019186 C45.0978608,75.3308249 42.3498139,73.0339499 38.9045014,73.0339499 C35.1447358,73.0339499 32.6974702,75.1394186 32.4513764,78.5573874 L34.8439545,78.5573874 C35.0490327,76.4382467 36.539267,75.1804342 38.8087983,75.1804342 C41.0783295,75.1804342 42.5959077,76.520278 42.5959077,78.5300436 C42.5959077,80.5808249 41.0099702,82.0300436 38.7677827,82.0300436 L36.3752045,82.0300436 L36.3752045,84.1355124 Z M56.8575483,93.692153 C52.4141889,93.692153 49.8575483,89.9187155 49.8575483,83.3562155 C49.8575483,76.848403 52.4415327,73.0339499 56.8575483,73.0339499 C61.2462202,73.0339499 63.8302046,76.8620749 63.8302046,83.3972311 C63.8302046,89.9460592 61.2872358,93.692153 56.8575483,93.692153 Z M56.8575483,91.5456686 C59.7696577,91.5456686 61.3555952,88.6472311 61.3555952,83.3562155 C61.3555952,78.1198874 59.7423139,75.1941061 56.8575483,75.1941061 C53.9727827,75.1941061 52.3321577,78.1472311 52.3321577,83.3562155 C52.3321577,88.6335592 53.9454389,91.5456686 56.8575483,91.5456686 Z M9.50817327,114.227309 L10.7679389,114.227309 L10.7679389,109.554458 C10.7679389,108.22145 11.5443061,107.327895 12.9578803,107.327895 C14.151728,107.327895 14.7816108,108.023696 14.7816108,109.422622 L14.7816108,114.227309 L16.0413764,114.227309 L16.0413764,109.115005 C16.0413764,107.261977 14.9866889,106.192641 13.316767,106.192641 C12.1082709,106.192641 11.2806342,106.705337 10.8851264,107.576919 L10.7679389,107.576919 L10.7679389,103.197036 L9.50817327,103.197036 L9.50817327,114.227309 Z M21.91581,114.366469 C19.6672748,114.366469 18.2756733,112.813735 18.2756733,110.279555 C18.2756733,107.738051 19.6672748,106.192641 21.91581,106.192641 C24.1643452,106.192641 25.5559467,107.738051 25.5559467,110.279555 C25.5559467,112.813735 24.1643452,114.366469 21.91581,114.366469 Z M21.91581,113.231215 C23.4099506,113.231215 24.2522358,112.147231 24.2522358,110.279555 C24.2522358,108.404555 23.4099506,107.327895 21.91581,107.327895 C20.4216694,107.327895 19.5793842,108.404555 19.5793842,110.279555 C19.5793842,112.147231 20.4216694,113.231215 21.91581,113.231215 Z M34.2502045,106.331801 L32.9904389,106.331801 L32.9904389,111.004653 C32.9904389,112.38893 32.2287202,113.216567 30.8371186,113.216567 C29.577353,113.216567 29.0500092,112.557387 29.0500092,111.136489 L29.0500092,106.331801 L27.7902436,106.331801 L27.7902436,111.444106 C27.7902436,113.311782 28.7130952,114.366469 30.4855561,114.366469 C31.6940522,114.366469 32.5363374,113.868423 32.9318452,112.989516 L33.0490327,112.989516 L33.0490327,114.227309 L34.2502045,114.227309 L34.2502045,106.331801 Z M36.9532514,114.227309 L38.2130171,114.227309 L38.2130171,109.334731 C38.2130171,108.22145 39.0845991,107.415786 40.285771,107.415786 C40.5347944,107.415786 40.988896,107.459731 41.091435,107.489028 L41.091435,106.229262 C40.9303022,106.20729 40.6666303,106.192641 40.4615522,106.192641 C39.4141889,106.192641 38.5059858,106.734633 38.2716108,107.503676 L38.1544233,107.503676 L38.1544233,106.331801 L36.9532514,106.331801 L36.9532514,114.227309 Z M47.6327827,114.227309 L48.8925483,114.227309 L48.8925483,103.197036 L47.6327827,103.197036 L47.6327827,114.227309 Z M54.8182515,107.305923 C53.5584858,107.305923 52.6795796,108.228774 52.5843648,109.6277 L56.9349507,109.6277 C56.9056538,108.228774 56.0706929,107.305923 54.8182515,107.305923 Z M56.8983296,112.183852 L58.1580952,112.183852 C57.7772358,113.538833 56.5614155,114.366469 54.8328999,114.366469 C52.6429585,114.366469 51.2733296,112.784438 51.2733296,110.28688 C51.2733296,107.803969 52.6649312,106.192641 54.8328999,106.192641 C56.9642476,106.192641 58.2606343,107.708755 58.2606343,110.162368 L58.2606343,110.645766 L52.5843648,110.645766 L52.5843648,110.70436 C52.6502827,112.264419 53.5218648,113.253188 54.8621968,113.253188 C55.8802632,113.253188 56.5687398,112.879653 56.8983296,112.183852 Z M61.0955171,114.227309 L62.3552827,114.227309 L62.3552827,107.386489 L64.1643648,107.386489 L64.1643648,106.331801 L62.3552827,106.331801 L62.3552827,105.489516 C62.3552827,104.625258 62.7361421,104.185805 63.6443452,104.185805 C63.871396,104.185805 64.0837984,104.19313 64.237607,104.222426 L64.237607,103.197036 C63.9739351,103.145766 63.6956148,103.123794 63.3879976,103.123794 C61.8865327,103.123794 61.0955171,103.878188 61.0955171,105.452895 L61.0955171,106.331801 L59.784482,106.331801 L59.784482,107.386489 L61.0955171,107.386489 L61.0955171,114.227309 Z M66.8527632,104.288344 L66.8527632,106.331801 L65.5783492,106.331801 L65.5783492,107.386489 L66.8527632,107.386489 L66.8527632,112.176528 C66.8527632,113.685317 67.5046187,114.285903 69.1305952,114.285903 C69.3796187,114.285903 69.6213179,114.256606 69.8703413,114.212661 L69.8703413,113.150649 C69.6359663,113.172622 69.5114546,113.179946 69.2844038,113.179946 C68.4640913,113.179946 68.1125288,112.784438 68.1125288,111.854262 L68.1125288,107.386489 L69.8703413,107.386489 L69.8703413,106.331801 L68.1125288,106.331801 L68.1125288,104.288344 L66.8527632,104.288344 Z" id="1:30-hour-left" fill="#030303"></path>
            </g>
        </g>
    </g>
</svg>