<?xml version="1.0" encoding="UTF-8"?>
<svg width="130px" height="131px" viewBox="0 0 130 131" version="1.1" xmlns="http://www.w3.org/2000/svg" xmlns:xlink="http://www.w3.org/1999/xlink">
    <!-- Generator: Sketch 43.2 (39069) - http://www.bohemiancoding.com/sketch -->
    <title>destination-card copy</title>
    <desc>Created with Sketch.</desc>
    <defs></defs>
    <g id="Page-1" stroke="none" stroke-width="1" fill="none" fill-rule="evenodd">
        <g id="Reis-Niet-Bekend-Copy" transform="translate(-168.000000, -204.000000)">
            <g id="Artist-cover-2" transform="translate(168.000000, 204.500000)">
                <g id="destination-card-copy">
                    <path d="M14.8974423,93.4458599 L17.2763485,93.4458599 L17.2763485,73.7173442 L14.8700985,73.7173442 L14.0771298,74.2847271 C13.5484813,74.6629842 12.9378103,75.1027584 12.2450985,75.604063 C11.5523867,76.1053676 10.9417158,76.5451418 10.4130673,76.9233989 L9.62009853,77.4907817 L9.62009853,79.9653911 L10.4062313,79.4185161 C10.9303225,79.053931 11.5387149,78.6301071 12.2314267,78.1470317 C12.9241384,77.6639564 13.5325308,77.2401325 14.056622,76.8755474 L14.8427548,76.3286724 L14.8974423,76.3286724 L14.8974423,93.4458599 Z M24.9208017,90.1646099 C25.3583039,90.1646099 25.7274408,90.0142208 26.0282235,89.713438 C26.3290063,89.4126552 26.4793954,89.0435183 26.4793954,88.6060161 C26.4793954,88.1685139 26.3290063,87.799377 26.0282235,87.4985942 C25.7274408,87.1978115 25.3583039,87.0474224 24.9208017,87.0474224 C24.4832995,87.0474224 24.1141625,87.1978115 23.8133798,87.4985942 C23.512597,87.799377 23.3622079,88.1685139 23.3622079,88.6060161 C23.3622079,89.0435183 23.512597,89.4126552 23.8133798,89.713438 C24.1141625,90.0142208 24.4832995,90.1646099 24.9208017,90.1646099 Z M24.9208017,80.1021099 C25.3583039,80.1021099 25.7274408,79.9517208 26.0282235,79.650938 C26.3290063,79.3501552 26.4793954,78.9810183 26.4793954,78.5435161 C26.4793954,78.1060139 26.3290063,77.736877 26.0282235,77.4360942 C25.7274408,77.1353115 25.3583039,76.9849224 24.9208017,76.9849224 C24.4832995,76.9849224 24.1141625,77.1353115 23.8133798,77.4360942 C23.512597,77.736877 23.3622079,78.1060139 23.3622079,78.5435161 C23.3622079,78.9810183 23.512597,79.3501552 23.8133798,79.650938 C24.1141625,79.9517208 24.4832995,80.1021099 24.9208017,80.1021099 Z M37.6648642,93.7739849 C35.3588631,93.7739849 33.570144,92.8534212 32.2986532,91.0122661 C31.0271625,89.1711111 30.3914267,86.6919692 30.3914267,83.5747661 C30.3914267,80.4849069 31.0317198,78.0148795 32.3123251,76.1646099 C33.5929305,74.3143402 35.3770923,73.3892192 37.6648642,73.3892192 C39.952636,73.3892192 41.7322406,74.309783 43.0037314,76.150938 C44.2752221,77.992093 44.9109579,80.4621204 44.9109579,83.5610942 C44.9109579,86.6782973 44.2775007,89.1597178 43.0105673,91.0054302 C41.7436339,92.8511425 39.9617507,93.7739849 37.6648642,93.7739849 Z M37.6648642,91.6275005 C39.2052365,91.6275005 40.3855632,90.9006197 41.2058798,89.4468364 C42.0261964,87.9930531 42.4363486,86.0357159 42.4363486,83.5747661 C42.4363486,81.1502748 42.0216392,79.2066094 41.1922079,77.7437114 C40.3627767,76.2808135 39.1870072,75.5493755 37.6648642,75.5493755 C36.1427212,75.5493755 34.9623944,76.2830921 34.1238486,77.7505474 C33.2853027,79.2180026 32.8660361,81.1548322 32.8660361,83.5610942 C32.8660361,86.0220441 33.2807454,87.9816599 34.1101767,89.4400005 C34.9396079,90.8983411 36.1244919,91.6275005 37.6648642,91.6275005 Z M55.2077548,93.7739849 C57.2676609,93.7739849 58.953842,93.1450849 60.2663486,91.8872661 C61.5788551,90.6294473 62.2350986,89.011625 62.2350986,87.0337505 C62.2350986,85.1379077 61.622149,83.5747723 60.3962314,82.3442974 C59.1703138,81.1138225 57.609457,80.4985942 55.7136142,80.4985942 C54.7565782,80.4985942 53.8861442,80.6717696 53.1022861,81.0181255 C52.318428,81.3644814 51.6940853,81.8703357 51.2292392,82.5357036 L51.1745517,82.5357036 L51.8444736,75.9048442 L61.1140048,75.9048442 L61.1140048,73.7173442 L49.8210361,73.7173442 L48.8093173,84.9692974 L50.9831454,84.9692974 C51.4388769,84.1763247 52.0335975,83.5861613 52.7673251,83.1987896 C53.5010528,82.8114178 54.3373074,82.6177349 55.2761142,82.6177349 C56.5886208,82.6177349 57.6664095,83.0392801 58.5095126,83.8823833 C59.3526158,84.7254865 59.7741611,85.7987179 59.7741611,87.1021099 C59.7741611,88.4237311 59.3526158,89.506077 58.5095126,90.3491802 C57.6664095,91.1922834 56.574949,91.6138286 55.2350986,91.6138286 C54.0501968,91.6138286 53.0521599,91.2834283 52.2409579,90.6226177 C51.429756,89.9618071 50.9694741,89.1073234 50.8600986,88.0591411 L48.4401767,88.0591411 C48.5404376,89.7362328 49.2217459,91.1079639 50.484122,92.1743755 C51.7464981,93.2407871 53.3210266,93.7739849 55.2077548,93.7739849 Z M9.5400204,113.44586 L10.799786,113.44586 L10.799786,108.773008 C10.799786,107.44 11.5761532,106.546446 12.9897274,106.546446 C14.1835751,106.546446 14.8134579,107.242247 14.8134579,108.641172 L14.8134579,113.44586 L16.0732235,113.44586 L16.0732235,108.333555 C16.0732235,106.480528 15.018536,105.411192 13.3486142,105.411192 C12.1401181,105.411192 11.3124813,105.923887 10.9169735,106.795469 L10.799786,106.795469 L10.799786,102.415586 L9.5400204,102.415586 L9.5400204,113.44586 Z M21.9476571,113.58502 C19.699122,113.58502 18.3075204,112.032286 18.3075204,109.498106 C18.3075204,106.956602 19.699122,105.411192 21.9476571,105.411192 C24.1961923,105.411192 25.5877939,106.956602 25.5877939,109.498106 C25.5877939,112.032286 24.1961923,113.58502 21.9476571,113.58502 Z M21.9476571,112.449766 C23.4417978,112.449766 24.2840829,111.365782 24.2840829,109.498106 C24.2840829,107.623106 23.4417978,106.546446 21.9476571,106.546446 C20.4535165,106.546446 19.6112314,107.623106 19.6112314,109.498106 C19.6112314,111.365782 20.4535165,112.449766 21.9476571,112.449766 Z M34.2820517,105.550352 L33.0222861,105.550352 L33.0222861,110.223204 C33.0222861,111.607481 32.2605673,112.435118 30.8689657,112.435118 C29.6092001,112.435118 29.0818564,111.775938 29.0818564,110.35504 L29.0818564,105.550352 L27.8220907,105.550352 L27.8220907,110.662657 C27.8220907,112.530333 28.7449423,113.58502 30.5174032,113.58502 C31.7258993,113.58502 32.5681845,113.086973 32.9636923,112.208067 L33.0808798,112.208067 L33.0808798,113.44586 L34.2820517,113.44586 L34.2820517,105.550352 Z M36.9850986,113.44586 L38.2448642,113.44586 L38.2448642,108.553282 C38.2448642,107.44 39.1164462,106.634336 40.3176181,106.634336 C40.5666415,106.634336 41.0207431,106.678282 41.1232822,106.707579 L41.1232822,105.447813 C40.9621493,105.42584 40.6984775,105.411192 40.4933993,105.411192 C39.4460361,105.411192 38.5378329,105.953184 38.3034579,106.722227 L38.1862704,106.722227 L38.1862704,105.550352 L36.9850986,105.550352 L36.9850986,113.44586 Z M47.6646298,113.44586 L48.9243955,113.44586 L48.9243955,102.415586 L47.6646298,102.415586 L47.6646298,113.44586 Z M54.8500986,106.524473 C53.590333,106.524473 52.7114267,107.447325 52.6162119,108.84625 L56.9667978,108.84625 C56.9375009,107.447325 56.10254,106.524473 54.8500986,106.524473 Z M56.9301767,111.402403 L58.1899424,111.402403 C57.809083,112.757383 56.5932627,113.58502 54.864747,113.58502 C52.6748056,113.58502 51.3051767,112.002989 51.3051767,109.50543 C51.3051767,107.02252 52.6967783,105.411192 54.864747,105.411192 C56.9960947,105.411192 58.2924814,106.927305 58.2924814,109.380918 L58.2924814,109.864317 L52.6162119,109.864317 L52.6162119,109.922911 C52.6821299,111.482969 53.5537119,112.471739 54.8940439,112.471739 C55.9121103,112.471739 56.6005869,112.098204 56.9301767,111.402403 Z M61.1273642,113.44586 L62.3871299,113.44586 L62.3871299,106.60504 L64.1962119,106.60504 L64.1962119,105.550352 L62.3871299,105.550352 L62.3871299,104.708067 C62.3871299,103.843809 62.7679892,103.404356 63.6761924,103.404356 C63.9032432,103.404356 64.1156455,103.41168 64.2694541,103.440977 L64.2694541,102.415586 C64.0057822,102.364317 63.7274619,102.342344 63.4198447,102.342344 C61.9183799,102.342344 61.1273642,103.096739 61.1273642,104.671446 L61.1273642,105.550352 L59.8163291,105.550352 L59.8163291,106.60504 L61.1273642,106.60504 L61.1273642,113.44586 Z M66.8846104,103.506895 L66.8846104,105.550352 L65.6101963,105.550352 L65.6101963,106.60504 L66.8846104,106.60504 L66.8846104,111.395079 C66.8846104,112.903868 67.5364658,113.504454 69.1624424,113.504454 C69.4114658,113.504454 69.653165,113.475157 69.9021885,113.431211 L69.9021885,112.3692 C69.6678135,112.391172 69.5433018,112.398497 69.316251,112.398497 C68.4959385,112.398497 68.144376,112.002989 68.144376,111.072813 L68.144376,106.60504 L69.9021885,106.60504 L69.9021885,105.550352 L68.144376,105.550352 L68.144376,103.506895 L66.8846104,103.506895 Z" id="1:05-hour-left" fill="#030303"></path>
                    <path d="M16.6345473,0.043953264 L129.615675,113.025081 L122.908991,119.787839 C122.127715,120.575646 120.599552,121.218048 119.493338,121.222692 L10.2812837,121.681259 C9.17614593,121.685899 8.28025478,120.796392 8.28025478,119.680046 L8.28025478,10.6807221 C8.28025478,9.57084232 8.90818454,8.02266826 9.66917436,7.2368236 L16.6345473,0.043953264 Z" id="Rectangle-2" fill="#CCCC66" transform="translate(68.947965, 60.863340) scale(-1, -1) translate(-68.947965, -60.863340) "></path>
                    <path d="M15.1633989,2.12487194 C15.7466581,1.52703264 16.9987107,1 17.8450027,1 L127.994372,1 C128.548757,1 129,1.4502536 129,1.99824123 L129,111.741914 C129,112.57592 128.469229,113.827876 127.869295,114.406965 L113.896559,127.894199 C113.289596,128.480072 112.001146,129 111.154866,129 L1.99998141,129 C1.44938934,129 1,128.550233 1,128.001328 L1,18.2339927 C1,17.3897251 1.51988213,16.1094438 2.10753781,15.5070981 L15.1633989,2.12487194 L15.1633989,2.12487194 Z" id="Rectangle" stroke="#E5E5E5" stroke-width="2"></path>
                    <path d="M85.8473437,23.0703125 L90.945,23.0703125 L90.945,21.3359375 L85.8473437,21.3359375 L85.8473437,16.2382812 L84.1129687,16.2382812 L84.1129687,21.3359375 L79.0153125,21.3359375 L79.0153125,23.0703125 L84.1129687,23.0703125 L84.1129687,28.1679688 L85.8473437,28.1679688 L85.8473437,23.0703125 Z M99.0010937,29 L101.110469,29 L101.110469,12.0898438 L99.0128125,12.0898438 L94.5128125,15.3242188 L94.5128125,17.5507812 L98.8135937,14.4335938 L99.0010937,14.4335938 L99.0010937,29 Z M112.143125,29.3984375 C108.334531,29.3984375 106.143125,26.1640625 106.143125,20.5390625 C106.143125,14.9609375 108.357969,11.6914062 112.143125,11.6914062 C115.904844,11.6914062 118.119687,14.9726562 118.119687,20.5742188 C118.119687,26.1875 115.94,29.3984375 112.143125,29.3984375 Z M112.143125,27.5585938 C114.639219,27.5585938 115.998594,25.0742188 115.998594,20.5390625 C115.998594,16.0507812 114.615781,13.5429688 112.143125,13.5429688 C109.670469,13.5429688 108.264219,16.0742188 108.264219,20.5390625 C108.264219,25.0625 109.647031,27.5585938 112.143125,27.5585938 Z M80.4854687,58 L82.5010937,58 L82.5010937,50.171875 C82.5010937,48.390625 83.7784375,46.9609375 85.4307812,46.9609375 C87.0245312,46.9609375 88.0675,47.921875 88.0675,49.421875 L88.0675,58 L90.083125,58 L90.083125,49.8789062 C90.083125,48.2734375 91.255,46.9609375 93.0128125,46.9609375 C94.7940625,46.9609375 95.6729687,47.875 95.6729687,49.7382812 L95.6729687,58 L97.6885937,58 L97.6885937,49.2695312 C97.6885937,46.6210938 96.2471875,45.1445312 93.6690625,45.1445312 C91.9229687,45.1445312 90.4815625,46.0234375 89.801875,47.359375 L89.614375,47.359375 C89.0284375,46.046875 87.833125,45.1445312 86.1221875,45.1445312 C84.4346875,45.1445312 83.1690625,45.953125 82.5948437,47.359375 L82.4073437,47.359375 L82.4073437,45.3671875 L80.4854687,45.3671875 L80.4854687,58 Z M101.725156,58 L103.740781,58 L103.740781,45.3671875 L101.725156,45.3671875 L101.725156,58 Z M102.732969,42.8007812 C103.506406,42.8007812 104.139219,42.1679688 104.139219,41.3945312 C104.139219,40.6210938 103.506406,39.9882812 102.732969,39.9882812 C101.959531,39.9882812 101.326719,40.6210938 101.326719,41.3945312 C101.326719,42.1679688 101.959531,42.8007812 102.732969,42.8007812 Z M107.894531,58 L109.910156,58 L109.910156,50.5234375 C109.910156,48.3085938 111.210938,46.9609375 113.226562,46.9609375 C115.242188,46.9609375 116.203125,48.0390625 116.203125,50.3125 L116.203125,58 L118.21875,58 L118.21875,49.8203125 C118.21875,46.8203125 116.636719,45.1445312 113.800781,45.1445312 C111.867188,45.1445312 110.636719,45.9648438 110.003906,47.359375 L109.816406,47.359375 L109.816406,45.3671875 L107.894531,45.3671875 L107.894531,58 Z" id="+10-min" fill="#030303"></path>
                </g>
            </g>
        </g>
    </g>
</svg>