<?xml version="1.0" encoding="UTF-8" standalone="no"?>
<svg width="31px" height="20px" viewBox="0 0 31 20" version="1.1" xmlns="http://www.w3.org/2000/svg" xmlns:xlink="http://www.w3.org/1999/xlink">
    <!-- Generator: Sketch 39.1 (31720) - http://www.bohemiancoding.com/sketch -->
    <title>lastfm</title>
    <desc>Created with Sketch.</desc>
    <defs></defs>
    <g id="Page-1" stroke="none" stroke-width="1" fill="none" fill-rule="evenodd">
        <g id="lastfm" fill="#FFFFFF">
            <g id="XMLID_5_">
                <path d="M26.0269111,7.80953968 C25.7623778,7.719 25.5064063,7.63505397 25.2605714,7.55425714 C23.3095397,6.91447619 22.6349206,6.6378381 22.6349206,5.55146032 C22.6349206,4.60945397 23.3040286,3.95126984 24.2619778,3.95126984 C25.0479016,3.95126984 25.590746,4.27672063 26.1356571,5.07415873 C26.3478349,5.38494603 26.760381,5.48631111 27.092327,5.30926667 L28.9767333,4.30496508 C29.1501365,4.21265397 29.2794508,4.05489841 29.3361365,3.86673333 C29.3928222,3.67876508 29.372254,3.47573968 29.2788603,3.30292698 C28.1842159,1.27601905 26.5319651,0.248492063 24.3680667,0.248492063 C22.7352032,0.248492063 21.3519143,0.762895238 20.3671968,1.73619683 C19.3911397,2.70093651 18.8752603,4.04426984 18.8752603,5.62064444 C18.8752603,8.928 20.9711556,10.2960349 24.5893968,11.5407587 C26.6604921,12.260254 27.1446825,12.5383683 27.1446825,13.6193333 C27.1446825,14.955581 25.9905968,15.9255365 24.4004444,15.9255365 C24.3526159,15.9255365 24.304,15.9247492 24.2547937,15.9230762 C22.5446762,15.8633397 22.0183651,15.0287016 21.2247651,13.1382921 C19.9506159,10.1058032 18.4611397,6.47240635 18.3506222,6.19596508 C18.3494413,6.19291429 18.3481619,6.18966667 18.346981,6.18651746 C16.7314381,2.29577143 13.5191492,0.0643619048 9.53363175,0.0643619048 C4.27672063,0.0643619048 0,4.51714286 0,9.99066032 C0,15.4622095 4.27672063,19.9134159 9.53353333,19.9134159 C12.4088571,19.9134159 15.0996571,18.5858286 16.9160603,16.2707683 C17.0808032,16.060854 17.1191841,15.7783111 17.0169333,15.5318857 L15.8811524,12.7978825 C15.7704381,12.5310857 15.5141714,12.3536476 15.2257238,12.3433143 C14.9358984,12.332981 14.6692984,12.4921143 14.5396889,12.7502508 C13.5578254,14.7086635 11.6395651,15.9252413 9.53353333,15.9252413 C6.41798413,15.9252413 3.88326667,13.2628825 3.88326667,9.99066032 C3.88326667,6.71745397 6.41798413,4.05440635 9.53353333,4.05440635 C11.7998794,4.05440635 13.8735333,5.45905079 14.6935079,7.54963175 C14.6957714,7.55504444 14.6979365,7.56055556 14.7002,7.56596825 L17.5122444,14.2562603 L17.8363175,15.0058698 C19.1954952,18.3127333 21.2092159,19.7938444 24.3668857,19.8081143 L24.3799746,19.8081143 C28.1539048,19.8081143 31,17.1805937 31,13.6963905 C31,10.2028381 29.0966984,8.85369841 26.0269111,7.80953968 L26.0269111,7.80953968 Z" id="XMLID_6_"></path>
            </g>
        </g>
    </g>
</svg>