<?xml version="1.0" encoding="UTF-8"?>
<svg width="100px" height="100px" viewBox="0 0 100 100" version="1.1" xmlns="http://www.w3.org/2000/svg" xmlns:xlink="http://www.w3.org/1999/xlink">
    <!-- Generator: Sketch 43.2 (39069) - http://www.bohemiancoding.com/sketch -->
    <title>logo-ns</title>
    <desc>Created with Sketch.</desc>
    <defs></defs>
    <g id="Page-1" stroke="none" stroke-width="1" fill="none" fill-rule="evenodd">
        <g id="logo-ns" fill-rule="nonzero">
            <circle id="Oval" fill="#FFFFFF" cx="50" cy="50" r="50"></circle>
            <g id="Logo_NS" transform="translate(6.000000, 31.000000)" fill="#16213B">
                <g id="g12" transform="translate(45.000328, 18.970583) scale(-1, 1) translate(-45.000328, -18.970583) translate(0.000328, 0.970583)">
                    <g id="g14">
                        <g id="g16">
                            <g id="g18-Clipped">
                                <g id="g18" transform="translate(0.480834, 0.634207)">
                                    <path d="M37.6816323,27.708284 C38.4643186,27.708284 39.0481003,27.3170435 39.6351663,26.7359303 L49.5863457,16.7878299 C51.5396744,14.8373749 53.6830811,13.8590684 56.6116373,13.8590684 L75.1504019,13.8590684 L68.3205252,7.02939702 L50.9497346,7.02939702 C49.9745072,7.02939702 49.3935992,7.22501726 48.8067384,7.811878 L38.85248,17.7599784 C36.9020251,19.7163861 34.7588236,20.6887398 31.8300621,20.6887398 L13.2912976,20.6887398 L20.1211743,27.708284 L37.6816323,27.708284 L37.6816323,27.708284 Z M44.5143827,31.6091939 C42.5639278,33.5658069 40.218948,34.5379554 37.6816323,34.5379554 L17.3880331,34.5379554 L0.020198355,17.3746906 L17.3880331,0.00985285609 L27.1464659,0.00985285609 L13.2912976,13.8590684 L31.8300621,13.8590684 C32.6096694,13.8590684 33.3892766,13.6634482 33.9763426,13.0765874 L43.9273167,2.93266156 C45.8777717,0.982206591 48.2196724,0.00985285609 50.7571934,0.00985285609 L71.2464129,0.00985285609 L88.4215832,17.3746906 L71.2464129,34.5379554 L61.2952335,34.5379554 L75.1504019,20.6887398 L56.6116373,20.6887398 C55.8291564,20.6887398 55.2480431,21.0799803 54.6609771,21.4654733 L44.5143827,31.6091939 Z" id="path24"></path>
                                </g>
                            </g>
                        </g>
                    </g>
                </g>
            </g>
        </g>
    </g>
</svg>