<?xml version="1.0" encoding="UTF-8" standalone="no"?>
<svg width="64px" height="44px" viewBox="0 0 64 44" version="1.1" xmlns="http://www.w3.org/2000/svg" xmlns:xlink="http://www.w3.org/1999/xlink">
    <!-- Generator: Sketch 39.1 (31720) - http://www.bohemiancoding.com/sketch -->
    <title>email 3</title>
    <desc>Created with Sketch.</desc>
    <defs></defs>
    <g id="Page-1" stroke="none" stroke-width="1" fill="none" fill-rule="evenodd">
        <g id="email-3" fill="#FFFFFF">
            <g id="Layer_10">
                <g id="Group">
                    <path d="M32,16 L32,16 L32,16 L10,16 L10,16 C8.896,16 8,16.896 8,18 C8,19.104 8.896,20 10,20 L10,20 L32,20 L32,20 L32,20 C33.104,20 34,19.104 34,18 C34,16.896 33.104,16 32,16 L32,16 Z" id="Shape"></path>
                    <path d="M32,24 L32,24 L32,24 L10,24 L10,24 C8.896,24 8,24.895 8,26 C8,27.104 8.896,28 10,28 L10,28 L32,28 L32,28 L32,28 C33.104,28 34,27.104 34,26 C34,24.895 33.104,24 32,24 L32,24 Z" id="Shape"></path>
                    <path d="M23,32 L23,32 L23,32 L10,32 L10,32 C8.896,32 8,32.895 8,34 C8,35.104 8.896,36 10,36 L10,36 L23,36 L23,36 L23,36 C24.104,36 25,35.104 25,34 C25,32.895 24.104,32 23,32 L23,32 Z" id="Shape"></path>
                    <path d="M58,0 L6,0 C2.691,0 0,2.691 0,6 L0,38 C0,41.309 2.691,44 6,44 L58,44 C61.309,44 64,41.309 64,38 L64,6 C64,2.691 61.309,0 58,0 L58,0 Z M60,38 C60,39.104 59.104,40 58,40 L6,40 C4.896,40 4,39.104 4,38 L4,6 C4,4.896 4.896,4 6,4 L58,4 C59.104,4 60,4.896 60,6 L60,38 L60,38 Z" id="Shape"></path>
                    <path d="M54,8 L46,8 C44.896,8 44,8.896 44,10 L44,18 C44,19.104 44.896,20 46,20 L54,20 C55.104,20 56,19.104 56,18 L56,10 C56,8.896 55.104,8 54,8 L54,8 Z M52,16 L48,16 L48,12 L52,12 L52,16 L52,16 Z" id="Shape"></path>
                </g>
            </g>
        </g>
    </g>
</svg>