<?xml version="1.0" encoding="UTF-8"?>
<svg width="512px" height="512px" viewBox="0 0 512 512" version="1.1" xmlns="http://www.w3.org/2000/svg" xmlns:xlink="http://www.w3.org/1999/xlink">
    <!-- Generator: Sketch 43.2 (39069) - http://www.bohemiancoding.com/sketch -->
    <title>external</title>
    <desc>Created with Sketch.</desc>
    <defs></defs>
    <g id="Page-1" stroke="none" stroke-width="1" fill="none" fill-rule="evenodd">
        <g id="external" fill-rule="nonzero" fill="#AFB2BA">
            <path d="M412.88,261.464 C401.457,261.464 392.198,270.723 392.198,282.146 L392.198,439.025 C392.198,456.455 378.017,470.636 360.586,470.636 L72.975,470.636 C55.545,470.636 41.364,456.455 41.364,439.025 L41.364,151.414 C41.364,133.984 55.545,119.803 72.975,119.803 L229.854,119.803 C241.276,119.803 250.536,110.543 250.536,99.121 C250.536,87.699 241.276,78.439 229.854,78.439 L72.975,78.439 C32.737,78.439 0,111.176 0,151.414 L0,439.025 C0,479.264 32.737,512 72.975,512 L360.585,512 C400.824,512 433.561,479.264 433.562,439.025 L433.562,282.146 C433.562,270.723 424.303,261.464 412.88,261.464 Z" id="Shape"></path>
            <path d="M491.318,0 L334.439,0 C323.016,0 313.757,9.26 313.757,20.682 C313.757,32.104 323.016,41.364 334.439,41.364 L470.636,41.364 L470.636,177.561 C470.636,188.983 479.895,198.243 491.318,198.243 C502.741,198.243 512,188.983 512,177.561 L512,20.682 C512,9.26 502.741,0 491.318,0 Z" id="Shape"></path>
            <path d="M505.942,6.058 C497.865,-2.018 484.77,-2.018 476.693,6.058 L189.082,293.668 C181.005,301.745 181.005,314.84 189.082,322.917 C193.12,326.956 198.414,328.975 203.707,328.975 C209.001,328.975 214.294,326.955 218.332,322.917 L505.942,35.307 C514.019,27.23 514.019,14.135 505.942,6.058 Z" id="Shape"></path>
        </g>
    </g>
</svg>