<?xml version="1.0" encoding="UTF-8"?>
<svg width="330px" height="265px" viewBox="0 0 330 265" version="1.1" xmlns="http://www.w3.org/2000/svg" xmlns:xlink="http://www.w3.org/1999/xlink">
    <!-- Generator: Sketch 43.2 (39069) - http://www.bohemiancoding.com/sketch -->
    <title>Order-Food-One</title>
    <desc>Created with Sketch.</desc>
    <defs>
        <rect id="path-1" x="5" y="33" width="320" height="222" rx="5"></rect>
        <filter x="-2.2%" y="-2.3%" width="104.4%" height="106.3%" filterUnits="objectBoundingBox" id="filter-2">
            <feOffset dx="0" dy="2" in="SourceAlpha" result="shadowOffsetOuter1"></feOffset>
            <feGaussianBlur stdDeviation="2" in="shadowOffsetOuter1" result="shadowBlurOuter1"></feGaussianBlur>
            <feColorMatrix values="0 0 0 0 0   0 0 0 0 0   0 0 0 0 0  0 0 0 0.5 0" type="matrix" in="shadowBlurOuter1"></feColorMatrix>
        </filter>
        <filter x="-6.7%" y="-19.0%" width="113.3%" height="147.6%" filterUnits="objectBoundingBox" id="filter-3">
            <feOffset dx="0" dy="1" in="SourceAlpha" result="shadowOffsetOuter1"></feOffset>
            <feGaussianBlur stdDeviation="1.5" in="shadowOffsetOuter1" result="shadowBlurOuter1"></feGaussianBlur>
            <feColorMatrix values="0 0 0 0 0   0 0 0 0 0   0 0 0 0 0  0 0 0 0.1 0" type="matrix" in="shadowBlurOuter1" result="shadowMatrixOuter1"></feColorMatrix>
            <feMerge>
                <feMergeNode in="shadowMatrixOuter1"></feMergeNode>
                <feMergeNode in="SourceGraphic"></feMergeNode>
            </feMerge>
        </filter>
        <filter x="-6.7%" y="-19.0%" width="113.3%" height="147.6%" filterUnits="objectBoundingBox" id="filter-4">
            <feOffset dx="0" dy="1" in="SourceAlpha" result="shadowOffsetOuter1"></feOffset>
            <feGaussianBlur stdDeviation="1.5" in="shadowOffsetOuter1" result="shadowBlurOuter1"></feGaussianBlur>
            <feColorMatrix values="0 0 0 0 0   0 0 0 0 0   0 0 0 0 0  0 0 0 0.1 0" type="matrix" in="shadowBlurOuter1" result="shadowMatrixOuter1"></feColorMatrix>
            <feMerge>
                <feMergeNode in="shadowMatrixOuter1"></feMergeNode>
                <feMergeNode in="SourceGraphic"></feMergeNode>
            </feMerge>
        </filter>
        <filter x="-7.7%" y="-19.0%" width="115.4%" height="147.6%" filterUnits="objectBoundingBox" id="filter-5">
            <feOffset dx="0" dy="1" in="SourceAlpha" result="shadowOffsetOuter1"></feOffset>
            <feGaussianBlur stdDeviation="1.5" in="shadowOffsetOuter1" result="shadowBlurOuter1"></feGaussianBlur>
            <feColorMatrix values="0 0 0 0 0   0 0 0 0 0   0 0 0 0 0  0 0 0 0.1 0" type="matrix" in="shadowBlurOuter1" result="shadowMatrixOuter1"></feColorMatrix>
            <feMerge>
                <feMergeNode in="shadowMatrixOuter1"></feMergeNode>
                <feMergeNode in="SourceGraphic"></feMergeNode>
            </feMerge>
        </filter>
        <linearGradient x1="0%" y1="50%" x2="76.0840229%" y2="50%" id="linearGradient-6">
            <stop stop-color="#E3E4E4" stop-opacity="0" offset="0%"></stop>
            <stop stop-color="#E3E4E4" offset="100%"></stop>
        </linearGradient>
    </defs>
    <g id="Page-1" stroke="none" stroke-width="1" fill="none" fill-rule="evenodd">
        <g id="Order-Food-One">
            <g id="Rectangle-12">
                <use fill="black" fill-opacity="1" filter="url(#filter-2)" xlink:href="#path-1"></use>
                <use fill="#FEFEFE" fill-rule="evenodd" xlink:href="#path-1"></use>
            </g>
            <rect id="Rectangle-2" fill-opacity="0.5" fill="#E5E5E5" x="20" y="83" width="305" height="113" rx="2"></rect>
            <path d="M20,162 L325,162 L325,189.006713 C325,190.107575 324.097806,191 322.992002,191 L22.0079976,191 C20.8990111,191 20,190.100287 20,189.006713 L20,162 Z" id="Rectangle" fill-opacity="0.1" fill="#F6F6F6"></path>
            <path d="M20,139 L325,139 L325,199.992892 C325,201.101387 324.097806,202 322.992002,202 L22.0079976,202 C20.8990111,202 20,201.109412 20,199.992892 L20,139 Z" id="Rectangle-4" fill="#E5E5E5"></path>
            <g id="down_2" transform="translate(297.500000, 153.409091) rotate(180.000000) translate(-297.500000, -153.409091) translate(290.000000, 150.000000)" fill-rule="nonzero" fill="#000000">
                <path d="M14.8973438,0.411442006 C14.7358594,0.208777429 14.4407813,0.175626959 14.2382813,0.338087774 L7.5,5.74561129 L0.76171875,0.338087774 C0.559453125,0.175862069 0.264140625,0.208777429 0.10265625,0.411442006 C-0.0590625,0.614341693 -0.02625,0.910109718 0.17578125,1.07233542 L7.20726563,6.71496865 C7.29375,6.78456113 7.39710938,6.81818182 7.49976563,6.81818182 C7.60429688,6.81818182 7.70835938,6.78291536 7.7925,6.71496865 C7.79273438,6.71496865 7.79273438,6.71496865 7.79296875,6.71520376 L14.8242188,1.07257053 C15.0260156,0.910344828 15.0590625,0.614341693 14.8973438,0.411442006 Z" id="Shape"></path>
            </g>
            <path d="M39.890625,99.9238281 L39.890625,99.9296875 L40.9101562,99.9296875 L40.9101562,99.9238281 C40.9101562,98.9277344 41.578125,98.265625 42.5683594,98.265625 C43.5,98.265625 44.2207031,98.9160156 44.2207031,99.7597656 C44.2207031,100.439453 43.9570312,100.896484 42.8671875,102.080078 L39.9433594,105.273438 L39.9433594,106 L45.4160156,106 L45.4160156,105.050781 L41.4550781,105.050781 L41.4550781,104.957031 L43.4882812,102.771484 C44.8769531,101.283203 45.2753906,100.597656 45.2753906,99.71875 C45.2753906,98.3769531 44.1152344,97.3457031 42.5976562,97.3457031 C41.0273438,97.3457031 39.890625,98.4238281 39.890625,99.9238281 Z M46.9386718,99.9238281 L46.9386718,99.9296875 L47.9582031,99.9296875 L47.9582031,99.9238281 C47.9582031,98.9277344 48.6261718,98.265625 49.6164062,98.265625 C50.5480468,98.265625 51.26875,98.9160156 51.26875,99.7597656 C51.26875,100.439453 51.0050781,100.896484 49.9152343,102.080078 L46.9914062,105.273438 L46.9914062,106 L52.4640625,106 L52.4640625,105.050781 L48.503125,105.050781 L48.503125,104.957031 L50.5363281,102.771484 C51.925,101.283203 52.3234375,100.597656 52.3234375,99.71875 C52.3234375,98.3769531 51.1632812,97.3457031 49.6457031,97.3457031 C48.0753906,97.3457031 46.9386718,98.4238281 46.9386718,99.9238281 Z M54.8773437,105.033203 C55.2992187,105.033203 55.6390624,104.6875 55.6390624,104.271484 C55.6390624,103.849609 55.2992187,103.509766 54.8773437,103.509766 C54.4613281,103.509766 54.1156249,103.849609 54.1156249,104.271484 C54.1156249,104.6875 54.4613281,105.033203 54.8773437,105.033203 Z M54.8773437,100.527344 C55.2992187,100.527344 55.6390624,100.181641 55.6390624,99.765625 C55.6390624,99.34375 55.2992187,99.0039062 54.8773437,99.0039062 C54.4613281,99.0039062 54.1156249,99.34375 54.1156249,99.765625 C54.1156249,100.181641 54.4613281,100.527344 54.8773437,100.527344 Z M61.2632812,106 L61.2632812,104.248047 L57.1441405,104.248047 L57.1441405,103.287109 C57.8999999,101.945312 59.2417968,99.8242188 60.7652343,97.5449219 L62.2945312,97.5449219 L62.2945312,103.304688 L63.495703,103.304688 L63.495703,104.248047 L62.2945312,104.248047 L62.2945312,106 L61.2632812,106 Z M58.2222655,103.240234 L58.2222655,103.310547 L61.2691405,103.310547 L61.2691405,98.5234375 L61.198828,98.5234375 C60.3316405,99.7832031 59.230078,101.529297 58.2222655,103.240234 Z M67.8132811,106.199219 C66.0203124,106.199219 64.7664061,105.185547 64.7664061,103.738281 C64.7664061,102.636719 65.4636717,101.78125 66.5242186,101.582031 L66.5242186,101.488281 C65.6628905,101.253906 65.1121092,100.521484 65.1121092,99.6015625 C65.1121092,98.2832031 66.2312499,97.3457031 67.8132811,97.3457031 C69.3953124,97.3457031 70.514453,98.2832031 70.514453,99.6015625 C70.514453,100.527344 69.9753905,101.248047 69.1023436,101.488281 L69.1023436,101.582031 C70.1628905,101.78125 70.8601561,102.636719 70.8601561,103.738281 C70.8601561,105.185547 69.6062499,106.199219 67.8132811,106.199219 Z M67.8132811,105.296875 C68.9851561,105.296875 69.7937499,104.628906 69.7937499,103.662109 C69.7937499,102.695312 68.9851561,102.027344 67.8132811,102.027344 C66.6414061,102.027344 65.8328124,102.695312 65.8328124,103.662109 C65.8328124,104.628906 66.6414061,105.296875 67.8132811,105.296875 Z M67.8132811,101.136719 C68.8093749,101.136719 69.4773436,100.5625 69.4773436,99.7011719 C69.4773436,98.828125 68.8152342,98.2480469 67.8132811,98.2480469 C66.811328,98.2480469 66.1492186,98.828125 66.1492186,99.7011719 C66.1492186,100.5625 66.8171874,101.136719 67.8132811,101.136719 Z" id="22:48" fill="#1B2024" opacity="0.6"></path>
            <path d="M103.732422,106.199219 C105.484375,106.199219 106.685547,105.027344 106.685547,103.310547 C106.685547,101.646484 105.560547,100.480469 103.955078,100.480469 C103.175781,100.480469 102.578125,100.720703 102.167969,101.201172 L102.074219,101.201172 L102.314453,98.4882812 L106.205078,98.4882812 L106.205078,97.5449219 L101.488281,97.5449219 L101.025391,102.337891 L102.015625,102.337891 C102.361328,101.734375 102.994141,101.388672 103.761719,101.388672 C104.869141,101.388672 105.630859,102.179688 105.630859,103.339844 C105.630859,104.5 104.875,105.273438 103.744141,105.273438 C102.748047,105.273438 102.021484,104.664062 101.927734,103.75 L100.890625,103.75 C100.984375,105.208984 102.132812,106.199219 103.732422,106.199219 Z M119.820703,106 L119.820703,97.5449219 L118.596094,97.5449219 L115.701562,104.541016 L115.607812,104.541016 L112.713281,97.5449219 L111.488672,97.5449219 L111.488672,106 L112.473047,106 L112.473047,99.5429688 L112.543359,99.5429688 L115.209375,105.941406 L116.1,105.941406 L118.766016,99.5429688 L118.836328,99.5429688 L118.836328,106 L119.820703,106 Z M122.831641,106 L122.831641,97.5449219 L121.776953,97.5449219 L121.776953,106 L122.831641,106 Z M125.830859,106 L125.830859,99.4433594 L125.924609,99.4433594 L130.5125,106 L131.53789,106 L131.53789,97.5449219 L130.494922,97.5449219 L130.494922,104.125 L130.401172,104.125 L125.813281,97.5449219 L124.78789,97.5449219 L124.78789,106 L125.830859,106 Z M134.578125,97.5449219 L133.523437,97.5449219 L133.523437,103.09375 C133.523437,104.898438 134.783203,106.199219 136.880859,106.199219 C138.978515,106.199219 140.238281,104.898438 140.238281,103.09375 L140.238281,97.5449219 L139.183594,97.5449219 L139.183594,103.023438 C139.183594,104.300781 138.345703,105.226562 136.880859,105.226562 C135.416015,105.226562 134.578125,104.300781 134.578125,103.023438 L134.578125,97.5449219 Z M145.475781,106 L145.475781,98.4941406 L148.20039,98.4941406 L148.20039,97.5449219 L141.696484,97.5449219 L141.696484,98.4941406 L144.421094,98.4941406 L144.421094,106 L145.475781,106 Z M154.867578,105.050781 L150.683984,105.050781 L150.683984,102.144531 L154.650781,102.144531 L154.650781,101.207031 L150.683984,101.207031 L150.683984,98.4941406 L154.867578,98.4941406 L154.867578,97.5449219 L149.629297,97.5449219 L149.629297,106 L154.867578,106 L154.867578,105.050781 Z M163.016406,106 L163.016406,98.4941406 L165.741015,98.4941406 L165.741015,97.5449219 L159.237109,97.5449219 L159.237109,98.4941406 L161.961718,98.4941406 L161.961718,106 L163.016406,106 Z M168.224609,98.4824219 L168.224609,101.716797 L170.304687,101.716797 C171.388672,101.716797 172.003906,101.136719 172.003906,100.099609 C172.003906,99.0859375 171.347656,98.4824219 170.257812,98.4824219 L168.224609,98.4824219 Z M168.224609,102.654297 L168.224609,106 L167.169922,106 L167.169922,97.5449219 L170.398437,97.5449219 C172.027343,97.5449219 173.09375,98.5410156 173.09375,100.064453 C173.09375,101.242188 172.455078,102.15625 171.394531,102.490234 L173.351562,106 L172.115234,106 L170.304687,102.654297 L168.224609,102.654297 Z M180.305859,106 L179.45625,103.580078 L176.092968,103.580078 L175.243359,106 L174.135937,106 L177.253125,97.5449219 L178.296093,97.5449219 L181.413281,106 L180.305859,106 Z M177.727734,98.9101562 L176.403515,102.683594 L179.145703,102.683594 L177.821484,98.9101562 L177.727734,98.9101562 Z M183.738671,106 L183.738671,99.4433594 L183.832421,99.4433594 L188.420312,106 L189.445703,106 L189.445703,97.5449219 L188.402734,97.5449219 L188.402734,104.125 L188.308984,104.125 L183.721093,97.5449219 L182.695703,97.5449219 L182.695703,106 L183.738671,106 Z M190.997656,103.791016 C191.108984,105.25 192.345312,106.199219 194.138281,106.199219 C196.071875,106.199219 197.296484,105.208984 197.296484,103.65625 C197.296484,102.414062 196.593359,101.734375 194.841406,101.294922 L193.95664,101.060547 C192.790625,100.761719 192.327734,100.380859 192.327734,99.71875 C192.327734,98.8632812 193.071875,98.3007812 194.196875,98.3007812 C195.251562,98.3007812 195.966406,98.8164062 196.11289,99.6835938 L197.173437,99.6835938 C197.085546,98.3183594 195.866796,97.3457031 194.232031,97.3457031 C192.444921,97.3457031 191.24375,98.3183594 191.24375,99.7539062 C191.24375,100.955078 191.905859,101.646484 193.435156,102.033203 L194.51914,102.314453 C195.685156,102.607422 196.2125,103.064453 196.2125,103.785156 C196.2125,104.623047 195.374609,105.238281 194.23789,105.238281 C193.036718,105.238281 192.192968,104.675781 192.064062,103.791016 L190.997656,103.791016 Z M199.903125,106 L199.903125,102.337891 L203.647265,102.337891 L203.647265,101.400391 L199.903125,101.400391 L199.903125,98.4941406 L203.98125,98.4941406 L203.98125,97.5449219 L198.848437,97.5449219 L198.848437,106 L199.903125,106 Z M210.753906,105.050781 L206.570312,105.050781 L206.570312,102.144531 L210.537109,102.144531 L210.537109,101.207031 L206.570312,101.207031 L206.570312,98.4941406 L210.753906,98.4941406 L210.753906,97.5449219 L205.515625,97.5449219 L205.515625,106 L210.753906,106 L210.753906,105.050781 Z M213.518749,98.4824219 L213.518749,101.716797 L215.598828,101.716797 C216.682812,101.716797 217.298046,101.136719 217.298046,100.099609 C217.298046,99.0859375 216.641796,98.4824219 215.551953,98.4824219 L213.518749,98.4824219 Z M213.518749,102.654297 L213.518749,106 L212.464062,106 L212.464062,97.5449219 L215.692578,97.5449219 C217.321484,97.5449219 218.38789,98.5410156 218.38789,100.064453 C218.38789,101.242188 217.749218,102.15625 216.688671,102.490234 L218.645703,106 L217.409374,106 L215.598828,102.654297 L213.518749,102.654297 Z" id="5-MINUTE-TRANSFER" fill="#1B2024" opacity="0.6"></path>
            <path d="M301.804688,106 L301.804688,104.248047 L297.685547,104.248047 L297.685547,103.287109 C298.441406,101.945312 299.783203,99.8242188 301.306641,97.5449219 L302.835938,97.5449219 L302.835938,103.304688 L304.037109,103.304688 L304.037109,104.248047 L302.835938,104.248047 L302.835938,106 L301.804688,106 Z M298.763672,103.240234 L298.763672,103.310547 L301.810547,103.310547 L301.810547,98.5234375 L301.740234,98.5234375 C300.873047,99.7832031 299.771484,101.529297 298.763672,103.240234 Z" id="4" fill="#1B2024" opacity="0.6"></path>
            <path d="M26.1953125,121.483398 L26.1953125,121.508301 L27.9550781,121.508301 L27.9550781,121.483398 C27.9550781,120.205078 28.8432617,119.341797 30.1630859,119.341797 C31.3999023,119.341797 32.3378906,120.163574 32.3378906,121.259277 C32.3378906,122.13916 31.9477539,122.77002 30.3457031,124.438477 L26.2949219,128.655273 L26.2949219,130 L34.3632812,130 L34.3632812,128.331543 L28.8847656,128.331543 L28.8847656,128.19043 L31.5493164,125.492676 C33.5581055,123.458984 34.1723633,122.421387 34.1723633,121.151367 C34.1723633,119.175781 32.4956055,117.731445 30.2211914,117.731445 C27.8637695,117.731445 26.1953125,119.275391 26.1953125,121.483398 Z M36.4207682,121.483398 L36.4207682,121.508301 L38.1805338,121.508301 L38.1805338,121.483398 C38.1805338,120.205078 39.0687174,119.341797 40.3885416,119.341797 C41.625358,119.341797 42.5633463,120.163574 42.5633463,121.259277 C42.5633463,122.13916 42.1732096,122.77002 40.5711588,124.438477 L36.5203775,128.655273 L36.5203775,130 L44.5887369,130 L44.5887369,128.331543 L39.1102213,128.331543 L39.1102213,128.19043 L41.7747721,125.492676 C43.7835611,123.458984 44.397819,122.421387 44.397819,121.151367 C44.397819,119.175781 42.7210611,117.731445 40.4466471,117.731445 C38.0892252,117.731445 36.4207682,119.275391 36.4207682,121.483398 Z M48.1320637,128.696777 C48.8376301,128.696777 49.3522785,128.157227 49.3522785,127.459961 C49.3522785,126.762695 48.8376301,126.223145 48.1320637,126.223145 C47.4347981,126.223145 46.9118488,126.762695 46.9118488,127.459961 C46.9118488,128.157227 47.4347981,128.696777 48.1320637,128.696777 Z M48.1320637,122.429688 C48.8376301,122.429688 49.3522785,121.890137 49.3522785,121.192871 C49.3522785,120.487305 48.8376301,119.956055 48.1320637,119.956055 C47.4347981,119.956055 46.9118488,120.487305 46.9118488,121.192871 C46.9118488,121.890137 47.4347981,122.429688 48.1320637,122.429688 Z M56.1910155,130.290527 C58.7725584,130.290527 60.5240233,128.605469 60.5240233,126.123535 C60.5240233,123.766113 58.9219725,122.105957 56.6475584,122.105957 C55.5103514,122.105957 54.6636717,122.487793 54.1158201,123.193359 L53.9747069,123.193359 L54.2901365,119.682129 L59.8267576,119.682129 L59.8267576,118.021973 L52.8374998,118.021973 L52.2066405,124.878418 L53.9083006,124.878418 C54.3731444,124.106445 55.2032225,123.649902 56.2325194,123.649902 C57.6934569,123.649902 58.7061522,124.670898 58.7061522,126.17334 C58.7061522,127.66748 57.7017576,128.655273 56.207617,128.655273 C54.8960936,128.655273 53.9249022,127.883301 53.7837889,126.721191 L52.0157225,126.721191 C52.1236326,128.821289 53.8086912,130.290527 56.1910155,130.290527 Z M65.1630532,124.621094 L66.6737953,124.621094 C68.242643,124.621094 69.2138344,125.393066 69.2138344,126.629883 C69.2138344,127.808594 68.1845375,128.646973 66.7236,128.646973 C65.2709633,128.646973 64.2748696,127.908203 64.1586586,126.746094 L62.3739907,126.746094 C62.4819008,128.887695 64.2084633,130.290527 66.7236,130.290527 C69.2221352,130.290527 71.1147133,128.763184 71.1147133,126.729492 C71.1147133,125.127441 70.1186196,124.006836 68.4833657,123.815918 L68.4833657,123.674805 C69.8031899,123.375977 70.6249672,122.313477 70.6249672,120.902344 C70.6249672,119.101074 68.9150063,117.731445 66.6903969,117.731445 C64.2914711,117.731445 62.7309242,119.067871 62.6064125,121.234375 L64.3744789,121.234375 C64.4740883,120.055664 65.3290688,119.333496 66.6322914,119.333496 C67.9355141,119.333496 68.7904946,120.063965 68.7904946,121.17627 C68.7904946,122.305176 67.902311,123.085449 66.6156899,123.085449 L65.1630532,123.085449 L65.1630532,124.621094 Z" id="22:53" fill="#1B2024"></path>
            <path d="M109.255371,130 L108.159668,126.820801 L103.594238,126.820801 L102.490234,130 L100.581055,130 L104.905762,118.021973 L106.90625,118.021973 L111.230957,130 L109.255371,130 Z M105.810547,120.196777 L104.067383,125.260254 L107.686523,125.260254 L105.95166,120.196777 L105.810547,120.196777 Z M112.8236,130 L114.608268,130 L114.608268,124.47168 C114.608268,123.30957 115.430046,122.421387 116.517448,122.421387 C117.579948,122.421387 118.260612,123.043945 118.260612,124.064941 L118.260612,130 L120.012077,130 L120.012077,124.313965 C120.012077,123.251465 120.767448,122.421387 121.921256,122.421387 C123.091667,122.421387 123.672721,123.019043 123.672721,124.239258 L123.672721,130 L125.457389,130 L125.457389,123.774414 C125.457389,121.890137 124.394889,120.786133 122.568717,120.786133 C121.315299,120.786133 120.277702,121.425293 119.821159,122.413086 L119.680046,122.413086 C119.281608,121.425293 118.426628,120.786133 117.189811,120.786133 C115.986198,120.786133 115.073112,121.39209 114.674674,122.413086 L114.541862,122.413086 L114.541862,120.960449 L112.8236,120.960449 L112.8236,130 Z M127.473372,123.51709 C127.473372,124.861816 128.270247,125.633789 129.988509,126.040527 L131.565657,126.405762 C132.470443,126.621582 132.893782,126.970215 132.893782,127.509766 C132.893782,128.231934 132.105208,128.72998 130.992904,128.72998 C129.913802,128.72998 129.249739,128.29834 129.025618,127.601074 L127.24095,127.601074 C127.398665,129.203125 128.801497,130.174316 130.9514,130.174316 C133.109603,130.174316 134.695052,129.037109 134.695052,127.335449 C134.695052,126.007324 133.889876,125.268555 132.171614,124.870117 L130.669173,124.521484 C129.689681,124.297363 129.233138,123.957031 129.233138,123.41748 C129.233138,122.711914 129.988509,122.23877 130.984603,122.23877 C131.997298,122.23877 132.644759,122.662109 132.810775,123.326172 L134.520736,123.326172 C134.346419,121.732422 133.018294,120.786133 130.984603,120.786133 C128.942611,120.786133 127.473372,121.915039 127.473372,123.51709 Z M137.126074,118.710938 L137.126074,121.001953 L135.690039,121.001953 L135.690039,122.504395 L137.126074,122.504395 L137.126074,127.609375 C137.126074,129.352539 137.914648,130.049805 139.898535,130.049805 C140.247168,130.049805 140.579199,130.008301 140.869726,129.958496 L140.869726,128.472656 C140.620703,128.497559 140.462988,128.51416 140.189062,128.51416 C139.300879,128.51416 138.910742,128.099121 138.910742,127.152832 L138.910742,122.504395 L140.869726,122.504395 L140.869726,121.001953 L138.910742,121.001953 L138.910742,118.710938 L137.126074,118.710938 Z M146.29733,122.305176 C144.977506,122.305176 144.05612,123.234863 143.95651,124.645996 L148.52194,124.645996 C148.480436,123.226562 147.617155,122.305176 146.29733,122.305176 Z M148.513639,127.55957 L150.231901,127.55957 C149.825163,129.178223 148.380827,130.174316 146.313932,130.174316 C143.724088,130.174316 142.138639,128.397949 142.138639,125.509277 C142.138639,122.620605 143.757291,120.786133 146.305631,120.786133 C148.820768,120.786133 150.339811,122.504395 150.339811,125.343262 L150.339811,125.96582 L143.95651,125.96582 L143.95651,126.06543 C144.014616,127.650879 144.936002,128.655273 146.363737,128.655273 C147.442838,128.655273 148.181608,128.265137 148.513639,127.55957 Z M152.198079,130 L153.982747,130 L153.982747,124.662598 C153.982747,123.392578 154.937337,122.537598 156.290364,122.537598 C156.605794,122.537598 157.137044,122.595703 157.286458,122.645508 L157.286458,120.885742 C157.09554,120.835938 156.755208,120.811035 156.489583,120.811035 C155.310872,120.811035 154.306478,121.458496 154.049153,122.34668 L153.916341,122.34668 L153.916341,120.960449 L152.198079,120.960449 L152.198079,130 Z M161.792675,130.149414 C159.493359,130.149414 158.040722,128.339844 158.040722,125.476074 C158.040722,122.620605 159.509961,120.811035 161.792675,120.811035 C163.029492,120.811035 164.07539,121.400391 164.565136,122.396484 L164.697949,122.396484 L164.697949,117.432617 L166.482617,117.432617 L166.482617,130 L164.772656,130 L164.772656,128.572266 L164.631543,128.572266 C164.091992,129.560059 163.037793,130.149414 161.792675,130.149414 Z M162.299023,122.413086 C160.796582,122.413086 159.883496,123.575195 159.883496,125.476074 C159.883496,127.393555 160.788281,128.547363 162.299023,128.547363 C163.801464,128.547363 164.731152,127.376953 164.731152,125.484375 C164.731152,123.600098 163.793164,122.413086 162.299023,122.413086 Z M171.827213,128.646973 C173.17194,128.646973 174.168033,127.791992 174.168033,126.671387 L174.168033,125.916016 L171.960026,126.057129 C170.714908,126.140137 170.150455,126.563477 170.150455,127.360352 C170.150455,128.173828 170.856022,128.646973 171.827213,128.646973 Z M171.37067,130.149414 C169.627506,130.149414 168.357487,129.095215 168.357487,127.443359 C168.357487,125.816406 169.569401,124.878418 171.719303,124.745605 L174.168033,124.604492 L174.168033,123.824219 C174.168033,122.869629 173.537174,122.330078 172.316959,122.330078 C171.320865,122.330078 170.631901,122.695312 170.432682,123.334473 L168.706119,123.334473 C168.888737,121.782227 170.349674,120.786133 172.399967,120.786133 C174.66608,120.786133 175.944401,121.915039 175.944401,123.824219 L175.944401,130 L174.226139,130 L174.226139,128.72998 L174.085026,128.72998 C173.545475,129.634766 172.557682,130.149414 171.37067,130.149414 Z M178.201106,130 L179.985774,130 L179.985774,124.47168 C179.985774,123.30957 180.807552,122.421387 181.894954,122.421387 C182.957454,122.421387 183.638118,123.043945 183.638118,124.064941 L183.638118,130 L185.389583,130 L185.389583,124.313965 C185.389583,123.251465 186.144954,122.421387 187.298763,122.421387 C188.469173,122.421387 189.050227,123.019043 189.050227,124.239258 L189.050227,130 L190.834895,130 L190.834895,123.774414 C190.834895,121.890137 189.772395,120.786133 187.946223,120.786133 C186.692806,120.786133 185.655208,121.425293 185.198665,122.413086 L185.057552,122.413086 C184.659114,121.425293 183.804134,120.786133 182.567317,120.786133 C181.363704,120.786133 180.450618,121.39209 180.052181,122.413086 L179.919368,122.413086 L179.919368,120.960449 L178.201106,120.960449 L178.201106,130 Z M197.066568,126.779297 C197.199381,128.920898 198.984049,130.290527 201.640299,130.290527 C204.479166,130.290527 206.255533,128.854492 206.255533,126.563477 C206.255533,124.762207 205.242838,123.766113 202.785807,123.193359 L201.465982,122.869629 C199.905436,122.504395 199.274576,122.014648 199.274576,121.159668 C199.274576,120.080566 200.254068,119.375 201.723307,119.375 C203.117838,119.375 204.080729,120.063965 204.255045,121.167969 L206.064615,121.167969 C205.956705,119.150879 204.180338,117.731445 201.748209,117.731445 C199.133463,117.731445 197.390299,119.150879 197.390299,121.28418 C197.390299,123.043945 198.378092,124.089844 200.544596,124.596191 L202.088541,124.969727 C203.67399,125.343262 204.371256,125.891113 204.371256,126.804199 C204.371256,127.866699 203.275553,128.638672 201.781412,128.638672 C200.179361,128.638672 199.067057,127.916504 198.909342,126.779297 L197.066568,126.779297 Z M208.288118,130 L210.072786,130 L210.072786,117.432617 L208.288118,117.432617 L208.288118,130 Z M216.280663,130.174316 C213.632714,130.174316 212.014062,128.40625 212.014062,125.476074 C212.014062,122.5625 213.641015,120.786133 216.280663,120.786133 C218.912011,120.786133 220.538964,122.5625 220.538964,125.476074 C220.538964,128.40625 218.920312,130.174316 216.280663,130.174316 Z M216.280663,128.588867 C217.824609,128.588867 218.704491,127.443359 218.704491,125.476074 C218.704491,123.51709 217.824609,122.371582 216.280663,122.371582 C214.728417,122.371582 213.856835,123.51709 213.856835,125.476074 C213.856835,127.45166 214.728417,128.588867 216.280663,128.588867 Z M223.028092,118.710938 L223.028092,121.001953 L221.592057,121.001953 L221.592057,122.504395 L223.028092,122.504395 L223.028092,127.609375 C223.028092,129.352539 223.816666,130.049805 225.800553,130.049805 C226.149185,130.049805 226.481217,130.008301 226.771744,129.958496 L226.771744,128.472656 C226.522721,128.497559 226.365006,128.51416 226.09108,128.51416 C225.202896,128.51416 224.81276,128.099121 224.81276,127.152832 L224.81276,122.504395 L226.771744,122.504395 L226.771744,121.001953 L224.81276,121.001953 L224.81276,118.710938 L223.028092,118.710938 Z M232.199348,122.305176 C230.879524,122.305176 229.958137,123.234863 229.858528,124.645996 L234.423958,124.645996 C234.382454,123.226562 233.519172,122.305176 232.199348,122.305176 Z M234.415657,127.55957 L236.133918,127.55957 C235.72718,129.178223 234.282844,130.174316 232.21595,130.174316 C229.626106,130.174316 228.040657,128.397949 228.040657,125.509277 C228.040657,122.620605 229.659309,120.786133 232.207649,120.786133 C234.722786,120.786133 236.241829,122.504395 236.241829,125.343262 L236.241829,125.96582 L229.858528,125.96582 L229.858528,126.06543 C229.916633,127.650879 230.83802,128.655273 232.265754,128.655273 C233.344856,128.655273 234.083625,128.265137 234.415657,127.55957 Z M238.100097,130 L239.884765,130 L239.884765,124.662598 C239.884765,123.392578 240.839355,122.537598 242.192382,122.537598 C242.507812,122.537598 243.039062,122.595703 243.188476,122.645508 L243.188476,120.885742 C242.997558,120.835938 242.657226,120.811035 242.391601,120.811035 C241.21289,120.811035 240.208495,121.458496 239.951171,122.34668 L239.818359,122.34668 L239.818359,120.960449 L238.100097,120.960449 L238.100097,130 Z M247.694693,130.149414 C245.395377,130.149414 243.94274,128.339844 243.94274,125.476074 C243.94274,122.620605 245.411978,120.811035 247.694693,120.811035 C248.931509,120.811035 249.977408,121.400391 250.467154,122.396484 L250.599967,122.396484 L250.599967,117.432617 L252.384634,117.432617 L252.384634,130 L250.674674,130 L250.674674,128.572266 L250.53356,128.572266 C249.994009,129.560059 248.93981,130.149414 247.694693,130.149414 Z M248.201041,122.413086 C246.698599,122.413086 245.785513,123.575195 245.785513,125.476074 C245.785513,127.393555 246.690299,128.547363 248.201041,128.547363 C249.703482,128.547363 250.63317,127.376953 250.63317,125.484375 C250.63317,123.600098 249.695181,122.413086 248.201041,122.413086 Z M254.807356,130 L256.583723,130 L256.583723,120.960449 L254.807356,120.960449 L254.807356,130 Z M255.695539,119.375 C256.359602,119.375 256.849348,118.901855 256.849348,118.287598 C256.849348,117.665039 256.359602,117.191895 255.695539,117.191895 C255.031477,117.191895 254.541731,117.665039 254.541731,118.287598 C254.541731,118.901855 255.031477,119.375 255.695539,119.375 Z M260.733007,120.960449 L258.95664,120.960449 L258.95664,130.356934 C258.95664,131.228516 258.624608,131.585449 257.670018,131.585449 L257.420995,131.585449 L257.420995,133.07959 C257.462499,133.087891 257.753026,133.087891 257.819433,133.087891 C259.778417,133.087891 260.733007,132.224609 260.733007,130.373535 L260.733007,120.960449 Z M259.844823,119.375 C260.508886,119.375 260.998632,118.901855 260.998632,118.287598 C260.998632,117.665039 260.508886,117.191895 259.844823,117.191895 C259.180761,117.191895 258.691015,117.665039 258.691015,118.287598 C258.691015,118.901855 259.180761,119.375 259.844823,119.375 Z M265.081509,124.729004 L264.940396,124.729004 L264.940396,117.432617 L263.155728,117.432617 L263.155728,130 L264.940396,130 L264.940396,126.762695 L265.72897,126.015625 L268.833462,130 L271.024869,130 L267.057095,124.836914 L270.775845,120.960449 L268.667447,120.960449 L265.081509,124.729004 Z" id="Amsterdam-Sloterdijk" fill="#1B2024"></path>
            <path d="M299.594727,130.290527 C296.930176,130.290527 295.095703,128.862793 295.095703,126.795898 C295.095703,125.268555 296.100098,124.056641 297.635742,123.741211 L297.635742,123.600098 C296.390625,123.284668 295.577148,122.24707 295.577148,120.960449 C295.577148,119.067871 297.245605,117.731445 299.594727,117.731445 C301.943848,117.731445 303.612305,119.067871 303.612305,120.960449 C303.612305,122.255371 302.81543,123.276367 301.553711,123.600098 L301.553711,123.741211 C303.089355,124.031738 304.102051,125.243652 304.102051,126.787598 C304.102051,128.862793 302.259277,130.290527 299.594727,130.290527 Z M299.594727,128.746582 C301.130371,128.746582 302.192871,127.883301 302.192871,126.638184 C302.192871,125.384766 301.130371,124.521484 299.594727,124.521484 C298.059082,124.521484 296.996582,125.384766 296.996582,126.638184 C296.996582,127.883301 298.059082,128.746582 299.594727,128.746582 Z M299.594727,123.002441 C300.897949,123.002441 301.786133,122.24707 301.786133,121.143066 C301.786133,120.022461 300.90625,119.258789 299.594727,119.258789 C298.283203,119.258789 297.411621,120.022461 297.411621,121.143066 C297.411621,122.24707 298.291504,123.002441 299.594727,123.002441 Z" id="8" fill="#1B2024"></path>
            <g id="Group" transform="translate(143.000000, 6.000000)" fill="#339499">
                <rect id="Rectangle-14" x="0" y="0" width="45" height="45" rx="10"></rect>
            </g>
            <path d="M85.5,34.5 L85.5,82.5" id="Line" stroke="#42BCC2" stroke-width="3" stroke-linecap="square" stroke-dasharray="3,6,3,6"></path>
            <path d="M85.5,186.5 L85.5,255.5" id="Line-Copy" stroke="#42BCC2" stroke-width="3" stroke-linecap="square" stroke-dasharray="3,6,3,6"></path>
            <path d="M85.5,83.5 L85.5,184.5" id="Line" stroke="#42BCC2" stroke-width="3" stroke-linecap="square"></path>
            <circle id="Oval-2" fill="#42BCC2" cx="85.5" cy="124.5" r="5.5"></circle>
            <circle id="Oval-4" fill="#81C85B" cx="104" cy="153" r="4"></circle>
            <path d="M114.294922,157 L115.402344,157 L119.164062,149.523438 L119.164062,148.544922 L113.568359,148.544922 L113.568359,149.488281 L118.091797,149.488281 L118.091797,149.570312 L114.294922,157 Z M123.773828,157 L124.781641,157 L124.781641,153.085938 C124.781641,152.195312 125.420312,151.480469 126.246484,151.480469 C127.043359,151.480469 127.564844,151.960938 127.564844,152.710938 L127.564844,157 L128.572656,157 L128.572656,152.939453 C128.572656,152.136719 129.158594,151.480469 130.0375,151.480469 C130.928125,151.480469 131.367578,151.9375 131.367578,152.869141 L131.367578,157 L132.375391,157 L132.375391,152.634766 C132.375391,151.310547 131.654687,150.572266 130.365625,150.572266 C129.492578,150.572266 128.771875,151.011719 128.432031,151.679688 L128.338281,151.679688 C128.045312,151.023438 127.447656,150.572266 126.592187,150.572266 C125.748437,150.572266 125.115625,150.976562 124.828516,151.679688 L124.734766,151.679688 L124.734766,150.683594 L123.773828,150.683594 L123.773828,157 Z M134.038672,157 L135.046484,157 L135.046484,150.683594 L134.038672,150.683594 L134.038672,157 Z M134.542578,149.400391 C134.929297,149.400391 135.245703,149.083984 135.245703,148.697266 C135.245703,148.310547 134.929297,147.994141 134.542578,147.994141 C134.155859,147.994141 133.839453,148.310547 133.839453,148.697266 C133.839453,149.083984 134.155859,149.400391 134.542578,149.400391 Z M136.768359,157 L137.776172,157 L137.776172,153.261719 C137.776172,152.154297 138.426562,151.480469 139.434375,151.480469 C140.442187,151.480469 140.922656,152.019531 140.922656,153.15625 L140.922656,157 L141.930469,157 L141.930469,152.910156 C141.930469,151.410156 141.139453,150.572266 139.721484,150.572266 C138.754687,150.572266 138.139453,150.982422 137.823047,151.679688 L137.729297,151.679688 L137.729297,150.683594 L136.768359,150.683594 L136.768359,157 Z M148.679688,150.683594 L147.671875,150.683594 L147.671875,154.421875 C147.671875,155.529297 147.0625,156.191406 145.949219,156.191406 C144.941406,156.191406 144.519531,155.664062 144.519531,154.527344 L144.519531,150.683594 L143.511719,150.683594 L143.511719,154.773438 C143.511719,156.267578 144.25,157.111328 145.667969,157.111328 C146.634766,157.111328 147.308594,156.712891 147.625,156.009766 L147.71875,156.009766 L147.71875,157 L148.679688,157 L148.679688,150.683594 Z M150.8,149.048828 L150.8,150.683594 L149.780469,150.683594 L149.780469,151.527344 L150.8,151.527344 L150.8,155.359375 C150.8,156.566406 151.321484,157.046875 152.622266,157.046875 C152.821484,157.046875 153.014844,157.023438 153.214063,156.988281 L153.214063,156.138672 C153.026563,156.15625 152.926953,156.162109 152.745313,156.162109 C152.089063,156.162109 151.807813,155.845703 151.807813,155.101562 L151.807813,151.527344 L153.214063,151.527344 L153.214063,150.683594 L151.807813,150.683594 L151.807813,149.048828 L150.8,149.048828 Z M156.969141,151.462891 C155.961328,151.462891 155.258203,152.201172 155.182031,153.320312 L158.6625,153.320312 C158.639062,152.201172 157.971094,151.462891 156.969141,151.462891 Z M158.633203,155.365234 L159.641016,155.365234 C159.336328,156.449219 158.363672,157.111328 156.980859,157.111328 C155.228906,157.111328 154.133203,155.845703 154.133203,153.847656 C154.133203,151.861328 155.246484,150.572266 156.980859,150.572266 C158.685937,150.572266 159.723047,151.785156 159.723047,153.748047 L159.723047,154.134766 L155.182031,154.134766 L155.182031,154.181641 C155.234766,155.429688 155.932031,156.220703 157.004297,156.220703 C157.81875,156.220703 158.369531,155.921875 158.633203,155.365234 Z M164.350391,157 L165.358203,157 L165.358203,148.175781 L164.350391,148.175781 L164.350391,157 Z M169.634766,151.462891 C168.626953,151.462891 167.923828,152.201172 167.847656,153.320312 L171.328125,153.320312 C171.304688,152.201172 170.636719,151.462891 169.634766,151.462891 Z M171.298828,155.365234 L172.306641,155.365234 C172.001953,156.449219 171.029297,157.111328 169.646484,157.111328 C167.894531,157.111328 166.798828,155.845703 166.798828,153.847656 C166.798828,151.861328 167.912109,150.572266 169.646484,150.572266 C171.351562,150.572266 172.388672,151.785156 172.388672,153.748047 L172.388672,154.134766 L167.847656,154.134766 L167.847656,154.181641 C167.900391,155.429688 168.597656,156.220703 169.669922,156.220703 C170.484375,156.220703 171.035156,155.921875 171.298828,155.365234 Z M174.192578,157 L175.200391,157 L175.200391,151.527344 L176.647656,151.527344 L176.647656,150.683594 L175.200391,150.683594 L175.200391,150.009766 C175.200391,149.318359 175.505078,148.966797 176.231641,148.966797 C176.413281,148.966797 176.583203,148.972656 176.70625,148.996094 L176.70625,148.175781 C176.495312,148.134766 176.272656,148.117188 176.026562,148.117188 C174.825391,148.117188 174.192578,148.720703 174.192578,149.980469 L174.192578,150.683594 L173.14375,150.683594 L173.14375,151.527344 L174.192578,151.527344 L174.192578,157 Z M178.334375,149.048828 L178.334375,150.683594 L177.314844,150.683594 L177.314844,151.527344 L178.334375,151.527344 L178.334375,155.359375 C178.334375,156.566406 178.855859,157.046875 180.156641,157.046875 C180.355859,157.046875 180.549219,157.023438 180.748437,156.988281 L180.748437,156.138672 C180.560937,156.15625 180.461328,156.162109 180.279687,156.162109 C179.623437,156.162109 179.342187,155.845703 179.342187,155.101562 L179.342187,151.527344 L180.748437,151.527344 L180.748437,150.683594 L179.342187,150.683594 L179.342187,149.048828 L178.334375,149.048828 Z M185.680469,149.048828 L185.680469,150.683594 L184.660937,150.683594 L184.660937,151.527344 L185.680469,151.527344 L185.680469,155.359375 C185.680469,156.566406 186.201953,157.046875 187.502734,157.046875 C187.701953,157.046875 187.895312,157.023438 188.094531,156.988281 L188.094531,156.138672 C187.907031,156.15625 187.807422,156.162109 187.625781,156.162109 C186.969531,156.162109 186.688281,155.845703 186.688281,155.101562 L186.688281,151.527344 L188.094531,151.527344 L188.094531,150.683594 L186.688281,150.683594 L186.688281,149.048828 L185.680469,149.048828 Z M191.925781,157.111328 C190.126953,157.111328 189.013672,155.869141 189.013672,153.841797 C189.013672,151.808594 190.126953,150.572266 191.925781,150.572266 C193.724609,150.572266 194.837891,151.808594 194.837891,153.841797 C194.837891,155.869141 193.724609,157.111328 191.925781,157.111328 Z M191.925781,156.203125 C193.121094,156.203125 193.794922,155.335938 193.794922,153.841797 C193.794922,152.341797 193.121094,151.480469 191.925781,151.480469 C190.730469,151.480469 190.056641,152.341797 190.056641,153.841797 C190.056641,155.335938 190.730469,156.203125 191.925781,156.203125 Z M202.002344,157.111328 C200.203516,157.111328 199.090234,155.869141 199.090234,153.841797 C199.090234,151.808594 200.203516,150.572266 202.002344,150.572266 C203.801172,150.572266 204.914453,151.808594 204.914453,153.841797 C204.914453,155.869141 203.801172,157.111328 202.002344,157.111328 Z M202.002344,156.203125 C203.197656,156.203125 203.871484,155.335938 203.871484,153.841797 C203.871484,152.341797 203.197656,151.480469 202.002344,151.480469 C200.807031,151.480469 200.133203,152.341797 200.133203,153.841797 C200.133203,155.335938 200.807031,156.203125 202.002344,156.203125 Z M206.296484,157 L207.304297,157 L207.304297,153.085938 C207.304297,152.195312 208.001562,151.550781 208.9625,151.550781 C209.161719,151.550781 209.525,151.585938 209.607031,151.609375 L209.607031,150.601562 C209.478125,150.583984 209.267187,150.572266 209.103125,150.572266 C208.265234,150.572266 207.538672,151.005859 207.351172,151.621094 L207.257422,151.621094 L207.257422,150.683594 L206.296484,150.683594 L206.296484,157 Z M212.828906,157.111328 C211.211719,157.111328 210.174609,155.828125 210.174609,153.841797 C210.174609,151.861328 211.223437,150.572266 212.828906,150.572266 C213.707812,150.572266 214.451953,150.988281 214.809375,151.679688 L214.897266,151.679688 L214.897266,148.175781 L215.905078,148.175781 L215.905078,157 L214.944141,157 L214.944141,155.992188 L214.850391,155.992188 C214.451953,156.695312 213.701953,157.111328 212.828906,157.111328 Z M213.063281,151.480469 C211.914844,151.480469 211.217578,152.371094 211.217578,153.841797 C211.217578,155.318359 211.908984,156.203125 213.063281,156.203125 C214.211719,156.203125 214.920703,155.300781 214.920703,153.841797 C214.920703,152.394531 214.205859,151.480469 213.063281,151.480469 Z M220.181641,151.462891 C219.173828,151.462891 218.470703,152.201172 218.394531,153.320312 L221.875,153.320312 C221.851562,152.201172 221.183594,151.462891 220.181641,151.462891 Z M221.845703,155.365234 L222.853516,155.365234 C222.548828,156.449219 221.576172,157.111328 220.193359,157.111328 C218.441406,157.111328 217.345703,155.845703 217.345703,153.847656 C217.345703,151.861328 218.458984,150.572266 220.193359,150.572266 C221.898437,150.572266 222.935547,151.785156 222.935547,153.748047 L222.935547,154.134766 L218.394531,154.134766 L218.394531,154.181641 C218.447266,155.429688 219.144531,156.220703 220.216797,156.220703 C221.03125,156.220703 221.582031,155.921875 221.845703,155.365234 Z M224.317578,157 L225.325391,157 L225.325391,153.085938 C225.325391,152.195312 226.022656,151.550781 226.983594,151.550781 C227.182812,151.550781 227.546094,151.585938 227.628125,151.609375 L227.628125,150.601562 C227.499219,150.583984 227.288281,150.572266 227.124219,150.572266 C226.286328,150.572266 225.559766,151.005859 225.372266,151.621094 L225.278516,151.621094 L225.278516,150.683594 L224.317578,150.683594 L224.317578,157 Z" id="7-minute-left-to-ord" fill="#1B2024"></path>
            <g id="Food-Button" transform="translate(100.000000, 173.000000)">
                <rect id="Rectangle-3" fill="#2A959A" x="0" y="0" width="75" height="21" rx="10.5"></rect>
                <path d="M28.1328125,15 L28.1328125,6.54492188 L27.078125,6.54492188 L27.078125,15 L28.1328125,15 Z M30.3820312,7.04882812 L30.3820312,8.68359375 L29.3625,8.68359375 L29.3625,9.52734375 L30.3820312,9.52734375 L30.3820312,13.359375 C30.3820312,14.5664062 30.9035156,15.046875 32.2042969,15.046875 C32.4035156,15.046875 32.596875,15.0234375 32.7960937,14.9882812 L32.7960937,14.1386719 C32.6085937,14.15625 32.5089844,14.1621094 32.3273437,14.1621094 C31.6710937,14.1621094 31.3898437,13.8457031 31.3898437,13.1015625 L31.3898437,9.52734375 L32.7960937,9.52734375 L32.7960937,8.68359375 L31.3898437,8.68359375 L31.3898437,7.04882812 L30.3820312,7.04882812 Z M36.0648437,14.2265625 C37.1019531,14.2265625 37.8695312,13.546875 37.8695312,12.6445312 L37.8695312,12.0644531 L36.1703125,12.1757812 C35.209375,12.2402344 34.7875,12.5742188 34.7875,13.2070312 C34.7875,13.8515625 35.3324219,14.2265625 36.0648437,14.2265625 Z M35.8773437,15.1113281 C34.6527344,15.1113281 33.7445312,14.3847656 33.7445312,13.2304688 C33.7445312,12.0996094 34.5765625,11.4492188 36.0472656,11.3613281 L37.8695312,11.25 L37.8695312,10.6757812 C37.8695312,9.89648438 37.3832031,9.46875 36.4398437,9.46875 C35.6839844,9.46875 35.1566406,9.75585938 35.0160156,10.2539062 L33.9964844,10.2539062 C34.13125,9.24023438 35.1273437,8.57226562 36.475,8.57226562 C38.0160156,8.57226562 38.8773437,9.36328125 38.8773437,10.6757812 L38.8773437,15 L37.9164062,15 L37.9164062,14.0683594 L37.8226562,14.0683594 C37.4125,14.7421875 36.7210937,15.1113281 35.8773437,15.1113281 Z M40.5992187,15 L41.6070312,15 L41.6070312,6.17578125 L40.5992187,6.17578125 L40.5992187,15 Z M43.3875,15 L44.3953125,15 L44.3953125,8.68359375 L43.3875,8.68359375 L43.3875,15 Z M43.8914062,7.40039062 C44.278125,7.40039062 44.5945312,7.08398438 44.5945312,6.69726562 C44.5945312,6.31054688 44.278125,5.99414062 43.8914062,5.99414062 C43.5046875,5.99414062 43.1882812,6.31054688 43.1882812,6.69726562 C43.1882812,7.08398438 43.5046875,7.40039062 43.8914062,7.40039062 Z M48.0625,14.2265625 C49.0996094,14.2265625 49.8671875,13.546875 49.8671875,12.6445312 L49.8671875,12.0644531 L48.1679687,12.1757812 C47.2070312,12.2402344 46.7851562,12.5742188 46.7851562,13.2070312 C46.7851562,13.8515625 47.3300781,14.2265625 48.0625,14.2265625 Z M47.875,15.1113281 C46.6503906,15.1113281 45.7421875,14.3847656 45.7421875,13.2304688 C45.7421875,12.0996094 46.5742187,11.4492188 48.0449219,11.3613281 L49.8671875,11.25 L49.8671875,10.6757812 C49.8671875,9.89648438 49.3808594,9.46875 48.4375,9.46875 C47.6816406,9.46875 47.1542969,9.75585938 47.0136719,10.2539062 L45.9941406,10.2539062 C46.1289062,9.24023438 47.125,8.57226562 48.4726562,8.57226562 C50.0136719,8.57226562 50.875,9.36328125 50.875,10.6757812 L50.875,15 L49.9140625,15 L49.9140625,14.0683594 L49.8203125,14.0683594 C49.4101562,14.7421875 48.71875,15.1113281 47.875,15.1113281 Z M52.5382812,15 L53.5460937,15 L53.5460937,11.2617188 C53.5460937,10.1542969 54.1964844,9.48046875 55.2042969,9.48046875 C56.2121094,9.48046875 56.6925781,10.0195312 56.6925781,11.15625 L56.6925781,15 L57.7003906,15 L57.7003906,10.9101562 C57.7003906,9.41015625 56.909375,8.57226562 55.4914062,8.57226562 C54.5246094,8.57226562 53.909375,8.98242188 53.5929687,9.6796875 L53.4992187,9.6796875 L53.4992187,8.68359375 L52.5382812,8.68359375 L52.5382812,15 Z" id="Italian" fill="#FFFFFF"></path>
                <g id="pizza" transform="translate(9.000000, 3.000000)" fill-rule="nonzero" fill="#FFFFFF">
                    <ellipse id="Oval" cx="2.90516692" cy="5.50971893" rx="1" ry="1"></ellipse>
                    <ellipse id="Oval" cx="2.90516692" cy="9.58073598" rx="1" ry="1"></ellipse>
                    <ellipse id="Oval" cx="5.17058905" cy="7.31593129" rx="1" ry="1"></ellipse>
                    <path d="M11.6084042,4.52471252 C8.65648276,1.60715438 4.71530741,0 0.510978263,0 C0.228662773,0 0,0.219380001 0,0.489687502 L0,15.1803126 C0,15.4508649 0.228662773,15.6700001 0.510978263,15.6700001 C0.652263753,15.6700001 0.780008319,15.6149102 0.872495385,15.5265216 C0.872495385,15.526032 0.872750874,15.526032 0.872750874,15.526032 L6.13173916,10.4714776 L6.13173916,11.0179688 C6.13173916,11.0520021 6.13531601,11.0848111 6.14221421,11.1168857 C6.19561144,11.7449099 6.74005878,12.2421876 7.40918482,12.2421876 C8.07805537,12.2421876 8.62250271,11.7449099 8.67615542,11.1168857 C8.68279814,11.0848111 8.68663048,11.0520021 8.68663048,11.0179688 L8.68663048,8.01569473 C8.86828325,7.84112113 9.54481847,7.19032644 10.202192,6.55813988 C10.2034695,6.55667081 10.2052579,6.55569144 10.2067908,6.55422238 C10.2073018,6.55373269 10.2078128,6.55275331 10.2083237,6.55226363 C10.91935,5.86841503 11.6030389,5.21076471 11.6030389,5.21076471 C11.7989991,5.02223502 11.8023204,4.71715971 11.6084042,4.52471252 Z M7.40918482,11.2628126 C7.26815482,11.2628126 7.15369569,11.1533674 7.15369569,11.0179688 C7.15369569,11.0179688 7.15241824,9.30406255 7.15165177,9.30406255 C7.15676156,9.17307114 7.10821862,9.04012098 7.00346808,8.93973504 C6.80342009,8.74851207 6.47971536,8.74949145 6.28068932,8.94071442 L1.02195653,13.9957585 L1.02195653,2.99370455 C3.97719931,3.24662814 6.80342009,4.38711033 9.0834051,6.24694347 L8.68254265,6.63232753 C8.66082607,6.380873 8.44366031,6.18230472 8.17565221,6.18230472 C7.89333672,6.18230472 7.66467395,6.40168472 7.66467395,6.67199222 L7.66467395,11.0179688 C7.66467395,11.1533674 7.54995933,11.2628126 7.40918482,11.2628126 Z M9.80618385,5.5520769 C7.33177161,3.51252845 4.24699584,2.26970157 1.02195653,2.01237079 L1.02195653,0.991372349 C4.58884029,1.11036641 7.92527286,2.47341157 10.5159327,4.86969737 L9.80618385,5.5520769 Z" id="Shape"></path>
                </g>
            </g>
            <g id="Food-Button-Copy" transform="translate(180.000000, 173.000000)">
                <rect id="Rectangle-3" fill="#2A959A" x="0" y="0" width="75" height="21" rx="10.5"></rect>
                <path d="M27.4824219,15.1992188 C29.28125,15.1992188 30.6171875,14.1972656 30.8984375,12.6445312 L29.8261719,12.6445312 C29.5566406,13.6230469 28.6601562,14.2265625 27.4824219,14.2265625 C25.8535156,14.2265625 24.8339844,12.8964844 24.8339844,10.7753906 C24.8339844,8.65429688 25.8535156,7.31835938 27.4765625,7.31835938 C28.6425781,7.31835938 29.5449219,8.00390625 29.8261719,9.09375 L30.8984375,9.09375 C30.6464844,7.46484375 29.2578125,6.34570312 27.4765625,6.34570312 C25.1796875,6.34570312 23.75,8.04492188 23.75,10.7753906 C23.75,13.5 25.1855469,15.1992188 27.4824219,15.1992188 Z M34.9347656,15.1113281 C33.1359375,15.1113281 32.0226562,13.8691406 32.0226562,11.8417969 C32.0226562,9.80859375 33.1359375,8.57226562 34.9347656,8.57226562 C36.7335937,8.57226562 37.846875,9.80859375 37.846875,11.8417969 C37.846875,13.8691406 36.7335937,15.1113281 34.9347656,15.1113281 Z M34.9347656,14.203125 C36.1300781,14.203125 36.8039062,13.3359375 36.8039062,11.8417969 C36.8039062,10.3417969 36.1300781,9.48046875 34.9347656,9.48046875 C33.7394531,9.48046875 33.065625,10.3417969 33.065625,11.8417969 C33.065625,13.3359375 33.7394531,14.203125 34.9347656,14.203125 Z M39.6507812,15 L40.6585937,15 L40.6585937,9.52734375 L42.1058594,9.52734375 L42.1058594,8.68359375 L40.6585937,8.68359375 L40.6585937,8.00976562 C40.6585937,7.31835938 40.9632812,6.96679688 41.6898437,6.96679688 C41.8714844,6.96679688 42.0414062,6.97265625 42.1644531,6.99609375 L42.1644531,6.17578125 C41.9535156,6.13476562 41.7308594,6.1171875 41.4847656,6.1171875 C40.2835937,6.1171875 39.6507812,6.72070312 39.6507812,7.98046875 L39.6507812,8.68359375 L38.6019531,8.68359375 L38.6019531,9.52734375 L39.6507812,9.52734375 L39.6507812,15 Z M43.7925781,15 L44.8003906,15 L44.8003906,9.52734375 L46.2476562,9.52734375 L46.2476562,8.68359375 L44.8003906,8.68359375 L44.8003906,8.00976562 C44.8003906,7.31835938 45.1050781,6.96679688 45.8316406,6.96679688 C46.0132812,6.96679688 46.1832031,6.97265625 46.30625,6.99609375 L46.30625,6.17578125 C46.0953125,6.13476562 45.8726562,6.1171875 45.6265625,6.1171875 C44.4253906,6.1171875 43.7925781,6.72070312 43.7925781,7.98046875 L43.7925781,8.68359375 L42.74375,8.68359375 L42.74375,9.52734375 L43.7925781,9.52734375 L43.7925781,15 Z M49.7683594,9.46289062 C48.7605469,9.46289062 48.0574219,10.2011719 47.98125,11.3203125 L51.4617187,11.3203125 C51.4382812,10.2011719 50.7703125,9.46289062 49.7683594,9.46289062 Z M51.4324219,13.3652344 L52.4402344,13.3652344 C52.1355469,14.4492188 51.1628906,15.1113281 49.7800781,15.1113281 C48.028125,15.1113281 46.9324219,13.8457031 46.9324219,11.8476562 C46.9324219,9.86132812 48.0457031,8.57226562 49.7800781,8.57226562 C51.4851562,8.57226562 52.5222656,9.78515625 52.5222656,11.7480469 L52.5222656,12.1347656 L47.98125,12.1347656 L47.98125,12.1816406 C48.0339844,13.4296875 48.73125,14.2207031 49.8035156,14.2207031 C50.6179687,14.2207031 51.16875,13.921875 51.4324219,13.3652344 Z M56.4238281,9.46289062 C55.4160156,9.46289062 54.7128906,10.2011719 54.6367187,11.3203125 L58.1171875,11.3203125 C58.09375,10.2011719 57.4257812,9.46289062 56.4238281,9.46289062 Z M58.0878906,13.3652344 L59.0957031,13.3652344 C58.7910156,14.4492188 57.8183594,15.1113281 56.4355469,15.1113281 C54.6835937,15.1113281 53.5878906,13.8457031 53.5878906,11.8476562 C53.5878906,9.86132812 54.7011719,8.57226562 56.4355469,8.57226562 C58.140625,8.57226562 59.1777344,9.78515625 59.1777344,11.7480469 L59.1777344,12.1347656 L54.6367187,12.1347656 L54.6367187,12.1816406 C54.6894531,13.4296875 55.3867187,14.2207031 56.4589844,14.2207031 C57.2734375,14.2207031 57.8242187,13.921875 58.0878906,13.3652344 Z" id="Coffee" fill="#FFFFFF"></path>
            </g>
            <g id="Food-Button-Copy-2" transform="translate(260.000000, 173.000000)">
                <path d="M0,10.5 C0,4.70101013 4.70078759,0 10.4975378,0 L65,0 L65,21 L10.4975378,21 C4.69990778,21 0,16.3002649 0,10.5 L0,10.5 Z" id="Rectangle-3" fill="#2A959A"></path>
                <path d="M25.6738281,13.7910156 C25.7851562,15.25 27.0214844,16.1992188 28.8144531,16.1992188 C30.7480469,16.1992188 31.9726562,15.2089844 31.9726562,13.65625 C31.9726562,12.4140625 31.2695312,11.734375 29.5175781,11.2949219 L28.6328125,11.0605469 C27.4667969,10.7617188 27.0039062,10.3808594 27.0039062,9.71875 C27.0039062,8.86328125 27.7480469,8.30078125 28.8730469,8.30078125 C29.9277344,8.30078125 30.6425781,8.81640625 30.7890625,9.68359375 L31.8496094,9.68359375 C31.7617188,8.31835938 30.5429688,7.34570312 28.9082031,7.34570312 C27.1210938,7.34570312 25.9199219,8.31835938 25.9199219,9.75390625 C25.9199219,10.9550781 26.5820312,11.6464844 28.1113281,12.0332031 L29.1953125,12.3144531 C30.3613281,12.6074219 30.8886719,13.0644531 30.8886719,13.7851562 C30.8886719,14.6230469 30.0507812,15.2382812 28.9140625,15.2382812 C27.7128906,15.2382812 26.8691406,14.6757812 26.7402344,13.7910156 L25.6738281,13.7910156 Z M35.3410156,15.2265625 C36.378125,15.2265625 37.1457031,14.546875 37.1457031,13.6445312 L37.1457031,13.0644531 L35.4464844,13.1757812 C34.4855469,13.2402344 34.0636719,13.5742188 34.0636719,14.2070312 C34.0636719,14.8515625 34.6085937,15.2265625 35.3410156,15.2265625 Z M35.1535156,16.1113281 C33.9289062,16.1113281 33.0207031,15.3847656 33.0207031,14.2304688 C33.0207031,13.0996094 33.8527344,12.4492188 35.3234375,12.3613281 L37.1457031,12.25 L37.1457031,11.6757812 C37.1457031,10.8964844 36.659375,10.46875 35.7160156,10.46875 C34.9601562,10.46875 34.4328125,10.7558594 34.2921875,11.2539062 L33.2726562,11.2539062 C33.4074219,10.2402344 34.4035156,9.57226562 35.7511719,9.57226562 C37.2921875,9.57226562 38.1535156,10.3632812 38.1535156,11.6757812 L38.1535156,16 L37.1925781,16 L37.1925781,15.0683594 L37.0988281,15.0683594 C36.6886719,15.7421875 35.9972656,16.1113281 35.1535156,16.1113281 Z M39.8167969,16 L40.8246094,16 L40.8246094,12.2617188 C40.8246094,11.1542969 41.475,10.4804688 42.4828125,10.4804688 C43.490625,10.4804688 43.9710937,11.0195312 43.9710937,12.15625 L43.9710937,16 L44.9789062,16 L44.9789062,11.9101562 C44.9789062,10.4101562 44.1878906,9.57226562 42.7699219,9.57226562 C41.803125,9.57226562 41.1878906,9.98242188 40.8714844,10.6796875 L40.7777344,10.6796875 L40.7777344,9.68359375 L39.8167969,9.68359375 L39.8167969,16 Z M48.9566406,16.1113281 C47.3394531,16.1113281 46.3023437,14.828125 46.3023437,12.8417969 C46.3023437,10.8613281 47.3511719,9.57226562 48.9566406,9.57226562 C49.8355469,9.57226562 50.5796875,9.98828125 50.9371094,10.6796875 L51.025,10.6796875 L51.025,7.17578125 L52.0328125,7.17578125 L52.0328125,16 L51.071875,16 L51.071875,14.9921875 L50.978125,14.9921875 C50.5796875,15.6953125 49.8296875,16.1113281 48.9566406,16.1113281 Z M49.1910156,10.4804688 C48.0425781,10.4804688 47.3453125,11.3710938 47.3453125,12.8417969 C47.3453125,14.3183594 48.0367187,15.203125 49.1910156,15.203125 C50.3394531,15.203125 51.0484375,14.3007812 51.0484375,12.8417969 C51.0484375,11.3945312 50.3335937,10.4804688 49.1910156,10.4804688 Z M61.7351562,9.68359375 L60.7214844,9.68359375 L59.4792969,14.734375 L59.3855469,14.734375 L57.9734375,9.68359375 L57.0066406,9.68359375 L55.5945312,14.734375 L55.5007812,14.734375 L54.2585937,9.68359375 L53.2390625,9.68359375 L55.0085937,16 L56.028125,16 L57.434375,11.1132812 L57.528125,11.1132812 L58.9402344,16 L59.965625,16 L61.7351562,9.68359375 Z M62.90625,16 L63.9140625,16 L63.9140625,9.68359375 L62.90625,9.68359375 L62.90625,16 Z M63.4101562,8.40039062 C63.796875,8.40039062 64.1132812,8.08398438 64.1132812,7.69726562 C64.1132812,7.31054688 63.796875,6.99414062 63.4101562,6.99414062 C63.0234375,6.99414062 62.7070312,7.31054688 62.7070312,7.69726562 C62.7070312,8.08398438 63.0234375,8.40039062 63.4101562,8.40039062 Z" id="Sandwi" fill="#FFFFFF"></path>
            </g>
            <rect id="Rectangle-18" fill="url(#linearGradient-6)" x="315" y="165" width="10" height="29"></rect>
            <path d="M324.5,165.5 L20.5,165.5" id="Line" stroke="#707376" stroke-linecap="square"></path>
            <g id="coffee_to_go" transform="translate(188.000000, 176.000000)" fill-rule="nonzero" fill="#FFFFFF">
                <path d="M9.375,1.171875 L8.671875,1.171875 L8.671875,0.46875 C8.671875,0.21 8.46210937,0 8.203125,0 L1.640625,0 C1.381875,0 1.171875,0.21 1.171875,0.46875 L1.171875,1.171875 L0.46875,1.171875 C0.21,1.171875 0,1.381875 0,1.640625 L0,3.28125 C0,3.54 0.21,3.75 0.46875,3.75 L0.740625,3.75 L0.93609375,6.09398437 C0.8034375,6.09445312 0.677109375,6.1509375 0.58828125,6.24984375 C0.499453125,6.34921875 0.456796875,6.48164062 0.471796875,6.61429687 L0.940546875,10.8330469 C0.965390625,11.0564063 1.14515625,11.2267969 1.36546875,11.24625 L1.6425,14.5703906 C1.66265625,14.8132031 1.86585938,15 2.109375,15 L7.734375,15 C7.97835937,15 8.18132812,14.8132031 8.20171875,14.5701563 L8.47875,11.2460156 C8.69882813,11.2265625 8.87882813,11.0561719 8.9034375,10.8328125 L9.3721875,6.6140625 C9.38671875,6.48164062 9.34453125,6.34898437 9.25546875,6.24960937 C9.16710937,6.15070312 9.04078125,6.09421875 8.908125,6.09375 L9.10335938,3.75 L9.375,3.75 C9.63398437,3.75 9.84375,3.54 9.84375,3.28125 L9.84375,1.640625 C9.84375,1.381875 9.63398437,1.171875 9.375,1.171875 Z M1.640625,2.109375 C1.89960938,2.109375 2.109375,1.899375 2.109375,1.640625 L2.109375,0.9375 L7.734375,0.9375 L7.734375,1.640625 C7.734375,1.899375 7.944375,2.109375 8.203125,2.109375 L8.90625,2.109375 L8.90625,2.8125 L8.671875,2.8125 L1.171875,2.8125 L0.9375,2.8125 L0.9375,2.109375 L1.640625,2.109375 Z M8.38265625,7.03125 L8.01820312,10.3125 L1.82601562,10.3125 L1.46109375,7.03125 L8.38265625,7.03125 Z M2.54085938,14.0625 L2.30648438,11.25 L7.5375,11.25 L7.303125,14.0625 L2.54085938,14.0625 Z M7.96710937,6.09375 L1.876875,6.09375 L1.68140625,3.75 L8.16234375,3.75 L7.96710937,6.09375 Z" id="Shape"></path>
            </g>
            <g id="bread" transform="translate(266.000000, 177.000000)" fill-rule="nonzero" fill="#FFFFFF">
                <path d="M14.9988281,2.35429688 C14.9990625,2.35078125 15,2.34773437 15,2.34421875 C15,1.0546875 13.9530469,0.005390625 12.6646875,0.0009375 C12.6616406,0.0009375 12.6590625,0 12.6560156,0 L2.34398437,0 C2.34070313,0 2.338125,0.0009375 2.33484375,0.0009375 C1.04976563,0.005859375 0.005859375,1.05 0.0009375,2.33507812 C0.0009375,2.33835938 0,2.3409375 0,2.34421875 C0,3.34007813 0.777890625,4.18476562 1.629375,4.54804687 L1.40695313,11.2340625 C1.40695313,11.236875 1.40742188,11.2392188 1.40742188,11.2420313 C1.40742188,11.2446094 1.40671875,11.2469531 1.40671875,11.2495312 C1.40671875,12.0250781 2.0371875,12.6557813 2.81273437,12.6557813 L12.1872656,12.65625 C12.9628125,12.65625 13.5932813,12.0255469 13.5932813,11.25 C13.5932813,11.2474219 13.5925781,11.2450781 13.5925781,11.2425 C13.5925781,11.2396875 13.5930469,11.2373438 13.5930469,11.2345312 L13.3701563,4.54828125 C14.2188281,4.18523438 14.9939062,3.34476562 14.9988281,2.35429688 Z M12.7732031,3.76476562 C12.5571094,3.82054687 12.41625,4.01882812 12.4228125,4.23304687 C12.4223438,4.23304687 12.4221094,4.23328125 12.4216406,4.23328125 L12.6555469,11.251875 C12.654375,11.5094531 12.4448438,11.71875 12.1872656,11.71875 L2.81273438,11.7182813 C2.55492188,11.7182813 2.345625,11.5089844 2.34445313,11.2516406 L2.57789063,4.23351562 C2.58539063,4.00570313 2.4290625,3.8109375 2.21484375,3.76148437 C1.60921875,3.6 0.939609375,2.98382813 0.937734375,2.34703125 C0.937734375,2.34609375 0.93796875,2.34515625 0.93796875,2.34421875 C0.93796875,1.56867187 1.5684375,0.93796875 2.34398438,0.93796875 C2.345625,0.93796875 2.34703125,0.9375 2.34867188,0.9375 L12.6520313,0.9375 C12.6536719,0.9375 12.6550781,0.93796875 12.6567188,0.93796875 C13.4310938,0.93796875 14.0608594,1.56726563 14.0625,2.34117188 C14.0625,2.34210937 14.0622656,2.34328125 14.0622656,2.34421875 C14.0620312,2.985 13.3830469,3.6075 12.7732031,3.76476562 Z" id="Shape"></path>
            </g>
            <g id="take-away" transform="translate(155.000000, 19.000000)" fill-rule="nonzero" fill="#FFFFFF">
                <path d="M5.23532847,14.0887105 L1.08413625,14.0887105 C0.815425791,14.0887105 0.597518248,13.8708516 0.597518248,13.6020925 C0.597518248,13.3333333 0.815425791,13.1154745 1.08413625,13.1154745 L5.23532847,13.1154745 C5.50403893,13.1154745 5.72194647,13.3333333 5.72194647,13.6020925 C5.72194647,13.8708516 5.50403893,14.0887105 5.23532847,14.0887105 Z M1.41158151,1.00077859 L4.95343066,1.00077859 C5.21552311,1.00077859 5.42875912,1.21396594 5.42875912,1.47605839 C5.42875912,1.73824818 5.21552311,1.95153285 4.95343066,1.95153285 L2.70574209,1.95153285 C1.90705596,1.95153285 1.25722628,2.60131387 1.25722628,3.40004866 C1.25722628,4.19888078 1.90705596,4.84875912 2.70574209,4.84875912 L4.25980535,4.84875912 C4.52189781,4.84875912 4.73513382,5.0620438 4.73513382,5.32423358 L4.73513382,6.06238443 C4.73513382,6.33114355 4.95304136,6.54900243 5.22175182,6.54900243 C5.49046229,6.54900243 5.70836983,6.33114355 5.70836983,6.06238443 L5.70836983,5.32423358 C5.70836983,4.52540146 5.05854015,3.87552311 4.25980535,3.87552311 L2.70574209,3.87552311 C2.44364964,3.87552311 2.23046229,3.66223844 2.23046229,3.40004866 C2.23046229,3.13800487 2.44364964,2.92476886 2.70574209,2.92476886 L4.95343066,2.92476886 C5.75216545,2.92476886 6.40199513,2.27489051 6.40199513,1.47605839 C6.40199513,0.677323601 5.75216545,0.0275425791 4.95343066,0.0275425791 L1.41158151,0.0275425791 C1.14287105,0.0275425791 0.924963504,0.24540146 0.924963504,0.514160584 C0.924963504,0.782919708 1.14282238,1.00077859 1.41158151,1.00077859 L1.41158151,1.00077859 Z M19.9685645,7.61678832 L19.9685645,19.4543552 C19.9685645,19.7231144 19.7506569,19.9409732 19.4819465,19.9409732 L2.79902676,19.9409732 C2.5303163,19.9409732 2.31240876,19.7231144 2.31240876,19.4543552 L2.31240876,15.8948905 L1.61372263,15.8948905 C1.34501217,15.8948905 1.12710462,15.6770316 1.12710462,15.4082725 C1.12710462,15.1395134 1.34501217,14.9216545 1.61372263,14.9216545 L7.14287105,14.9216545 C7.41158151,14.9216545 7.62948905,15.1395134 7.62948905,15.4082725 C7.62948905,15.6770316 7.41158151,15.8948905 7.14287105,15.8948905 L3.28564477,15.8948905 L3.28564477,18.9677372 L18.9953285,18.9677372 L18.9953285,8.10340633 L3.28564477,8.10340633 L3.28564477,11.3092944 L8.13951338,11.3092944 C8.40822384,11.3092944 8.62613139,11.5271533 8.62613139,11.7959124 C8.62613139,12.0646715 8.40822384,12.2825304 8.13951338,12.2825304 L0.486618005,12.2825304 C0.217907543,12.2825304 0,12.0646715 0,11.7959124 C0,11.5271533 0.217907543,11.3092944 0.486618005,11.3092944 L2.31240876,11.3092944 L2.31240876,7.61678832 C2.31240876,7.3480292 2.5303163,7.13017032 2.79902676,7.13017032 L7.10257908,7.13017032 L7.10257908,2.88170316 C7.10257908,1.30793187 8.38291971,0.0275425791 9.95664234,0.0275425791 L12.3243309,0.0275425791 C13.8981022,0.0275425791 15.1784428,1.30793187 15.1784428,2.88170316 L15.1784428,7.13021898 L19.4819465,7.13021898 C19.7506569,7.13017032 19.9685645,7.3480292 19.9685645,7.61678832 L19.9685645,7.61678832 Z M14.2052068,2.88170316 C14.2052068,1.84457421 13.3614599,1.00077859 12.3243309,1.00077859 L9.95664234,1.00077859 C8.91951338,1.00077859 8.07581509,1.84457421 8.07581509,2.88170316 L8.07581509,7.13021898 L14.2052555,7.13021898 L14.2052555,2.88170316 L14.2052068,2.88170316 Z M10.7455961,17.1236983 L8.39951338,14.316837 C8.2783455,14.1718735 8.25206813,13.9698783 8.33206813,13.7986861 C8.41206813,13.6274939 8.58394161,13.5181509 8.77289538,13.5181509 L9.26861314,13.5181509 C10.5004866,11.2595134 11.6043309,9.77289538 12.9160584,9.77289538 C14.2277372,9.77289538 15.3315815,11.2595134 16.5635036,13.5181509 L17.0592701,13.5181509 C17.2482238,13.5181509 17.4200973,13.6275426 17.5000973,13.7986861 C17.580146,13.9698783 17.55382,14.1718735 17.4326521,14.316837 L15.0865693,17.1236983 C14.9941119,17.2343066 14.8573723,17.2982482 14.7131873,17.2982482 L11.1190268,17.2982482 C10.9747932,17.2982482 10.8381022,17.2343552 10.7455961,17.1236983 L10.7455961,17.1236983 Z M10.3822871,13.5181509 L15.449781,13.5181509 C14.6846229,12.1720681 13.7180049,10.7461314 12.9160584,10.7461314 C12.1141119,10.7461314 11.1473966,12.1721168 10.3822871,13.5181509 L10.3822871,13.5181509 Z M9.81386861,14.4913869 L11.346472,16.3250122 L14.4856934,16.3250122 L16.0182968,14.4913869 L9.81386861,14.4913869 L9.81386861,14.4913869 Z" id="Shape"></path>
            </g>
        </g>
    </g>
</svg>