<?xml version="1.0" encoding="UTF-8"?>
<svg width="330px" height="265px" viewBox="0 0 330 265" version="1.1" xmlns="http://www.w3.org/2000/svg" xmlns:xlink="http://www.w3.org/1999/xlink">
    <!-- Generator: Sketch 43.2 (39069) - http://www.bohemiancoding.com/sketch -->
    <title>Plan-Trip-One</title>
    <desc>Created with Sketch.</desc>
    <defs>
        <rect id="path-1" x="5" y="33" width="320" height="222" rx="5"></rect>
        <filter x="-2.2%" y="-2.3%" width="104.4%" height="106.3%" filterUnits="objectBoundingBox" id="filter-2">
            <feOffset dx="0" dy="2" in="SourceAlpha" result="shadowOffsetOuter1"></feOffset>
            <feGaussianBlur stdDeviation="2" in="shadowOffsetOuter1" result="shadowBlurOuter1"></feGaussianBlur>
            <feColorMatrix values="0 0 0 0 0   0 0 0 0 0   0 0 0 0 0  0 0 0 0.5 0" type="matrix" in="shadowBlurOuter1"></feColorMatrix>
        </filter>
    </defs>
    <g id="Page-1" stroke="none" stroke-width="1" fill="none" fill-rule="evenodd">
        <g id="Plan-Trip-One">
            <g id="Rectangle-12">
                <use fill="black" fill-opacity="1" filter="url(#filter-2)" xlink:href="#path-1"></use>
                <use fill="#FEFEFE" fill-rule="evenodd" xlink:href="#path-1"></use>
            </g>
            <path d="M5.5,185 L325.5,185" id="Separator-Copy-2" stroke="#C8C7CC" stroke-width="0.5" stroke-linecap="square"></path>
            <path d="M5,37.992435 C5,35.2351893 7.23613477,33 9.99427662,33 L320.005723,33 C322.763986,33 325,35.2368881 325,37.992435 L325,185 L5,185 L5,37.992435 Z" id="Rectangle-2" fill-opacity="0.5" fill="#E5E5E5"></path>
            <g id="Form" transform="translate(32.000000, 76.000000)">
                <rect id="Rectangle-13" fill="#FFFFFF" x="0" y="0" width="265" height="93" rx="4"></rect>
                <path d="M12.84375,29 L12.84375,24.1171875 L17.8359375,24.1171875 L17.8359375,22.8671875 L12.84375,22.8671875 L12.84375,18.9921875 L18.28125,18.9921875 L18.28125,17.7265625 L11.4375,17.7265625 L11.4375,29 L12.84375,29 Z M20.021875,29 L21.365625,29 L21.365625,23.78125 C21.365625,22.59375 22.2953125,21.734375 23.5765625,21.734375 C23.8421875,21.734375 24.3265625,21.78125 24.4359375,21.8125 L24.4359375,20.46875 C24.2640625,20.4453125 23.9828125,20.4296875 23.7640625,20.4296875 C22.646875,20.4296875 21.678125,21.0078125 21.428125,21.828125 L21.303125,21.828125 L21.303125,20.578125 L20.021875,20.578125 L20.021875,29 Z M28.9421875,29.1484375 C26.54375,29.1484375 25.059375,27.4921875 25.059375,24.7890625 C25.059375,22.078125 26.54375,20.4296875 28.9421875,20.4296875 C31.340625,20.4296875 32.825,22.078125 32.825,24.7890625 C32.825,27.4921875 31.340625,29.1484375 28.9421875,29.1484375 Z M28.9421875,27.9375 C30.5359375,27.9375 31.434375,26.78125 31.434375,24.7890625 C31.434375,22.7890625 30.5359375,21.640625 28.9421875,21.640625 C27.3484375,21.640625 26.45,22.7890625 26.45,24.7890625 C26.45,26.78125 27.3484375,27.9375 28.9421875,27.9375 Z M34.534375,29 L35.878125,29 L35.878125,23.78125 C35.878125,22.59375 36.7296875,21.640625 37.83125,21.640625 C38.89375,21.640625 39.5890625,22.28125 39.5890625,23.28125 L39.5890625,29 L40.9328125,29 L40.9328125,23.5859375 C40.9328125,22.515625 41.7140625,21.640625 42.8859375,21.640625 C44.0734375,21.640625 44.659375,22.25 44.659375,23.4921875 L44.659375,29 L46.003125,29 L46.003125,23.1796875 C46.003125,21.4140625 45.0421875,20.4296875 43.3234375,20.4296875 C42.159375,20.4296875 41.1984375,21.015625 40.7453125,21.90625 L40.6203125,21.90625 C40.2296875,21.03125 39.4328125,20.4296875 38.2921875,20.4296875 C37.1671875,20.4296875 36.3234375,20.96875 35.940625,21.90625 L35.815625,21.90625 L35.815625,20.578125 L34.534375,20.578125 L34.534375,29 Z M49.165625,29.078125 C49.728125,29.078125 50.18125,28.6171875 50.18125,28.0625 C50.18125,27.5 49.728125,27.046875 49.165625,27.046875 C48.6109375,27.046875 48.15,27.5 48.15,28.0625 C48.15,28.6171875 48.6109375,29.078125 49.165625,29.078125 Z M49.165625,23.0703125 C49.728125,23.0703125 50.18125,22.609375 50.18125,22.0546875 C50.18125,21.4921875 49.728125,21.0390625 49.165625,21.0390625 C48.6109375,21.0390625 48.15,21.4921875 48.15,22.0546875 C48.15,22.609375 48.6109375,23.0703125 49.165625,23.0703125 Z" id="From:" fill="#929292"></path>
                <path d="M15.7734375,76 L14.3671875,76 L14.3671875,65.9921875 L10.734375,65.9921875 L10.734375,64.7265625 L19.40625,64.7265625 L19.40625,65.9921875 L15.7734375,65.9921875 L15.7734375,76 Z M22.9046875,76.1484375 C20.50625,76.1484375 19.021875,74.4921875 19.021875,71.7890625 C19.021875,69.078125 20.50625,67.4296875 22.9046875,67.4296875 C25.303125,67.4296875 26.7875,69.078125 26.7875,71.7890625 C26.7875,74.4921875 25.303125,76.1484375 22.9046875,76.1484375 Z M22.9046875,74.9375 C24.4984375,74.9375 25.396875,73.78125 25.396875,71.7890625 C25.396875,69.7890625 24.4984375,68.640625 22.9046875,68.640625 C21.3109375,68.640625 20.4125,69.7890625 20.4125,71.7890625 C20.4125,73.78125 21.3109375,74.9375 22.9046875,74.9375 Z M29.60625,76.078125 C30.16875,76.078125 30.621875,75.6171875 30.621875,75.0625 C30.621875,74.5 30.16875,74.046875 29.60625,74.046875 C29.0515625,74.046875 28.590625,74.5 28.590625,75.0625 C28.590625,75.6171875 29.0515625,76.078125 29.60625,76.078125 Z M29.60625,70.0703125 C30.16875,70.0703125 30.621875,69.609375 30.621875,69.0546875 C30.621875,68.4921875 30.16875,68.0390625 29.60625,68.0390625 C29.0515625,68.0390625 28.590625,68.4921875 28.590625,69.0546875 C28.590625,69.609375 29.0515625,70.0703125 29.60625,70.0703125 Z" id="To:" fill="#929292"></path>
                <rect id="Rectangle-15" fill="#E5E5E5" x="58" y="11" width="140" height="27" rx="4"></rect>
                <path d="M63.3105469,29 L63.3105469,19.840332 L62.1679688,19.840332 L62.1679688,29 L63.3105469,29 Z M69.117806,29.2158203 C71.0665365,29.2158203 72.5138021,28.1303711 72.8184896,26.4482422 L71.6568685,26.4482422 C71.3648763,27.5083008 70.3936849,28.1621094 69.117806,28.1621094 C67.3531576,28.1621094 66.2486654,26.7211914 66.2486654,24.4233398 C66.2486654,22.1254883 67.3531576,20.6782227 69.1114583,20.6782227 C70.3746419,20.6782227 71.352181,21.4208984 71.6568685,22.6015625 L72.8184896,22.6015625 C72.5455404,20.8369141 71.0411458,19.6245117 69.1114583,19.6245117 C66.6231771,19.6245117 65.074349,21.465332 65.074349,24.4233398 C65.074349,27.375 66.6295247,29.2158203 69.117806,29.2158203 Z M78.2884766,20.3862305 L78.2884766,22.1572266 L77.1839844,22.1572266 L77.1839844,23.0712891 L78.2884766,23.0712891 L78.2884766,27.2226562 C78.2884766,28.5302734 78.853418,29.0507812 80.2625977,29.0507812 C80.478418,29.0507812 80.6878906,29.0253906 80.9037109,28.9873047 L80.9037109,28.0668945 C80.7005859,28.0859375 80.5926758,28.0922852 80.3958984,28.0922852 C79.6849609,28.0922852 79.3802734,27.7495117 79.3802734,26.9433594 L79.3802734,23.0712891 L80.9037109,23.0712891 L80.9037109,22.1572266 L79.3802734,22.1572266 L79.3802734,20.3862305 L78.2884766,20.3862305 Z M85.0542318,29.1206055 C83.1055013,29.1206055 81.8994466,27.7749023 81.8994466,25.5786133 C81.8994466,23.3759766 83.1055013,22.0366211 85.0542318,22.0366211 C87.0029622,22.0366211 88.2090169,23.3759766 88.2090169,25.5786133 C88.2090169,27.7749023 87.0029622,29.1206055 85.0542318,29.1206055 Z M85.0542318,28.1367188 C86.3491536,28.1367188 87.0791341,27.1972656 87.0791341,25.5786133 C87.0791341,23.9536133 86.3491536,23.0205078 85.0542318,23.0205078 C83.7593099,23.0205078 83.0293294,23.9536133 83.0293294,25.5786133 C83.0293294,27.1972656 83.7593099,28.1367188 85.0542318,28.1367188 Z M98.0597331,22.1572266 L96.9615885,22.1572266 L95.6158854,27.6289062 L95.5143229,27.6289062 L93.9845378,22.1572266 L92.9371745,22.1572266 L91.4073893,27.6289062 L91.3058268,27.6289062 L89.9601237,22.1572266 L88.8556315,22.1572266 L90.7726237,29 L91.8771159,29 L93.4005534,23.7060547 L93.5021159,23.7060547 L95.031901,29 L96.1427409,29 L98.0597331,22.1572266 Z M101.22002,28.1621094 C102.343555,28.1621094 103.175098,27.4257812 103.175098,26.4482422 L103.175098,25.8198242 L101.334277,25.9404297 C100.293262,26.0102539 99.8362305,26.3720703 99.8362305,27.0576172 C99.8362305,27.7558594 100.426562,28.1621094 101.22002,28.1621094 Z M101.016895,29.1206055 C99.6902344,29.1206055 98.7063476,28.3334961 98.7063476,27.0830078 C98.7063476,25.8579102 99.6077148,25.1533203 101.200977,25.0581055 L103.175098,24.9375 L103.175098,24.3154297 C103.175098,23.4711914 102.648242,23.0078125 101.62627,23.0078125 C100.807422,23.0078125 100.236133,23.3188477 100.083789,23.8583984 L98.9792969,23.8583984 C99.125293,22.7602539 100.204395,22.0366211 101.664355,22.0366211 C103.333789,22.0366211 104.266895,22.8935547 104.266895,24.3154297 L104.266895,29 L103.225879,29 L103.225879,27.9907227 L103.124316,27.9907227 C102.67998,28.7207031 101.930957,29.1206055 101.016895,29.1206055 Z M106.068783,29 L107.160579,29 L107.160579,24.7597656 C107.160579,23.7949219 107.915951,23.0966797 108.956966,23.0966797 C109.172786,23.0966797 109.566341,23.1347656 109.655208,23.1601562 L109.655208,22.0683594 C109.51556,22.0493164 109.287044,22.0366211 109.10931,22.0366211 C108.201595,22.0366211 107.414486,22.5063477 107.211361,23.1728516 L107.109798,23.1728516 L107.109798,22.1572266 L106.068783,22.1572266 L106.068783,29 Z M113.145573,29.1206055 C111.39362,29.1206055 110.270085,27.7304688 110.270085,25.5786133 C110.270085,23.4331055 111.406315,22.0366211 113.145573,22.0366211 C114.097721,22.0366211 114.903874,22.4873047 115.291081,23.2363281 L115.386296,23.2363281 L115.386296,19.4404297 L116.478092,19.4404297 L116.478092,29 L115.437077,29 L115.437077,27.9082031 L115.335514,27.9082031 C114.903874,28.6699219 114.091374,29.1206055 113.145573,29.1206055 Z M113.399479,23.0205078 C112.155339,23.0205078 111.399967,23.9853516 111.399967,25.5786133 C111.399967,27.1782227 112.148991,28.1367188 113.399479,28.1367188 C114.64362,28.1367188 115.411686,27.1591797 115.411686,25.5786133 C115.411686,24.0107422 114.637272,23.0205078 113.399479,23.0205078 Z M118.222852,24.0297852 C118.222852,25.0200195 118.806836,25.5722656 120.089062,25.8833008 L121.263379,26.1689453 C121.993359,26.3466797 122.348828,26.6640625 122.348828,27.1337891 C122.348828,27.762207 121.688672,28.2001953 120.768262,28.2001953 C119.892285,28.2001953 119.346387,27.8320312 119.162305,27.2543945 L118.03877,27.2543945 C118.159375,28.390625 119.206738,29.1206055 120.730176,29.1206055 C122.285352,29.1206055 123.472363,28.2763672 123.472363,27.0512695 C123.472363,26.0673828 122.850293,25.5087891 121.561719,25.1977539 L120.508008,24.9438477 C119.701855,24.7470703 119.320996,24.4550781 119.320996,23.9853516 C119.320996,23.3759766 119.955762,22.9633789 120.768262,22.9633789 C121.593457,22.9633789 122.12666,23.3251953 122.272656,23.8710938 L123.351758,23.8710938 C123.205762,22.7475586 122.20918,22.0366211 120.774609,22.0366211 C119.320996,22.0366211 118.222852,22.8935547 118.222852,24.0297852 Z M136.248503,25.4580078 L136.248503,24.3408203 L132.535124,24.3408203 L132.535124,25.34375 L135.112272,25.34375 L135.112272,25.565918 C135.112272,27.1147461 134.001432,28.1621094 132.363737,28.1621094 C130.522917,28.1621094 129.380339,26.7275391 129.380339,24.4169922 C129.380339,22.1381836 130.54196,20.6782227 132.357389,20.6782227 C133.715788,20.6782227 134.636198,21.3320312 135.029753,22.5698242 L136.191374,22.5698242 C135.861296,20.7543945 134.388639,19.6245117 132.357389,19.6245117 C129.850065,19.6245117 128.206022,21.5224609 128.206022,24.4169922 C128.206022,27.3496094 129.824674,29.2158203 132.357389,29.2158203 C134.699674,29.2158203 136.248503,27.7177734 136.248503,25.4580078 Z M137.910742,29 L139.002539,29 L139.002539,24.7597656 C139.002539,23.7949219 139.75791,23.0966797 140.798926,23.0966797 C141.014746,23.0966797 141.408301,23.1347656 141.497168,23.1601562 L141.497168,22.0683594 C141.35752,22.0493164 141.129004,22.0366211 140.95127,22.0366211 C140.043555,22.0366211 139.256445,22.5063477 139.05332,23.1728516 L138.951758,23.1728516 L138.951758,22.1572266 L137.910742,22.1572266 L137.910742,29 Z M145.266829,29.1206055 C143.318099,29.1206055 142.112044,27.7749023 142.112044,25.5786133 C142.112044,23.3759766 143.318099,22.0366211 145.266829,22.0366211 C147.21556,22.0366211 148.421615,23.3759766 148.421615,25.5786133 C148.421615,27.7749023 147.21556,29.1206055 145.266829,29.1206055 Z M145.266829,28.1367188 C146.561751,28.1367188 147.291732,27.1972656 147.291732,25.5786133 C147.291732,23.9536133 146.561751,23.0205078 145.266829,23.0205078 C143.971908,23.0205078 143.241927,23.9536133 143.241927,25.5786133 C143.241927,27.1972656 143.971908,28.1367188 145.266829,28.1367188 Z M149.918815,29 L151.010612,29 L151.010612,24.9501953 C151.010612,23.7504883 151.715202,23.0205078 152.806999,23.0205078 C153.898796,23.0205078 154.419303,23.6044922 154.419303,24.8359375 L154.419303,29 L155.5111,29 L155.5111,24.5693359 C155.5111,22.9443359 154.654167,22.0366211 153.118034,22.0366211 C152.070671,22.0366211 151.404167,22.480957 151.061393,23.2363281 L150.959831,23.2363281 L150.959831,22.1572266 L149.918815,22.1572266 L149.918815,29 Z M157.312988,29 L158.404785,29 L158.404785,22.1572266 L157.312988,22.1572266 L157.312988,29 Z M157.858887,20.7670898 C158.277832,20.7670898 158.620605,20.4243164 158.620605,20.0053711 C158.620605,19.5864258 158.277832,19.2436523 157.858887,19.2436523 C157.439941,19.2436523 157.097168,19.5864258 157.097168,20.0053711 C157.097168,20.4243164 157.439941,20.7670898 157.858887,20.7670898 Z M160.27015,29 L161.361947,29 L161.361947,24.9501953 C161.361947,23.7504883 162.066536,23.0205078 163.158333,23.0205078 C164.25013,23.0205078 164.770638,23.6044922 164.770638,24.8359375 L164.770638,29 L165.862435,29 L165.862435,24.5693359 C165.862435,22.9443359 165.005501,22.0366211 163.469368,22.0366211 C162.422005,22.0366211 161.755501,22.480957 161.412728,23.2363281 L161.311165,23.2363281 L161.311165,22.1572266 L160.27015,22.1572266 L160.27015,29 Z M170.40651,27.9335938 C171.676042,27.9335938 172.43776,26.96875 172.43776,25.4770508 C172.43776,23.9853516 171.669694,23.0205078 170.40651,23.0205078 C169.136979,23.0205078 168.426042,23.9853516 168.426042,25.4770508 C168.426042,26.96875 169.136979,27.9335938 170.40651,27.9335938 Z M170.457292,31.6279297 C168.806901,31.6279297 167.75319,30.8852539 167.588151,29.7553711 L168.743424,29.7553711 C168.86403,30.3139648 169.473405,30.6757812 170.457292,30.6757812 C171.682389,30.6757812 172.41237,30.0727539 172.41237,29.0634766 L172.41237,27.7177734 L172.310807,27.7177734 C171.879167,28.4731445 171.104753,28.8984375 170.165299,28.8984375 C168.394303,28.8984375 167.296159,27.5273438 167.296159,25.4770508 C167.296159,23.4267578 168.406999,22.0366211 170.165299,22.0366211 C171.123796,22.0366211 171.968034,22.5063477 172.361589,23.2426758 L172.463151,23.2426758 L172.463151,22.1572266 L173.504167,22.1572266 L173.504167,29.1206055 C173.504167,30.6503906 172.323503,31.6279297 170.457292,31.6279297 Z M178.073633,23.0014648 C176.981836,23.0014648 176.220117,23.8012695 176.137598,25.0136719 L179.908105,25.0136719 C179.882715,23.8012695 179.159082,23.0014648 178.073633,23.0014648 Z M179.876367,27.2290039 L180.968164,27.2290039 C180.638086,28.4033203 179.584375,29.1206055 178.086328,29.1206055 C176.188379,29.1206055 175.001367,27.7495117 175.001367,25.5849609 C175.001367,23.4331055 176.207422,22.0366211 178.086328,22.0366211 C179.933496,22.0366211 181.057031,23.3505859 181.057031,25.4770508 L181.057031,25.8959961 L176.137598,25.8959961 L176.137598,25.9467773 C176.194727,27.2988281 176.950098,28.1557617 178.111719,28.1557617 C178.994043,28.1557617 179.590723,27.8320312 179.876367,27.2290039 Z M182.554232,29 L183.646029,29 L183.646029,24.9501953 C183.646029,23.7504883 184.350618,23.0205078 185.442415,23.0205078 C186.534212,23.0205078 187.05472,23.6044922 187.05472,24.8359375 L187.05472,29 L188.146517,29 L188.146517,24.5693359 C188.146517,22.9443359 187.289583,22.0366211 185.75345,22.0366211 C184.706087,22.0366211 184.039583,22.480957 183.69681,23.2363281 L183.595247,23.2363281 L183.595247,22.1572266 L182.554232,22.1572266 L182.554232,29 Z" id="IC-towards-Groningen" fill="#1B2024"></path>
                <rect id="Rectangle-7" fill="#4990E2" x="59" y="54" width="2" height="27" rx="1"></rect>
                <path d="M1,46.25 L263.5,46.25" id="Line" stroke="#929292" stroke-width="0.5" stroke-linecap="square"></path>
                <circle id="Oval-3" fill="#ECECEE" cx="234.5" cy="46.5" r="19.5"></circle>
            </g>
            <g id="Group" opacity="0.4" transform="translate(261.000000, 112.000000)" fill="#1A1918">
                <path d="M11.8077463,14.4043846 C11.5516269,14.1520615 11.1352687,14.1520615 10.8791493,14.4043846 L6.74643284,18.4706308 L6.74643284,0.646153846 C6.74643284,0.289153846 6.45255224,0 6.08971642,0 C5.72720896,0 5.433,0.289153846 5.433,0.646153846 L5.433,18.4709538 L1.30028358,14.4047077 C1.04449254,14.1523846 0.628134328,14.1523846 0.371686567,14.4047077 C0.114910448,14.6570308 0.114910448,15.0660462 0.371686567,15.3183692 L5.62541791,20.4876 C5.75347761,20.6139231 5.92159701,20.6769231 6.08971642,20.6769231 C6.25783582,20.6769231 6.42595522,20.6139231 6.55401493,20.4876 C6.55467164,20.4872769 6.55532836,20.4863077 6.55565672,20.4859846 L11.8077463,15.3183692 C12.064194,15.0660462 12.064194,14.6567077 11.8077463,14.4043846" id="Fill-3781"></path>
            </g>
            <path d="M43.7333984,214 L43.7333984,201.317383 L42.1513672,201.317383 L42.1513672,206.801758 L35.1904297,206.801758 L35.1904297,201.317383 L33.6083984,201.317383 L33.6083984,214 L35.1904297,214 L35.1904297,208.225586 L42.1513672,208.225586 L42.1513672,214 L43.7333984,214 Z M50.1126892,214.166992 C48.7650263,214.166992 47.7000955,213.729008 46.917865,212.853027 C46.1356346,211.977046 45.7445252,210.780281 45.7445252,209.262695 C45.7445252,207.73925 46.1356346,206.54102 46.917865,205.667969 C47.7000955,204.794918 48.7650263,204.358398 50.1126892,204.358398 C51.4603522,204.358398 52.525283,204.794918 53.3075135,205.667969 C54.0897439,206.54102 54.4808533,207.73925 54.4808533,209.262695 C54.4808533,210.780281 54.0897439,211.977046 53.3075135,212.853027 C52.525283,213.729008 51.4603522,214.166992 50.1126892,214.166992 Z M50.1126892,212.804688 C51.0091781,212.804688 51.7005774,212.494144 52.186908,211.873047 C52.6732386,211.25195 52.9164002,210.381842 52.9164002,209.262695 C52.9164002,208.13769 52.6732386,207.266116 52.186908,206.647949 C51.7005774,206.029782 51.0091781,205.720703 50.1126892,205.720703 C49.2162004,205.720703 48.5248011,206.029782 48.0384705,206.647949 C47.5521399,207.266116 47.3089783,208.13769 47.3089783,209.262695 C47.3089783,210.381842 47.5521399,211.25195 48.0384705,211.873047 C48.5248011,212.494144 49.2162004,212.804688 50.1126892,212.804688 Z M56.2986207,214 L57.8103394,214 L57.8103394,208.128906 C57.8103394,207.460934 58.0212748,206.89258 58.4431519,206.423828 C58.865029,205.955076 59.3865082,205.720703 60.0076051,205.720703 C60.6052643,205.720703 61.0842634,205.887694 61.4446168,206.22168 C61.8049701,206.555666 61.9851441,207.003903 61.9851441,207.566406 L61.9851441,214 L63.4968629,214 L63.4968629,207.90918 C63.4968629,207.305661 63.6990093,206.790041 64.1033082,206.362305 C64.5076071,205.934568 65.0378752,205.720703 65.6941285,205.720703 C66.3621006,205.720703 66.8616073,205.893553 67.1926637,206.239258 C67.52372,206.584963 67.6892457,207.106442 67.6892457,207.803711 L67.6892457,214 L69.2009644,214 L69.2009644,207.452148 C69.2009644,206.45605 68.9402249,205.691409 68.4187379,205.158203 C67.8972509,204.624997 67.1531177,204.358398 66.186316,204.358398 C65.5300627,204.358398 64.9470607,204.509276 64.4372926,204.811035 C63.9275244,205.112794 63.5437392,205.515622 63.2859254,206.019531 L63.1453004,206.019531 C62.9285024,205.527341 62.5989159,205.127443 62.1565308,204.819824 C61.7141458,204.512205 61.1706942,204.358398 60.5261597,204.358398 C59.8933441,204.358398 59.3484277,204.503417 58.8913941,204.793457 C58.4343606,205.083498 58.0974499,205.492185 57.8806519,206.019531 L57.7400269,206.019531 L57.7400269,204.525391 L56.2986207,204.525391 L56.2986207,214 Z M75.1847474,205.694336 C74.4288843,205.694336 73.8077967,205.949216 73.3214662,206.458984 C72.8351356,206.968753 72.5626774,207.642574 72.5040834,208.480469 L77.7247865,208.480469 C77.7072083,207.642574 77.4669763,206.968753 77.0040834,206.458984 C76.5411904,205.949216 75.9347512,205.694336 75.1847474,205.694336 Z M77.6808412,211.547852 L79.1925599,211.547852 C78.9640432,212.362309 78.5011572,213.002439 77.8038881,213.468262 C77.1066189,213.934084 76.2394401,214.166992 75.2023256,214.166992 C73.889819,214.166992 72.8497903,213.726079 72.0822084,212.844238 C71.3146264,211.962398 70.9308412,210.771492 70.9308412,209.271484 C70.9308412,207.783196 71.3175561,206.59229 72.0909974,205.69873 C72.8644388,204.805171 73.9015378,204.358398 75.2023256,204.358398 C76.4796757,204.358398 77.4845485,204.784664 78.216974,205.637207 C78.9493995,206.48975 79.3156068,207.65136 79.3156068,209.12207 L79.3156068,209.702148 L72.5040834,209.702148 L72.5040834,209.772461 C72.5450992,210.709966 72.8102333,211.454099 73.2994935,212.004883 C73.7887538,212.555667 74.4347434,212.831055 75.2374818,212.831055 C75.8468599,212.831055 76.3566204,212.721193 76.7667787,212.501465 C77.176937,212.281737 77.4816214,211.963869 77.6808412,211.547852 Z" id="Home" fill="#030303"></path>
            <g id="small_1" opacity="0.7" transform="translate(273.000000, 203.000000)" fill-rule="nonzero" fill="#000000">
                <path d="M9.79071429,8.78071429 L2.43821429,1.42857143 L8.79535714,1.42857143 C9.18964286,1.42857143 9.50964286,1.10857143 9.50964286,0.714285714 C9.50964286,0.319642857 9.18964286,0 8.79535714,0 L0.714285714,0 C0.32,0 0,0.319642857 0,0.714285714 L0,8.79535714 C0,9.18964286 0.32,9.50964286 0.714285714,9.50964286 C1.10857143,9.50964286 1.42857143,9.18964286 1.42857143,8.79535714 L1.42857143,2.43857143 L8.78071429,9.79071429 C8.92035714,9.93035714 9.10285714,10 9.28571429,10 C9.46857143,10 9.65107143,9.93035714 9.79071429,9.79071429 C10.0696429,9.51178571 10.0696429,9.05964286 9.79071429,8.78071429 Z" id="Shape"></path>
            </g>
            <path d="M20,232.25 L310,232.25" id="Line" stroke="#C9C9C9" stroke-width="0.5" stroke-linecap="square"></path>
            <g id="Group" transform="translate(143.000000, 6.000000)" fill="#339499">
                <rect id="Rectangle-14" x="0" y="0" width="45" height="45" rx="10"></rect>
            </g>
            <g id="directions_1" transform="translate(155.000000, 11.000000)" fill-rule="nonzero" fill="#FEFEFE">
                <path d="M10,14.4444444 C10.3127778,14.4444444 10.6122222,14.3122222 10.8222222,14.0811111 C10.9927778,13.8933333 15,9.43166667 15,4.77777778 C15,2.14277778 12.7572222,0 10,0 C7.24277778,0 5,2.14277778 5,4.77777778 C5,9.43166667 9.00722222,13.8933333 9.17777778,14.0811111 C9.38777778,14.3122222 9.68722222,14.4444444 10,14.4444444 Z M10,2.22222222 C11.5316667,2.22222222 12.7777778,3.36833333 12.7777778,4.77777778 C12.7777778,7.40611111 11.0611111,10.1277778 9.99888889,11.5605556 C8.93611111,10.1305556 7.22222222,7.41555556 7.22222222,4.77777778 C7.22222222,3.36833333 8.46833333,2.22222222 10,2.22222222 Z" id="Shape"></path>
                <circle id="Oval" cx="10" cy="5" r="1.11111111"></circle>
                <path d="M15,24.4444444 L5,24.4444444 C3.46833333,24.4444444 2.22222222,23.1983333 2.22222222,21.6666667 C2.22222222,20.135 3.46833333,18.8888889 5,18.8888889 L8.08611111,18.8888889 C8.47111111,19.55 9.18,20 10,20 C11.2272222,20 12.2222222,19.005 12.2222222,17.7777778 C12.2222222,16.5505556 11.2272222,15.5555556 10,15.5555556 C9.17944444,15.5555556 8.47111111,16.0055556 8.08611111,16.6666667 L5,16.6666667 C2.24277778,16.6666667 0,18.9094444 0,21.6666667 C0,24.4238889 2.24277778,26.6666667 5,26.6666667 L15,26.6666667 C16.5316667,26.6666667 17.7777778,27.9127778 17.7777778,29.4444444 C17.7777778,30.9761111 16.5316667,32.2222222 15,32.2222222 L4.13611111,32.2222222 C3.75111111,31.5611111 3.04277778,31.1111111 2.22222222,31.1111111 C0.995,31.1111111 0,32.1061111 0,33.3333333 C0,34.5605556 0.995,35.5555556 2.22222222,35.5555556 C3.04277778,35.5555556 3.75111111,35.1055556 4.13611111,34.4444444 L15,34.4444444 C17.7572222,34.4444444 20,32.2016667 20,29.4444444 C20,26.6872222 17.7572222,24.4444444 15,24.4444444 Z" id="Shape"></path>
            </g>
        </g>
    </g>
</svg>