<?xml version="1.0" encoding="UTF-8"?>
<svg width="330px" height="265px" viewBox="0 0 330 265" version="1.1" xmlns="http://www.w3.org/2000/svg" xmlns:xlink="http://www.w3.org/1999/xlink">
    <!-- Generator: Sketch 43.2 (39069) - http://www.bohemiancoding.com/sketch -->
    <title>ov-reminders-one</title>
    <desc>Created with Sketch.</desc>
    <defs>
        <rect id="path-1" x="0" y="0" width="320" height="222" rx="5"></rect>
        <filter x="-2.2%" y="-2.3%" width="104.4%" height="106.3%" filterUnits="objectBoundingBox" id="filter-3">
            <feOffset dx="0" dy="2" in="SourceAlpha" result="shadowOffsetOuter1"></feOffset>
            <feGaussianBlur stdDeviation="2" in="shadowOffsetOuter1" result="shadowBlurOuter1"></feGaussianBlur>
            <feComposite in="shadowBlurOuter1" in2="SourceAlpha" operator="out" result="shadowBlurOuter1"></feComposite>
            <feColorMatrix values="0 0 0 0 0   0 0 0 0 0   0 0 0 0 0  0 0 0 0.5 0" type="matrix" in="shadowBlurOuter1"></feColorMatrix>
        </filter>
        <filter x="-1.2%" y="-2.5%" width="102.7%" height="108.1%" filterUnits="objectBoundingBox" id="filter-4">
            <feOffset dx="0" dy="1" in="SourceAlpha" result="shadowOffsetOuter1"></feOffset>
            <feGaussianBlur stdDeviation="1" in="shadowOffsetOuter1" result="shadowBlurOuter1"></feGaussianBlur>
            <feColorMatrix values="0 0 0 0 0   0 0 0 0 0   0 0 0 0 0  0 0 0 0.3 0" type="matrix" in="shadowBlurOuter1" result="shadowMatrixOuter1"></feColorMatrix>
            <feMerge>
                <feMergeNode in="shadowMatrixOuter1"></feMergeNode>
                <feMergeNode in="SourceGraphic"></feMergeNode>
            </feMerge>
        </filter>
        <rect id="path-5" x="0" y="0" width="20" height="20" rx="5"></rect>
    </defs>
    <g id="Page-1" stroke="none" stroke-width="1" fill="none" fill-rule="evenodd">
        <g id="ov-reminders-one">
            <g id="Rectangle-12" transform="translate(5.000000, 32.000000)">
                <g id="Mask" style="mix-blend-mode: difference;">
                    <mask id="mask-2" fill="white">
                        <use xlink:href="#path-1"></use>
                    </mask>
                    <g>
                        <use fill="black" fill-opacity="1" filter="url(#filter-3)" xlink:href="#path-1"></use>
                        <use fill-opacity="0.08" fill="#57989C" fill-rule="evenodd" xlink:href="#path-1"></use>
                    </g>
                </g>
            </g>
            <rect id="Rectangle-14" fill="#339499" x="142" y="6" width="45" height="45" rx="10"></rect>
            <g id="1-string-push-copy" transform="translate(15.000000, 112.000000)">
                <g id="1-string-push">
                    <rect id="Rectangle" fill="#FFFFFF" x="0" y="0" width="300" height="99" rx="12"></rect>
                    <g id="highlight">
                        <path d="M0,0 L300,0 L300,19.9933381 C300,26.6244344 294.633557,32 288.008029,32 L11.9919705,32 C5.36898808,32 0,26.6258815 0,19.9933381 L0,0 Z" id="Rectangle-Copy" fill-opacity="0.252519248" fill="#F1F1F1" transform="translate(150.000000, 16.000000) scale(1, -1) translate(-150.000000, -16.000000) "></path>
                        <path d="M43.1157227,22 L42.9760742,21.6032715 C42.8829748,21.3387845 42.7761236,21.0341 42.6555176,20.689209 C42.5349115,20.3443179 42.4280604,20.0396335 42.3349609,19.7751465 L42.1953125,19.378418 L38.5517578,19.378418 L37.6313477,22 L36.4316406,22 L39.8085938,12.840332 L40.9384766,12.840332 L44.3154297,22 L43.1157227,22 Z M40.3227539,14.3193359 L40.1767578,14.7319336 C40.0794266,15.0070001 39.9598803,15.3476542 39.8181152,15.7539062 L39.3928223,16.9726562 C39.2510572,17.3789083 39.1315109,17.7195624 39.0341797,17.9946289 L38.8881836,18.4072266 L41.8588867,18.4072266 L40.4243164,14.3193359 L40.3227539,14.3193359 Z M45.4072266,19.6069336 C45.4664717,20.3982787 45.8060679,21.0309221 46.4260254,21.5048828 C47.0459829,21.9788435 47.8404899,22.2158203 48.8095703,22.2158203 C49.8590547,22.2158203 50.6916473,21.9672063 51.307373,21.4699707 C51.9230988,20.9727351 52.230957,20.3030641 52.230957,19.4609375 C52.230957,18.7880826 52.0246603,18.2527689 51.6120605,17.8549805 C51.1994608,17.457192 50.5192105,17.1398124 49.5712891,16.902832 L48.612793,16.6489258 C47.982256,16.4881177 47.5305189,16.295574 47.2575684,16.0712891 C46.9846178,15.8470041 46.8481445,15.5550148 46.8481445,15.1953125 C46.8481445,14.7298154 47.0332827,14.3574233 47.4035645,14.078125 C47.7738463,13.7988267 48.2636688,13.6591797 48.8730469,13.6591797 C49.4443388,13.6591797 49.9130027,13.7914212 50.2790527,14.0559082 C50.6451027,14.3203952 50.8683264,14.6874977 50.9487305,15.1572266 L52.0976562,15.1572266 C52.0511065,14.416663 51.7294952,13.8094099 51.1328125,13.3354492 C50.5361298,12.8614885 49.7955773,12.6245117 48.9111328,12.6245117 C47.9420524,12.6245117 47.1602406,12.8646623 46.5656738,13.3449707 C45.9711071,13.8252791 45.6738281,14.4547487 45.6738281,15.2333984 C45.6738281,15.8850944 45.86214,16.4066549 46.2387695,16.7980957 C46.615399,17.1895365 47.2184203,17.4910471 48.0478516,17.7026367 L49.222168,18.0073242 C49.852705,18.1639005 50.3160792,18.3712552 50.6123047,18.6293945 C50.9085301,18.8875338 51.0566406,19.2112611 51.0566406,19.6005859 C51.0566406,20.0533877 50.8545756,20.4289536 50.4504395,20.7272949 C50.0463033,21.0256363 49.5353221,21.1748047 48.9174805,21.1748047 C48.2657845,21.1748047 47.728355,21.0330418 47.3051758,20.7495117 C46.8819966,20.4659817 46.6344405,20.0851261 46.5625,19.6069336 L45.4072266,19.6069336 Z M53.6147461,19.6069336 C53.6739912,20.3982787 54.0135874,21.0309221 54.6335449,21.5048828 C55.2535024,21.9788435 56.0480095,22.2158203 57.0170898,22.2158203 C58.0665743,22.2158203 58.8991668,21.9672063 59.5148926,21.4699707 C60.1306183,20.9727351 60.4384766,20.3030641 60.4384766,19.4609375 C60.4384766,18.7880826 60.2321798,18.2527689 59.8195801,17.8549805 C59.4069804,17.457192 58.72673,17.1398124 57.7788086,16.902832 L56.8203125,16.6489258 C56.1897755,16.4881177 55.7380385,16.295574 55.4650879,16.0712891 C55.1921373,15.8470041 55.0556641,15.5550148 55.0556641,15.1953125 C55.0556641,14.7298154 55.2408022,14.3574233 55.611084,14.078125 C55.9813658,13.7988267 56.4711884,13.6591797 57.0805664,13.6591797 C57.6518583,13.6591797 58.1205223,13.7914212 58.4865723,14.0559082 C58.8526223,14.3203952 59.075846,14.6874977 59.15625,15.1572266 L60.3051758,15.1572266 C60.2586261,14.416663 59.9370147,13.8094099 59.340332,13.3354492 C58.7436494,12.8614885 58.0030969,12.6245117 57.1186523,12.6245117 C56.149572,12.6245117 55.3677601,12.8646623 54.7731934,13.3449707 C54.1786266,13.8252791 53.8813477,14.4547487 53.8813477,15.2333984 C53.8813477,15.8850944 54.0696596,16.4066549 54.4462891,16.7980957 C54.8229185,17.1895365 55.4259399,17.4910471 56.2553711,17.7026367 L57.4296875,18.0073242 C58.0602245,18.1639005 58.5235988,18.3712552 58.8198242,18.6293945 C59.1160497,18.8875338 59.2641602,19.2112611 59.2641602,19.6005859 C59.2641602,20.0533877 59.0620951,20.4289536 58.657959,20.7272949 C58.2538228,21.0256363 57.7428416,21.1748047 57.125,21.1748047 C56.473304,21.1748047 55.9358745,21.0330418 55.5126953,20.7495117 C55.0895161,20.4659817 54.84196,20.0851261 54.7700195,19.6069336 L53.6147461,19.6069336 Z M63.402832,22 L63.402832,12.840332 L62.2602539,12.840332 L62.2602539,22 L63.402832,22 Z M65.2246094,19.6069336 C65.2838545,20.3982787 65.6234507,21.0309221 66.2434082,21.5048828 C66.8633657,21.9788435 67.6578728,22.2158203 68.6269531,22.2158203 C69.6764375,22.2158203 70.5090301,21.9672063 71.1247559,21.4699707 C71.7404816,20.9727351 72.0483398,20.3030641 72.0483398,19.4609375 C72.0483398,18.7880826 71.8420431,18.2527689 71.4294434,17.8549805 C71.0168436,17.457192 70.3365933,17.1398124 69.3886719,16.902832 L68.4301758,16.6489258 C67.7996388,16.4881177 67.3479018,16.295574 67.0749512,16.0712891 C66.8020006,15.8470041 66.6655273,15.5550148 66.6655273,15.1953125 C66.6655273,14.7298154 66.8506655,14.3574233 67.2209473,14.078125 C67.5912291,13.7988267 68.0810516,13.6591797 68.6904297,13.6591797 C69.2617216,13.6591797 69.7303855,13.7914212 70.0964355,14.0559082 C70.4624856,14.3203952 70.6857092,14.6874977 70.7661133,15.1572266 L71.9150391,15.1572266 C71.8684894,14.416663 71.546878,13.8094099 70.9501953,13.3354492 C70.3535126,12.8614885 69.6129602,12.6245117 68.7285156,12.6245117 C67.7594353,12.6245117 66.9776234,12.8646623 66.3830566,13.3449707 C65.7884899,13.8252791 65.4912109,14.4547487 65.4912109,15.2333984 C65.4912109,15.8850944 65.6795229,16.4066549 66.0561523,16.7980957 C66.4327818,17.1895365 67.0358031,17.4910471 67.8652344,17.7026367 L69.0395508,18.0073242 C69.6700878,18.1639005 70.1334621,18.3712552 70.4296875,18.6293945 C70.7259129,18.8875338 70.8740234,19.2112611 70.8740234,19.6005859 C70.8740234,20.0533877 70.6719584,20.4289536 70.2678223,20.7272949 C69.8636861,21.0256363 69.3527049,21.1748047 68.7348633,21.1748047 C68.0831673,21.1748047 67.5457378,21.0330418 67.1225586,20.7495117 C66.6993794,20.4659817 66.4518233,20.0851261 66.3798828,19.6069336 L65.2246094,19.6069336 Z M77.3930664,22 L77.3930664,13.8686523 L80.3447266,13.8686523 L80.3447266,12.840332 L73.2988281,12.840332 L73.2988281,13.8686523 L76.2504883,13.8686523 L76.2504883,22 L77.3930664,22 Z M87.9873047,22 L87.8476562,21.6032715 C87.7545568,21.3387845 87.6477057,21.0341 87.5270996,20.689209 C87.4064935,20.3443179 87.2996424,20.0396335 87.206543,19.7751465 L87.0668945,19.378418 L83.4233398,19.378418 L82.5029297,22 L81.3032227,22 L84.6801758,12.840332 L85.8100586,12.840332 L89.1870117,22 L87.9873047,22 Z M85.1943359,14.3193359 L85.0483398,14.7319336 C84.9510086,15.0070001 84.8314623,15.3476542 84.6896973,15.7539062 L84.2644043,16.9726562 C84.1226393,17.3789083 84.0030929,17.7195624 83.9057617,17.9946289 L83.7597656,18.4072266 L86.7304688,18.4072266 L85.2958984,14.3193359 L85.1943359,14.3193359 Z M91.8466797,22 L91.8466797,14.8969727 L91.9482422,14.8969727 L96.918457,22 L98.0292969,22 L98.0292969,12.840332 L96.8994141,12.840332 L96.8994141,19.96875 L96.7978516,19.96875 L91.8276367,12.840332 L90.7167969,12.840332 L90.7167969,22 L91.8466797,22 Z M103.812012,22 L103.812012,13.8686523 L106.763672,13.8686523 L106.763672,12.840332 L99.7177734,12.840332 L99.7177734,13.8686523 L102.669434,13.8686523 L102.669434,22 L103.812012,22 Z" id="assistant" fill="#9B9B9B" opacity="0.900000036" style="mix-blend-mode: difference;"></path>
                        <path d="M255.558594,22 L256.566406,22 L256.566406,18.2617188 C256.566406,17.7070285 256.716795,17.271486 257.017578,16.9550781 C257.318361,16.6386703 257.720701,16.4804688 258.224609,16.4804688 C258.728518,16.4804688 259.102538,16.6171861 259.34668,16.890625 C259.590822,17.1640639 259.712891,17.5859346 259.712891,18.15625 L259.712891,22 L260.720703,22 L260.720703,17.9101562 C260.720703,17.1601525 260.530275,16.5830098 260.149414,16.1787109 C259.768553,15.774412 259.22266,15.5722656 258.511719,15.5722656 C258.027341,15.5722656 257.629884,15.6699209 257.319336,15.8652344 C257.008788,16.0605479 256.773438,16.3320295 256.613281,16.6796875 L256.519531,16.6796875 L256.519531,15.6835938 L255.558594,15.6835938 L255.558594,22 Z M265.15625,22.1113281 C264.257808,22.1113281 263.547854,21.8193389 263.026367,21.2353516 C262.50488,20.6513643 262.244141,19.8535207 262.244141,18.8417969 C262.244141,17.8261668 262.50488,17.0273467 263.026367,16.4453125 C263.547854,15.8632783 264.257808,15.5722656 265.15625,15.5722656 C266.054692,15.5722656 266.764646,15.8632783 267.286133,16.4453125 C267.80762,17.0273467 268.068359,17.8261668 268.068359,18.8417969 C268.068359,19.8535207 267.80762,20.6513643 267.286133,21.2353516 C266.764646,21.8193389 266.054692,22.1113281 265.15625,22.1113281 Z M265.15625,21.203125 C265.753909,21.203125 266.214842,20.9960958 266.539062,20.5820312 C266.863283,20.1679667 267.025391,19.5878944 267.025391,18.8417969 C267.025391,18.0917931 266.863283,17.5107442 266.539062,17.0986328 C266.214842,16.6865214 265.753909,16.4804688 265.15625,16.4804688 C264.558591,16.4804688 264.097658,16.6865214 263.773438,17.0986328 C263.449217,17.5107442 263.287109,18.0917931 263.287109,18.8417969 C263.287109,19.5878944 263.449217,20.1679667 263.773438,20.5820312 C264.097658,20.9960958 264.558591,21.203125 265.15625,21.203125 Z M277.595703,15.6835938 L276.582031,15.6835938 L275.339844,20.734375 L275.246094,20.734375 L273.833984,15.6835938 L272.867188,15.6835938 L271.455078,20.734375 L271.361328,20.734375 L270.119141,15.6835938 L269.099609,15.6835938 L270.869141,22 L271.888672,22 L273.294922,17.1132812 L273.388672,17.1132812 L274.800781,22 L275.826172,22 L276.004883,21.3613281 C276.124024,20.9355447 276.271483,20.4091828 276.447266,19.7822266 L276.974609,17.9013672 C277.150392,17.2744109 277.297851,16.748049 277.416992,16.3222656 L277.595703,15.6835938 Z" id="time" fill="#808080" style="mix-blend-mode: difference;"></path>
                        <g id="app-logo" transform="translate(8.000000, 6.000000)">
                            <mask id="mask-6" fill="white">
                                <use xlink:href="#path-5"></use>
                            </mask>
                            <use id="Mask" fill="#41BCC3" xlink:href="#path-5"></use>
                        </g>
                    </g>
                </g>
            </g>
            <path d="M37.2104492,163 L37.0493164,162.542236 C36.941894,162.237059 36.8186042,161.8855 36.6794434,161.487549 C36.5402825,161.089598 36.4169927,160.738039 36.3095703,160.432861 L36.1484375,159.975098 L31.9443359,159.975098 L30.8823242,163 L29.4980469,163 L33.3945312,152.431152 L34.6982422,152.431152 L38.5947266,163 L37.2104492,163 Z M33.987793,154.137695 L33.8193359,154.61377 C33.7070307,154.931154 33.5690926,155.324216 33.4055176,155.792969 L32.9147949,157.199219 C32.7512199,157.667971 32.6132818,158.061034 32.5009766,158.378418 L32.3325195,158.854492 L35.7602539,158.854492 L34.1049805,154.137695 L33.987793,154.137695 Z M40.1254883,163 L41.3852539,163 L41.3852539,151.969727 L40.1254883,151.969727 L40.1254883,163 Z M43.597168,163 L44.8569336,163 L44.8569336,158.107422 C44.8569336,157.550778 45.0327131,157.07715 45.3842773,156.686523 C45.7358416,156.295896 46.1704076,156.100586 46.6879883,156.100586 C47.1860376,156.100586 47.5852036,156.239745 47.885498,156.518066 C48.1857925,156.796388 48.3359375,157.16992 48.3359375,157.638672 L48.3359375,163 L49.5957031,163 L49.5957031,157.924316 C49.5957031,157.421384 49.7641585,156.991701 50.1010742,156.635254 C50.43799,156.278807 50.8798801,156.100586 51.4267578,156.100586 C51.9834012,156.100586 52.3996568,156.244627 52.6755371,156.532715 C52.9514174,156.820802 53.0893555,157.255368 53.0893555,157.836426 L53.0893555,163 L54.3491211,163 L54.3491211,157.543457 C54.3491211,156.713375 54.1318381,156.076174 53.6972656,155.631836 C53.2626931,155.187498 52.6425822,154.965332 51.8369141,154.965332 C51.2900363,154.965332 50.8042013,155.091063 50.3793945,155.342529 C49.9545877,155.593995 49.6347667,155.929685 49.4199219,156.349609 L49.3027344,156.349609 C49.1220694,155.939451 48.847414,155.606202 48.4787598,155.349854 C48.1101056,155.093505 47.6572292,154.965332 47.1201172,154.965332 C46.5927708,154.965332 46.1386738,155.08618 45.7578125,155.327881 C45.3769512,155.569581 45.0961923,155.910154 44.9155273,156.349609 L44.7983398,156.349609 L44.7983398,155.104492 L43.597168,155.104492 L43.597168,163 Z M59.6591797,163.13916 C58.5361272,163.13916 57.6486849,162.774174 56.9968262,162.044189 C56.3449674,161.314205 56.019043,160.316901 56.019043,159.052246 C56.019043,157.782708 56.3449674,156.784183 56.9968262,156.056641 C57.6486849,155.329098 58.5361272,154.965332 59.6591797,154.965332 C60.7822322,154.965332 61.6696745,155.329098 62.3215332,156.056641 C62.9733919,156.784183 63.2993164,157.782708 63.2993164,159.052246 C63.2993164,160.316901 62.9733919,161.314205 62.3215332,162.044189 C61.6696745,162.774174 60.7822322,163.13916 59.6591797,163.13916 Z M59.6591797,162.003906 C60.4062537,162.003906 60.9824198,161.74512 61.3876953,161.227539 C61.7929708,160.709958 61.9956055,159.984868 61.9956055,159.052246 C61.9956055,158.114741 61.7929708,157.38843 61.3876953,156.873291 C60.9824198,156.358152 60.4062537,156.100586 59.6591797,156.100586 C58.9121056,156.100586 58.3359395,156.358152 57.9306641,156.873291 C57.5253886,157.38843 57.3227539,158.114741 57.3227539,159.052246 C57.3227539,159.984868 57.5253886,160.709958 57.9306641,161.227539 C58.3359395,161.74512 58.9121056,162.003906 59.6591797,162.003906 Z M64.859375,157.265137 C64.859375,157.836429 65.0339338,158.290526 65.3830566,158.627441 C65.7321795,158.964357 66.2753869,159.223144 67.0126953,159.403809 L68.3676758,159.733398 C68.7875998,159.835938 69.1013173,159.978759 69.3088379,160.161865 C69.5163585,160.344972 69.6201172,160.573241 69.6201172,160.84668 C69.6201172,161.20801 69.4492205,161.503417 69.1074219,161.73291 C68.7656233,161.962403 68.3286159,162.077148 67.7963867,162.077148 C67.2934545,162.077148 66.8857438,161.978272 66.5732422,161.780518 C66.2607406,161.582763 66.0507818,161.317873 65.9433594,160.98584 L64.6469727,160.98584 C64.7153324,161.64014 65.0302706,162.162596 65.5917969,162.553223 C66.1533231,162.94385 66.8735308,163.13916 67.7524414,163.13916 C68.6508834,163.13916 69.402829,162.918215 70.0083008,162.476318 C70.6137726,162.034422 70.9165039,161.459476 70.9165039,160.751465 C70.9165039,160.185056 70.734621,159.732179 70.3708496,159.392822 C70.0070783,159.053465 69.4541053,158.793458 68.7119141,158.612793 L67.4960938,158.319824 C67.0322242,158.207519 66.6879894,158.062257 66.4633789,157.884033 C66.2387684,157.70581 66.1264648,157.482423 66.1264648,157.213867 C66.1264648,156.862303 66.287596,156.577882 66.6098633,156.360596 C66.9321305,156.143309 67.3276344,156.034668 67.7963867,156.034668 C68.2749047,156.034668 68.6630844,156.129882 68.9609375,156.320312 C69.2587906,156.510743 69.4492183,156.764647 69.5322266,157.082031 L70.7773438,157.082031 C70.6943355,156.432614 70.3855007,155.917482 69.8508301,155.536621 C69.3161594,155.15576 68.6337932,154.965332 67.8037109,154.965332 C66.963863,154.965332 66.2631864,155.185056 65.7016602,155.624512 C65.1401339,156.063967 64.859375,156.610837 64.859375,157.265137 Z M73.1870117,153.061035 L73.1870117,155.104492 L71.9125977,155.104492 L71.9125977,156.15918 L73.1870117,156.15918 L73.1870117,160.949219 C73.1870117,161.701176 73.3640119,162.240721 73.7180176,162.567871 C74.0720233,162.895021 74.6542928,163.058594 75.4648438,163.058594 C75.5917975,163.058594 75.716308,163.05249 75.8383789,163.040283 C75.9604498,163.028076 76.0825189,163.009766 76.2045898,162.985352 L76.2045898,161.92334 C76.0874018,161.933106 75.9885258,161.94043 75.907959,161.945312 C75.8273922,161.950195 75.7309576,161.952637 75.6186523,161.952637 C75.208494,161.952637 74.9106455,161.847657 74.7250977,161.637695 C74.5395499,161.427733 74.4467773,161.090823 74.4467773,160.626953 L74.4467773,156.15918 L76.2045898,156.15918 L76.2045898,155.104492 L74.4467773,155.104492 L74.4467773,153.061035 L73.1870117,153.061035 Z M84.3051758,162.033203 C84.9545931,162.033203 85.4929178,161.843996 85.920166,161.465576 C86.3474142,161.087156 86.5610352,160.61719 86.5610352,160.055664 L86.5610352,159.330566 L84.4370117,159.469727 C83.2846622,159.547852 82.7084961,159.977535 82.7084961,160.758789 C82.7084961,161.159182 82.8598618,161.471679 83.1625977,161.696289 C83.4653335,161.9209 83.8461891,162.033203 84.3051758,162.033203 Z M84.0708008,163.13916 C83.3041954,163.13916 82.6682154,162.927981 82.1628418,162.505615 C81.6574682,162.08325 81.4047852,161.510746 81.4047852,160.788086 C81.4047852,159.342766 82.3642482,158.563965 84.2832031,158.45166 L86.5610352,158.3125 L86.5610352,157.594727 C86.5610352,156.588862 85.965338,156.085938 84.7739258,156.085938 C84.3002906,156.085938 83.9072281,156.171386 83.5947266,156.342285 C83.282225,156.513184 83.0820317,156.754881 82.9941406,157.067383 L81.7197266,157.067383 C81.8027348,156.432614 82.12988,155.923586 82.7011719,155.540283 C83.2724638,155.156981 83.9780231,154.965332 84.8178711,154.965332 C85.77979,154.965332 86.5207494,155.198484 87.0407715,155.664795 C87.5607936,156.131106 87.8208008,156.77441 87.8208008,157.594727 L87.8208008,163 L86.6196289,163 L86.6196289,161.835449 L86.5024414,161.835449 C86.2485339,162.255373 85.9116232,162.577636 85.4916992,162.802246 C85.0717752,163.026857 84.5981472,163.13916 84.0708008,163.13916 Z M90.4428711,153.061035 L90.4428711,155.104492 L89.168457,155.104492 L89.168457,156.15918 L90.4428711,156.15918 L90.4428711,160.949219 C90.4428711,161.701176 90.6198713,162.240721 90.973877,162.567871 C91.3278826,162.895021 91.9101522,163.058594 92.7207031,163.058594 C92.8476569,163.058594 92.9721674,163.05249 93.0942383,163.040283 C93.2163092,163.028076 93.3383783,163.009766 93.4604492,162.985352 L93.4604492,161.92334 C93.3432611,161.933106 93.2443852,161.94043 93.1638184,161.945312 C93.0832516,161.950195 92.986817,161.952637 92.8745117,161.952637 C92.4643534,161.952637 92.1665048,161.847657 91.980957,161.637695 C91.7954092,161.427733 91.7026367,161.090823 91.7026367,160.626953 L91.7026367,156.15918 L93.4604492,156.15918 L93.4604492,155.104492 L91.7026367,155.104492 L91.7026367,153.061035 L90.4428711,153.061035 Z M105.706543,161.813477 L100.608887,161.813477 L100.608887,152.431152 L99.2905273,152.431152 L99.2905273,163 L105.706543,163 L105.706543,161.813477 Z M110.5625,156.078613 C109.932614,156.078613 109.415041,156.291014 109.009766,156.71582 C108.60449,157.140627 108.377442,157.702145 108.328613,158.400391 L112.679199,158.400391 C112.664551,157.702145 112.464357,157.140627 112.078613,156.71582 C111.692869,156.291014 111.187503,156.078613 110.5625,156.078613 Z M112.642578,160.956543 L113.902344,160.956543 C113.711913,161.635257 113.326175,162.168699 112.745117,162.556885 C112.16406,162.94507 111.441411,163.13916 110.577148,163.13916 C109.483393,163.13916 108.616702,162.771732 107.977051,162.036865 C107.337399,161.301998 107.017578,160.309577 107.017578,159.05957 C107.017578,157.81933 107.339841,156.826908 107.984375,156.082275 C108.628909,155.337643 109.493159,154.965332 110.577148,154.965332 C111.641607,154.965332 112.479001,155.320553 113.089355,156.031006 C113.69971,156.741459 114.004883,157.709467 114.004883,158.935059 L114.004883,159.418457 L108.328613,159.418457 L108.328613,159.477051 C108.362793,160.258305 108.583738,160.878416 108.991455,161.337402 C109.399172,161.796389 109.937497,162.025879 110.606445,162.025879 C111.11426,162.025879 111.539061,161.934327 111.880859,161.751221 C112.222658,161.568114 112.476562,161.303224 112.642578,160.956543 Z M115.777344,163 L117.037109,163 L117.037109,155.104492 L115.777344,155.104492 L115.777344,163 Z M116.407227,153.500488 C116.651368,153.500488 116.858886,153.413819 117.029785,153.240479 C117.200684,153.067138 117.286133,152.860841 117.286133,152.621582 C117.286133,152.37744 117.200684,152.169923 117.029785,151.999023 C116.858886,151.828124 116.651368,151.742676 116.407227,151.742676 C116.167968,151.742676 115.961671,151.828124 115.78833,151.999023 C115.614989,152.169923 115.52832,152.37744 115.52832,152.621582 C115.52832,152.860841 115.614989,153.067138 115.78833,153.240479 C115.961671,153.413819 116.167968,153.500488 116.407227,153.500488 Z M122.127441,163.13916 C121.116694,163.13916 120.311038,162.76807 119.710449,162.025879 C119.10986,161.283688 118.80957,160.292487 118.80957,159.052246 C118.80957,157.812006 119.112302,156.820804 119.717773,156.078613 C120.323245,155.336422 121.12646,154.965332 122.127441,154.965332 C122.679202,154.965332 123.173582,155.087401 123.610596,155.331543 C124.04761,155.575685 124.378417,155.915037 124.603027,156.349609 L124.712891,156.349609 L124.712891,151.969727 L125.972656,151.969727 L125.972656,163 L124.771484,163 L124.771484,161.740234 L124.654297,161.740234 C124.405272,162.17969 124.058596,162.522704 123.614258,162.769287 C123.16992,163.01587 122.674319,163.13916 122.127441,163.13916 Z M122.42041,156.100586 C121.702633,156.100586 121.138674,156.363034 120.728516,156.887939 C120.318357,157.412844 120.113281,158.134273 120.113281,159.052246 C120.113281,159.975102 120.317137,160.697751 120.724854,161.220215 C121.13257,161.742678 121.69775,162.003906 122.42041,162.003906 C123.138187,162.003906 123.704588,161.740237 124.119629,161.212891 C124.53467,160.685544 124.742188,159.965337 124.742188,159.052246 C124.742188,158.148921 124.533449,157.431155 124.115967,156.898926 C123.698484,156.366697 123.133304,156.100586 122.42041,156.100586 Z M131.333984,156.078613 C130.704098,156.078613 130.186525,156.291014 129.78125,156.71582 C129.375975,157.140627 129.148926,157.702145 129.100098,158.400391 L133.450684,158.400391 C133.436035,157.702145 133.235842,157.140627 132.850098,156.71582 C132.464354,156.291014 131.958987,156.078613 131.333984,156.078613 Z M133.414062,160.956543 L134.673828,160.956543 C134.483397,161.635257 134.097659,162.168699 133.516602,162.556885 C132.935544,162.94507 132.212895,163.13916 131.348633,163.13916 C130.254877,163.13916 129.388187,162.771732 128.748535,162.036865 C128.108884,161.301998 127.789062,160.309577 127.789062,159.05957 C127.789062,157.81933 128.111325,156.826908 128.755859,156.082275 C129.400394,155.337643 130.264643,154.965332 131.348633,154.965332 C132.413091,154.965332 133.250485,155.320553 133.86084,156.031006 C134.471194,156.741459 134.776367,157.709467 134.776367,158.935059 L134.776367,159.418457 L129.100098,159.418457 L129.100098,159.477051 C129.134278,160.258305 129.355223,160.878416 129.762939,161.337402 C130.170656,161.796389 130.708981,162.025879 131.37793,162.025879 C131.885745,162.025879 132.310545,161.934327 132.652344,161.751221 C132.994142,161.568114 133.248046,161.303224 133.414062,160.956543 Z M136.519531,163 L137.779297,163 L137.779297,158.327148 C137.779297,157.633786 137.967283,157.089357 138.343262,156.693848 C138.71924,156.298338 139.222165,156.100586 139.852051,156.100586 C140.481937,156.100586 140.949461,156.271483 141.254639,156.613281 C141.559816,156.95508 141.712402,157.482418 141.712402,158.195312 L141.712402,163 L142.972168,163 L142.972168,157.887695 C142.972168,156.950191 142.734133,156.228762 142.258057,155.723389 C141.78198,155.218015 141.099614,154.965332 140.210938,154.965332 C139.605466,154.965332 139.108645,155.087401 138.720459,155.331543 C138.332273,155.575685 138.038087,155.915037 137.837891,156.349609 L137.720703,156.349609 L137.720703,155.104492 L136.519531,155.104492 L136.519531,163 Z M153.453125,163.249023 C154.576177,163.249023 155.524654,162.95972 156.298584,162.381104 C157.072514,161.802487 157.547362,161.027349 157.723145,160.055664 L156.382812,160.055664 C156.216796,160.666019 155.871341,161.148192 155.346436,161.502197 C154.821531,161.856203 154.190433,162.033203 153.453125,162.033203 C152.437495,162.033203 151.631839,161.645023 151.036133,160.868652 C150.440427,160.092281 150.142578,159.042487 150.142578,157.719238 C150.142578,156.391107 150.439206,155.338871 151.032471,154.5625 C151.625735,153.786129 152.430171,153.397949 153.445801,153.397949 C154.173343,153.397949 154.800779,153.596922 155.328125,153.994873 C155.855471,154.392824 156.20703,154.93359 156.382812,155.617188 L157.723145,155.617188 C157.566894,154.596675 157.093266,153.769046 156.302246,153.134277 C155.511227,152.499509 154.559088,152.182129 153.445801,152.182129 C152.010247,152.182129 150.875004,152.677729 150.040039,153.668945 C149.205074,154.660161 148.787598,156.010245 148.787598,157.719238 C148.787598,159.423348 149.206295,160.770991 150.043701,161.762207 C150.881108,162.753423 152.017571,163.249023 153.453125,163.249023 Z M162.688965,156.078613 C162.059079,156.078613 161.541506,156.291014 161.13623,156.71582 C160.730955,157.140627 160.503906,157.702145 160.455078,158.400391 L164.805664,158.400391 C164.791016,157.702145 164.590822,157.140627 164.205078,156.71582 C163.819334,156.291014 163.313968,156.078613 162.688965,156.078613 Z M164.769043,160.956543 L166.028809,160.956543 C165.838378,161.635257 165.45264,162.168699 164.871582,162.556885 C164.290524,162.94507 163.567875,163.13916 162.703613,163.13916 C161.609858,163.13916 160.743167,162.771732 160.103516,162.036865 C159.463864,161.301998 159.144043,160.309577 159.144043,159.05957 C159.144043,157.81933 159.466305,156.826908 160.11084,156.082275 C160.755374,155.337643 161.619623,154.965332 162.703613,154.965332 C163.768072,154.965332 164.605466,155.320553 165.21582,156.031006 C165.826175,156.741459 166.131348,157.709467 166.131348,158.935059 L166.131348,159.418457 L160.455078,159.418457 L160.455078,159.477051 C160.489258,160.258305 160.710203,160.878416 161.11792,161.337402 C161.525637,161.796389 162.063961,162.025879 162.73291,162.025879 C163.240725,162.025879 163.665526,161.934327 164.007324,161.751221 C164.349123,161.568114 164.603027,161.303224 164.769043,160.956543 Z M167.874512,163 L169.134277,163 L169.134277,158.327148 C169.134277,157.633786 169.322264,157.089357 169.698242,156.693848 C170.074221,156.298338 170.577145,156.100586 171.207031,156.100586 C171.836917,156.100586 172.304442,156.271483 172.609619,156.613281 C172.914796,156.95508 173.067383,157.482418 173.067383,158.195312 L173.067383,163 L174.327148,163 L174.327148,157.887695 C174.327148,156.950191 174.089114,156.228762 173.613037,155.723389 C173.136961,155.218015 172.454594,154.965332 171.565918,154.965332 C170.960446,154.965332 170.463625,155.087401 170.075439,155.331543 C169.687254,155.575685 169.393067,155.915037 169.192871,156.349609 L169.075684,156.349609 L169.075684,155.104492 L167.874512,155.104492 L167.874512,163 Z M176.919922,153.061035 L176.919922,155.104492 L175.645508,155.104492 L175.645508,156.15918 L176.919922,156.15918 L176.919922,160.949219 C176.919922,161.701176 177.096922,162.240721 177.450928,162.567871 C177.804933,162.895021 178.387203,163.058594 179.197754,163.058594 C179.324708,163.058594 179.449218,163.05249 179.571289,163.040283 C179.69336,163.028076 179.815429,163.009766 179.9375,162.985352 L179.9375,161.92334 C179.820312,161.933106 179.721436,161.94043 179.640869,161.945312 C179.560302,161.950195 179.463868,161.952637 179.351562,161.952637 C178.941404,161.952637 178.643556,161.847657 178.458008,161.637695 C178.27246,161.427733 178.179688,161.090823 178.179688,160.626953 L178.179688,156.15918 L179.9375,156.15918 L179.9375,155.104492 L178.179688,155.104492 L178.179688,153.061035 L176.919922,153.061035 Z M181.607422,163 L182.867188,163 L182.867188,158.107422 C182.867188,157.550778 183.062498,157.091799 183.453125,156.730469 C183.843752,156.369139 184.339352,156.188477 184.939941,156.188477 C185.066895,156.188477 185.220702,156.197021 185.401367,156.214111 C185.582032,156.231201 185.696777,156.24707 185.745605,156.261719 L185.745605,155.001953 C185.66748,154.992187 185.568604,154.983643 185.448975,154.976318 C185.329345,154.968994 185.218262,154.965332 185.115723,154.965332 C184.593259,154.965332 184.126955,155.087401 183.716797,155.331543 C183.306639,155.575685 183.042969,155.890623 182.925781,156.276367 L182.808594,156.276367 L182.808594,155.104492 L181.607422,155.104492 L181.607422,163 Z M189.517578,162.033203 C190.166995,162.033203 190.70532,161.843996 191.132568,161.465576 C191.559817,161.087156 191.773438,160.61719 191.773438,160.055664 L191.773438,159.330566 L189.649414,159.469727 C188.497065,159.547852 187.920898,159.977535 187.920898,160.758789 C187.920898,161.159182 188.072264,161.471679 188.375,161.696289 C188.677736,161.9209 189.058591,162.033203 189.517578,162.033203 Z M189.283203,163.13916 C188.516598,163.13916 187.880618,162.927981 187.375244,162.505615 C186.869871,162.08325 186.617188,161.510746 186.617188,160.788086 C186.617188,159.342766 187.576651,158.563965 189.495605,158.45166 L191.773438,158.3125 L191.773438,157.594727 C191.773438,156.588862 191.17774,156.085938 189.986328,156.085938 C189.512693,156.085938 189.11963,156.171386 188.807129,156.342285 C188.494627,156.513184 188.294434,156.754881 188.206543,157.067383 L186.932129,157.067383 C187.015137,156.432614 187.342282,155.923586 187.913574,155.540283 C188.484866,155.156981 189.190425,154.965332 190.030273,154.965332 C190.992192,154.965332 191.733152,155.198484 192.253174,155.664795 C192.773196,156.131106 193.033203,156.77441 193.033203,157.594727 L193.033203,163 L191.832031,163 L191.832031,161.835449 L191.714844,161.835449 C191.460936,162.255373 191.124026,162.577636 190.704102,162.802246 C190.284178,163.026857 189.81055,163.13916 189.283203,163.13916 Z M195.201172,163 L196.460938,163 L196.460938,151.969727 L195.201172,151.969727 L195.201172,163 Z M202.327637,160.23877 C202.395996,161.15186 202.787838,161.881833 203.503174,162.428711 C204.218509,162.975589 205.135248,163.249023 206.253418,163.249023 C207.464362,163.249023 208.425045,162.962161 209.135498,162.388428 C209.845951,161.814694 210.201172,161.041997 210.201172,160.070312 C210.201172,159.293941 209.963137,158.676272 209.487061,158.217285 C209.010984,157.758298 208.22608,157.392091 207.132324,157.118652 L206.026367,156.825684 C205.298824,156.640136 204.777589,156.41797 204.462646,156.15918 C204.147704,155.900389 203.990234,155.563479 203.990234,155.148438 C203.990234,154.611325 204.203855,154.181642 204.631104,153.859375 C205.058352,153.537108 205.623532,153.375977 206.32666,153.375977 C206.985843,153.375977 207.526609,153.528563 207.948975,153.83374 C208.37134,154.138918 208.628906,154.562497 208.72168,155.104492 L210.047363,155.104492 C209.993652,154.249996 209.622562,153.549319 208.934082,153.002441 C208.245602,152.455564 207.391118,152.182129 206.370605,152.182129 C205.252436,152.182129 204.350345,152.459226 203.664307,153.013428 C202.978268,153.56763 202.635254,154.293941 202.635254,155.192383 C202.635254,155.94434 202.852537,156.54614 203.287109,156.997803 C203.721682,157.449465 204.417476,157.797362 205.374512,158.041504 L206.729492,158.393066 C207.457035,158.573731 207.991698,158.812987 208.333496,159.11084 C208.675295,159.408693 208.846191,159.782224 208.846191,160.231445 C208.846191,160.753909 208.613039,161.187254 208.146729,161.531494 C207.680418,161.875734 207.090824,162.047852 206.37793,162.047852 C205.625973,162.047852 205.005862,161.884279 204.517578,161.557129 C204.029294,161.229979 203.743653,160.79053 203.660645,160.23877 L202.327637,160.23877 Z M212.522949,153.061035 L212.522949,155.104492 L211.248535,155.104492 L211.248535,156.15918 L212.522949,156.15918 L212.522949,160.949219 C212.522949,161.701176 212.699949,162.240721 213.053955,162.567871 C213.407961,162.895021 213.99023,163.058594 214.800781,163.058594 C214.927735,163.058594 215.052245,163.05249 215.174316,163.040283 C215.296387,163.028076 215.418456,163.009766 215.540527,162.985352 L215.540527,161.92334 C215.423339,161.933106 215.324463,161.94043 215.243896,161.945312 C215.16333,161.950195 215.066895,161.952637 214.95459,161.952637 C214.544432,161.952637 214.246583,161.847657 214.061035,161.637695 C213.875487,161.427733 213.782715,161.090823 213.782715,160.626953 L213.782715,156.15918 L215.540527,156.15918 L215.540527,155.104492 L213.782715,155.104492 L213.782715,153.061035 L212.522949,153.061035 Z M219.64209,162.033203 C220.291507,162.033203 220.829832,161.843996 221.25708,161.465576 C221.684328,161.087156 221.897949,160.61719 221.897949,160.055664 L221.897949,159.330566 L219.773926,159.469727 C218.621576,159.547852 218.04541,159.977535 218.04541,160.758789 C218.04541,161.159182 218.196776,161.471679 218.499512,161.696289 C218.802248,161.9209 219.183103,162.033203 219.64209,162.033203 Z M219.407715,163.13916 C218.641109,163.13916 218.005129,162.927981 217.499756,162.505615 C216.994382,162.08325 216.741699,161.510746 216.741699,160.788086 C216.741699,159.342766 217.701162,158.563965 219.620117,158.45166 L221.897949,158.3125 L221.897949,157.594727 C221.897949,156.588862 221.302252,156.085938 220.11084,156.085938 C219.637205,156.085938 219.244142,156.171386 218.931641,156.342285 C218.619139,156.513184 218.418946,156.754881 218.331055,157.067383 L217.056641,157.067383 C217.139649,156.432614 217.466794,155.923586 218.038086,155.540283 C218.609378,155.156981 219.314937,154.965332 220.154785,154.965332 C221.116704,154.965332 221.857663,155.198484 222.377686,155.664795 C222.897708,156.131106 223.157715,156.77441 223.157715,157.594727 L223.157715,163 L221.956543,163 L221.956543,161.835449 L221.839355,161.835449 C221.585448,162.255373 221.248537,162.577636 220.828613,162.802246 C220.408689,163.026857 219.935061,163.13916 219.407715,163.13916 Z M225.779785,153.061035 L225.779785,155.104492 L224.505371,155.104492 L224.505371,156.15918 L225.779785,156.15918 L225.779785,160.949219 C225.779785,161.701176 225.956785,162.240721 226.310791,162.567871 C226.664797,162.895021 227.247066,163.058594 228.057617,163.058594 C228.184571,163.058594 228.309081,163.05249 228.431152,163.040283 C228.553223,163.028076 228.675292,163.009766 228.797363,162.985352 L228.797363,161.92334 C228.680175,161.933106 228.581299,161.94043 228.500732,161.945312 C228.420166,161.950195 228.323731,161.952637 228.211426,161.952637 C227.801267,161.952637 227.503419,161.847657 227.317871,161.637695 C227.132323,161.427733 227.039551,161.090823 227.039551,160.626953 L227.039551,156.15918 L228.797363,156.15918 L228.797363,155.104492 L227.039551,155.104492 L227.039551,153.061035 L225.779785,153.061035 Z M230.496582,163 L231.756348,163 L231.756348,155.104492 L230.496582,155.104492 L230.496582,163 Z M231.126465,153.500488 C231.370607,153.500488 231.578124,153.413819 231.749023,153.240479 C231.919923,153.067138 232.005371,152.860841 232.005371,152.621582 C232.005371,152.37744 231.919923,152.169923 231.749023,151.999023 C231.578124,151.828124 231.370607,151.742676 231.126465,151.742676 C230.887206,151.742676 230.680909,151.828124 230.507568,151.999023 C230.334228,152.169923 230.247559,152.37744 230.247559,152.621582 C230.247559,152.860841 230.334228,153.067138 230.507568,153.240479 C230.680909,153.413819 230.887206,153.500488 231.126465,153.500488 Z M237.168945,163.13916 C236.045893,163.13916 235.158451,162.774174 234.506592,162.044189 C233.854733,161.314205 233.528809,160.316901 233.528809,159.052246 C233.528809,157.782708 233.854733,156.784183 234.506592,156.056641 C235.158451,155.329098 236.045893,154.965332 237.168945,154.965332 C238.291998,154.965332 239.17944,155.329098 239.831299,156.056641 C240.483158,156.784183 240.809082,157.782708 240.809082,159.052246 C240.809082,160.316901 240.483158,161.314205 239.831299,162.044189 C239.17944,162.774174 238.291998,163.13916 237.168945,163.13916 Z M237.168945,162.003906 C237.916019,162.003906 238.492185,161.74512 238.897461,161.227539 C239.302736,160.709958 239.505371,159.984868 239.505371,159.052246 C239.505371,158.114741 239.302736,157.38843 238.897461,156.873291 C238.492185,156.358152 237.916019,156.100586 237.168945,156.100586 C236.421871,156.100586 235.845705,156.358152 235.44043,156.873291 C235.035154,157.38843 234.83252,158.114741 234.83252,159.052246 C234.83252,159.984868 235.035154,160.709958 235.44043,161.227539 C235.845705,161.74512 236.421871,162.003906 237.168945,162.003906 Z M242.552246,163 L243.812012,163 L243.812012,158.327148 C243.812012,157.633786 243.999998,157.089357 244.375977,156.693848 C244.751955,156.298338 245.25488,156.100586 245.884766,156.100586 C246.514652,156.100586 246.982176,156.271483 247.287354,156.613281 C247.592531,156.95508 247.745117,157.482418 247.745117,158.195312 L247.745117,163 L249.004883,163 L249.004883,157.887695 C249.004883,156.950191 248.766848,156.228762 248.290771,155.723389 C247.814695,155.218015 247.132329,154.965332 246.243652,154.965332 C245.638181,154.965332 245.141359,155.087401 244.753174,155.331543 C244.364988,155.575685 244.070802,155.915037 243.870605,156.349609 L243.753418,156.349609 L243.753418,155.104492 L242.552246,155.104492 L242.552246,163 Z M252.110352,163.073242 C252.374025,163.073242 252.598632,162.979249 252.78418,162.79126 C252.969727,162.603271 253.0625,162.379884 253.0625,162.121094 C253.0625,161.857421 252.969727,161.632813 252.78418,161.447266 C252.598632,161.261718 252.374025,161.168945 252.110352,161.168945 C251.851561,161.168945 251.628175,161.261718 251.440186,161.447266 C251.252196,161.632813 251.158203,161.857421 251.158203,162.121094 C251.158203,162.379884 251.252196,162.603271 251.440186,162.79126 C251.628175,162.979249 251.851561,163.073242 252.110352,163.073242 Z M259.449219,152.431152 L263.074707,152.431152 C264.642098,152.431152 265.86523,152.895015 266.744141,153.822754 C267.623051,154.750493 268.0625,156.046867 268.0625,157.711914 C268.0625,159.376961 267.624272,160.674556 266.747803,161.604736 C265.871334,162.534917 264.646981,163 263.074707,163 L259.449219,163 L259.449219,152.431152 Z M260.767578,153.617676 L260.767578,161.813477 L262.986816,161.813477 C264.168463,161.813477 265.085202,161.454593 265.737061,160.736816 C266.388919,160.019039 266.714844,159.015631 266.714844,157.726562 C266.714844,156.432611 266.386478,155.42432 265.729736,154.70166 C265.072995,153.979 264.158697,153.617676 262.986816,153.617676 L260.767578,153.617676 Z M273.189453,163.13916 C272.066401,163.13916 271.178958,162.774174 270.5271,162.044189 C269.875241,161.314205 269.549316,160.316901 269.549316,159.052246 C269.549316,157.782708 269.875241,156.784183 270.5271,156.056641 C271.178958,155.329098 272.066401,154.965332 273.189453,154.965332 C274.312506,154.965332 275.199948,155.329098 275.851807,156.056641 C276.503665,156.784183 276.82959,157.782708 276.82959,159.052246 C276.82959,160.316901 276.503665,161.314205 275.851807,162.044189 C275.199948,162.774174 274.312506,163.13916 273.189453,163.13916 Z M273.189453,162.003906 C273.936527,162.003906 274.512693,161.74512 274.917969,161.227539 C275.323244,160.709958 275.525879,159.984868 275.525879,159.052246 C275.525879,158.114741 275.323244,157.38843 274.917969,156.873291 C274.512693,156.358152 273.936527,156.100586 273.189453,156.100586 C272.442379,156.100586 271.866213,156.358152 271.460938,156.873291 C271.055662,157.38843 270.853027,158.114741 270.853027,159.052246 C270.853027,159.984868 271.055662,160.709958 271.460938,161.227539 C271.866213,161.74512 272.442379,162.003906 273.189453,162.003906 Z M278.572754,163 L279.83252,163 L279.83252,158.327148 C279.83252,157.633786 280.020506,157.089357 280.396484,156.693848 C280.772463,156.298338 281.275387,156.100586 281.905273,156.100586 C282.535159,156.100586 283.002684,156.271483 283.307861,156.613281 C283.613039,156.95508 283.765625,157.482418 283.765625,158.195312 L283.765625,163 L285.025391,163 L285.025391,157.887695 C285.025391,156.950191 284.787356,156.228762 284.311279,155.723389 C283.835203,155.218015 283.152836,154.965332 282.26416,154.965332 C281.658688,154.965332 281.161867,155.087401 280.773682,155.331543 C280.385496,155.575685 280.09131,155.915037 279.891113,156.349609 L279.773926,156.349609 L279.773926,155.104492 L278.572754,155.104492 L278.572754,163 Z M288.138184,156.378906 L289.317383,152.431152 L287.88916,152.431152 L287.222656,156.378906 L288.138184,156.378906 Z M291.814941,153.061035 L291.814941,155.104492 L290.540527,155.104492 L290.540527,156.15918 L291.814941,156.15918 L291.814941,160.949219 C291.814941,161.701176 291.991942,162.240721 292.345947,162.567871 C292.699953,162.895021 293.282223,163.058594 294.092773,163.058594 C294.219727,163.058594 294.344238,163.05249 294.466309,163.040283 C294.58838,163.028076 294.710449,163.009766 294.83252,162.985352 L294.83252,161.92334 C294.715331,161.933106 294.616455,161.94043 294.535889,161.945312 C294.455322,161.950195 294.358887,161.952637 294.246582,161.952637 C293.836424,161.952637 293.538575,161.847657 293.353027,161.637695 C293.16748,161.427733 293.074707,161.090823 293.074707,160.626953 L293.074707,156.15918 L294.83252,156.15918 L294.83252,155.104492 L293.074707,155.104492 L293.074707,153.061035 L291.814941,153.061035 Z M30.706543,181 L31.9663086,181 L31.9663086,174.15918 L33.7753906,174.15918 L33.7753906,173.104492 L31.9663086,173.104492 L31.9663086,172.262207 C31.9663086,171.827635 32.0676259,171.50171 32.2702637,171.284424 C32.4729014,171.067138 32.8012673,170.958496 33.2553711,170.958496 C33.3676763,170.958496 33.4750971,170.960937 33.5776367,170.96582 C33.6801763,170.970703 33.7705074,170.980469 33.8486328,170.995117 L33.8486328,169.969727 C33.7167962,169.945312 33.5812995,169.927002 33.4421387,169.914795 C33.3029778,169.902588 33.1552742,169.896484 32.9990234,169.896484 C32.2470666,169.896484 31.6770039,170.088133 31.2888184,170.471436 C30.9006328,170.854738 30.706543,171.439449 30.706543,172.225586 L30.706543,173.104492 L29.3955078,173.104492 L29.3955078,174.15918 L30.706543,174.15918 L30.706543,181 Z M38.6166992,181.13916 C37.4936467,181.13916 36.6062044,180.774174 35.9543457,180.044189 C35.302487,179.314205 34.9765625,178.316901 34.9765625,177.052246 C34.9765625,175.782708 35.302487,174.784183 35.9543457,174.056641 C36.6062044,173.329098 37.4936467,172.965332 38.6166992,172.965332 C39.7397517,172.965332 40.627194,173.329098 41.2790527,174.056641 C41.9309115,174.784183 42.2568359,175.782708 42.2568359,177.052246 C42.2568359,178.316901 41.9309115,179.314205 41.2790527,180.044189 C40.627194,180.774174 39.7397517,181.13916 38.6166992,181.13916 Z M38.6166992,180.003906 C39.3637733,180.003906 39.9399394,179.74512 40.3452148,179.227539 C40.7504903,178.709958 40.953125,177.984868 40.953125,177.052246 C40.953125,176.114741 40.7504903,175.38843 40.3452148,174.873291 C39.9399394,174.358152 39.3637733,174.100586 38.6166992,174.100586 C37.8696252,174.100586 37.2934591,174.358152 36.8881836,174.873291 C36.4829081,175.38843 36.2802734,176.114741 36.2802734,177.052246 C36.2802734,177.984868 36.4829081,178.709958 36.8881836,179.227539 C37.2934591,179.74512 37.8696252,180.003906 38.6166992,180.003906 Z M44,181 L45.2597656,181 L45.2597656,176.107422 C45.2597656,175.550778 45.4550762,175.091799 45.8457031,174.730469 C46.2363301,174.369139 46.7319306,174.188477 47.3325195,174.188477 C47.4594733,174.188477 47.6132803,174.197021 47.7939453,174.214111 C47.9746103,174.231201 48.0893552,174.24707 48.1381836,174.261719 L48.1381836,173.001953 C48.0600582,172.992187 47.9611822,172.983643 47.8415527,172.976318 C47.7219232,172.968994 47.6108404,172.965332 47.5083008,172.965332 C46.9858372,172.965332 46.5195333,173.087401 46.109375,173.331543 C45.6992167,173.575685 45.4355475,173.890623 45.3183594,174.276367 L45.2011719,174.276367 L45.2011719,173.104492 L44,173.104492 L44,181 Z M52.671875,179.769531 C53.4043005,179.769531 53.9780253,179.511965 54.3930664,178.996826 C54.8081075,178.481687 55.015625,177.794438 55.015625,176.935059 C55.015625,176.075679 54.8068869,175.38843 54.3894043,174.873291 C53.9719217,174.358152 53.3994177,174.100586 52.671875,174.100586 C51.9394495,174.100586 51.3754903,174.358152 50.9799805,174.873291 C50.5844707,175.38843 50.3867188,176.075679 50.3867188,176.935059 C50.3867188,177.794438 50.5844707,178.481687 50.9799805,178.996826 C51.3754903,179.511965 51.9394495,179.769531 52.671875,179.769531 Z M52.7304688,184.032227 C51.7783156,184.032227 51.0129423,183.835695 50.4343262,183.442627 C49.85571,183.049559 49.5175786,182.525882 49.4199219,181.871582 L50.7529297,181.871582 C50.8212894,182.193849 51.0263655,182.451415 51.3681641,182.644287 C51.7099626,182.837159 52.1640597,182.933594 52.7304688,182.933594 C53.4384801,182.933594 53.9914531,182.7688 54.3894043,182.439209 C54.7873555,182.109617 54.9863281,181.6543 54.9863281,181.073242 L54.9863281,179.520508 L54.8691406,179.520508 C54.6201159,179.95508 54.2807639,180.29077 53.8510742,180.527588 C53.4213846,180.764405 52.9355496,180.882812 52.3935547,180.882812 C51.3730418,180.882812 50.5661651,180.520267 49.9729004,179.795166 C49.3796357,179.070065 49.0830078,178.116705 49.0830078,176.935059 C49.0830078,175.753412 49.3808564,174.79639 49.9765625,174.063965 C50.5722686,173.331539 51.3779246,172.965332 52.3935547,172.965332 C52.9453153,172.965332 53.4494606,173.091063 53.9060059,173.342529 C54.3625511,173.593995 54.7031239,173.932127 54.9277344,174.356934 L55.0449219,174.356934 L55.0449219,173.104492 L56.2460938,173.104492 L56.2460938,181.13916 C56.2460938,182.022954 55.9299348,182.726072 55.2976074,183.248535 C54.66528,183.770999 53.8095757,184.032227 52.7304688,184.032227 Z M61.5341797,174.078613 C60.9042937,174.078613 60.3867208,174.291014 59.9814453,174.71582 C59.5761698,175.140627 59.3491213,175.702145 59.300293,176.400391 L63.6508789,176.400391 C63.6362304,175.702145 63.4360371,175.140627 63.050293,174.71582 C62.6645489,174.291014 62.1591828,174.078613 61.5341797,174.078613 Z M63.6142578,178.956543 L64.8740234,178.956543 C64.6835928,179.635257 64.2978545,180.168699 63.7167969,180.556885 C63.1357393,180.94507 62.4130903,181.13916 61.5488281,181.13916 C60.4550727,181.13916 59.5883821,180.771732 58.9487305,180.036865 C58.3090788,179.301998 57.9892578,178.309577 57.9892578,177.05957 C57.9892578,175.81933 58.3115202,174.826908 58.9560547,174.082275 C59.6005892,173.337643 60.4648383,172.965332 61.5488281,172.965332 C62.6132866,172.965332 63.4506805,173.320553 64.0610352,174.031006 C64.6713898,174.741459 64.9765625,175.709467 64.9765625,176.935059 L64.9765625,177.418457 L59.300293,177.418457 L59.300293,177.477051 C59.3344728,178.258305 59.5554179,178.878416 59.9631348,179.337402 C60.3708516,179.796389 60.9091763,180.025879 61.578125,180.025879 C62.08594,180.025879 62.5107405,179.934327 62.8525391,179.751221 C63.1943376,179.568114 63.4482414,179.303224 63.6142578,178.956543 Z M67.2470703,171.061035 L67.2470703,173.104492 L65.9726562,173.104492 L65.9726562,174.15918 L67.2470703,174.15918 L67.2470703,178.949219 C67.2470703,179.701176 67.4240705,180.240721 67.7780762,180.567871 C68.1320818,180.895021 68.7143514,181.058594 69.5249023,181.058594 C69.6518561,181.058594 69.7763666,181.05249 69.8984375,181.040283 C70.0205084,181.028076 70.1425775,181.009766 70.2646484,180.985352 L70.2646484,179.92334 C70.1474604,179.933106 70.0485844,179.94043 69.9680176,179.945312 C69.8874508,179.950195 69.7910162,179.952637 69.6787109,179.952637 C69.2685526,179.952637 68.9707041,179.847657 68.7851562,179.637695 C68.5996084,179.427733 68.5068359,179.090823 68.5068359,178.626953 L68.5068359,174.15918 L70.2646484,174.15918 L70.2646484,173.104492 L68.5068359,173.104492 L68.5068359,171.061035 L67.2470703,171.061035 Z M76.4609375,171.061035 L76.4609375,173.104492 L75.1865234,173.104492 L75.1865234,174.15918 L76.4609375,174.15918 L76.4609375,178.949219 C76.4609375,179.701176 76.6379377,180.240721 76.9919434,180.567871 C77.345949,180.895021 77.9282186,181.058594 78.7387695,181.058594 C78.8657233,181.058594 78.9902338,181.05249 79.1123047,181.040283 C79.2343756,181.028076 79.3564447,181.009766 79.4785156,180.985352 L79.4785156,179.92334 C79.3613275,179.933106 79.2624516,179.94043 79.1818848,179.945312 C79.101318,179.950195 79.0048834,179.952637 78.8925781,179.952637 C78.4824198,179.952637 78.1845712,179.847657 77.9990234,179.637695 C77.8134756,179.427733 77.7207031,179.090823 77.7207031,178.626953 L77.7207031,174.15918 L79.4785156,174.15918 L79.4785156,173.104492 L77.7207031,173.104492 L77.7207031,171.061035 L76.4609375,171.061035 Z M84.3930664,181.13916 C83.2700139,181.13916 82.3825716,180.774174 81.7307129,180.044189 C81.0788542,179.314205 80.7529297,178.316901 80.7529297,177.052246 C80.7529297,175.782708 81.0788542,174.784183 81.7307129,174.056641 C82.3825716,173.329098 83.2700139,172.965332 84.3930664,172.965332 C85.5161189,172.965332 86.4035612,173.329098 87.0554199,174.056641 C87.7072786,174.784183 88.0332031,175.782708 88.0332031,177.052246 C88.0332031,178.316901 87.7072786,179.314205 87.0554199,180.044189 C86.4035612,180.774174 85.5161189,181.13916 84.3930664,181.13916 Z M84.3930664,180.003906 C85.1401405,180.003906 85.7163066,179.74512 86.121582,179.227539 C86.5268575,178.709958 86.7294922,177.984868 86.7294922,177.052246 C86.7294922,176.114741 86.5268575,175.38843 86.121582,174.873291 C85.7163066,174.358152 85.1401405,174.100586 84.3930664,174.100586 C83.6459924,174.100586 83.0698262,174.358152 82.6645508,174.873291 C82.2592753,175.38843 82.0566406,176.114741 82.0566406,177.052246 C82.0566406,177.984868 82.2592753,178.709958 82.6645508,179.227539 C83.0698262,179.74512 83.6459924,180.003906 84.3930664,180.003906 Z M97.6206055,172.965332 C98.6264699,172.965332 99.4309052,173.336422 100.033936,174.078613 C100.636966,174.820804 100.938477,175.812006 100.938477,177.052246 C100.938477,178.287604 100.636966,179.277584 100.033936,180.022217 C99.4309052,180.766849 98.6264699,181.13916 97.6206055,181.13916 C97.0590792,181.13916 96.5610373,181.021974 96.1264648,180.787598 C95.6918924,180.553221 95.3671886,180.228518 95.1523438,179.813477 L95.0351562,179.813477 L95.0351562,183.636719 L93.7753906,183.636719 L93.7753906,173.104492 L94.9765625,173.104492 L94.9765625,174.422852 L95.09375,174.422852 C95.3476575,173.968748 95.6979958,173.612306 96.1447754,173.353516 C96.591555,173.094725 97.0834934,172.965332 97.6206055,172.965332 Z M97.3203125,180.003906 C98.0478552,180.003906 98.6154765,179.742678 99.0231934,179.220215 C99.4309102,178.697751 99.6347656,177.975102 99.6347656,177.052246 C99.6347656,176.12939 99.4309102,175.406741 99.0231934,174.884277 C98.6154765,174.361814 98.0502966,174.100586 97.3276367,174.100586 C96.6147425,174.100586 96.0483419,174.365476 95.628418,174.895264 C95.208494,175.425051 94.9985352,176.144038 94.9985352,177.052246 C94.9985352,177.955571 95.208494,178.673337 95.628418,179.205566 C96.0483419,179.737796 96.6123011,180.003906 97.3203125,180.003906 Z M102.710938,181 L103.970703,181 L103.970703,173.104492 L102.710938,173.104492 L102.710938,181 Z M103.34082,171.500488 C103.584962,171.500488 103.79248,171.413819 103.963379,171.240479 C104.134278,171.067138 104.219727,170.860841 104.219727,170.621582 C104.219727,170.37744 104.134278,170.169923 103.963379,169.999023 C103.79248,169.828124 103.584962,169.742676 103.34082,169.742676 C103.101561,169.742676 102.895265,169.828124 102.721924,169.999023 C102.548583,170.169923 102.461914,170.37744 102.461914,170.621582 C102.461914,170.860841 102.548583,171.067138 102.721924,171.240479 C102.895265,171.413819 103.101561,171.500488 103.34082,171.500488 Z M112.671875,175.521484 C112.564453,174.818356 112.226321,174.216555 111.657471,173.716064 C111.08862,173.215574 110.323247,172.965332 109.361328,172.965332 C108.257807,172.965332 107.37891,173.333981 106.724609,174.071289 C106.070309,174.808597 105.743164,175.792474 105.743164,177.022949 C105.743164,178.277838 106.07153,179.277584 106.728271,180.022217 C107.385013,180.766849 108.265131,181.13916 109.368652,181.13916 C110.315923,181.13916 111.075192,180.899905 111.646484,180.421387 C112.217776,179.942869 112.55957,179.342289 112.671875,178.619629 L111.397461,178.619629 C111.280273,179.063967 111.04468,179.405761 110.690674,179.64502 C110.336668,179.884279 109.893557,180.003906 109.361328,180.003906 C108.6582,180.003906 108.096682,179.735354 107.676758,179.198242 C107.256834,178.66113 107.046875,177.93604 107.046875,177.022949 C107.046875,176.12939 107.255613,175.418948 107.673096,174.891602 C108.090578,174.364255 108.653317,174.100586 109.361328,174.100586 C109.927737,174.100586 110.383055,174.239745 110.727295,174.518066 C111.071535,174.796388 111.294921,175.130857 111.397461,175.521484 L112.671875,175.521484 Z M115.748047,176.554199 L115.630859,176.554199 L115.630859,169.969727 L114.371094,169.969727 L114.371094,181 L115.630859,181 L115.630859,178.004395 L116.385254,177.30127 L119.344238,181 L120.948242,181 L117.322754,176.488281 L120.721191,173.104492 L119.175781,173.104492 L118.827881,173.452393 C118.595946,173.684327 118.310304,173.97119 117.970947,174.312988 C117.63159,174.654787 117.292238,174.997801 116.952881,175.342041 C116.613524,175.686281 116.327882,175.974364 116.095947,176.206299 L115.748047,176.554199 Z M128.594727,173.104492 L127.334961,173.104492 L127.334961,177.777344 C127.334961,178.470707 127.150637,179.012693 126.781982,179.40332 C126.413328,179.793947 125.879886,179.989258 125.181641,179.989258 C124.551755,179.989258 124.096437,179.819582 123.815674,179.480225 C123.534911,179.140867 123.394531,178.617191 123.394531,177.90918 L123.394531,173.104492 L122.134766,173.104492 L122.134766,178.216797 C122.134766,179.149419 122.363035,179.869626 122.81958,180.377441 C123.276125,180.885256 123.946285,181.13916 124.830078,181.13916 C125.43555,181.13916 125.945799,181.019532 126.36084,180.780273 C126.775881,180.541014 127.081054,180.201662 127.276367,179.762207 L127.393555,179.762207 L127.393555,181 L128.594727,181 L128.594727,173.104492 Z M134.578613,172.965332 C135.584478,172.965332 136.388913,173.336422 136.991943,174.078613 C137.594974,174.820804 137.896484,175.812006 137.896484,177.052246 C137.896484,178.287604 137.594974,179.277584 136.991943,180.022217 C136.388913,180.766849 135.584478,181.13916 134.578613,181.13916 C134.017087,181.13916 133.519045,181.021974 133.084473,180.787598 C132.6499,180.553221 132.325196,180.228518 132.110352,179.813477 L131.993164,179.813477 L131.993164,183.636719 L130.733398,183.636719 L130.733398,173.104492 L131.93457,173.104492 L131.93457,174.422852 L132.051758,174.422852 C132.305665,173.968748 132.656004,173.612306 133.102783,173.353516 C133.549563,173.094725 134.041501,172.965332 134.578613,172.965332 Z M134.27832,180.003906 C135.005863,180.003906 135.573484,179.742678 135.981201,179.220215 C136.388918,178.697751 136.592773,177.975102 136.592773,177.052246 C136.592773,176.12939 136.388918,175.406741 135.981201,174.884277 C135.573484,174.361814 135.008304,174.100586 134.285645,174.100586 C133.57275,174.100586 133.00635,174.365476 132.586426,174.895264 C132.166502,175.425051 131.956543,176.144038 131.956543,177.052246 C131.956543,177.955571 132.166502,178.673337 132.586426,179.205566 C133.00635,179.737796 133.570309,180.003906 134.27832,180.003906 Z M144.3125,183.856445 C145.010746,183.856445 145.551512,183.690431 145.934814,183.358398 C146.318117,183.026366 146.678221,182.401372 147.015137,181.483398 L150.098633,173.104492 L148.758301,173.104492 L146.597656,179.601074 L146.480469,179.601074 L144.3125,173.104492 L142.950195,173.104492 L145.872559,181.007324 L145.726074,181.476074 C145.560058,181.954592 145.367189,182.290282 145.147461,182.483154 C144.927733,182.676026 144.637209,182.772461 144.275879,182.772461 C144.187988,182.772461 144.097657,182.77002 144.004883,182.765137 C143.912109,182.760254 143.826661,182.750488 143.748535,182.73584 L143.748535,183.8125 C143.807129,183.822266 143.869384,183.830811 143.935303,183.838135 C144.001221,183.845459 144.067138,183.850342 144.133057,183.852783 C144.198975,183.855225 144.258789,183.856445 144.3125,183.856445 Z M154.793457,181.13916 C153.670405,181.13916 152.782962,180.774174 152.131104,180.044189 C151.479245,179.314205 151.15332,178.316901 151.15332,177.052246 C151.15332,175.782708 151.479245,174.784183 152.131104,174.056641 C152.782962,173.329098 153.670405,172.965332 154.793457,172.965332 C155.91651,172.965332 156.803952,173.329098 157.455811,174.056641 C158.107669,174.784183 158.433594,175.782708 158.433594,177.052246 C158.433594,178.316901 158.107669,179.314205 157.455811,180.044189 C156.803952,180.774174 155.91651,181.13916 154.793457,181.13916 Z M154.793457,180.003906 C155.540531,180.003906 156.116697,179.74512 156.521973,179.227539 C156.927248,178.709958 157.129883,177.984868 157.129883,177.052246 C157.129883,176.114741 156.927248,175.38843 156.521973,174.873291 C156.116697,174.358152 155.540531,174.100586 154.793457,174.100586 C154.046383,174.100586 153.470217,174.358152 153.064941,174.873291 C152.659666,175.38843 152.457031,176.114741 152.457031,177.052246 C152.457031,177.984868 152.659666,178.709958 153.064941,179.227539 C153.470217,179.74512 154.046383,180.003906 154.793457,180.003906 Z M166.563477,173.104492 L165.303711,173.104492 L165.303711,177.777344 C165.303711,178.470707 165.119387,179.012693 164.750732,179.40332 C164.382078,179.793947 163.848636,179.989258 163.150391,179.989258 C162.520505,179.989258 162.065187,179.819582 161.784424,179.480225 C161.503661,179.140867 161.363281,178.617191 161.363281,177.90918 L161.363281,173.104492 L160.103516,173.104492 L160.103516,178.216797 C160.103516,179.149419 160.331785,179.869626 160.78833,180.377441 C161.244875,180.885256 161.915035,181.13916 162.798828,181.13916 C163.4043,181.13916 163.914549,181.019532 164.32959,180.780273 C164.744631,180.541014 165.049804,180.201662 165.245117,179.762207 L165.362305,179.762207 L165.362305,181 L166.563477,181 L166.563477,173.104492 Z M168.702148,181 L169.961914,181 L169.961914,176.107422 C169.961914,175.550778 170.157225,175.091799 170.547852,174.730469 C170.938479,174.369139 171.434079,174.188477 172.034668,174.188477 C172.161622,174.188477 172.315429,174.197021 172.496094,174.214111 C172.676759,174.231201 172.791504,174.24707 172.840332,174.261719 L172.840332,173.001953 C172.762207,172.992187 172.663331,172.983643 172.543701,172.976318 C172.424072,172.968994 172.312989,172.965332 172.210449,172.965332 C171.687986,172.965332 171.221682,173.087401 170.811523,173.331543 C170.401365,173.575685 170.137696,173.890623 170.020508,174.276367 L169.90332,174.276367 L169.90332,173.104492 L168.702148,173.104492 L168.702148,181 Z M182.024902,172.965332 C183.030767,172.965332 183.835202,173.336422 184.438232,174.078613 C185.041263,174.820804 185.342773,175.812006 185.342773,177.052246 C185.342773,178.287604 185.041263,179.277584 184.438232,180.022217 C183.835202,180.766849 183.030767,181.13916 182.024902,181.13916 C181.463376,181.13916 180.965334,181.021974 180.530762,180.787598 C180.096189,180.553221 179.771485,180.228518 179.556641,179.813477 L179.439453,179.813477 L179.439453,183.636719 L178.179688,183.636719 L178.179688,173.104492 L179.380859,173.104492 L179.380859,174.422852 L179.498047,174.422852 C179.751954,173.968748 180.102293,173.612306 180.549072,173.353516 C180.995852,173.094725 181.48779,172.965332 182.024902,172.965332 Z M181.724609,180.003906 C182.452152,180.003906 183.019773,179.742678 183.42749,179.220215 C183.835207,178.697751 184.039062,177.975102 184.039062,177.052246 C184.039062,176.12939 183.835207,175.406741 183.42749,174.884277 C183.019773,174.361814 182.454593,174.100586 181.731934,174.100586 C181.019039,174.100586 180.452639,174.365476 180.032715,174.895264 C179.612791,175.425051 179.402832,176.144038 179.402832,177.052246 C179.402832,177.955571 179.612791,178.673337 180.032715,179.205566 C180.452639,179.737796 181.016598,180.003906 181.724609,180.003906 Z M189.517578,180.033203 C190.166995,180.033203 190.70532,179.843996 191.132568,179.465576 C191.559817,179.087156 191.773438,178.61719 191.773438,178.055664 L191.773438,177.330566 L189.649414,177.469727 C188.497065,177.547852 187.920898,177.977535 187.920898,178.758789 C187.920898,179.159182 188.072264,179.471679 188.375,179.696289 C188.677736,179.9209 189.058591,180.033203 189.517578,180.033203 Z M189.283203,181.13916 C188.516598,181.13916 187.880618,180.927981 187.375244,180.505615 C186.869871,180.08325 186.617188,179.510746 186.617188,178.788086 C186.617188,177.342766 187.576651,176.563965 189.495605,176.45166 L191.773438,176.3125 L191.773438,175.594727 C191.773438,174.588862 191.17774,174.085938 189.986328,174.085938 C189.512693,174.085938 189.11963,174.171386 188.807129,174.342285 C188.494627,174.513184 188.294434,174.754881 188.206543,175.067383 L186.932129,175.067383 C187.015137,174.432614 187.342282,173.923586 187.913574,173.540283 C188.484866,173.156981 189.190425,172.965332 190.030273,172.965332 C190.992192,172.965332 191.733152,173.198484 192.253174,173.664795 C192.773196,174.131106 193.033203,174.77441 193.033203,175.594727 L193.033203,181 L191.832031,181 L191.832031,179.835449 L191.714844,179.835449 C191.460936,180.255373 191.124026,180.577636 190.704102,180.802246 C190.284178,181.026857 189.81055,181.13916 189.283203,181.13916 Z M201.661133,175.521484 C201.55371,174.818356 201.215579,174.216555 200.646729,173.716064 C200.077878,173.215574 199.312505,172.965332 198.350586,172.965332 C197.247065,172.965332 196.368167,173.333981 195.713867,174.071289 C195.059567,174.808597 194.732422,175.792474 194.732422,177.022949 C194.732422,178.277838 195.060788,179.277584 195.717529,180.022217 C196.374271,180.766849 197.254389,181.13916 198.35791,181.13916 C199.305181,181.13916 200.06445,180.899905 200.635742,180.421387 C201.207034,179.942869 201.548828,179.342289 201.661133,178.619629 L200.386719,178.619629 C200.269531,179.063967 200.033937,179.405761 199.679932,179.64502 C199.325926,179.884279 198.882815,180.003906 198.350586,180.003906 C197.647457,180.003906 197.08594,179.735354 196.666016,179.198242 C196.246092,178.66113 196.036133,177.93604 196.036133,177.022949 C196.036133,176.12939 196.244871,175.418948 196.662354,174.891602 C197.079836,174.364255 197.642575,174.100586 198.350586,174.100586 C198.916995,174.100586 199.372313,174.239745 199.716553,174.518066 C200.060793,174.796388 200.284179,175.130857 200.386719,175.521484 L201.661133,175.521484 Z M204.737305,176.554199 L204.620117,176.554199 L204.620117,169.969727 L203.360352,169.969727 L203.360352,181 L204.620117,181 L204.620117,178.004395 L205.374512,177.30127 L208.333496,181 L209.9375,181 L206.312012,176.488281 L209.710449,173.104492 L208.165039,173.104492 L207.817139,173.452393 C207.585204,173.684327 207.299562,173.97119 206.960205,174.312988 C206.620848,174.654787 206.281496,174.997801 205.942139,175.342041 C205.602782,175.686281 205.31714,175.974364 205.085205,176.206299 L204.737305,176.554199 Z M213.628906,180.033203 C214.278324,180.033203 214.816648,179.843996 215.243896,179.465576 C215.671145,179.087156 215.884766,178.61719 215.884766,178.055664 L215.884766,177.330566 L213.760742,177.469727 C212.608393,177.547852 212.032227,177.977535 212.032227,178.758789 C212.032227,179.159182 212.183592,179.471679 212.486328,179.696289 C212.789064,179.9209 213.16992,180.033203 213.628906,180.033203 Z M213.394531,181.13916 C212.627926,181.13916 211.991946,180.927981 211.486572,180.505615 C210.981199,180.08325 210.728516,179.510746 210.728516,178.788086 C210.728516,177.342766 211.687979,176.563965 213.606934,176.45166 L215.884766,176.3125 L215.884766,175.594727 C215.884766,174.588862 215.289068,174.085938 214.097656,174.085938 C213.624021,174.085938 213.230959,174.171386 212.918457,174.342285 C212.605955,174.513184 212.405762,174.754881 212.317871,175.067383 L211.043457,175.067383 C211.126465,174.432614 211.45361,173.923586 212.024902,173.540283 C212.596194,173.156981 213.301754,172.965332 214.141602,172.965332 C215.10352,172.965332 215.84448,173.198484 216.364502,173.664795 C216.884524,174.131106 217.144531,174.77441 217.144531,175.594727 L217.144531,181 L215.943359,181 L215.943359,179.835449 L215.826172,179.835449 C215.572264,180.255373 215.235354,180.577636 214.81543,180.802246 C214.395506,181.026857 213.921878,181.13916 213.394531,181.13916 Z M222.432617,179.769531 C223.165043,179.769531 223.738767,179.511965 224.153809,178.996826 C224.56885,178.481687 224.776367,177.794438 224.776367,176.935059 C224.776367,176.075679 224.567629,175.38843 224.150146,174.873291 C223.732664,174.358152 223.16016,174.100586 222.432617,174.100586 C221.700192,174.100586 221.136232,174.358152 220.740723,174.873291 C220.345213,175.38843 220.147461,176.075679 220.147461,176.935059 C220.147461,177.794438 220.345213,178.481687 220.740723,178.996826 C221.136232,179.511965 221.700192,179.769531 222.432617,179.769531 Z M222.491211,184.032227 C221.539058,184.032227 220.773685,183.835695 220.195068,183.442627 C219.616452,183.049559 219.278321,182.525882 219.180664,181.871582 L220.513672,181.871582 C220.582032,182.193849 220.787108,182.451415 221.128906,182.644287 C221.470705,182.837159 221.924802,182.933594 222.491211,182.933594 C223.199222,182.933594 223.752195,182.7688 224.150146,182.439209 C224.548098,182.109617 224.74707,181.6543 224.74707,181.073242 L224.74707,179.520508 L224.629883,179.520508 C224.380858,179.95508 224.041506,180.29077 223.611816,180.527588 C223.182127,180.764405 222.696292,180.882812 222.154297,180.882812 C221.133784,180.882812 220.326907,180.520267 219.733643,179.795166 C219.140378,179.070065 218.84375,178.116705 218.84375,176.935059 C218.84375,175.753412 219.141599,174.79639 219.737305,174.063965 C220.333011,173.331539 221.138667,172.965332 222.154297,172.965332 C222.706057,172.965332 223.210203,173.091063 223.666748,173.342529 C224.123293,173.593995 224.463866,173.932127 224.688477,174.356934 L224.805664,174.356934 L224.805664,173.104492 L226.006836,173.104492 L226.006836,181.13916 C226.006836,182.022954 225.690677,182.726072 225.05835,183.248535 C224.426022,183.770999 223.570318,184.032227 222.491211,184.032227 Z M231.294922,174.078613 C230.665036,174.078613 230.147463,174.291014 229.742188,174.71582 C229.336912,175.140627 229.109864,175.702145 229.061035,176.400391 L233.411621,176.400391 C233.396973,175.702145 233.196779,175.140627 232.811035,174.71582 C232.425291,174.291014 231.919925,174.078613 231.294922,174.078613 Z M233.375,178.956543 L234.634766,178.956543 C234.444335,179.635257 234.058597,180.168699 233.477539,180.556885 C232.896481,180.94507 232.173832,181.13916 231.30957,181.13916 C230.215815,181.13916 229.349124,180.771732 228.709473,180.036865 C228.069821,179.301998 227.75,178.309577 227.75,177.05957 C227.75,175.81933 228.072262,174.826908 228.716797,174.082275 C229.361331,173.337643 230.225581,172.965332 231.30957,172.965332 C232.374029,172.965332 233.211423,173.320553 233.821777,174.031006 C234.432132,174.741459 234.737305,175.709467 234.737305,176.935059 L234.737305,177.418457 L229.061035,177.418457 L229.061035,177.477051 C229.095215,178.258305 229.31616,178.878416 229.723877,179.337402 C230.131594,179.796389 230.669919,180.025879 231.338867,180.025879 C231.846682,180.025879 232.271483,179.934327 232.613281,179.751221 C232.95508,179.568114 233.208984,179.303224 233.375,178.956543 Z M241.006836,181 L242.266602,181 L242.266602,174.15918 L244.075684,174.15918 L244.075684,173.104492 L242.266602,173.104492 L242.266602,172.262207 C242.266602,171.827635 242.367919,171.50171 242.570557,171.284424 C242.773194,171.067138 243.10156,170.958496 243.555664,170.958496 C243.667969,170.958496 243.77539,170.960937 243.87793,170.96582 C243.980469,170.970703 244.0708,170.980469 244.148926,170.995117 L244.148926,169.969727 C244.017089,169.945312 243.881592,169.927002 243.742432,169.914795 C243.603271,169.902588 243.455567,169.896484 243.299316,169.896484 C242.54736,169.896484 241.977297,170.088133 241.589111,170.471436 C241.200926,170.854738 241.006836,171.439449 241.006836,172.225586 L241.006836,173.104492 L239.695801,173.104492 L239.695801,174.15918 L241.006836,174.15918 L241.006836,181 Z M245.672363,181 L246.932129,181 L246.932129,176.107422 C246.932129,175.550778 247.127439,175.091799 247.518066,174.730469 C247.908693,174.369139 248.404294,174.188477 249.004883,174.188477 C249.131837,174.188477 249.285644,174.197021 249.466309,174.214111 C249.646974,174.231201 249.761719,174.24707 249.810547,174.261719 L249.810547,173.001953 C249.732421,172.992187 249.633546,172.983643 249.513916,172.976318 C249.394287,172.968994 249.283204,172.965332 249.180664,172.965332 C248.658201,172.965332 248.191897,173.087401 247.781738,173.331543 C247.37158,173.575685 247.107911,173.890623 246.990723,174.276367 L246.873535,174.276367 L246.873535,173.104492 L245.672363,173.104492 L245.672363,181 Z M254.395508,181.13916 C253.272455,181.13916 252.385013,180.774174 251.733154,180.044189 C251.081296,179.314205 250.755371,178.316901 250.755371,177.052246 C250.755371,175.782708 251.081296,174.784183 251.733154,174.056641 C252.385013,173.329098 253.272455,172.965332 254.395508,172.965332 C255.51856,172.965332 256.406003,173.329098 257.057861,174.056641 C257.70972,174.784183 258.035645,175.782708 258.035645,177.052246 C258.035645,178.316901 257.70972,179.314205 257.057861,180.044189 C256.406003,180.774174 255.51856,181.13916 254.395508,181.13916 Z M254.395508,180.003906 C255.142582,180.003906 255.718748,179.74512 256.124023,179.227539 C256.529299,178.709958 256.731934,177.984868 256.731934,177.052246 C256.731934,176.114741 256.529299,175.38843 256.124023,174.873291 C255.718748,174.358152 255.142582,174.100586 254.395508,174.100586 C253.648434,174.100586 253.072268,174.358152 252.666992,174.873291 C252.261717,175.38843 252.059082,176.114741 252.059082,177.052246 C252.059082,177.984868 252.261717,178.709958 252.666992,179.227539 C253.072268,179.74512 253.648434,180.003906 254.395508,180.003906 Z M259.778809,181 L261.038574,181 L261.038574,176.107422 C261.038574,175.550778 261.214354,175.07715 261.565918,174.686523 C261.917482,174.295896 262.352048,174.100586 262.869629,174.100586 C263.367678,174.100586 263.766844,174.239745 264.067139,174.518066 C264.367433,174.796388 264.517578,175.16992 264.517578,175.638672 L264.517578,181 L265.777344,181 L265.777344,175.924316 C265.777344,175.421384 265.945799,174.991701 266.282715,174.635254 C266.619631,174.278807 267.061521,174.100586 267.608398,174.100586 C268.165042,174.100586 268.581297,174.244627 268.857178,174.532715 C269.133058,174.820802 269.270996,175.255368 269.270996,175.836426 L269.270996,181 L270.530762,181 L270.530762,175.543457 C270.530762,174.713375 270.313479,174.076174 269.878906,173.631836 C269.444334,173.187498 268.824223,172.965332 268.018555,172.965332 C267.471677,172.965332 266.985842,173.091063 266.561035,173.342529 C266.136228,173.593995 265.816407,173.929685 265.601562,174.349609 L265.484375,174.349609 C265.30371,173.939451 265.029055,173.606202 264.6604,173.349854 C264.291746,173.093505 263.83887,172.965332 263.301758,172.965332 C262.774411,172.965332 262.320314,173.08618 261.939453,173.327881 C261.558592,173.569581 261.277833,173.910154 261.097168,174.349609 L260.97998,174.349609 L260.97998,173.104492 L259.778809,173.104492 L259.778809,181 Z M277.122559,171.061035 L277.122559,173.104492 L275.848145,173.104492 L275.848145,174.15918 L277.122559,174.15918 L277.122559,178.949219 C277.122559,179.701176 277.299559,180.240721 277.653564,180.567871 C278.00757,180.895021 278.58984,181.058594 279.400391,181.058594 C279.527344,181.058594 279.651855,181.05249 279.773926,181.040283 C279.895997,181.028076 280.018066,181.009766 280.140137,180.985352 L280.140137,179.92334 C280.022949,179.933106 279.924073,179.94043 279.843506,179.945312 C279.762939,179.950195 279.666504,179.952637 279.554199,179.952637 C279.144041,179.952637 278.846192,179.847657 278.660645,179.637695 C278.475097,179.427733 278.382324,179.090823 278.382324,178.626953 L278.382324,174.15918 L280.140137,174.15918 L280.140137,173.104492 L278.382324,173.104492 L278.382324,171.061035 L277.122559,171.061035 Z M281.883301,181 L283.143066,181 L283.143066,176.327148 C283.143066,175.6582 283.331053,175.119875 283.707031,174.712158 C284.08301,174.304441 284.624996,174.100586 285.333008,174.100586 C285.928714,174.100586 286.38159,174.275145 286.69165,174.624268 C287.001711,174.97339 287.156738,175.497067 287.156738,176.195312 L287.156738,181 L288.416504,181 L288.416504,175.887695 C288.416504,174.959956 288.171145,174.240969 287.68042,173.730713 C287.189695,173.220456 286.52686,172.965332 285.691895,172.965332 C285.086423,172.965332 284.579836,173.087401 284.172119,173.331543 C283.764402,173.575685 283.46045,173.915037 283.260254,174.349609 L283.143066,174.349609 L283.143066,169.969727 L281.883301,169.969727 L281.883301,181 Z M293.631348,174.078613 C293.001462,174.078613 292.483889,174.291014 292.078613,174.71582 C291.673338,175.140627 291.446289,175.702145 291.397461,176.400391 L295.748047,176.400391 C295.733398,175.702145 295.533205,175.140627 295.147461,174.71582 C294.761717,174.291014 294.256351,174.078613 293.631348,174.078613 Z M295.711426,178.956543 L296.971191,178.956543 C296.780761,179.635257 296.395022,180.168699 295.813965,180.556885 C295.232907,180.94507 294.510258,181.13916 293.645996,181.13916 C292.552241,181.13916 291.68555,180.771732 291.045898,180.036865 C290.406247,179.301998 290.086426,178.309577 290.086426,177.05957 C290.086426,175.81933 290.408688,174.826908 291.053223,174.082275 C291.697757,173.337643 292.562006,172.965332 293.645996,172.965332 C294.710455,172.965332 295.547849,173.320553 296.158203,174.031006 C296.768558,174.741459 297.07373,175.709467 297.07373,176.935059 L297.07373,177.418457 L291.397461,177.418457 L291.397461,177.477051 C291.431641,178.258305 291.652586,178.878416 292.060303,179.337402 C292.46802,179.796389 293.006344,180.025879 293.675293,180.025879 C294.183108,180.025879 294.607908,179.934327 294.949707,179.751221 C295.291506,179.568114 295.545409,179.303224 295.711426,178.956543 Z M33.1015625,199.13916 C32.0908153,199.13916 31.2851593,198.76807 30.6845703,198.025879 C30.0839814,197.283688 29.7836914,196.292487 29.7836914,195.052246 C29.7836914,193.812006 30.0864228,192.820804 30.6918945,192.078613 C31.2973663,191.336422 32.1005809,190.965332 33.1015625,190.965332 C33.6533231,190.965332 34.1477029,191.087401 34.5847168,191.331543 C35.0217307,191.575685 35.3525379,191.915037 35.5771484,192.349609 L35.6870117,192.349609 L35.6870117,187.969727 L36.9467773,187.969727 L36.9467773,199 L35.7456055,199 L35.7456055,197.740234 L35.628418,197.740234 C35.3793933,198.17969 35.0327171,198.522704 34.5883789,198.769287 C34.1440407,199.01587 33.6484402,199.13916 33.1015625,199.13916 Z M33.3945312,192.100586 C32.6767542,192.100586 32.112795,192.363034 31.7026367,192.887939 C31.2924784,193.412844 31.0874023,194.134273 31.0874023,195.052246 C31.0874023,195.975102 31.2912577,196.697751 31.6989746,197.220215 C32.1066915,197.742678 32.6718714,198.003906 33.3945312,198.003906 C34.1123083,198.003906 34.6787089,197.740237 35.09375,197.212891 C35.5087911,196.685544 35.7163086,195.965337 35.7163086,195.052246 C35.7163086,194.148921 35.5075704,193.431155 35.0900879,192.898926 C34.6726053,192.366697 34.1074254,192.100586 33.3945312,192.100586 Z M42.3081055,192.078613 C41.6782195,192.078613 41.1606466,192.291014 40.7553711,192.71582 C40.3500956,193.140627 40.1230471,193.702145 40.0742188,194.400391 L44.4248047,194.400391 C44.4101562,193.702145 44.2099629,193.140627 43.8242188,192.71582 C43.4384746,192.291014 42.9331086,192.078613 42.3081055,192.078613 Z M44.3881836,196.956543 L45.6479492,196.956543 C45.4575186,197.635257 45.0717802,198.168699 44.4907227,198.556885 C43.9096651,198.94507 43.187016,199.13916 42.3227539,199.13916 C41.2289984,199.13916 40.3623079,198.771732 39.7226562,198.036865 C39.0830046,197.301998 38.7631836,196.309577 38.7631836,195.05957 C38.7631836,193.81933 39.085446,192.826908 39.7299805,192.082275 C40.3745149,191.337643 41.2387641,190.965332 42.3227539,190.965332 C43.3872124,190.965332 44.2246063,191.320553 44.8349609,192.031006 C45.4453156,192.741459 45.7504883,193.709467 45.7504883,194.935059 L45.7504883,195.418457 L40.0742188,195.418457 L40.0742188,195.477051 C40.1083986,196.258305 40.3293437,196.878416 40.7370605,197.337402 C41.1447774,197.796389 41.6831021,198.025879 42.3520508,198.025879 C42.8598658,198.025879 43.2846663,197.934327 43.6264648,197.751221 C43.9682634,197.568114 44.2221671,197.303224 44.3881836,196.956543 Z M47.5668945,199 L48.8266602,199 L48.8266602,187.969727 L47.5668945,187.969727 L47.5668945,199 Z M51.0678711,199 L52.3276367,199 L52.3276367,191.104492 L51.0678711,191.104492 L51.0678711,199 Z M51.6977539,189.500488 C51.9418958,189.500488 52.1494132,189.413819 52.3203125,189.240479 C52.4912118,189.067138 52.5766602,188.860841 52.5766602,188.621582 C52.5766602,188.37744 52.4912118,188.169923 52.3203125,187.999023 C52.1494132,187.828124 51.9418958,187.742676 51.6977539,187.742676 C51.4584949,187.742676 51.2521981,187.828124 51.0788574,187.999023 C50.9055167,188.169923 50.8188477,188.37744 50.8188477,188.621582 C50.8188477,188.860841 50.9055167,189.067138 51.0788574,189.240479 C51.2521981,189.413819 51.4584949,189.500488 51.6977539,189.500488 Z M60.940918,191.104492 L59.5932617,191.104492 L57.4326172,197.608398 L57.3154297,197.608398 L55.1547852,191.104492 L53.8071289,191.104492 L56.7294922,199 L58.0185547,199 L58.3151855,198.20166 C58.5129404,197.669431 58.7570786,197.011479 59.0476074,196.227783 C59.3381362,195.444088 59.62744,194.660404 59.9155273,193.876709 C60.2036147,193.093014 60.4465322,192.435061 60.6442871,191.902832 L60.940918,191.104492 Z M65.5405273,192.078613 C64.9106414,192.078613 64.3930684,192.291014 63.987793,192.71582 C63.5825175,193.140627 63.355469,193.702145 63.3066406,194.400391 L67.6572266,194.400391 C67.6425781,193.702145 67.4423847,193.140627 67.0566406,192.71582 C66.6708965,192.291014 66.1655305,192.078613 65.5405273,192.078613 Z M67.6206055,196.956543 L68.8803711,196.956543 C68.6899405,197.635257 68.3042021,198.168699 67.7231445,198.556885 C67.1420869,198.94507 66.4194379,199.13916 65.5551758,199.13916 C64.4614203,199.13916 63.5947298,198.771732 62.9550781,198.036865 C62.3154265,197.301998 61.9956055,196.309577 61.9956055,195.05957 C61.9956055,193.81933 62.3178679,192.826908 62.9624023,192.082275 C63.6069368,191.337643 64.471186,190.965332 65.5551758,190.965332 C66.6196342,190.965332 67.4570282,191.320553 68.0673828,192.031006 C68.6777374,192.741459 68.9829102,193.709467 68.9829102,194.935059 L68.9829102,195.418457 L63.3066406,195.418457 L63.3066406,195.477051 C63.3408205,196.258305 63.5617655,196.878416 63.9694824,197.337402 C64.3771993,197.796389 64.915524,198.025879 65.5844727,198.025879 C66.0922877,198.025879 66.5170881,197.934327 66.8588867,197.751221 C67.2006853,197.568114 67.454589,197.303224 67.6206055,196.956543 Z M70.7260742,199 L71.9858398,199 L71.9858398,194.107422 C71.9858398,193.550778 72.1811504,193.091799 72.5717773,192.730469 C72.9624043,192.369139 73.4580048,192.188477 74.0585938,192.188477 C74.1855475,192.188477 74.3393546,192.197021 74.5200195,192.214111 C74.7006845,192.231201 74.8154294,192.24707 74.8642578,192.261719 L74.8642578,191.001953 C74.7861324,190.992187 74.6872565,190.983643 74.567627,190.976318 C74.4479974,190.968994 74.3369146,190.965332 74.234375,190.965332 C73.7119115,190.965332 73.2456075,191.087401 72.8354492,191.331543 C72.4252909,191.575685 72.1616217,191.890623 72.0444336,192.276367 L71.9272461,192.276367 L71.9272461,191.104492 L70.7260742,191.104492 L70.7260742,199 Z M76.878418,201.856445 C77.5766636,201.856445 78.1174297,201.690431 78.5007324,201.358398 C78.8840351,201.026366 79.2441389,200.401372 79.5810547,199.483398 L82.6645508,191.104492 L81.3242188,191.104492 L79.1635742,197.601074 L79.0463867,197.601074 L76.878418,191.104492 L75.5161133,191.104492 L78.4384766,199.007324 L78.2919922,199.476074 C78.1259757,199.954592 77.9331066,200.290282 77.7133789,200.483154 C77.4936512,200.676026 77.2031268,200.772461 76.8417969,200.772461 C76.7539058,200.772461 76.6635747,200.77002 76.5708008,200.765137 C76.4780269,200.760254 76.3925785,200.750488 76.3144531,200.73584 L76.3144531,201.8125 C76.3730472,201.822266 76.4353024,201.830811 76.5012207,201.838135 C76.567139,201.845459 76.6330563,201.850342 76.6989746,201.852783 C76.7648929,201.855225 76.8247068,201.856445 76.878418,201.856445 Z M92.0395508,199.13916 C91.492673,199.13916 90.9958518,199.01587 90.5490723,198.769287 C90.1022927,198.522704 89.7543958,198.17969 89.5053711,197.740234 L89.3881836,197.740234 L89.3881836,199 L88.1870117,199 L88.1870117,187.969727 L89.4467773,187.969727 L89.4467773,192.349609 L89.5639648,192.349609 C89.7788097,191.924803 90.1096169,191.587892 90.5563965,191.338867 C91.0031761,191.089843 91.4975559,190.965332 92.0395508,190.965332 C93.0454152,190.965332 93.8486298,191.336422 94.4492188,192.078613 C95.0498077,192.820804 95.3500977,193.812006 95.3500977,195.052246 C95.3500977,196.287604 95.048587,197.277584 94.4455566,198.022217 C93.8425263,198.766849 93.0405323,199.13916 92.0395508,199.13916 Z M91.746582,192.100586 C91.028805,192.100586 90.4611837,192.364255 90.0437012,192.891602 C89.6262186,193.418948 89.4174805,194.139156 89.4174805,195.052246 C89.4174805,195.965337 89.6262186,196.685544 90.0437012,197.212891 C90.4611837,197.740237 91.028805,198.003906 91.746582,198.003906 C92.4692419,198.003906 93.0332011,197.742678 93.4384766,197.220215 C93.843752,196.697751 94.0463867,195.975102 94.0463867,195.052246 C94.0463867,194.12939 93.843752,193.406741 93.4384766,192.884277 C93.0332011,192.361814 92.4692419,192.100586 91.746582,192.100586 Z M100.337891,199.13916 C99.2148381,199.13916 98.3273958,198.774174 97.6755371,198.044189 C97.0236784,197.314205 96.6977539,196.316901 96.6977539,195.052246 C96.6977539,193.782708 97.0236784,192.784183 97.6755371,192.056641 C98.3273958,191.329098 99.2148381,190.965332 100.337891,190.965332 C101.460943,190.965332 102.348385,191.329098 103.000244,192.056641 C103.652103,192.784183 103.978027,193.782708 103.978027,195.052246 C103.978027,196.316901 103.652103,197.314205 103.000244,198.044189 C102.348385,198.774174 101.460943,199.13916 100.337891,199.13916 Z M100.337891,198.003906 C101.084965,198.003906 101.661131,197.74512 102.066406,197.227539 C102.471682,196.709958 102.674316,195.984868 102.674316,195.052246 C102.674316,194.114741 102.471682,193.38843 102.066406,192.873291 C101.661131,192.358152 101.084965,192.100586 100.337891,192.100586 C99.5908166,192.100586 99.0146505,192.358152 98.609375,192.873291 C98.2040995,193.38843 98.0014648,194.114741 98.0014648,195.052246 C98.0014648,195.984868 98.2040995,196.709958 98.609375,197.227539 C99.0146505,197.74512 99.5908166,198.003906 100.337891,198.003906 Z M108.519043,196.019043 L110.386719,199 L111.880859,199 L109.163574,195.000977 L111.844238,191.104492 L110.416016,191.104492 L108.562988,194.041504 L108.445801,194.041504 L106.570801,191.104492 L105.069336,191.104492 L107.80127,195.052246 L105.098633,199 L106.526855,199 L108.401855,196.019043 L108.519043,196.019043 Z M113.777832,188.423828 L113.902344,195.484375 L115.118164,195.484375 L115.242676,188.423828 L113.777832,188.423828 Z M114.517578,199.131836 C114.815431,199.131836 115.058349,199.036622 115.246338,198.846191 C115.434327,198.655761 115.52832,198.411623 115.52832,198.11377 C115.52832,197.811034 115.434327,197.564454 115.246338,197.374023 C115.058349,197.183593 114.815431,197.088379 114.517578,197.088379 C114.219725,197.088379 113.975587,197.183593 113.785156,197.374023 C113.594726,197.564454 113.499512,197.811034 113.499512,198.11377 C113.499512,198.411623 113.594726,198.655761 113.785156,198.846191 C113.975587,199.036622 114.219725,199.131836 114.517578,199.131836 Z" id="Almost-at-Leiden-Cen" fill="#000000"></path>
            <g id="calendar" transform="translate(155.000000, 20.000000)" fill-rule="nonzero" fill="#FFFFFF">
                <path d="M18.125,1.25 L15.625,1.25 L15.625,0.625 C15.625,0.28 15.345,0 15,0 C14.655,0 14.375,0.28 14.375,0.625 L14.375,1.25 L5.625,1.25 L5.625,0.625 C5.625,0.28 5.345,0 5,0 C4.655,0 4.375,0.28 4.375,0.625 L4.375,1.25 L1.875,1.25 C0.84375,1.25 0,2.09375 0,3.125 L0,15.625 C0,16.65625 0.84375,17.5 1.875,17.5 L18.125,17.5 C19.15625,17.5 20,16.65625 20,15.625 L20,3.125 C20,2.09375 19.15625,1.25 18.125,1.25 Z M18.75,15.625 C18.75,15.96875 18.46875,16.25 18.125,16.25 L1.875,16.25 C1.5309375,16.25 1.25,15.96875 1.25,15.625 L1.25,3.125 C1.25,2.78125 1.5309375,2.5 1.875,2.5 L4.375,2.5 L4.375,3.125 C4.375,3.47 4.655,3.75 5,3.75 C5.345,3.75 5.625,3.47 5.625,3.125 L5.625,2.5 L14.375,2.5 L14.375,3.125 C14.375,3.47 14.655,3.75 15,3.75 C15.345,3.75 15.625,3.47 15.625,3.125 L15.625,2.5 L18.125,2.5 C18.46875,2.5 18.75,2.78125 18.75,3.125 L18.75,15.625 Z" id="Shape"></path>
                <path d="M16.25,5 L13.75,5 C13.405,5 13.125,5.28 13.125,5.625 L13.125,8.125 C13.125,8.47 13.405,8.75 13.75,8.75 L16.25,8.75 C16.595,8.75 16.875,8.47 16.875,8.125 L16.875,5.625 C16.875,5.28 16.595,5 16.25,5 Z M15.625,7.5 L14.375,7.5 L14.375,6.25 L15.625,6.25 L15.625,7.5 Z" id="Shape"></path>
                <path d="M11.25,5 L8.75,5 C8.405,5 8.125,5.28 8.125,5.625 L8.125,8.125 C8.125,8.47 8.405,8.75 8.75,8.75 L11.25,8.75 C11.595,8.75 11.875,8.47 11.875,8.125 L11.875,5.625 C11.875,5.28 11.595,5 11.25,5 Z M10.625,7.5 L9.375,7.5 L9.375,6.25 L10.625,6.25 L10.625,7.5 Z" id="Shape"></path>
                <path d="M6.25,5 L3.75,5 C3.405,5 3.125,5.28 3.125,5.625 L3.125,8.125 C3.125,8.47 3.405,8.75 3.75,8.75 L6.25,8.75 C6.595,8.75 6.875,8.47 6.875,8.125 L6.875,5.625 C6.875,5.28 6.595,5 6.25,5 Z M5.625,7.5 L4.375,7.5 L4.375,6.25 L5.625,6.25 L5.625,7.5 Z" id="Shape"></path>
                <path d="M16.25,10 L13.75,10 C13.405,10 13.125,10.28 13.125,10.625 L13.125,13.125 C13.125,13.47 13.405,13.75 13.75,13.75 L16.25,13.75 C16.595,13.75 16.875,13.47 16.875,13.125 L16.875,10.625 C16.875,10.28 16.595,10 16.25,10 Z M15.625,12.5 L14.375,12.5 L14.375,11.25 L15.625,11.25 L15.625,12.5 Z" id="Shape"></path>
                <path d="M11.25,10 L8.75,10 C8.405,10 8.125,10.28 8.125,10.625 L8.125,13.125 C8.125,13.47 8.405,13.75 8.75,13.75 L11.25,13.75 C11.595,13.75 11.875,13.47 11.875,13.125 L11.875,10.625 C11.875,10.28 11.595,10 11.25,10 Z M10.625,12.5 L9.375,12.5 L9.375,11.25 L10.625,11.25 L10.625,12.5 Z" id="Shape"></path>
                <path d="M6.25,10 L3.75,10 C3.405,10 3.125,10.28 3.125,10.625 L3.125,13.125 C3.125,13.47 3.405,13.75 3.75,13.75 L6.25,13.75 C6.595,13.75 6.875,13.47 6.875,13.125 L6.875,10.625 C6.875,10.28 6.595,10 6.25,10 Z M5.625,12.5 L4.375,12.5 L4.375,11.25 L5.625,11.25 L5.625,12.5 Z" id="Shape"></path>
            </g>
        </g>
    </g>
</svg>