<?xml version="1.0" encoding="UTF-8"?>
<svg width="330px" height="265px" viewBox="0 0 330 265" version="1.1" xmlns="http://www.w3.org/2000/svg" xmlns:xlink="http://www.w3.org/1999/xlink">
    <!-- Generator: Sketch 43.2 (39069) - http://www.bohemiancoding.com/sketch -->
    <title>Share-Trip-Two</title>
    <desc>Created with Sketch.</desc>
    <defs>
        <rect id="path-1" x="5" y="32" width="320" height="222" rx="5"></rect>
        <filter x="-2.2%" y="-2.3%" width="104.4%" height="106.3%" filterUnits="objectBoundingBox" id="filter-2">
            <feOffset dx="0" dy="2" in="SourceAlpha" result="shadowOffsetOuter1"></feOffset>
            <feGaussianBlur stdDeviation="2" in="shadowOffsetOuter1" result="shadowBlurOuter1"></feGaussianBlur>
            <feColorMatrix values="0 0 0 0 0   0 0 0 0 0   0 0 0 0 0  0 0 0 0.5 0" type="matrix" in="shadowBlurOuter1"></feColorMatrix>
        </filter>
        <linearGradient x1="50%" y1="0%" x2="50%" y2="100%" id="linearGradient-3">
            <stop stop-color="#339499" stop-opacity="0" offset="0%"></stop>
            <stop stop-color="#339499" offset="100%"></stop>
        </linearGradient>
    </defs>
    <g id="Page-1" stroke="none" stroke-width="1" fill="none" fill-rule="evenodd">
        <g id="Share-Trip-Two">
            <g id="Rectangle-12">
                <use fill="black" fill-opacity="1" filter="url(#filter-2)" xlink:href="#path-1"></use>
                <use fill="#FEFEFE" fill-rule="evenodd" xlink:href="#path-1"></use>
            </g>
            <path d="M5,37.0085758 C5,34.2424158 7.23613477,32 9.99427662,32 L320.005723,32 C322.763986,32 325,34.2388053 325,37.0085758 L325,146 L5,146 L5,37.0085758 Z" id="Rectangle-16" fill="#F1F1F1"></path>
            <g id="accuracy-check" transform="translate(290.000000, 48.000000)">
                <g id="destination-card-copy-2" fill="#81C85B">
                    <path d="M1.64782719,1.43315814 C2.42003524,0.641646757 3.93384591,0 5.0525011,0 L22.9935324,0 C24.1016739,0 25,0.898230174 25,1.99907745 L25,19.8740294 C25,20.9780894 24.3599884,22.4908803 23.5602638,23.2628174 L23.2002838,23.6102894 C22.4051394,24.3778054 20.8669397,25 19.752372,25 L2.00817553,25 C0.89909081,25 0,24.1015762 0,23.0004915 L0,5.12168552 C0,4.01738748 0.63114012,2.47525995 1.39820635,1.68901891 L1.64782719,1.43315814 Z" id="Rectangle"></path>
                </g>
                <g id="checkmark-copy" transform="translate(5.000000, 8.000000)" fill-rule="nonzero" fill="#FFFFFF">
                    <path d="M5.33394608,9.98709524 L5.33247549,9.98709524 C5.1727451,9.98709524 5.01936275,9.924 4.90651961,9.81435714 L0.175171569,5.185 C-0.0597794118,4.95533333 -0.0578186275,4.5847381 0.177622549,4.35745238 C0.415514706,4.1282619 0.795539216,4.13064286 1.0295098,4.35983333 L5.33490196,8.57307143 L13.9711029,0.184047619 C14.2070343,-0.0446666667 14.5880392,-0.0446666667 14.8229902,0.184047619 C15.0584314,0.412285714 15.0584314,0.782880952 14.8229902,1.01159524 L5.75987745,9.81580952 C5.64703431,9.92540476 5.49367647,9.98709524 5.33394608,9.98709524 Z" id="Shape"></path>
                </g>
            </g>
            <path d="M222.74125,66 L222.74125,57.2578125 L222.86625,57.2578125 L228.983437,66 L230.350625,66 L230.350625,54.7265625 L228.96,54.7265625 L228.96,63.5 L228.835,63.5 L222.717812,54.7265625 L221.350625,54.7265625 L221.350625,66 L222.74125,66 Z M236.394687,66.1484375 C233.99625,66.1484375 232.511875,64.4921875 232.511875,61.7890625 C232.511875,59.078125 233.99625,57.4296875 236.394687,57.4296875 C238.793125,57.4296875 240.2775,59.078125 240.2775,61.7890625 C240.2775,64.4921875 238.793125,66.1484375 236.394687,66.1484375 Z M236.394687,64.9375 C237.988437,64.9375 238.886875,63.78125 238.886875,61.7890625 C238.886875,59.7890625 237.988437,58.640625 236.394687,58.640625 C234.800937,58.640625 233.9025,59.7890625 233.9025,61.7890625 C233.9025,63.78125 234.800937,64.9375 236.394687,64.9375 Z M249.779687,66.1484375 C247.623437,66.1484375 246.240625,64.4375 246.240625,61.7890625 C246.240625,59.1484375 247.639062,57.4296875 249.779687,57.4296875 C250.951562,57.4296875 251.94375,57.984375 252.420312,58.90625 L252.5375,58.90625 L252.5375,54.234375 L253.88125,54.234375 L253.88125,66 L252.6,66 L252.6,64.65625 L252.475,64.65625 C251.94375,65.59375 250.94375,66.1484375 249.779687,66.1484375 Z M250.092187,58.640625 C248.560937,58.640625 247.63125,59.828125 247.63125,61.7890625 C247.63125,63.7578125 248.553125,64.9375 250.092187,64.9375 C251.623437,64.9375 252.56875,63.734375 252.56875,61.7890625 C252.56875,59.859375 251.615625,58.640625 250.092187,58.640625 Z M259.73,58.6171875 C258.38625,58.6171875 257.44875,59.6015625 257.347187,61.09375 L261.987812,61.09375 C261.956562,59.6015625 261.065937,58.6171875 259.73,58.6171875 Z M261.94875,63.8203125 L263.2925,63.8203125 C262.88625,65.265625 261.589375,66.1484375 259.745625,66.1484375 C257.409687,66.1484375 255.94875,64.4609375 255.94875,61.796875 C255.94875,59.1484375 257.433125,57.4296875 259.745625,57.4296875 C262.019062,57.4296875 263.401875,59.046875 263.401875,61.6640625 L263.401875,62.1796875 L257.347187,62.1796875 L257.347187,62.2421875 C257.4175,63.90625 258.347187,64.9609375 259.776875,64.9609375 C260.862812,64.9609375 261.597187,64.5625 261.94875,63.8203125 Z M265.469375,66 L266.813125,66 L266.813125,54.234375 L265.469375,54.234375 L265.469375,66 Z M271.89625,64.96875 C273.279062,64.96875 274.3025,64.0625 274.3025,62.859375 L274.3025,62.0859375 L272.036875,62.234375 C270.755625,62.3203125 270.193125,62.765625 270.193125,63.609375 C270.193125,64.46875 270.919687,64.96875 271.89625,64.96875 Z M271.64625,66.1484375 C270.013437,66.1484375 268.8025,65.1796875 268.8025,63.640625 C268.8025,62.1328125 269.911875,61.265625 271.872812,61.1484375 L274.3025,61 L274.3025,60.234375 C274.3025,59.1953125 273.654062,58.625 272.39625,58.625 C271.388437,58.625 270.685312,59.0078125 270.497812,59.671875 L269.138437,59.671875 C269.318125,58.3203125 270.64625,57.4296875 272.443125,57.4296875 C274.497812,57.4296875 275.64625,58.484375 275.64625,60.234375 L275.64625,66 L274.365,66 L274.365,64.7578125 L274.24,64.7578125 C273.693125,65.65625 272.77125,66.1484375 271.64625,66.1484375 Z M278.416875,69.046875 C279.909062,69.046875 280.580937,68.46875 281.299687,66.515625 L284.58875,57.578125 L283.159062,57.578125 L280.854375,64.5078125 L280.729375,64.5078125 L278.416875,57.578125 L276.96375,57.578125 L280.080937,66.0078125 L279.924687,66.5078125 C279.573125,67.5234375 279.15125,67.890625 278.377812,67.890625 C278.190312,67.890625 277.979375,67.8828125 277.815312,67.8515625 L277.815312,69 C278.002812,69.03125 278.237187,69.046875 278.416875,69.046875 Z" id="No-delay" fill="#81C85B"></path>
            <path d="M27,233 L325,233" id="Separator-Copy-2" stroke="#C8C7CC" stroke-width="0.5" stroke-linecap="square"></path>
            <path d="M63.4472656,223 L65.0292969,223 L65.0292969,210.317383 L63.4560547,210.317383 L60.0810547,212.743164 L60.0810547,214.413086 L63.3066406,212.075195 L63.4472656,212.075195 L63.4472656,223 Z M74.4655859,223 L74.4655859,220.37207 L68.286875,220.37207 L68.286875,218.930664 C69.4206641,216.917969 71.4333594,213.736328 73.7185156,210.317383 L76.0124609,210.317383 L76.0124609,218.957031 L77.8142188,218.957031 L77.8142188,220.37207 L76.0124609,220.37207 L76.0124609,223 L74.4655859,223 Z M69.9040625,218.860352 L69.9040625,218.96582 L74.474375,218.96582 L74.474375,211.785156 L74.3689063,211.785156 C73.068125,213.674805 71.4157813,216.293945 69.9040625,218.860352 Z M81.3794141,221.549805 C82.0122266,221.549805 82.5219922,221.03125 82.5219922,220.407227 C82.5219922,219.774414 82.0122266,219.264648 81.3794141,219.264648 C80.7553906,219.264648 80.236836,219.774414 80.236836,220.407227 C80.236836,221.03125 80.7553906,221.549805 81.3794141,221.549805 Z M81.3794141,214.791016 C82.0122266,214.791016 82.5219922,214.272461 82.5219922,213.648438 C82.5219922,213.015625 82.0122266,212.505859 81.3794141,212.505859 C80.7553906,212.505859 80.236836,213.015625 80.236836,213.648438 C80.236836,214.272461 80.7553906,214.791016 81.3794141,214.791016 Z M87.836211,217.155273 L89.4446094,217.155273 C91.2463672,217.155273 92.3625782,218.069336 92.3625782,219.537109 C92.3625782,220.925781 91.1760547,221.918945 89.5061328,221.918945 C87.8713672,221.918945 86.7287891,221.048828 86.5881641,219.695312 L85.0588672,219.695312 C85.173125,221.866211 86.9485157,223.298828 89.523711,223.298828 C92.0285938,223.298828 93.9885547,221.672852 93.9885547,219.581055 C93.9885547,217.849609 92.9426563,216.654297 91.22,216.43457 L91.22,216.293945 C92.6086719,215.959961 93.4436328,214.852539 93.4436328,213.34082 C93.4436328,211.495117 91.6770313,210.018555 89.4621875,210.018555 C87.0451953,210.018555 85.4719532,211.37207 85.31375,213.569336 L86.851836,213.569336 C86.9836719,212.207031 87.9416797,211.398438 89.4006641,211.398438 C90.8596485,211.398438 91.8352344,212.259766 91.8352344,213.551758 C91.8352344,214.870117 90.8157032,215.801758 89.3742969,215.801758 L87.836211,215.801758 L87.836211,217.155273 Z M100.577188,223.298828 C103.205117,223.298828 105.006875,221.541016 105.006875,218.96582 C105.006875,216.469727 103.319375,214.720703 100.911172,214.720703 C99.7422266,214.720703 98.8457422,215.081055 98.2305079,215.801758 L98.0898829,215.801758 L98.4502344,211.732422 L104.286172,211.732422 L104.286172,210.317383 L97.2109766,210.317383 L96.5166407,217.506836 L98.0019922,217.506836 C98.5205469,216.601562 99.4697657,216.083008 100.621133,216.083008 C102.282266,216.083008 103.424844,217.269531 103.424844,219.009766 C103.424844,220.75 102.291055,221.910156 100.594766,221.910156 C99.100625,221.910156 98.0107813,220.996094 97.8701563,219.625 L96.3144922,219.625 C96.4551172,221.813477 98.1777735,223.298828 100.577188,223.298828 Z M118.052305,218.614258 L118.052305,217.181641 L112.28668,217.181641 L112.28668,218.614258 L118.052305,218.614258 Z M134.086016,223 L132.811602,219.370117 L127.76668,219.370117 L126.492266,223 L124.831133,223 L129.506914,210.317383 L131.071367,210.317383 L135.747149,223 L134.086016,223 Z M130.218828,212.365234 L128.2325,218.025391 L132.345781,218.025391 L130.359453,212.365234 L130.218828,212.365234 Z M137.730313,223 L139.242031,223 L139.242031,209.763672 L137.730313,209.763672 L137.730313,223 Z M142.042578,223 L143.554297,223 L143.554297,217.128906 C143.554297,215.792969 144.512305,214.720703 145.751563,214.720703 C146.946875,214.720703 147.729102,215.441406 147.729102,216.566406 L147.729102,223 L149.24082,223 L149.24082,216.90918 C149.24082,215.705078 150.119727,214.720703 151.438086,214.720703 C152.774024,214.720703 153.433203,215.40625 153.433203,216.803711 L153.433203,223 L154.944922,223 L154.944922,216.452148 C154.944922,214.46582 153.863867,213.358398 151.930274,213.358398 C150.620703,213.358398 149.539649,214.017578 149.029883,215.019531 L148.889258,215.019531 C148.449805,214.035156 147.55332,213.358398 146.270117,213.358398 C145.004492,213.358398 144.055274,213.964844 143.624609,215.019531 L143.483984,215.019531 L143.483984,213.525391 L142.042578,213.525391 L142.042578,223 Z M161.348984,214.694336 C159.837266,214.694336 158.782578,215.801758 158.66832,217.480469 L163.889024,217.480469 C163.853867,215.801758 162.851914,214.694336 161.348984,214.694336 Z M163.845078,220.547852 L165.356797,220.547852 C164.899766,222.173828 163.440781,223.166992 161.366563,223.166992 C158.738633,223.166992 157.095078,221.268555 157.095078,218.271484 C157.095078,215.291992 158.765,213.358398 161.366563,213.358398 C163.92418,213.358398 165.479844,215.177734 165.479844,218.12207 L165.479844,218.702148 L158.66832,218.702148 L158.66832,218.772461 C158.747422,220.644531 159.79332,221.831055 161.401719,221.831055 C162.623399,221.831055 163.44957,221.382812 163.845078,220.547852 Z M167.717891,223 L169.229609,223 L169.229609,217.128906 C169.229609,215.792969 170.275508,214.826172 171.716914,214.826172 C172.015742,214.826172 172.560664,214.878906 172.683711,214.914062 L172.683711,213.402344 C172.490352,213.375977 172.173945,213.358398 171.927852,213.358398 C170.671016,213.358398 169.581172,214.008789 169.299922,214.931641 L169.159297,214.931641 L169.159297,213.525391 L167.717891,213.525391 L167.717891,223 Z M177.953984,214.694336 C176.442266,214.694336 175.387578,215.801758 175.27332,217.480469 L180.494024,217.480469 C180.458867,215.801758 179.456914,214.694336 177.953984,214.694336 Z M180.450078,220.547852 L181.961797,220.547852 C181.504766,222.173828 180.045781,223.166992 177.971563,223.166992 C175.343633,223.166992 173.700078,221.268555 173.700078,218.271484 C173.700078,215.291992 175.37,213.358398 177.971563,213.358398 C180.52918,213.358398 182.084844,215.177734 182.084844,218.12207 L182.084844,218.702148 L175.27332,218.702148 L175.27332,218.772461 C175.352422,220.644531 176.39832,221.831055 178.006719,221.831055 C179.228399,221.831055 180.05457,221.382812 180.450078,220.547852 Z M189.461328,210.317383 L194.251367,210.317383 C196.650781,210.317383 198.311914,212.004883 198.311914,214.421875 C198.311914,216.794922 196.615625,218.473633 194.233789,218.473633 L191.04336,218.473633 L191.04336,223 L189.461328,223 L189.461328,210.317383 Z M191.04336,211.723633 L191.04336,217.067383 L193.838281,217.067383 C195.640039,217.067383 196.685938,216.100586 196.685938,214.421875 C196.685938,212.681641 195.675195,211.723633 193.838281,211.723633 L191.04336,211.723633 Z M204.197422,223.166992 C201.49918,223.166992 199.829258,221.303711 199.829258,218.262695 C199.829258,215.212891 201.49918,213.358398 204.197422,213.358398 C206.895664,213.358398 208.565586,215.212891 208.565586,218.262695 C208.565586,221.303711 206.895664,223.166992 204.197422,223.166992 Z M204.197422,221.804688 C205.990391,221.804688 207.001133,220.503906 207.001133,218.262695 C207.001133,216.012695 205.990391,214.720703 204.197422,214.720703 C202.404453,214.720703 201.393711,216.012695 201.393711,218.262695 C201.393711,220.503906 202.404453,221.804688 204.197422,221.804688 Z M214.697188,223.166992 C211.998945,223.166992 210.329024,221.303711 210.329024,218.262695 C210.329024,215.212891 211.998945,213.358398 214.697188,213.358398 C217.39543,213.358398 219.065352,215.212891 219.065352,218.262695 C219.065352,221.303711 217.39543,223.166992 214.697188,223.166992 Z M214.697188,221.804688 C216.490156,221.804688 217.500899,220.503906 217.500899,218.262695 C217.500899,216.012695 216.490156,214.720703 214.697188,214.720703 C212.904219,214.720703 211.893477,216.012695 211.893477,218.262695 C211.893477,220.503906 212.904219,221.804688 214.697188,221.804688 Z M221.303399,223 L222.815117,223 L222.815117,217.128906 C222.815117,215.792969 223.861016,214.826172 225.302422,214.826172 C225.60125,214.826172 226.146172,214.878906 226.269219,214.914062 L226.269219,213.402344 C226.07586,213.375977 225.759453,213.358398 225.51336,213.358398 C224.256524,213.358398 223.16668,214.008789 222.88543,214.931641 L222.744805,214.931641 L222.744805,213.525391 L221.303399,213.525391 L221.303399,223 Z M229.184024,211.073242 L229.184024,213.525391 L227.654727,213.525391 L227.654727,214.791016 L229.184024,214.791016 L229.184024,220.539062 C229.184024,222.349609 229.96625,223.070312 231.917422,223.070312 C232.21625,223.070312 232.506289,223.035156 232.805117,222.982422 L232.805117,221.708008 C232.523867,221.734375 232.374453,221.743164 232.101992,221.743164 C231.117617,221.743164 230.695742,221.268555 230.695742,220.152344 L230.695742,214.791016 L232.805117,214.791016 L232.805117,213.525391 L230.695742,213.525391 L230.695742,211.073242 L229.184024,211.073242 Z" id="Event-Name-Copy" fill="#000000"></path>
            <path d="M66.6699219,199 L65.6787109,196.176758 L61.7548828,196.176758 L60.7636719,199 L59.4716797,199 L63.1083984,189.135742 L64.3251953,189.135742 L67.9619141,199 L66.6699219,199 Z M63.6621094,190.728516 L62.1171875,195.130859 L65.3164062,195.130859 L63.7714844,190.728516 L63.6621094,190.728516 Z M69.4117849,199 L70.5875661,199 L70.5875661,194.433594 C70.5875661,193.394531 71.4010427,192.642578 72.5221364,192.642578 C72.7545583,192.642578 73.1783864,192.683594 73.2740895,192.710938 L73.2740895,191.535156 C73.1236989,191.514648 72.8776052,191.500977 72.6861989,191.500977 C71.7086599,191.500977 70.8610036,192.006836 70.6422536,192.724609 L70.5328786,192.724609 L70.5328786,191.630859 L69.4117849,191.630859 L69.4117849,199 Z M74.7513041,199 L75.9270853,199 L75.9270853,194.433594 C75.9270853,193.394531 76.7405619,192.642578 77.8616557,192.642578 C78.0940775,192.642578 78.5179057,192.683594 78.6136088,192.710938 L78.6136088,191.535156 C78.4632182,191.514648 78.2171244,191.500977 78.0257182,191.500977 C77.0481791,191.500977 76.2005228,192.006836 75.9817728,192.724609 L75.8723978,192.724609 L75.8723978,191.630859 L74.7513041,191.630859 L74.7513041,199 Z M79.9814483,199 L81.1572296,199 L81.1572296,191.630859 L79.9814483,191.630859 L79.9814483,199 Z M80.5693389,190.133789 C81.0205108,190.133789 81.3896514,189.764648 81.3896514,189.313477 C81.3896514,188.862305 81.0205108,188.493164 80.5693389,188.493164 C80.1181671,188.493164 79.7490264,188.862305 79.7490264,189.313477 C79.7490264,189.764648 80.1181671,190.133789 80.5693389,190.133789 Z M89.2858113,191.630859 L88.0279988,191.630859 L86.0113972,197.701172 L85.9020222,197.701172 L83.8854207,191.630859 L82.6276082,191.630859 L85.3551472,199 L86.5582722,199 L89.2858113,191.630859 Z M92.7249399,198.097656 C93.9349009,198.097656 94.8304087,197.304688 94.8304087,196.251953 L94.8304087,195.575195 L92.8479868,195.705078 C91.726893,195.780273 91.2347055,196.169922 91.2347055,196.908203 C91.2347055,197.660156 91.8704477,198.097656 92.7249399,198.097656 Z M92.5061899,199.129883 C91.077479,199.129883 90.0179087,198.282227 90.0179087,196.935547 C90.0179087,195.616211 90.9886118,194.857422 92.7044321,194.754883 L94.8304087,194.625 L94.8304087,193.955078 C94.8304087,193.045898 94.2630259,192.546875 93.1624399,192.546875 C92.280604,192.546875 91.6653696,192.881836 91.5013071,193.462891 L90.311854,193.462891 C90.4690805,192.280273 91.6311899,191.500977 93.2034555,191.500977 C95.0013071,191.500977 96.0061899,192.423828 96.0061899,193.955078 L96.0061899,199 L94.8850962,199 L94.8850962,197.913086 L94.7757212,197.913086 C94.2972055,198.699219 93.4905649,199.129883 92.5061899,199.129883 Z M98.1191466,199 L99.2949279,199 L99.2949279,188.705078 L98.1191466,188.705078 L98.1191466,199 Z M109.215177,199 L109.215177,190.243164 L112.393888,190.243164 L112.393888,189.135742 L104.805998,189.135742 L104.805998,190.243164 L107.984709,190.243164 L107.984709,199 L109.215177,199 Z M113.905282,199 L115.081064,199 L115.081064,191.630859 L113.905282,191.630859 L113.905282,199 Z M114.493173,190.133789 C114.944345,190.133789 115.313486,189.764648 115.313486,189.313477 C115.313486,188.862305 114.944345,188.493164 114.493173,188.493164 C114.042001,188.493164 113.672861,188.862305 113.672861,189.313477 C113.672861,189.764648 114.042001,190.133789 114.493173,190.133789 Z M117.19402,199 L118.369802,199 L118.369802,194.433594 C118.369802,193.394531 119.114919,192.560547 120.078786,192.560547 C121.008474,192.560547 121.616872,193.121094 121.616872,193.996094 L121.616872,199 L122.792653,199 L122.792653,194.262695 C122.792653,193.326172 123.476247,192.560547 124.501638,192.560547 C125.5407,192.560547 126.053395,193.09375 126.053395,194.180664 L126.053395,199 L127.229177,199 L127.229177,193.907227 C127.229177,192.362305 126.388356,191.500977 124.88445,191.500977 C123.865895,191.500977 123.025075,192.013672 122.628591,192.792969 L122.519216,192.792969 C122.177419,192.027344 121.480153,191.500977 120.482106,191.500977 C119.497731,191.500977 118.75945,191.972656 118.424489,192.792969 L118.315114,192.792969 L118.315114,191.630859 L117.19402,191.630859 L117.19402,199 Z M132.185883,192.540039 C131.010102,192.540039 130.18979,193.401367 130.100922,194.707031 L134.161469,194.707031 C134.134126,193.401367 133.354829,192.540039 132.185883,192.540039 Z M134.12729,197.092773 L135.303071,197.092773 C134.947602,198.357422 133.812837,199.129883 132.199555,199.129883 C130.15561,199.129883 128.87729,197.65332 128.87729,195.322266 C128.87729,193.004883 130.176118,191.500977 132.199555,191.500977 C134.188813,191.500977 135.398774,192.916016 135.398774,195.206055 L135.398774,195.657227 L130.100922,195.657227 L130.100922,195.711914 C130.162446,197.167969 130.975922,198.09082 132.226899,198.09082 C133.177094,198.09082 133.819672,197.742188 134.12729,197.092773 Z M138.08595,199.068359 C138.578137,199.068359 138.974621,198.665039 138.974621,198.179688 C138.974621,197.6875 138.578137,197.291016 138.08595,197.291016 C137.600598,197.291016 137.197278,197.6875 137.197278,198.179688 C137.197278,198.665039 137.600598,199.068359 138.08595,199.068359 Z M138.08595,193.811523 C138.578137,193.811523 138.974621,193.408203 138.974621,192.922852 C138.974621,192.430664 138.578137,192.03418 138.08595,192.03418 C137.600598,192.03418 137.197278,192.430664 137.197278,192.922852 C137.197278,193.408203 137.600598,193.811523 138.08595,193.811523 Z" id="Time-Copy" fill="#000000"></path>
            <rect id="Calendar-Color" fill="url(#linearGradient-3)" x="38" y="146" width="6" height="60" rx="3"></rect>
            <circle id="Oval-Copy" fill="#339499" cx="41" cy="218" r="6"></circle>
            <path d="M37.7929688,70 L37.7929688,58.9257812 L37.8984375,58.9257812 L45.8085938,70 L48.7382812,70 L48.7382812,53.0898438 L45.3515625,53.0898438 L45.3515625,64.1054688 L45.2578125,64.1054688 L37.359375,53.0898438 L34.40625,53.0898438 L34.40625,70 L37.7929688,70 Z M56.1234376,70.2695312 C52.3265626,70.2695312 49.9007814,67.8320312 49.9007814,63.7070312 C49.9007814,59.640625 52.3617189,57.1679688 56.1234376,57.1679688 C59.8851564,57.1679688 62.3460939,59.6289062 62.3460939,63.7070312 C62.3460939,67.84375 59.9203126,70.2695312 56.1234376,70.2695312 Z M56.1234376,67.65625 C57.7992189,67.65625 58.8656251,66.2382812 58.8656251,63.71875 C58.8656251,61.2226562 57.7875001,59.78125 56.1234376,59.78125 C54.4593751,59.78125 53.3695314,61.2226562 53.3695314,63.71875 C53.3695314,66.2382812 54.4359376,67.65625 56.1234376,67.65625 Z M80.711719,57.4375 L77.383594,70 L73.7390628,70 L71.4656253,61.1171875 L71.3953128,61.1171875 L69.133594,70 L65.5359378,70 L62.196094,57.4375 L65.6414065,57.4375 L67.539844,66.7539062 L67.6101565,66.7539062 L69.836719,57.4375 L73.117969,57.4375 L75.3562503,66.7539062 L75.4265628,66.7539062 L77.336719,57.4375 L80.711719,57.4375 Z" id="Now" fill="#030303"></path>
            <path d="M27,146 L325,145.5" id="Separator" stroke="#C8C7CC" stroke-width="0.5" stroke-linecap="square"></path>
            <g id="Titles-album" transform="translate(33.000000, 87.000000)" fill="#030303">
                <path d="M0.693359375,11.1230469 C0.859375,13.6132813 2.9296875,15.234375 5.91796875,15.234375 C9.16015625,15.234375 11.1914062,13.6230469 11.1914062,11.0449219 C11.1914062,9.0234375 10.0097656,7.90039063 7.08984375,7.16796875 L5.61523438,6.77734375 C3.70117188,6.27929688 2.91992188,5.64453125 2.91992188,4.58007813 C2.91992188,3.203125 4.18945312,2.25585938 6.015625,2.25585938 C7.8515625,2.25585938 9.07226562,3.18359375 9.22851562,4.69726563 L10.9863281,4.69726563 C10.9082031,2.33398438 8.87695312,0.673828125 6.07421875,0.673828125 C3.14453125,0.673828125 1.09375,2.31445312 1.09375,4.65820313 C1.09375,6.57226563 2.24609375,7.71484375 4.84375,8.37890625 L6.65039062,8.84765625 C8.54492188,9.3359375 9.375,10.0683594 9.375,11.2597656 C9.375,12.6464844 7.98828125,13.6523438 6.08398438,13.6523438 C4.07226562,13.6523438 2.62695312,12.6464844 2.4609375,11.1230469 L0.693359375,11.1230469 Z M18.1919745,4.66796875 C20.7798651,4.66796875 22.5376776,6.73828125 22.5376776,9.921875 C22.5376776,13.1054688 20.7896307,15.1757813 18.231037,15.1757813 C16.7759589,15.1757813 15.6040839,14.4628906 14.9986151,13.3496094 L14.9595526,13.3496094 L14.9595526,18.3886719 L13.2603339,18.3886719 L13.2603339,4.84375 L14.871662,4.84375 L14.871662,6.5625 L14.9107245,6.5625 C15.5357245,5.41992188 16.7173651,4.66796875 18.1919745,4.66796875 Z M17.8599432,13.6816406 C19.6665839,13.6816406 20.7993964,12.2265625 20.7993964,9.921875 C20.7993964,7.62695312 19.6665839,6.16210938 17.8599432,6.16210938 C16.121662,6.16210938 14.949787,7.66601562 14.949787,9.921875 C14.949787,12.1875 16.121662,13.6816406 17.8599432,13.6816406 Z M24.5284802,15 L26.227699,15 L26.227699,8.671875 C26.227699,7.23632813 27.087074,6.2890625 28.4054334,6.2890625 C28.8155896,6.2890625 29.1769177,6.33789062 29.3136365,6.38671875 L29.3136365,4.73632812 C29.1769177,4.71679688 28.9230115,4.66796875 28.6300427,4.66796875 C27.4386365,4.66796875 26.5011365,5.38085938 26.1691052,6.50390625 L26.1300427,6.50390625 L26.1300427,4.84375 L24.5284802,4.84375 L24.5284802,15 Z M31.0602985,15 L32.7595172,15 L32.7595172,4.84375 L31.0602985,4.84375 L31.0602985,15 Z M31.9099078,3.13476562 C32.4958453,3.13476562 32.974361,2.65625 32.974361,2.08007812 C32.974361,1.49414062 32.4958453,1.02539062 31.9099078,1.02539062 C31.333736,1.02539062 30.8552203,1.49414062 30.8552203,2.08007812 C30.8552203,2.65625 31.333736,3.13476562 31.9099078,3.13476562 Z M35.3362573,15 L37.0354761,15 L37.0354761,9.0234375 C37.0354761,7.3046875 38.080398,6.171875 39.6819605,6.171875 C41.2444605,6.171875 42.0159448,7.0703125 42.0159448,8.7109375 L42.0159448,15 L43.7151636,15 L43.7151636,8.40820313 C43.7151636,6.10351562 42.4261011,4.66796875 40.1995386,4.66796875 C38.627273,4.66796875 37.5432886,5.37109375 36.9768823,6.46484375 L36.9378198,6.46484375 L36.9378198,4.84375 L35.3362573,4.84375 L35.3362573,15 Z M46.70206,2.39257812 L46.70206,4.84375 L45.1883881,4.84375 L45.1883881,6.24023438 L46.70206,6.24023438 L46.70206,12.3632812 C46.70206,14.3164062 47.4247162,15.078125 49.2899506,15.078125 C49.6903412,15.078125 50.1590912,15.0488281 50.3641693,15 L50.3641693,13.5742188 C50.2469818,13.59375 49.8563568,13.6230469 49.6610443,13.6230469 C48.7919037,13.6230469 48.4012787,13.203125 48.4012787,12.2753906 L48.4012787,6.24023438 L50.373935,6.24023438 L50.373935,4.84375 L48.4012787,4.84375 L48.4012787,2.39257812 L46.70206,2.39257812 Z M56.2416907,6.14257812 C54.6498938,6.14257812 53.5366126,7.36328125 53.4291907,9.05273438 L58.9467688,9.05273438 C58.9077063,7.35351562 57.8432532,6.14257812 56.2416907,6.14257812 Z M58.9077063,12.0898438 L60.5776282,12.0898438 C60.2846594,13.8671875 58.5659094,15.1757813 56.3491126,15.1757813 C53.4389563,15.1757813 51.6713782,13.1542969 51.6713782,9.9609375 C51.6713782,6.80664063 53.4682532,4.66796875 56.2709876,4.66796875 C59.0151282,4.66796875 60.7045813,6.66015625 60.7045813,9.73632813 L60.7045813,10.3808594 L53.4194251,10.3808594 L53.4194251,10.4785156 C53.4194251,12.421875 54.5620032,13.7011719 56.3881751,13.7011719 C57.6772376,13.7011719 58.6245032,13.046875 58.9077063,12.0898438 Z M62.6953839,15 L64.3946027,15 L64.3946027,8.671875 C64.3946027,7.23632813 65.2539777,6.2890625 66.5723371,6.2890625 C66.9824933,6.2890625 67.3438214,6.33789062 67.4805402,6.38671875 L67.4805402,4.73632812 C67.3438214,4.71679688 67.0899152,4.66796875 66.7969464,4.66796875 C65.6055402,4.66796875 64.6680402,5.38085938 64.3360089,6.50390625 L64.2969464,6.50390625 L64.2969464,4.84375 L62.6953839,4.84375 L62.6953839,15 Z M74.0695673,2.39257812 L74.0695673,4.84375 L72.5558954,4.84375 L72.5558954,6.24023438 L74.0695673,6.24023438 L74.0695673,12.3632812 C74.0695673,14.3164062 74.7922235,15.078125 76.6574579,15.078125 C77.0578485,15.078125 77.5265985,15.0488281 77.7316767,15 L77.7316767,13.5742188 C77.6144892,13.59375 77.2238642,13.6230469 77.0285517,13.6230469 C76.159411,13.6230469 75.768786,13.203125 75.768786,12.2753906 L75.768786,6.24023438 L77.7414423,6.24023438 L77.7414423,4.84375 L75.768786,4.84375 L75.768786,2.39257812 L74.0695673,2.39257812 Z M83.7459168,15.1757813 C80.9334168,15.1757813 79.0388855,13.1542969 79.0388855,9.921875 C79.0388855,6.6796875 80.9334168,4.66796875 83.7459168,4.66796875 C86.5486512,4.66796875 88.4431824,6.6796875 88.4431824,9.921875 C88.4431824,13.1542969 86.5486512,15.1757813 83.7459168,15.1757813 Z M83.7459168,13.6816406 C85.5427918,13.6816406 86.7146668,12.3144531 86.7146668,9.921875 C86.7146668,7.52929688 85.5427918,6.16210938 83.7459168,6.16210938 C81.9490418,6.16210938 80.7674012,7.52929688 80.7674012,9.921875 C80.7674012,12.3144531 81.9490418,13.6816406 83.7459168,13.6816406 Z M103.353907,4.84375 L101.674219,4.84375 L99.6429694,13.1054688 L99.6039069,13.1054688 L97.2992194,4.84375 L95.6585944,4.84375 L93.3636725,13.1054688 L93.32461,13.1054688 L91.29336,4.84375 L89.6039069,4.84375 L92.4457038,15 L94.1742194,15 L96.4593756,7.13867188 L96.4984381,7.13867188 L98.79336,15 L100.521876,15 L103.353907,4.84375 Z M108.176741,13.7304688 C109.778303,13.7304688 111.008772,12.6074219 111.008772,11.1425781 L111.008772,10.3125 L108.293928,10.4785156 C106.926741,10.5664062 106.145491,11.171875 106.145491,12.1289062 C106.145491,13.0957031 106.956038,13.7304688 108.176741,13.7304688 Z M107.795881,15.1757813 C105.774397,15.1757813 104.416975,13.9550781 104.416975,12.1289063 C104.416975,10.390625 105.754866,9.296875 108.098616,9.16015625 L111.008772,8.99414063 L111.008772,8.14453125 C111.008772,6.90429688 110.18846,6.16210938 108.78221,6.16210938 C107.473616,6.16210938 106.653303,6.77734375 106.43846,7.7734375 L104.797835,7.7734375 C104.915022,6.015625 106.418928,4.66796875 108.821272,4.66796875 C111.204085,4.66796875 112.707991,5.95703125 112.707991,7.97851563 L112.707991,15 L111.096663,15 L111.096663,13.2519531 L111.0576,13.2519531 C110.452131,14.4140625 109.163069,15.1757813 107.795881,15.1757813 Z M115.148012,15 L116.847231,15 L116.847231,8.671875 C116.847231,7.23632813 117.706606,6.2890625 119.024965,6.2890625 C119.435122,6.2890625 119.79645,6.33789062 119.933168,6.38671875 L119.933168,4.73632812 C119.79645,4.71679688 119.542543,4.66796875 119.249575,4.66796875 C118.058168,4.66796875 117.120668,5.38085938 116.788637,6.50390625 L116.749575,6.50390625 L116.749575,4.84375 L115.148012,4.84375 L115.148012,15 Z M124.951315,15.1757813 C122.363424,15.1757813 120.605612,13.1054688 120.605612,9.921875 C120.605612,6.73828125 122.353658,4.66796875 124.912252,4.66796875 C126.36733,4.66796875 127.539205,5.38085938 128.144674,6.49414063 L128.183737,6.49414063 L128.183737,0.908203125 L129.882955,0.908203125 L129.882955,15 L128.261862,15 L128.261862,13.28125 L128.232565,13.28125 C127.578268,14.453125 126.416158,15.1757813 124.951315,15.1757813 Z M125.27358,6.16210938 C123.476705,6.16210938 122.343893,7.62695312 122.343893,9.921875 C122.343893,12.2265625 123.476705,13.6816406 125.27358,13.6816406 C127.021627,13.6816406 128.193502,12.1972656 128.193502,9.921875 C128.193502,7.65625 127.021627,6.16210938 125.27358,6.16210938 Z M132.283914,7.64648438 C132.283914,9.03320313 133.16282,9.95117188 134.94993,10.4101563 L136.737039,10.8691406 C137.879617,11.171875 138.299539,11.5625 138.299539,12.2851563 C138.299539,13.203125 137.44993,13.7890625 136.072977,13.7890625 C134.696024,13.7890625 133.895242,13.2226563 133.709695,12.1679688 L132.010477,12.1679688 C132.186258,13.9648438 133.738992,15.1757813 135.965555,15.1757813 C138.338602,15.1757813 140.008524,13.9257813 140.008524,12.1582031 C140.008524,10.6640625 139.266336,9.921875 137.215555,9.40429688 L135.643289,9.0234375 C134.490945,8.73046875 133.953836,8.26171875 133.953836,7.55859375 C133.953836,6.66992188 134.774149,6.0546875 136.014383,6.0546875 C137.264383,6.0546875 138.055399,6.66015625 138.172586,7.63671875 L139.79368,7.63671875 C139.715555,5.91796875 138.172586,4.66796875 136.072977,4.66796875 C133.836649,4.66796875 132.283914,5.90820313 132.283914,7.64648438 Z M155.855363,15 L154.439348,10.9667969 L148.833879,10.9667969 L147.417863,15 L145.57216,15 L150.767473,0.908203125 L152.505754,0.908203125 L157.701066,15 L155.855363,15 Z M151.607316,3.046875 L149.351457,9.47265625 L153.921769,9.47265625 L151.66591,3.046875 L151.607316,3.046875 Z M159.418431,15 L161.11765,15 L161.11765,0.908203125 L159.418431,0.908203125 L159.418431,15 Z M163.69439,15 L165.393609,15 L165.393609,8.6328125 C165.393609,7.2265625 166.370172,6.171875 167.717828,6.171875 C168.977593,6.171875 169.797906,6.97265625 169.797906,8.19335938 L169.797906,15 L171.497125,15 L171.497125,8.54492188 C171.497125,7.16796875 172.44439,6.171875 173.792047,6.171875 C175.129937,6.171875 175.901422,6.9921875 175.901422,8.37890625 L175.901422,15 L177.60064,15 L177.60064,7.98828125 C177.60064,5.9765625 176.301812,4.66796875 174.290093,4.66796875 C172.864312,4.66796875 171.672906,5.390625 171.1065,6.6015625 L171.067437,6.6015625 C170.627984,5.37109375 169.602593,4.66796875 168.215875,4.66796875 C166.848687,4.66796875 165.813531,5.390625 165.335015,6.46484375 L165.295953,6.46484375 L165.295953,4.84375 L163.69439,4.84375 L163.69439,15 Z M184.112927,6.14257812 C182.52113,6.14257812 181.407849,7.36328125 181.300427,9.05273438 L186.818005,9.05273438 C186.778943,7.35351562 185.71449,6.14257812 184.112927,6.14257812 Z M186.778943,12.0898438 L188.448865,12.0898438 C188.155896,13.8671875 186.437146,15.1757813 184.220349,15.1757813 C181.310193,15.1757813 179.542615,13.1542969 179.542615,9.9609375 C179.542615,6.80664063 181.33949,4.66796875 184.142224,4.66796875 C186.886365,4.66796875 188.575818,6.66015625 188.575818,9.73632813 L188.575818,10.3808594 L181.290662,10.3808594 L181.290662,10.4785156 C181.290662,12.421875 182.43324,13.7011719 184.259412,13.7011719 C185.548474,13.7011719 186.49574,13.046875 186.778943,12.0898438 Z M190.566621,15 L192.265839,15 L192.265839,8.671875 C192.265839,7.23632813 193.125214,6.2890625 194.443574,6.2890625 C194.85373,6.2890625 195.215058,6.33789062 195.351777,6.38671875 L195.351777,4.73632812 C195.215058,4.71679688 194.961152,4.66796875 194.668183,4.66796875 C193.476777,4.66796875 192.539277,5.38085938 192.207246,6.50390625 L192.168183,6.50390625 L192.168183,4.84375 L190.566621,4.84375 L190.566621,15 Z M200.594533,6.14257812 C199.002736,6.14257812 197.889454,7.36328125 197.782033,9.05273438 L203.299611,9.05273438 C203.260548,7.35351562 202.196095,6.14257812 200.594533,6.14257812 Z M203.260548,12.0898438 L204.93047,12.0898438 C204.637501,13.8671875 202.918751,15.1757813 200.701954,15.1757813 C197.791798,15.1757813 196.02422,13.1542969 196.02422,9.9609375 C196.02422,6.80664063 197.821095,4.66796875 200.623829,4.66796875 C203.36797,4.66796875 205.057423,6.66015625 205.057423,9.73632813 L205.057423,10.3808594 L197.772267,10.3808594 L197.772267,10.4785156 C197.772267,12.421875 198.914845,13.7011719 200.741017,13.7011719 C202.030079,13.7011719 202.977345,13.046875 203.260548,12.0898438 Z M7.16796875,39.234375 C10.2832031,39.234375 12.3730469,37.6816406 13.0175781,34.8984375 L11.2402344,34.8984375 C10.7324219,36.6171875 9.24804688,37.6132812 7.17773438,37.6132812 C4.39453125,37.6132812 2.62695312,35.40625 2.62695312,31.9492188 C2.62695312,28.5214844 4.4140625,26.2949219 7.16796875,26.2949219 C9.1796875,26.2949219 10.7910156,27.5058594 11.2402344,29.3515625 L13.0175781,29.3515625 C12.5683594,26.5390625 10.234375,24.6738281 7.16796875,24.6738281 C3.31054688,24.6738281 0.8203125,27.5253906 0.8203125,31.9492188 C0.8203125,36.4121094 3.28125,39.234375 7.16796875,39.234375 Z M19.1783026,30.1425781 C17.5865057,30.1425781 16.4732245,31.3632812 16.3658026,33.0527344 L21.8833807,33.0527344 C21.8443182,31.3535156 20.7798651,30.1425781 19.1783026,30.1425781 Z M21.8443182,36.0898438 L23.5142401,36.0898438 C23.2212714,37.8671875 21.5025214,39.1757812 19.2857245,39.1757812 C16.3755682,39.1757812 14.6079901,37.1542969 14.6079901,33.9609375 C14.6079901,30.8066406 16.4048651,28.6679688 19.2075995,28.6679688 C21.9517401,28.6679688 23.6411932,30.6601562 23.6411932,33.7363281 L23.6411932,34.3808594 L16.356037,34.3808594 L16.356037,34.4785156 C16.356037,36.421875 17.4986151,37.7011719 19.324787,37.7011719 C20.6138495,37.7011719 21.5611151,37.046875 21.8443182,36.0898438 Z M25.6319959,39 L27.3312146,39 L27.3312146,33.0234375 C27.3312146,31.3046875 28.3761365,30.171875 29.977699,30.171875 C31.540199,30.171875 32.3116834,31.0703125 32.3116834,32.7109375 L32.3116834,39 L34.0109021,39 L34.0109021,32.4082031 C34.0109021,30.1035156 32.7218396,28.6679688 30.4952771,28.6679688 C28.9230115,28.6679688 27.8390271,29.3710938 27.2726209,30.4648438 L27.2335584,30.4648438 L27.2335584,28.84375 L25.6319959,28.84375 L25.6319959,39 Z M36.9977985,26.3925781 L36.9977985,28.84375 L35.4841266,28.84375 L35.4841266,30.2402344 L36.9977985,30.2402344 L36.9977985,36.3632812 C36.9977985,38.3164062 37.7204547,39.078125 39.5856891,39.078125 C39.9860797,39.078125 40.4548297,39.0488281 40.6599078,39 L40.6599078,37.5742188 C40.5427203,37.59375 40.1520953,37.6230469 39.9567828,37.6230469 C39.0876422,37.6230469 38.6970172,37.203125 38.6970172,36.2753906 L38.6970172,30.2402344 L40.6696735,30.2402344 L40.6696735,28.84375 L38.6970172,28.84375 L38.6970172,26.3925781 L36.9977985,26.3925781 Z M42.7581323,39 L44.4573511,39 L44.4573511,32.671875 C44.4573511,31.2363281 45.3167261,30.2890625 46.6350855,30.2890625 C47.0452417,30.2890625 47.4065698,30.3378906 47.5432886,30.3867188 L47.5432886,28.7363281 C47.4065698,28.7167969 47.1526636,28.6679688 46.8596948,28.6679688 C45.6682886,28.6679688 44.7307886,29.3808594 44.3987573,30.5039062 L44.3596948,30.5039062 L44.3596948,28.84375 L42.7581323,28.84375 L42.7581323,39 Z M57.5419037,28.84375 L55.842685,28.84375 L55.842685,34.8105469 C55.842685,36.5390625 54.8465912,37.671875 53.1962006,37.671875 C51.623935,37.671875 50.8524506,36.7832031 50.8524506,35.1328125 L50.8524506,28.84375 L49.1532318,28.84375 L49.1532318,35.4355469 C49.1532318,37.7402344 50.45206,39.1757812 52.6688568,39.1757812 C54.2313568,39.1757812 55.2860443,38.5214844 55.8915131,37.3496094 L55.9305756,37.3496094 L55.9305756,39 L57.5419037,39 L57.5419037,28.84375 Z M60.0209876,39 L61.7202063,39 L61.7202063,32.6328125 C61.7202063,31.2265625 62.6967688,30.171875 64.0444251,30.171875 C65.3041907,30.171875 66.1245032,30.9726562 66.1245032,32.1933594 L66.1245032,39 L67.8237219,39 L67.8237219,32.5449219 C67.8237219,31.1679688 68.7709876,30.171875 70.1186438,30.171875 C71.4565344,30.171875 72.2280188,30.9921875 72.2280188,32.3789062 L72.2280188,39 L73.9272376,39 L73.9272376,31.9882812 C73.9272376,29.9765625 72.6284094,28.6679688 70.6166907,28.6679688 C69.1909094,28.6679688 67.9995032,29.390625 67.4330969,30.6015625 L67.3940344,30.6015625 C66.9545813,29.3710938 65.9291907,28.6679688 64.5424719,28.6679688 C63.1752844,28.6679688 62.1401282,29.390625 61.6616126,30.4648438 L61.6225501,30.4648438 L61.6225501,28.84375 L60.0209876,28.84375 L60.0209876,39 Z" id="Sprinter-towards-Alm"></path>
            </g>
            <rect id="Rectangle-14" fill="#339499" x="147" y="6" width="45" height="45" rx="10"></rect>
            <g id="exit" transform="translate(170.000000, 29.000000) rotate(270.000000) translate(-170.000000, -29.000000) translate(160.000000, 18.000000)" fill-rule="nonzero" fill="#FFFFFF">
                <path d="M12.4137931,14.3951613 C12.0327586,14.3951613 11.7241379,14.7022581 11.7241379,15.0806452 L11.7241379,19.1928629 C11.7241379,19.9486089 11.1051724,20.5638306 10.3448276,20.5638306 C10.342069,20.5638306 10.34,20.5645161 10.337931,20.5645161 L2.75862069,20.5645161 C1.99793103,20.5645161 1.37931034,19.9492944 1.37931034,19.1935484 L1.37931034,2.74193548 C1.37931034,1.98584677 1.99793103,1.37096774 2.75862069,1.37096774 L10.3448276,1.37096774 C11.1051724,1.37096774 11.7241379,1.98584677 11.7241379,2.74193548 L11.7241379,6.85483871 C11.7241379,7.23322581 12.0327586,7.54032258 12.4137931,7.54032258 C12.7944828,7.54032258 13.1034483,7.23322581 13.1034483,6.85483871 L13.1034483,2.74193548 C13.1034483,1.23010081 11.8655172,0 10.3448276,0 L2.75862069,0 C1.23724138,0 0,1.23010081 0,2.74193548 L0,19.1935484 C0,20.7053831 1.23724138,21.9354839 2.75862069,21.9354839 L10.3448276,21.9354839 C10.3493103,21.9354839 10.3534483,21.9341129 10.3582759,21.9341129 C11.8724138,21.9269153 13.1024138,20.7009274 13.1034483,19.1942339 L13.1034483,19.1935484 L13.1034483,15.0806452 C13.1034483,14.7022581 12.7944828,14.3951613 12.4137931,14.3951613 Z" id="Shape"></path>
                <path d="M19.8486207,10.5393145 C19.8162069,10.498871 19.7793103,10.4639113 19.7403448,10.4327218 C19.7403448,10.4327218 19.7410345,10.4327218 19.7413793,10.432379 L16.2931034,7.69044355 C15.9958621,7.45326613 15.562069,7.50193548 15.3234483,7.79737903 C15.0858621,8.09316532 15.1337931,8.52433468 15.4310345,8.76082661 L17.3444828,10.2822581 L6.55172414,10.2822581 C6.17068966,10.2822581 5.86206897,10.5893548 5.86206897,10.9677419 C5.86206897,11.346129 6.17068966,11.6532258 6.55172414,11.6532258 L17.3444828,11.6532258 L15.4310345,13.1743145 C15.1337931,13.4108065 15.0855172,13.8419758 15.3234483,14.1381048 C15.46,14.3070766 15.6603448,14.3951613 15.8624138,14.3951613 C16.0134483,14.3951613 16.1658621,14.3461492 16.2927586,14.2450403 L19.7410345,11.5031048 C20.0382759,11.2666129 20.0868966,10.8351008 19.8486207,10.5393145 Z" id="Shape"></path>
            </g>
        </g>
    </g>
</svg>