<?xml version="1.0" encoding="UTF-8"?>
<svg width="330px" height="265px" viewBox="0 0 330 265" version="1.1" xmlns="http://www.w3.org/2000/svg" xmlns:xlink="http://www.w3.org/1999/xlink">
    <!-- Generator: Sketch 43.2 (39069) - http://www.bohemiancoding.com/sketch -->
    <title>Send-Message-One</title>
    <desc>Created with Sketch.</desc>
    <defs>
        <rect id="path-1" x="5" y="32" width="320" height="222" rx="5"></rect>
        <filter x="-2.2%" y="-2.3%" width="104.4%" height="106.3%" filterUnits="objectBoundingBox" id="filter-2">
            <feOffset dx="0" dy="2" in="SourceAlpha" result="shadowOffsetOuter1"></feOffset>
            <feGaussianBlur stdDeviation="2" in="shadowOffsetOuter1" result="shadowBlurOuter1"></feGaussianBlur>
            <feColorMatrix values="0 0 0 0 0   0 0 0 0 0   0 0 0 0 0  0 0 0 0.5 0" type="matrix" in="shadowBlurOuter1"></feColorMatrix>
        </filter>
        <linearGradient x1="50%" y1="0%" x2="50%" y2="100%" id="linearGradient-3">
            <stop stop-color="#339499" stop-opacity="0" offset="0%"></stop>
            <stop stop-color="#339499" offset="100%"></stop>
        </linearGradient>
    </defs>
    <g id="Page-1" stroke="none" stroke-width="1" fill="none" fill-rule="evenodd">
        <g id="Send-Message-One">
            <g id="Rectangle-12">
                <use fill="black" fill-opacity="1" filter="url(#filter-2)" xlink:href="#path-1"></use>
                <use fill="#FEFEFE" fill-rule="evenodd" xlink:href="#path-1"></use>
            </g>
            <path d="M20,131 L325,131" id="Separator-Copy-2" stroke="#C8C7CC" stroke-width="0.5" stroke-linecap="square"></path>
            <path d="M63.4472656,91 L65.0292969,91 L65.0292969,78.3173828 L63.4560547,78.3173828 L60.0810547,80.7431641 L60.0810547,82.4130859 L63.3066406,80.0751953 L63.4472656,80.0751953 L63.4472656,91 Z M74.4655859,91 L74.4655859,88.3720703 L68.286875,88.3720703 L68.286875,86.9306641 C69.4206641,84.9179688 71.4333594,81.7363281 73.7185156,78.3173828 L76.0124609,78.3173828 L76.0124609,86.9570312 L77.8142188,86.9570312 L77.8142188,88.3720703 L76.0124609,88.3720703 L76.0124609,91 L74.4655859,91 Z M69.9040625,86.8603516 L69.9040625,86.9658203 L74.474375,86.9658203 L74.474375,79.7851562 L74.3689063,79.7851562 C73.068125,81.6748047 71.4157813,84.2939453 69.9040625,86.8603516 Z M81.3794141,89.5498047 C82.0122266,89.5498047 82.5219922,89.03125 82.5219922,88.4072266 C82.5219922,87.7744141 82.0122266,87.2646484 81.3794141,87.2646484 C80.7553906,87.2646484 80.236836,87.7744141 80.236836,88.4072266 C80.236836,89.03125 80.7553906,89.5498047 81.3794141,89.5498047 Z M81.3794141,82.7910156 C82.0122266,82.7910156 82.5219922,82.2724609 82.5219922,81.6484375 C82.5219922,81.015625 82.0122266,80.5058594 81.3794141,80.5058594 C80.7553906,80.5058594 80.236836,81.015625 80.236836,81.6484375 C80.236836,82.2724609 80.7553906,82.7910156 81.3794141,82.7910156 Z M87.836211,85.1552734 L89.4446094,85.1552734 C91.2463672,85.1552734 92.3625782,86.0693359 92.3625782,87.5371094 C92.3625782,88.9257812 91.1760547,89.9189453 89.5061328,89.9189453 C87.8713672,89.9189453 86.7287891,89.0488281 86.5881641,87.6953125 L85.0588672,87.6953125 C85.173125,89.8662109 86.9485157,91.2988281 89.523711,91.2988281 C92.0285938,91.2988281 93.9885547,89.6728516 93.9885547,87.5810547 C93.9885547,85.8496094 92.9426563,84.6542969 91.22,84.4345703 L91.22,84.2939453 C92.6086719,83.9599609 93.4436328,82.8525391 93.4436328,81.3408203 C93.4436328,79.4951172 91.6770313,78.0185547 89.4621875,78.0185547 C87.0451953,78.0185547 85.4719532,79.3720703 85.31375,81.5693359 L86.851836,81.5693359 C86.9836719,80.2070312 87.9416797,79.3984375 89.4006641,79.3984375 C90.8596485,79.3984375 91.8352344,80.2597656 91.8352344,81.5517578 C91.8352344,82.8701172 90.8157032,83.8017578 89.3742969,83.8017578 L87.836211,83.8017578 L87.836211,85.1552734 Z M100.577188,91.2988281 C103.205117,91.2988281 105.006875,89.5410156 105.006875,86.9658203 C105.006875,84.4697266 103.319375,82.7207031 100.911172,82.7207031 C99.7422266,82.7207031 98.8457422,83.0810547 98.2305079,83.8017578 L98.0898829,83.8017578 L98.4502344,79.7324219 L104.286172,79.7324219 L104.286172,78.3173828 L97.2109766,78.3173828 L96.5166407,85.5068359 L98.0019922,85.5068359 C98.5205469,84.6015625 99.4697657,84.0830078 100.621133,84.0830078 C102.282266,84.0830078 103.424844,85.2695312 103.424844,87.0097656 C103.424844,88.75 102.291055,89.9101562 100.594766,89.9101562 C99.100625,89.9101562 98.0107813,88.9960938 97.8701563,87.625 L96.3144922,87.625 C96.4551172,89.8134766 98.1777735,91.2988281 100.577188,91.2988281 Z M118.052305,86.6142578 L118.052305,85.1816406 L112.28668,85.1816406 L112.28668,86.6142578 L118.052305,86.6142578 Z M134.086016,91 L132.811602,87.3701172 L127.76668,87.3701172 L126.492266,91 L124.831133,91 L129.506914,78.3173828 L131.071367,78.3173828 L135.747149,91 L134.086016,91 Z M130.218828,80.3652344 L128.2325,86.0253906 L132.345781,86.0253906 L130.359453,80.3652344 L130.218828,80.3652344 Z M137.730313,91 L139.242031,91 L139.242031,77.7636719 L137.730313,77.7636719 L137.730313,91 Z M142.042578,91 L143.554297,91 L143.554297,85.1289062 C143.554297,83.7929688 144.512305,82.7207031 145.751563,82.7207031 C146.946875,82.7207031 147.729102,83.4414062 147.729102,84.5664062 L147.729102,91 L149.24082,91 L149.24082,84.9091797 C149.24082,83.7050781 150.119727,82.7207031 151.438086,82.7207031 C152.774024,82.7207031 153.433203,83.40625 153.433203,84.8037109 L153.433203,91 L154.944922,91 L154.944922,84.4521484 C154.944922,82.4658203 153.863867,81.3583984 151.930274,81.3583984 C150.620703,81.3583984 149.539649,82.0175781 149.029883,83.0195312 L148.889258,83.0195312 C148.449805,82.0351562 147.55332,81.3583984 146.270117,81.3583984 C145.004492,81.3583984 144.055274,81.9648438 143.624609,83.0195312 L143.483984,83.0195312 L143.483984,81.5253906 L142.042578,81.5253906 L142.042578,91 Z M161.348984,82.6943359 C159.837266,82.6943359 158.782578,83.8017578 158.66832,85.4804688 L163.889024,85.4804688 C163.853867,83.8017578 162.851914,82.6943359 161.348984,82.6943359 Z M163.845078,88.5478516 L165.356797,88.5478516 C164.899766,90.1738281 163.440781,91.1669922 161.366563,91.1669922 C158.738633,91.1669922 157.095078,89.2685547 157.095078,86.2714844 C157.095078,83.2919922 158.765,81.3583984 161.366563,81.3583984 C163.92418,81.3583984 165.479844,83.1777344 165.479844,86.1220703 L165.479844,86.7021484 L158.66832,86.7021484 L158.66832,86.7724609 C158.747422,88.6445312 159.79332,89.8310547 161.401719,89.8310547 C162.623399,89.8310547 163.44957,89.3828125 163.845078,88.5478516 Z M167.717891,91 L169.229609,91 L169.229609,85.1289062 C169.229609,83.7929688 170.275508,82.8261719 171.716914,82.8261719 C172.015742,82.8261719 172.560664,82.8789062 172.683711,82.9140625 L172.683711,81.4023438 C172.490352,81.3759766 172.173945,81.3583984 171.927852,81.3583984 C170.671016,81.3583984 169.581172,82.0087891 169.299922,82.9316406 L169.159297,82.9316406 L169.159297,81.5253906 L167.717891,81.5253906 L167.717891,91 Z M177.953984,82.6943359 C176.442266,82.6943359 175.387578,83.8017578 175.27332,85.4804688 L180.494024,85.4804688 C180.458867,83.8017578 179.456914,82.6943359 177.953984,82.6943359 Z M180.450078,88.5478516 L181.961797,88.5478516 C181.504766,90.1738281 180.045781,91.1669922 177.971563,91.1669922 C175.343633,91.1669922 173.700078,89.2685547 173.700078,86.2714844 C173.700078,83.2919922 175.37,81.3583984 177.971563,81.3583984 C180.52918,81.3583984 182.084844,83.1777344 182.084844,86.1220703 L182.084844,86.7021484 L175.27332,86.7021484 L175.27332,86.7724609 C175.352422,88.6445312 176.39832,89.8310547 178.006719,89.8310547 C179.228399,89.8310547 180.05457,89.3828125 180.450078,88.5478516 Z M189.461328,78.3173828 L194.251367,78.3173828 C196.650781,78.3173828 198.311914,80.0048828 198.311914,82.421875 C198.311914,84.7949219 196.615625,86.4736328 194.233789,86.4736328 L191.04336,86.4736328 L191.04336,91 L189.461328,91 L189.461328,78.3173828 Z M191.04336,79.7236328 L191.04336,85.0673828 L193.838281,85.0673828 C195.640039,85.0673828 196.685938,84.1005859 196.685938,82.421875 C196.685938,80.6816406 195.675195,79.7236328 193.838281,79.7236328 L191.04336,79.7236328 Z M204.197422,91.1669922 C201.49918,91.1669922 199.829258,89.3037109 199.829258,86.2626953 C199.829258,83.2128906 201.49918,81.3583984 204.197422,81.3583984 C206.895664,81.3583984 208.565586,83.2128906 208.565586,86.2626953 C208.565586,89.3037109 206.895664,91.1669922 204.197422,91.1669922 Z M204.197422,89.8046875 C205.990391,89.8046875 207.001133,88.5039062 207.001133,86.2626953 C207.001133,84.0126953 205.990391,82.7207031 204.197422,82.7207031 C202.404453,82.7207031 201.393711,84.0126953 201.393711,86.2626953 C201.393711,88.5039062 202.404453,89.8046875 204.197422,89.8046875 Z M214.697188,91.1669922 C211.998945,91.1669922 210.329024,89.3037109 210.329024,86.2626953 C210.329024,83.2128906 211.998945,81.3583984 214.697188,81.3583984 C217.39543,81.3583984 219.065352,83.2128906 219.065352,86.2626953 C219.065352,89.3037109 217.39543,91.1669922 214.697188,91.1669922 Z M214.697188,89.8046875 C216.490156,89.8046875 217.500899,88.5039062 217.500899,86.2626953 C217.500899,84.0126953 216.490156,82.7207031 214.697188,82.7207031 C212.904219,82.7207031 211.893477,84.0126953 211.893477,86.2626953 C211.893477,88.5039062 212.904219,89.8046875 214.697188,89.8046875 Z M221.303399,91 L222.815117,91 L222.815117,85.1289062 C222.815117,83.7929688 223.861016,82.8261719 225.302422,82.8261719 C225.60125,82.8261719 226.146172,82.8789062 226.269219,82.9140625 L226.269219,81.4023438 C226.07586,81.3759766 225.759453,81.3583984 225.51336,81.3583984 C224.256524,81.3583984 223.16668,82.0087891 222.88543,82.9316406 L222.744805,82.9316406 L222.744805,81.5253906 L221.303399,81.5253906 L221.303399,91 Z M229.184024,79.0732422 L229.184024,81.5253906 L227.654727,81.5253906 L227.654727,82.7910156 L229.184024,82.7910156 L229.184024,88.5390625 C229.184024,90.3496094 229.96625,91.0703125 231.917422,91.0703125 C232.21625,91.0703125 232.506289,91.0351562 232.805117,90.9824219 L232.805117,89.7080078 C232.523867,89.734375 232.374453,89.7431641 232.101992,89.7431641 C231.117617,89.7431641 230.695742,89.2685547 230.695742,88.1523438 L230.695742,82.7910156 L232.805117,82.7910156 L232.805117,81.5253906 L230.695742,81.5253906 L230.695742,79.0732422 L229.184024,79.0732422 Z" id="Event-Name-Copy" fill="#000000"></path>
            <path d="M66.6699219,69 L65.6787109,66.1767578 L61.7548828,66.1767578 L60.7636719,69 L59.4716797,69 L63.1083984,59.1357422 L64.3251953,59.1357422 L67.9619141,69 L66.6699219,69 Z M63.6621094,60.7285156 L62.1171875,65.1308594 L65.3164062,65.1308594 L63.7714844,60.7285156 L63.6621094,60.7285156 Z M69.4117849,69 L70.5875661,69 L70.5875661,64.4335938 C70.5875661,63.3945312 71.4010427,62.6425781 72.5221364,62.6425781 C72.7545583,62.6425781 73.1783864,62.6835938 73.2740895,62.7109375 L73.2740895,61.5351562 C73.1236989,61.5146484 72.8776052,61.5009766 72.6861989,61.5009766 C71.7086599,61.5009766 70.8610036,62.0068359 70.6422536,62.7246094 L70.5328786,62.7246094 L70.5328786,61.6308594 L69.4117849,61.6308594 L69.4117849,69 Z M74.7513041,69 L75.9270853,69 L75.9270853,64.4335938 C75.9270853,63.3945312 76.7405619,62.6425781 77.8616557,62.6425781 C78.0940775,62.6425781 78.5179057,62.6835938 78.6136088,62.7109375 L78.6136088,61.5351562 C78.4632182,61.5146484 78.2171244,61.5009766 78.0257182,61.5009766 C77.0481791,61.5009766 76.2005228,62.0068359 75.9817728,62.7246094 L75.8723978,62.7246094 L75.8723978,61.6308594 L74.7513041,61.6308594 L74.7513041,69 Z M79.9814483,69 L81.1572296,69 L81.1572296,61.6308594 L79.9814483,61.6308594 L79.9814483,69 Z M80.5693389,60.1337891 C81.0205108,60.1337891 81.3896514,59.7646484 81.3896514,59.3134766 C81.3896514,58.8623047 81.0205108,58.4931641 80.5693389,58.4931641 C80.1181671,58.4931641 79.7490264,58.8623047 79.7490264,59.3134766 C79.7490264,59.7646484 80.1181671,60.1337891 80.5693389,60.1337891 Z M89.2858113,61.6308594 L88.0279988,61.6308594 L86.0113972,67.7011719 L85.9020222,67.7011719 L83.8854207,61.6308594 L82.6276082,61.6308594 L85.3551472,69 L86.5582722,69 L89.2858113,61.6308594 Z M92.7249399,68.0976562 C93.9349009,68.0976562 94.8304087,67.3046875 94.8304087,66.2519531 L94.8304087,65.5751953 L92.8479868,65.7050781 C91.726893,65.7802734 91.2347055,66.1699219 91.2347055,66.9082031 C91.2347055,67.6601562 91.8704477,68.0976562 92.7249399,68.0976562 Z M92.5061899,69.1298828 C91.077479,69.1298828 90.0179087,68.2822266 90.0179087,66.9355469 C90.0179087,65.6162109 90.9886118,64.8574219 92.7044321,64.7548828 L94.8304087,64.625 L94.8304087,63.9550781 C94.8304087,63.0458984 94.2630259,62.546875 93.1624399,62.546875 C92.280604,62.546875 91.6653696,62.8818359 91.5013071,63.4628906 L90.311854,63.4628906 C90.4690805,62.2802734 91.6311899,61.5009766 93.2034555,61.5009766 C95.0013071,61.5009766 96.0061899,62.4238281 96.0061899,63.9550781 L96.0061899,69 L94.8850962,69 L94.8850962,67.9130859 L94.7757212,67.9130859 C94.2972055,68.6992188 93.4905649,69.1298828 92.5061899,69.1298828 Z M98.1191466,69 L99.2949279,69 L99.2949279,58.7050781 L98.1191466,58.7050781 L98.1191466,69 Z M105.763029,59.7236328 L105.763029,61.6308594 L104.573576,61.6308594 L104.573576,62.6152344 L105.763029,62.6152344 L105.763029,67.0859375 C105.763029,68.4941406 106.371427,69.0546875 107.889005,69.0546875 C108.121427,69.0546875 108.347013,69.0273438 108.579435,68.9863281 L108.579435,67.9951172 C108.360685,68.015625 108.244474,68.0224609 108.03256,68.0224609 C107.266935,68.0224609 106.93881,67.6533203 106.93881,66.7851562 L106.93881,62.6152344 L108.579435,62.6152344 L108.579435,61.6308594 L106.93881,61.6308594 L106.93881,59.7236328 L105.763029,59.7236328 Z M110.254892,69 L111.430673,69 L111.430673,61.6308594 L110.254892,61.6308594 L110.254892,69 Z M110.842782,60.1337891 C111.293954,60.1337891 111.663095,59.7646484 111.663095,59.3134766 C111.663095,58.8623047 111.293954,58.4931641 110.842782,58.4931641 C110.391611,58.4931641 110.02247,58.8623047 110.02247,59.3134766 C110.02247,59.7646484 110.391611,60.1337891 110.842782,60.1337891 Z M113.54363,69 L114.719411,69 L114.719411,64.4335938 C114.719411,63.3945312 115.464528,62.5605469 116.428395,62.5605469 C117.358083,62.5605469 117.966481,63.1210938 117.966481,63.9960938 L117.966481,69 L119.142263,69 L119.142263,64.2626953 C119.142263,63.3261719 119.825856,62.5605469 120.851247,62.5605469 C121.89031,62.5605469 122.403005,63.09375 122.403005,64.1806641 L122.403005,69 L123.578786,69 L123.578786,63.9072266 C123.578786,62.3623047 122.737966,61.5009766 121.23406,61.5009766 C120.215505,61.5009766 119.374685,62.0136719 118.9782,62.7929688 L118.868825,62.7929688 C118.527028,62.0273438 117.829763,61.5009766 116.831716,61.5009766 C115.847341,61.5009766 115.10906,61.9726562 114.774099,62.7929688 L114.664724,62.7929688 L114.664724,61.6308594 L113.54363,61.6308594 L113.54363,69 Z M128.535493,62.5400391 C127.359712,62.5400391 126.539399,63.4013672 126.450532,64.7070312 L130.511079,64.7070312 C130.483735,63.4013672 129.704438,62.5400391 128.535493,62.5400391 Z M130.476899,67.0927734 L131.65268,67.0927734 C131.297212,68.3574219 130.162446,69.1298828 128.549165,69.1298828 C126.505219,69.1298828 125.226899,67.6533203 125.226899,65.3222656 C125.226899,63.0048828 126.525727,61.5009766 128.549165,61.5009766 C130.538422,61.5009766 131.748383,62.9160156 131.748383,65.2060547 L131.748383,65.6572266 L126.450532,65.6572266 L126.450532,65.7119141 C126.512055,67.1679688 127.325532,68.0908203 128.576508,68.0908203 C129.526704,68.0908203 130.169282,67.7421875 130.476899,67.0927734 Z M134.435559,69.0683594 C134.927746,69.0683594 135.324231,68.6650391 135.324231,68.1796875 C135.324231,67.6875 134.927746,67.2910156 134.435559,67.2910156 C133.950207,67.2910156 133.546887,67.6875 133.546887,68.1796875 C133.546887,68.6650391 133.950207,69.0683594 134.435559,69.0683594 Z M134.435559,63.8115234 C134.927746,63.8115234 135.324231,63.4082031 135.324231,62.9228516 C135.324231,62.4306641 134.927746,62.0341797 134.435559,62.0341797 C133.950207,62.0341797 133.546887,62.4306641 133.546887,62.9228516 C133.546887,63.4082031 133.950207,63.8115234 134.435559,63.8115234 Z" id="Time-Copy" fill="#000000"></path>
            <rect id="Calendar-Color" fill="url(#linearGradient-3)" x="38" y="36" width="6" height="68" rx="3"></rect>
            <circle id="Oval-Copy" fill="#339499" cx="41" cy="116" r="6"></circle>
            <rect id="Rectangle-14" fill="#339499" x="147" y="6" width="45" height="45" rx="10"></rect>
            <g id="exit" transform="translate(170.000000, 29.000000) rotate(270.000000) translate(-170.000000, -29.000000) translate(160.000000, 18.000000)" fill-rule="nonzero" fill="#FFFFFF">
                <path d="M12.4137931,14.3951613 C12.0327586,14.3951613 11.7241379,14.7022581 11.7241379,15.0806452 L11.7241379,19.1928629 C11.7241379,19.9486089 11.1051724,20.5638306 10.3448276,20.5638306 C10.342069,20.5638306 10.34,20.5645161 10.337931,20.5645161 L2.75862069,20.5645161 C1.99793103,20.5645161 1.37931034,19.9492944 1.37931034,19.1935484 L1.37931034,2.74193548 C1.37931034,1.98584677 1.99793103,1.37096774 2.75862069,1.37096774 L10.3448276,1.37096774 C11.1051724,1.37096774 11.7241379,1.98584677 11.7241379,2.74193548 L11.7241379,6.85483871 C11.7241379,7.23322581 12.0327586,7.54032258 12.4137931,7.54032258 C12.7944828,7.54032258 13.1034483,7.23322581 13.1034483,6.85483871 L13.1034483,2.74193548 C13.1034483,1.23010081 11.8655172,0 10.3448276,0 L2.75862069,0 C1.23724138,0 0,1.23010081 0,2.74193548 L0,19.1935484 C0,20.7053831 1.23724138,21.9354839 2.75862069,21.9354839 L10.3448276,21.9354839 C10.3493103,21.9354839 10.3534483,21.9341129 10.3582759,21.9341129 C11.8724138,21.9269153 13.1024138,20.7009274 13.1034483,19.1942339 L13.1034483,19.1935484 L13.1034483,15.0806452 C13.1034483,14.7022581 12.7944828,14.3951613 12.4137931,14.3951613 Z" id="Shape"></path>
                <path d="M19.8486207,10.5393145 C19.8162069,10.498871 19.7793103,10.4639113 19.7403448,10.4327218 C19.7403448,10.4327218 19.7410345,10.4327218 19.7413793,10.432379 L16.2931034,7.69044355 C15.9958621,7.45326613 15.562069,7.50193548 15.3234483,7.79737903 C15.0858621,8.09316532 15.1337931,8.52433468 15.4310345,8.76082661 L17.3444828,10.2822581 L6.55172414,10.2822581 C6.17068966,10.2822581 5.86206897,10.5893548 5.86206897,10.9677419 C5.86206897,11.346129 6.17068966,11.6532258 6.55172414,11.6532258 L17.3444828,11.6532258 L15.4310345,13.1743145 C15.1337931,13.4108065 15.0855172,13.8419758 15.3234483,14.1381048 C15.46,14.3070766 15.6603448,14.3951613 15.8624138,14.3951613 C16.0134483,14.3951613 16.1658621,14.3461492 16.2927586,14.2450403 L19.7410345,11.5031048 C20.0382759,11.2666129 20.0868966,10.8351008 19.8486207,10.5393145 Z" id="Shape"></path>
            </g>
            <g id="accuracy-check" transform="translate(59.000000, 98.000000)">
                <g id="destination-card-copy-2" fill="#CCCC66">
                    <path d="M1.64782719,1.43315814 C2.42003524,0.641646757 3.93384591,0 5.0525011,0 L22.9935324,0 C24.1016739,0 25,0.898230174 25,1.99907745 L25,19.8740294 C25,20.9780894 24.3599884,22.4908803 23.5602638,23.2628174 L23.2002838,23.6102894 C22.4051394,24.3778054 20.8669397,25 19.752372,25 L2.00817553,25 C0.89909081,25 0,24.1015762 0,23.0004915 L0,5.12168552 C0,4.01738748 0.63114012,2.47525995 1.39820635,1.68901891 L1.64782719,1.43315814 Z" id="Rectangle"></path>
                </g>
                <g id="checkmark-copy" transform="translate(5.000000, 8.000000)" fill-rule="nonzero" fill="#FFFFFF">
                    <path d="M5.33394608,9.98709524 L5.33247549,9.98709524 C5.1727451,9.98709524 5.01936275,9.924 4.90651961,9.81435714 L0.175171569,5.185 C-0.0597794118,4.95533333 -0.0578186275,4.5847381 0.177622549,4.35745238 C0.415514706,4.1282619 0.795539216,4.13064286 1.0295098,4.35983333 L5.33490196,8.57307143 L13.9711029,0.184047619 C14.2070343,-0.0446666667 14.5880392,-0.0446666667 14.8229902,0.184047619 C15.0584314,0.412285714 15.0584314,0.782880952 14.8229902,1.01159524 L5.75987745,9.81580952 C5.64703431,9.92540476 5.49367647,9.98709524 5.33394608,9.98709524 Z" id="Shape"></path>
                </g>
            </g>
            <path d="M94.765625,112.046875 L98.1640625,112.046875 L98.1640625,110.890625 L94.765625,110.890625 L94.765625,107.492188 L93.609375,107.492188 L93.609375,110.890625 L90.2109375,110.890625 L90.2109375,112.046875 L93.609375,112.046875 L93.609375,115.445312 L94.765625,115.445312 L94.765625,112.046875 Z M103.208125,116 L104.614375,116 L104.614375,104.726562 L103.215938,104.726562 L100.215938,106.882812 L100.215938,108.367188 L103.083125,106.289062 L103.208125,106.289062 L103.208125,116 Z M111.642813,116.265625 C109.10375,116.265625 107.642813,114.109375 107.642813,110.359375 C107.642813,106.640625 109.119375,104.460938 111.642813,104.460938 C114.150625,104.460938 115.627188,106.648438 115.627188,110.382812 C115.627188,114.125 114.174063,116.265625 111.642813,116.265625 Z M111.642813,115.039062 C113.306875,115.039062 114.213125,113.382812 114.213125,110.359375 C114.213125,107.367188 113.29125,105.695312 111.642813,105.695312 C109.994375,105.695312 109.056875,107.382812 109.056875,110.359375 C109.056875,113.375 109.97875,115.039062 111.642813,115.039062 Z M122.215313,116 L123.559063,116 L123.559063,110.78125 C123.559063,109.59375 124.410625,108.640625 125.512188,108.640625 C126.574688,108.640625 127.27,109.28125 127.27,110.28125 L127.27,116 L128.61375,116 L128.61375,110.585938 C128.61375,109.515625 129.395,108.640625 130.566875,108.640625 C131.754375,108.640625 132.340313,109.25 132.340313,110.492188 L132.340313,116 L133.684063,116 L133.684063,110.179688 C133.684063,108.414062 132.723125,107.429688 131.004375,107.429688 C129.840313,107.429688 128.879375,108.015625 128.42625,108.90625 L128.30125,108.90625 C127.910625,108.03125 127.11375,107.429688 125.973125,107.429688 C124.848125,107.429688 124.004375,107.96875 123.621563,108.90625 L123.496563,108.90625 L123.496563,107.578125 L122.215313,107.578125 L122.215313,116 Z M136.048438,116 L137.392188,116 L137.392188,107.578125 L136.048438,107.578125 L136.048438,116 Z M136.720313,105.867188 C137.235938,105.867188 137.657813,105.445312 137.657813,104.929688 C137.657813,104.414062 137.235938,103.992188 136.720313,103.992188 C136.204688,103.992188 135.782813,104.414062 135.782813,104.929688 C135.782813,105.445312 136.204688,105.867188 136.720313,105.867188 Z M139.834688,116 L141.178438,116 L141.178438,111.015625 C141.178438,109.539062 142.045625,108.640625 143.389375,108.640625 C144.733125,108.640625 145.37375,109.359375 145.37375,110.875 L145.37375,116 L146.7175,116 L146.7175,110.546875 C146.7175,108.546875 145.662813,107.429688 143.772188,107.429688 C142.483125,107.429688 141.662813,107.976562 141.240938,108.90625 L141.115938,108.90625 L141.115938,107.578125 L139.834688,107.578125 L139.834688,116 Z M155.863125,107.578125 L154.519375,107.578125 L154.519375,112.5625 C154.519375,114.039062 153.706875,114.921875 152.2225,114.921875 C150.87875,114.921875 150.31625,114.21875 150.31625,112.703125 L150.31625,107.578125 L148.9725,107.578125 L148.9725,113.03125 C148.9725,115.023438 149.956875,116.148438 151.8475,116.148438 C153.136563,116.148438 154.035,115.617188 154.456875,114.679688 L154.581875,114.679688 L154.581875,116 L155.863125,116 L155.863125,107.578125 Z M158.836875,105.398438 L158.836875,107.578125 L157.4775,107.578125 L157.4775,108.703125 L158.836875,108.703125 L158.836875,113.8125 C158.836875,115.421875 159.532188,116.0625 161.266563,116.0625 C161.532188,116.0625 161.79,116.03125 162.055625,115.984375 L162.055625,114.851562 C161.805625,114.875 161.672813,114.882812 161.430625,114.882812 C160.555625,114.882812 160.180625,114.460938 160.180625,113.46875 L160.180625,108.703125 L162.055625,108.703125 L162.055625,107.578125 L160.180625,107.578125 L160.180625,105.398438 L158.836875,105.398438 Z M167.209063,108.617188 C165.865313,108.617188 164.927813,109.601562 164.82625,111.09375 L169.466875,111.09375 C169.435625,109.601562 168.545,108.617188 167.209063,108.617188 Z M169.427813,113.820312 L170.771563,113.820312 C170.365313,115.265625 169.068438,116.148438 167.224688,116.148438 C164.88875,116.148438 163.427813,114.460938 163.427813,111.796875 C163.427813,109.148438 164.912188,107.429688 167.224688,107.429688 C169.498125,107.429688 170.880938,109.046875 170.880938,111.664062 L170.880938,112.179688 L164.82625,112.179688 L164.82625,112.242188 C164.896563,113.90625 165.82625,114.960938 167.255938,114.960938 C168.341875,114.960938 169.07625,114.5625 169.427813,113.820312 Z M172.675,109.882812 C172.675,111.101562 173.39375,111.78125 174.971875,112.164062 L176.417188,112.515625 C177.315625,112.734375 177.753125,113.125 177.753125,113.703125 C177.753125,114.476562 176.940625,115.015625 175.807813,115.015625 C174.729688,115.015625 174.057813,114.5625 173.83125,113.851562 L172.448438,113.851562 C172.596875,115.25 173.885938,116.148438 175.760938,116.148438 C177.675,116.148438 179.135938,115.109375 179.135938,113.601562 C179.135938,112.390625 178.370313,111.703125 176.784375,111.320312 L175.4875,111.007812 C174.495313,110.765625 174.026563,110.40625 174.026563,109.828125 C174.026563,109.078125 174.807813,108.570312 175.807813,108.570312 C176.823438,108.570312 177.479688,109.015625 177.659375,109.6875 L178.9875,109.6875 C178.807813,108.304688 177.58125,107.429688 175.815625,107.429688 C174.026563,107.429688 172.675,108.484375 172.675,109.882812 Z" id="+10-minutes" fill="#CCCC66"></path>
            <path d="M37,174.996164 C37,172.236859 39.2346808,170 41.9987793,170 L325,170 L325,233 L41.9987793,233 C39.2380297,233 37,230.757797 37,228.003836 L37,174.996164 Z" id="Rectangle-17" fill="#F1F1F1"></path>
            <path d="M41.8369141,158 L40.6943359,158 L40.6943359,154.058105 L37.4443359,148.840332 L38.7456055,148.840332 L41.2148438,152.90918 L41.3164062,152.90918 L43.7856445,148.840332 L45.0869141,148.840332 L41.8369141,154.058105 L41.8369141,158 Z M48.1949805,158.120605 C46.24625,158.120605 45.0401953,156.774902 45.0401953,154.578613 C45.0401953,152.375977 46.24625,151.036621 48.1949805,151.036621 C50.1437109,151.036621 51.3497656,152.375977 51.3497656,154.578613 C51.3497656,156.774902 50.1437109,158.120605 48.1949805,158.120605 Z M48.1949805,157.136719 C49.4899023,157.136719 50.2198828,156.197266 50.2198828,154.578613 C50.2198828,152.953613 49.4899023,152.020508 48.1949805,152.020508 C46.9000586,152.020508 46.1700781,152.953613 46.1700781,154.578613 C46.1700781,156.197266 46.9000586,157.136719 48.1949805,157.136719 Z M58.5012891,151.157227 L57.4094922,151.157227 L57.4094922,155.207031 C57.4094922,156.406738 56.7493359,157.124023 55.5432813,157.124023 C54.4514844,157.124023 53.9944531,156.552734 53.9944531,155.321289 L53.9944531,151.157227 L52.9026563,151.157227 L52.9026563,155.587891 C52.9026563,157.206543 53.7024609,158.120605 55.2385938,158.120605 C56.285957,158.120605 57.0159375,157.688965 57.3587109,156.927246 L57.4602734,156.927246 L57.4602734,158 L58.5012891,158 L58.5012891,151.157227 Z M64.031875,158 L65.1236719,158 L65.1236719,153.759766 C65.1236719,152.794922 65.8155664,152.020508 66.710586,152.020508 C67.5738672,152.020508 68.1388086,152.541016 68.1388086,153.353516 L68.1388086,158 L69.2306055,158 L69.2306055,153.601074 C69.2306055,152.731445 69.8653711,152.020508 70.8175195,152.020508 C71.7823633,152.020508 72.2584375,152.515625 72.2584375,153.524902 L72.2584375,158 L73.3502344,158 L73.3502344,153.270996 C73.3502344,151.836426 72.5694727,151.036621 71.1729883,151.036621 C70.2271875,151.036621 69.4464258,151.512695 69.0782617,152.236328 L68.9766992,152.236328 C68.6593164,151.525391 68.0118555,151.036621 67.0850977,151.036621 C66.1710352,151.036621 65.4854883,151.474609 65.1744531,152.236328 L65.0728906,152.236328 L65.0728906,151.157227 L64.031875,151.157227 L64.031875,158 Z M77.3533203,157.162109 C78.4768555,157.162109 79.3083985,156.425781 79.3083985,155.448242 L79.3083985,154.819824 L77.4675781,154.94043 C76.4265625,155.010254 75.9695313,155.37207 75.9695313,156.057617 C75.9695313,156.755859 76.5598633,157.162109 77.3533203,157.162109 Z M77.1501953,158.120605 C75.8235352,158.120605 74.8396485,157.333496 74.8396485,156.083008 C74.8396485,154.85791 75.7410156,154.15332 77.3342774,154.058105 L79.3083985,153.9375 L79.3083985,153.31543 C79.3083985,152.471191 78.781543,152.007812 77.7595703,152.007812 C76.9407227,152.007812 76.3694336,152.318848 76.2170899,152.858398 L75.1125977,152.858398 C75.2585938,151.760254 76.3376953,151.036621 77.7976563,151.036621 C79.4670899,151.036621 80.4001953,151.893555 80.4001953,153.31543 L80.4001953,158 L79.3591797,158 L79.3591797,156.990723 L79.2576172,156.990723 C78.8132813,157.720703 78.0642578,158.120605 77.1501953,158.120605 Z M82.6513281,160.475586 C83.8637305,160.475586 84.4096289,160.005859 84.9936133,158.418945 L87.6659766,151.157227 L86.5043555,151.157227 L84.6317969,156.787598 L84.5302344,156.787598 L82.6513281,151.157227 L81.4706641,151.157227 L84.0033789,158.006348 L83.8764258,158.412598 C83.5907813,159.237793 83.2480078,159.536133 82.6195899,159.536133 C82.4672461,159.536133 82.2958594,159.529785 82.1625586,159.504395 L82.1625586,160.4375 C82.3149024,160.462891 82.5053321,160.475586 82.6513281,160.475586 Z M96.0022266,158.120605 C95.0500782,158.120605 94.2375782,157.669922 93.8059375,156.908203 L93.704375,156.908203 L93.704375,158 L92.6633594,158 L92.6633594,148.44043 L93.7551563,148.44043 L93.7551563,152.236328 L93.8567188,152.236328 C94.2312305,151.5 95.0627735,151.036621 96.0022266,151.036621 C97.7414844,151.036621 98.8713672,152.426758 98.8713672,154.578613 C98.8713672,156.717773 97.7351367,158.120605 96.0022266,158.120605 Z M95.7483203,152.020508 C94.5041797,152.020508 93.7297657,152.998047 93.7297657,154.578613 C93.7297657,156.15918 94.5041797,157.136719 95.7483203,157.136719 C96.9988086,157.136719 97.7414844,156.178223 97.7414844,154.578613 C97.7414844,152.979004 96.9988086,152.020508 95.7483203,152.020508 Z M103.217227,152.001465 C102.12543,152.001465 101.363711,152.80127 101.281191,154.013672 L105.051699,154.013672 C105.026309,152.80127 104.302676,152.001465 103.217227,152.001465 Z M105.019961,156.229004 L106.111758,156.229004 C105.78168,157.40332 104.727969,158.120605 103.229922,158.120605 C101.331973,158.120605 100.144961,156.749512 100.144961,154.584961 C100.144961,152.433105 101.351016,151.036621 103.229922,151.036621 C105.07709,151.036621 106.200625,152.350586 106.200625,154.477051 L106.200625,154.895996 L101.281191,154.895996 L101.281191,154.946777 C101.33832,156.298828 102.093691,157.155762 103.255313,157.155762 C104.137637,157.155762 104.734316,156.832031 105.019961,156.229004 Z M111.451914,158 L112.543711,158 L112.543711,148.44043 L111.451914,148.44043 L111.451914,158 Z M116.67375,157.162109 C117.797285,157.162109 118.628828,156.425781 118.628828,155.448242 L118.628828,154.819824 L116.788008,154.94043 C115.746992,155.010254 115.289961,155.37207 115.289961,156.057617 C115.289961,156.755859 115.880293,157.162109 116.67375,157.162109 Z M116.470625,158.120605 C115.143965,158.120605 114.160078,157.333496 114.160078,156.083008 C114.160078,154.85791 115.061445,154.15332 116.654707,154.058105 L118.628828,153.9375 L118.628828,153.31543 C118.628828,152.471191 118.101973,152.007812 117.08,152.007812 C116.261152,152.007812 115.689863,152.318848 115.53752,152.858398 L114.433027,152.858398 C114.579023,151.760254 115.658125,151.036621 117.118086,151.036621 C118.78752,151.036621 119.720625,151.893555 119.720625,153.31543 L119.720625,158 L118.679609,158 L118.679609,156.990723 L118.578047,156.990723 C118.133711,157.720703 117.384688,158.120605 116.470625,158.120605 Z M122.098711,149.38623 L122.098711,151.157227 L120.994219,151.157227 L120.994219,152.071289 L122.098711,152.071289 L122.098711,156.222656 C122.098711,157.530273 122.663652,158.050781 124.072832,158.050781 C124.288652,158.050781 124.498125,158.025391 124.713945,157.987305 L124.713945,157.066895 C124.51082,157.085938 124.40291,157.092285 124.206133,157.092285 C123.495195,157.092285 123.190508,156.749512 123.190508,155.943359 L123.190508,152.071289 L124.713945,152.071289 L124.713945,151.157227 L123.190508,151.157227 L123.190508,149.38623 L122.098711,149.38623 Z M128.901113,152.001465 C127.809316,152.001465 127.047598,152.80127 126.965078,154.013672 L130.735586,154.013672 C130.710195,152.80127 129.986563,152.001465 128.901113,152.001465 Z M130.703848,156.229004 L131.795645,156.229004 C131.465566,157.40332 130.411856,158.120605 128.913809,158.120605 C127.015859,158.120605 125.828848,156.749512 125.828848,154.584961 C125.828848,152.433105 127.034902,151.036621 128.913809,151.036621 C130.760977,151.036621 131.884512,152.350586 131.884512,154.477051 L131.884512,154.895996 L126.965078,154.895996 L126.965078,154.946777 C127.022207,156.298828 127.777578,157.155762 128.939199,157.155762 C129.821523,157.155762 130.418203,156.832031 130.703848,156.229004 Z M137.529356,158 L138.621152,158 L138.621152,152.071289 L140.189023,152.071289 L140.189023,151.157227 L138.621152,151.157227 L138.621152,150.427246 C138.621152,149.678223 138.951231,149.297363 139.73834,149.297363 C139.935117,149.297363 140.119199,149.303711 140.2525,149.329102 L140.2525,148.44043 C140.023984,148.395996 139.782773,148.376953 139.516172,148.376953 C138.214902,148.376953 137.529356,149.030762 137.529356,150.395508 L137.529356,151.157227 L136.393125,151.157227 L136.393125,152.071289 L137.529356,152.071289 L137.529356,158 Z M144.204805,158.120605 C142.256074,158.120605 141.05002,156.774902 141.05002,154.578613 C141.05002,152.375977 142.256074,151.036621 144.204805,151.036621 C146.153535,151.036621 147.35959,152.375977 147.35959,154.578613 C147.35959,156.774902 146.153535,158.120605 144.204805,158.120605 Z M144.204805,157.136719 C145.499727,157.136719 146.229707,156.197266 146.229707,154.578613 C146.229707,152.953613 145.499727,152.020508 144.204805,152.020508 C142.909883,152.020508 142.179902,152.953613 142.179902,154.578613 C142.179902,156.197266 142.909883,157.136719 144.204805,157.136719 Z M148.975957,158 L150.067754,158 L150.067754,153.759766 C150.067754,152.794922 150.823125,152.09668 151.864141,152.09668 C152.079961,152.09668 152.473516,152.134766 152.562383,152.160156 L152.562383,151.068359 C152.422734,151.049316 152.194219,151.036621 152.016484,151.036621 C151.10877,151.036621 150.32166,151.506348 150.118535,152.172852 L150.016973,152.172852 L150.016973,151.157227 L148.975957,151.157227 L148.975957,158 Z M159.508496,157.162109 C160.632031,157.162109 161.463574,156.425781 161.463574,155.448242 L161.463574,154.819824 L159.622754,154.94043 C158.581738,155.010254 158.124707,155.37207 158.124707,156.057617 C158.124707,156.755859 158.715039,157.162109 159.508496,157.162109 Z M159.305371,158.120605 C157.978711,158.120605 156.994824,157.333496 156.994824,156.083008 C156.994824,154.85791 157.896191,154.15332 159.489453,154.058105 L161.463574,153.9375 L161.463574,153.31543 C161.463574,152.471191 160.936719,152.007812 159.914746,152.007812 C159.095899,152.007812 158.524609,152.318848 158.372266,152.858398 L157.267774,152.858398 C157.41377,151.760254 158.492871,151.036621 159.952832,151.036621 C161.622266,151.036621 162.555371,151.893555 162.555371,153.31543 L162.555371,158 L161.514356,158 L161.514356,156.990723 L161.412793,156.990723 C160.968457,157.720703 160.219434,158.120605 159.305371,158.120605 Z M168.047871,158 L169.139668,158 L169.139668,153.759766 C169.139668,152.794922 169.831563,152.020508 170.726582,152.020508 C171.589863,152.020508 172.154805,152.541016 172.154805,153.353516 L172.154805,158 L173.246602,158 L173.246602,153.601074 C173.246602,152.731445 173.881367,152.020508 174.833516,152.020508 C175.798359,152.020508 176.274434,152.515625 176.274434,153.524902 L176.274434,158 L177.366231,158 L177.366231,153.270996 C177.366231,151.836426 176.585469,151.036621 175.188984,151.036621 C174.243184,151.036621 173.462422,151.512695 173.094258,152.236328 L172.992695,152.236328 C172.675313,151.525391 172.027852,151.036621 171.101094,151.036621 C170.187031,151.036621 169.501484,151.474609 169.190449,152.236328 L169.088887,152.236328 L169.088887,151.157227 L168.047871,151.157227 L168.047871,158 Z M181.991387,152.001465 C180.89959,152.001465 180.137871,152.80127 180.055352,154.013672 L183.825859,154.013672 C183.800469,152.80127 183.076836,152.001465 181.991387,152.001465 Z M183.794121,156.229004 L184.885918,156.229004 C184.55584,157.40332 183.502129,158.120605 182.004082,158.120605 C180.106133,158.120605 178.919121,156.749512 178.919121,154.584961 C178.919121,152.433105 180.125176,151.036621 182.004082,151.036621 C183.85125,151.036621 184.974785,152.350586 184.974785,154.477051 L184.974785,154.895996 L180.055352,154.895996 L180.055352,154.946777 C180.112481,156.298828 180.867852,157.155762 182.029473,157.155762 C182.911797,157.155762 183.508477,156.832031 183.794121,156.229004 Z M189.320645,152.001465 C188.228848,152.001465 187.467129,152.80127 187.384609,154.013672 L191.155117,154.013672 C191.129727,152.80127 190.406094,152.001465 189.320645,152.001465 Z M191.123379,156.229004 L192.215176,156.229004 C191.885098,157.40332 190.831387,158.120605 189.33334,158.120605 C187.435391,158.120605 186.248379,156.749512 186.248379,154.584961 C186.248379,152.433105 187.454434,151.036621 189.33334,151.036621 C191.180508,151.036621 192.304043,152.350586 192.304043,154.477051 L192.304043,154.895996 L187.384609,154.895996 L187.384609,154.946777 C187.441738,156.298828 188.197109,157.155762 189.358731,157.155762 C190.241055,157.155762 190.837734,156.832031 191.123379,156.229004 Z M194.377441,149.38623 L194.377441,151.157227 L193.272949,151.157227 L193.272949,152.071289 L194.377441,152.071289 L194.377441,156.222656 C194.377441,157.530273 194.942383,158.050781 196.351563,158.050781 C196.567383,158.050781 196.776856,158.025391 196.992676,157.987305 L196.992676,157.066895 C196.789551,157.085938 196.681641,157.092285 196.484863,157.092285 C195.773926,157.092285 195.469238,156.749512 195.469238,155.943359 L195.469238,152.071289 L196.992676,152.071289 L196.992676,151.157227 L195.469238,151.157227 L195.469238,149.38623 L194.377441,149.38623 Z M198.570957,158 L199.662754,158 L199.662754,151.157227 L198.570957,151.157227 L198.570957,158 Z M199.116856,149.76709 C199.535801,149.76709 199.878574,149.424316 199.878574,149.005371 C199.878574,148.586426 199.535801,148.243652 199.116856,148.243652 C198.69791,148.243652 198.355137,148.586426 198.355137,149.005371 C198.355137,149.424316 198.69791,149.76709 199.116856,149.76709 Z M201.647285,158 L202.739082,158 L202.739082,153.950195 C202.739082,152.750488 203.443672,152.020508 204.535469,152.020508 C205.627266,152.020508 206.147774,152.604492 206.147774,153.835938 L206.147774,158 L207.23957,158 L207.23957,153.569336 C207.23957,151.944336 206.382637,151.036621 204.846504,151.036621 C203.799141,151.036621 203.132637,151.480957 202.789863,152.236328 L202.688301,152.236328 L202.688301,151.157227 L201.647285,151.157227 L201.647285,158 Z M211.902813,156.933594 C213.172344,156.933594 213.934063,155.96875 213.934063,154.477051 C213.934063,152.985352 213.165996,152.020508 211.902813,152.020508 C210.633281,152.020508 209.922344,152.985352 209.922344,154.477051 C209.922344,155.96875 210.633281,156.933594 211.902813,156.933594 Z M211.953594,160.62793 C210.303203,160.62793 209.249492,159.885254 209.084453,158.755371 L210.239727,158.755371 C210.360332,159.313965 210.969707,159.675781 211.953594,159.675781 C213.178692,159.675781 213.908672,159.072754 213.908672,158.063477 L213.908672,156.717773 L213.807109,156.717773 C213.375469,157.473145 212.601055,157.898438 211.661602,157.898438 C209.890606,157.898438 208.792461,156.527344 208.792461,154.477051 C208.792461,152.426758 209.903301,151.036621 211.661602,151.036621 C212.620098,151.036621 213.464336,151.506348 213.857891,152.242676 L213.959453,152.242676 L213.959453,151.157227 L215.000469,151.157227 L215.000469,158.120605 C215.000469,159.650391 213.819805,160.62793 211.953594,160.62793 Z M217.860977,158.063477 C218.318008,158.063477 218.686172,157.688965 218.686172,157.238281 C218.686172,156.78125 218.318008,156.413086 217.860977,156.413086 C217.410293,156.413086 217.035781,156.78125 217.035781,157.238281 C217.035781,157.688965 217.410293,158.063477 217.860977,158.063477 Z M217.860977,153.182129 C218.318008,153.182129 218.686172,152.807617 218.686172,152.356934 C218.686172,151.899902 218.318008,151.531738 217.860977,151.531738 C217.410293,151.531738 217.035781,151.899902 217.035781,152.356934 C217.035781,152.807617 217.410293,153.182129 217.860977,153.182129 Z" id="You-may-be-late-for" fill="#000000" opacity="0.7"></path>
            <path d="M47.6738281,217.791016 C47.7851562,219.25 49.0214844,220.199219 50.8144531,220.199219 C52.7480469,220.199219 53.9726562,219.208984 53.9726562,217.65625 C53.9726562,216.414062 53.2695312,215.734375 51.5175781,215.294922 L50.6328125,215.060547 C49.4667969,214.761719 49.0039062,214.380859 49.0039062,213.71875 C49.0039062,212.863281 49.7480469,212.300781 50.8730469,212.300781 C51.9277344,212.300781 52.6425781,212.816406 52.7890625,213.683594 L53.8496094,213.683594 C53.7617188,212.318359 52.5429688,211.345703 50.9082031,211.345703 C49.1210938,211.345703 47.9199219,212.318359 47.9199219,213.753906 C47.9199219,214.955078 48.5820312,215.646484 50.1113281,216.033203 L51.1953125,216.314453 C52.3613281,216.607422 52.8886719,217.064453 52.8886719,217.785156 C52.8886719,218.623047 52.0507812,219.238281 50.9140625,219.238281 C49.7128906,219.238281 48.8691406,218.675781 48.7402344,217.791016 L47.6738281,217.791016 Z M58.0564063,220.111328 C56.2575781,220.111328 55.1442969,218.869141 55.1442969,216.841797 C55.1442969,214.808594 56.2575781,213.572266 58.0564063,213.572266 C59.8552344,213.572266 60.9685156,214.808594 60.9685156,216.841797 C60.9685156,218.869141 59.8552344,220.111328 58.0564063,220.111328 Z M58.0564063,219.203125 C59.2517188,219.203125 59.9255469,218.335938 59.9255469,216.841797 C59.9255469,215.341797 59.2517188,214.480469 58.0564063,214.480469 C56.8610938,214.480469 56.1872656,215.341797 56.1872656,216.841797 C56.1872656,218.335938 56.8610938,219.203125 58.0564063,219.203125 Z M62.4155469,220 L63.4233594,220 L63.4233594,216.085938 C63.4233594,215.195312 64.120625,214.550781 65.0815625,214.550781 C65.2807813,214.550781 65.6440625,214.585938 65.7260938,214.609375 L65.7260938,213.601562 C65.5971875,213.583984 65.38625,213.572266 65.2221875,213.572266 C64.3842969,213.572266 63.6577344,214.005859 63.4702344,214.621094 L63.3764844,214.621094 L63.3764844,213.683594 L62.4155469,213.683594 L62.4155469,220 Z M66.9680469,220 L67.9758594,220 L67.9758594,216.085938 C67.9758594,215.195312 68.673125,214.550781 69.6340625,214.550781 C69.8332812,214.550781 70.1965625,214.585938 70.2785937,214.609375 L70.2785937,213.601562 C70.1496875,213.583984 69.93875,213.572266 69.7746875,213.572266 C68.9367969,213.572266 68.2102344,214.005859 68.0227344,214.621094 L67.9289844,214.621094 L67.9289844,213.683594 L66.9680469,213.683594 L66.9680469,220 Z M71.9424219,222.285156 C73.0615625,222.285156 73.5654688,221.851562 74.1045313,220.386719 L76.5713281,213.683594 L75.4990625,213.683594 L73.7705469,218.880859 L73.6767969,218.880859 L71.9424219,213.683594 L70.8525781,213.683594 L73.1904688,220.005859 L73.0732813,220.380859 C72.8096094,221.142578 72.4932031,221.417969 71.913125,221.417969 C71.7725,221.417969 71.6142969,221.412109 71.49125,221.388672 L71.49125,222.25 C71.631875,222.273438 71.8076563,222.285156 71.9424219,222.285156 Z M77.54375,222.150391 L78.4636719,218.816406 L77.3445313,218.816406 L76.7878906,222.150391 L77.54375,222.150391 Z M84.7678906,220 L84.7678906,211.544922 L83.7132031,211.544922 L83.7132031,220 L84.7678906,220 Z M87.498125,214.703125 L88.4414844,211.544922 L87.2989063,211.544922 L86.7657031,214.703125 L87.498125,214.703125 Z M90.12875,220 L91.1365625,220 L91.1365625,211.175781 L90.12875,211.175781 L90.12875,220 Z M93.0171875,220 L94.025,220 L94.025,211.175781 L93.0171875,211.175781 L93.0171875,220 Z M101.044063,219.226562 C102.081172,219.226562 102.84875,218.546875 102.84875,217.644531 L102.84875,217.064453 L101.149531,217.175781 C100.188594,217.240234 99.7667188,217.574219 99.7667188,218.207031 C99.7667188,218.851562 100.311641,219.226562 101.044063,219.226562 Z M100.856563,220.111328 C99.6319531,220.111328 98.72375,219.384766 98.72375,218.230469 C98.72375,217.099609 99.5557813,216.449219 101.026484,216.361328 L102.84875,216.25 L102.84875,215.675781 C102.84875,214.896484 102.362422,214.46875 101.419063,214.46875 C100.663203,214.46875 100.135859,214.755859 99.9952344,215.253906 L98.9757031,215.253906 C99.1104688,214.240234 100.106563,213.572266 101.454219,213.572266 C102.995234,213.572266 103.856563,214.363281 103.856563,215.675781 L103.856563,220 L102.895625,220 L102.895625,219.068359 L102.801875,219.068359 C102.391719,219.742188 101.700313,220.111328 100.856563,220.111328 Z M105.584844,220 L106.592656,220 L106.592656,216.085938 C106.592656,215.195312 107.289922,214.550781 108.250859,214.550781 C108.450078,214.550781 108.813359,214.585938 108.895391,214.609375 L108.895391,213.601562 C108.766484,213.583984 108.555547,213.572266 108.391484,213.572266 C107.553594,213.572266 106.827031,214.005859 106.639531,214.621094 L106.545781,214.621094 L106.545781,213.683594 L105.584844,213.683594 L105.584844,220 Z M110.137344,220 L111.145156,220 L111.145156,216.085938 C111.145156,215.195312 111.842422,214.550781 112.803359,214.550781 C113.002578,214.550781 113.365859,214.585938 113.447891,214.609375 L113.447891,213.601562 C113.318984,213.583984 113.108047,213.572266 112.943984,213.572266 C112.106094,213.572266 111.379531,214.005859 111.192031,214.621094 L111.098281,214.621094 L111.098281,213.683594 L110.137344,213.683594 L110.137344,220 Z M114.596094,220 L115.603906,220 L115.603906,213.683594 L114.596094,213.683594 L114.596094,220 Z M115.1,212.400391 C115.486719,212.400391 115.803125,212.083984 115.803125,211.697266 C115.803125,211.310547 115.486719,210.994141 115.1,210.994141 C114.713281,210.994141 114.396875,211.310547 114.396875,211.697266 C114.396875,212.083984 114.713281,212.400391 115.1,212.400391 Z M122.547031,213.683594 L121.468906,213.683594 L119.740391,218.886719 L119.646641,218.886719 L117.918125,213.683594 L116.84,213.683594 L119.177891,220 L120.209141,220 L122.547031,213.683594 Z M126.044844,214.462891 C125.037031,214.462891 124.333906,215.201172 124.257734,216.320312 L127.738203,216.320312 C127.714766,215.201172 127.046797,214.462891 126.044844,214.462891 Z M127.708906,218.365234 L128.716719,218.365234 C128.412031,219.449219 127.439375,220.111328 126.056563,220.111328 C124.304609,220.111328 123.208906,218.845703 123.208906,216.847656 C123.208906,214.861328 124.322188,213.572266 126.056563,213.572266 C127.761641,213.572266 128.79875,214.785156 128.79875,216.748047 L128.79875,217.134766 L124.257734,217.134766 L124.257734,217.181641 C124.310469,218.429688 125.007734,219.220703 126.08,219.220703 C126.894453,219.220703 127.445234,218.921875 127.708906,218.365234 Z M135.513125,220 L136.567813,220 L136.567813,211.544922 L135.518984,211.544922 L133.268984,213.162109 L133.268984,214.275391 L135.419375,212.716797 L135.513125,212.716797 L135.513125,220 Z M141.794141,220.199219 C139.889844,220.199219 138.794141,218.582031 138.794141,215.769531 C138.794141,212.980469 139.901563,211.345703 141.794141,211.345703 C143.675,211.345703 144.782422,212.986328 144.782422,215.787109 C144.782422,218.59375 143.692578,220.199219 141.794141,220.199219 Z M141.794141,219.279297 C143.042188,219.279297 143.721875,218.037109 143.721875,215.769531 C143.721875,213.525391 143.030469,212.271484 141.794141,212.271484 C140.557813,212.271484 139.854688,213.537109 139.854688,215.769531 C139.854688,218.03125 140.546094,219.279297 141.794141,219.279297 Z M149.633516,220 L150.641328,220 L150.641328,216.085938 C150.641328,215.195312 151.28,214.480469 152.106172,214.480469 C152.903047,214.480469 153.424531,214.960938 153.424531,215.710938 L153.424531,220 L154.432344,220 L154.432344,215.939453 C154.432344,215.136719 155.018281,214.480469 155.897187,214.480469 C156.787812,214.480469 157.227266,214.9375 157.227266,215.869141 L157.227266,220 L158.235078,220 L158.235078,215.634766 C158.235078,214.310547 157.514375,213.572266 156.225312,213.572266 C155.352266,213.572266 154.631562,214.011719 154.291719,214.679688 L154.197969,214.679688 C153.905,214.023438 153.307344,213.572266 152.451875,213.572266 C151.608125,213.572266 150.975312,213.976562 150.688203,214.679688 L150.594453,214.679688 L150.594453,213.683594 L149.633516,213.683594 L149.633516,220 Z M159.963359,220 L160.971172,220 L160.971172,213.683594 L159.963359,213.683594 L159.963359,220 Z M160.467266,212.400391 C160.853984,212.400391 161.170391,212.083984 161.170391,211.697266 C161.170391,211.310547 160.853984,210.994141 160.467266,210.994141 C160.080547,210.994141 159.764141,211.310547 159.764141,211.697266 C159.764141,212.083984 160.080547,212.400391 160.467266,212.400391 Z M162.758047,220 L163.765859,220 L163.765859,216.261719 C163.765859,215.154297 164.41625,214.480469 165.424062,214.480469 C166.431875,214.480469 166.912344,215.019531 166.912344,216.15625 L166.912344,220 L167.920156,220 L167.920156,215.910156 C167.920156,214.410156 167.129141,213.572266 165.711172,213.572266 C164.744375,213.572266 164.129141,213.982422 163.812734,214.679688 L163.718984,214.679688 L163.718984,213.683594 L162.758047,213.683594 L162.758047,220 Z M170.457031,220.058594 C170.878906,220.058594 171.21875,219.712891 171.21875,219.296875 C171.21875,218.875 170.878906,218.535156 170.457031,218.535156 C170.041016,218.535156 169.695312,218.875 169.695312,219.296875 C169.695312,219.712891 170.041016,220.058594 170.457031,220.058594 Z M176.362812,220 L177.370625,220 L177.370625,211.175781 L176.362812,211.175781 L176.362812,220 Z M181.137969,219.226562 C182.175078,219.226562 182.942656,218.546875 182.942656,217.644531 L182.942656,217.064453 L181.243437,217.175781 C180.2825,217.240234 179.860625,217.574219 179.860625,218.207031 C179.860625,218.851562 180.405547,219.226562 181.137969,219.226562 Z M180.950469,220.111328 C179.725859,220.111328 178.817656,219.384766 178.817656,218.230469 C178.817656,217.099609 179.649687,216.449219 181.120391,216.361328 L182.942656,216.25 L182.942656,215.675781 C182.942656,214.896484 182.456328,214.46875 181.512969,214.46875 C180.757109,214.46875 180.229766,214.755859 180.089141,215.253906 L179.069609,215.253906 C179.204375,214.240234 180.200469,213.572266 181.548125,213.572266 C183.089141,213.572266 183.950469,214.363281 183.950469,215.675781 L183.950469,220 L182.989531,220 L182.989531,219.068359 L182.895781,219.068359 C182.485625,219.742188 181.794219,220.111328 180.950469,220.111328 Z M186.100625,212.048828 L186.100625,213.683594 L185.081094,213.683594 L185.081094,214.527344 L186.100625,214.527344 L186.100625,218.359375 C186.100625,219.566406 186.622109,220.046875 187.922891,220.046875 C188.122109,220.046875 188.315469,220.023438 188.514687,219.988281 L188.514687,219.138672 C188.327187,219.15625 188.227578,219.162109 188.045937,219.162109 C187.389687,219.162109 187.108437,218.845703 187.108437,218.101562 L187.108437,214.527344 L188.514687,214.527344 L188.514687,213.683594 L187.108437,213.683594 L187.108437,212.048828 L186.100625,212.048828 Z M192.334766,214.462891 C191.326953,214.462891 190.623828,215.201172 190.547656,216.320312 L194.028125,216.320312 C194.004687,215.201172 193.336719,214.462891 192.334766,214.462891 Z M193.998828,218.365234 L195.006641,218.365234 C194.701953,219.449219 193.729297,220.111328 192.346484,220.111328 C190.594531,220.111328 189.498828,218.845703 189.498828,216.847656 C189.498828,214.861328 190.612109,213.572266 192.346484,213.572266 C194.051562,213.572266 195.088672,214.785156 195.088672,216.748047 L195.088672,217.134766 L190.547656,217.134766 L190.547656,217.181641 C190.600391,218.429688 191.297656,219.220703 192.369922,219.220703 C193.184375,219.220703 193.735156,218.921875 193.998828,218.365234 Z M196.535703,220 L197.543516,220 L197.543516,216.085938 C197.543516,215.195312 198.240781,214.550781 199.201719,214.550781 C199.400937,214.550781 199.764219,214.585938 199.84625,214.609375 L199.84625,213.601562 C199.717344,213.583984 199.506406,213.572266 199.342344,213.572266 C198.504453,213.572266 197.777891,214.005859 197.590391,214.621094 L197.496641,214.621094 L197.496641,213.683594 L196.535703,213.683594 L196.535703,220 Z M204.644609,212.048828 L204.644609,213.683594 L203.625078,213.683594 L203.625078,214.527344 L204.644609,214.527344 L204.644609,218.359375 C204.644609,219.566406 205.166094,220.046875 206.466875,220.046875 C206.666094,220.046875 206.859453,220.023438 207.058672,219.988281 L207.058672,219.138672 C206.871172,219.15625 206.771563,219.162109 206.589922,219.162109 C205.933672,219.162109 205.652422,218.845703 205.652422,218.101562 L205.652422,214.527344 L207.058672,214.527344 L207.058672,213.683594 L205.652422,213.683594 L205.652422,212.048828 L204.644609,212.048828 Z M208.505703,220 L209.513516,220 L209.513516,216.261719 C209.513516,215.195312 210.134609,214.480469 211.265469,214.480469 C212.220547,214.480469 212.724453,215.037109 212.724453,216.15625 L212.724453,220 L213.732266,220 L213.732266,215.910156 C213.732266,214.427734 212.888516,213.572266 211.552578,213.572266 C210.585781,213.572266 209.923672,213.982422 209.607266,214.679688 L209.513516,214.679688 L209.513516,211.175781 L208.505703,211.175781 L208.505703,220 Z M217.382422,219.226562 C218.419531,219.226562 219.187109,218.546875 219.187109,217.644531 L219.187109,217.064453 L217.487891,217.175781 C216.526953,217.240234 216.105078,217.574219 216.105078,218.207031 C216.105078,218.851562 216.65,219.226562 217.382422,219.226562 Z M217.194922,220.111328 C215.970313,220.111328 215.062109,219.384766 215.062109,218.230469 C215.062109,217.099609 215.894141,216.449219 217.364844,216.361328 L219.187109,216.25 L219.187109,215.675781 C219.187109,214.896484 218.700781,214.46875 217.757422,214.46875 C217.001563,214.46875 216.474219,214.755859 216.333594,215.253906 L215.314063,215.253906 C215.448828,214.240234 216.444922,213.572266 217.792578,213.572266 C219.333594,213.572266 220.194922,214.363281 220.194922,215.675781 L220.194922,220 L219.233984,220 L219.233984,219.068359 L219.140234,219.068359 C218.730078,219.742188 218.038672,220.111328 217.194922,220.111328 Z M221.923203,220 L222.931016,220 L222.931016,216.261719 C222.931016,215.154297 223.581406,214.480469 224.589219,214.480469 C225.597031,214.480469 226.0775,215.019531 226.0775,216.15625 L226.0775,220 L227.085313,220 L227.085313,215.910156 C227.085313,214.410156 226.294297,213.572266 224.876328,213.572266 C223.909531,213.572266 223.294297,213.982422 222.977891,214.679688 L222.884141,214.679688 L222.884141,213.683594 L221.923203,213.683594 L221.923203,220 Z M235.118047,213.572266 C236.729375,213.572266 237.772344,214.855469 237.772344,216.841797 C237.772344,218.816406 236.723516,220.111328 235.118047,220.111328 C234.215703,220.111328 233.489141,219.71875 233.143438,219.050781 L233.049688,219.050781 L233.049688,222.109375 L232.041875,222.109375 L232.041875,213.683594 L233.002813,213.683594 L233.002813,214.738281 L233.096563,214.738281 C233.500859,214.011719 234.256719,213.572266 235.118047,213.572266 Z M234.877813,219.203125 C236.037969,219.203125 236.729375,218.318359 236.729375,216.841797 C236.729375,215.365234 236.037969,214.480469 234.883672,214.480469 C233.741094,214.480469 233.020391,215.388672 233.020391,216.841797 C233.020391,218.289062 233.741094,219.203125 234.877813,219.203125 Z M239.277969,220 L240.285781,220 L240.285781,211.175781 L239.277969,211.175781 L239.277969,220 Z M244.053125,219.226562 C245.090234,219.226562 245.857813,218.546875 245.857813,217.644531 L245.857813,217.064453 L244.158594,217.175781 C243.197656,217.240234 242.775781,217.574219 242.775781,218.207031 C242.775781,218.851562 243.320703,219.226562 244.053125,219.226562 Z M243.865625,220.111328 C242.641016,220.111328 241.732813,219.384766 241.732813,218.230469 C241.732813,217.099609 242.564844,216.449219 244.035547,216.361328 L245.857813,216.25 L245.857813,215.675781 C245.857813,214.896484 245.371484,214.46875 244.428125,214.46875 C243.672266,214.46875 243.144922,214.755859 243.004297,215.253906 L241.984766,215.253906 C242.119531,214.240234 243.115625,213.572266 244.463281,213.572266 C246.004297,213.572266 246.865625,214.363281 246.865625,215.675781 L246.865625,220 L245.904688,220 L245.904688,219.068359 L245.810938,219.068359 C245.400781,219.742188 244.709375,220.111328 243.865625,220.111328 Z M248.593906,220 L249.601719,220 L249.601719,216.261719 C249.601719,215.154297 250.252109,214.480469 251.259922,214.480469 C252.267734,214.480469 252.748203,215.019531 252.748203,216.15625 L252.748203,220 L253.756016,220 L253.756016,215.910156 C253.756016,214.410156 252.965,213.572266 251.547031,213.572266 C250.580234,213.572266 249.965,213.982422 249.648594,214.679688 L249.554844,214.679688 L249.554844,213.683594 L248.593906,213.683594 L248.593906,220 Z M255.460859,220 L256.468672,220 L256.468672,216.261719 C256.468672,215.154297 257.119063,214.480469 258.126875,214.480469 C259.134688,214.480469 259.615156,215.019531 259.615156,216.15625 L259.615156,220 L260.622969,220 L260.622969,215.910156 C260.622969,214.410156 259.831953,213.572266 258.413984,213.572266 C257.447188,213.572266 256.831953,213.982422 256.515547,214.679688 L256.421797,214.679688 L256.421797,213.683594 L255.460859,213.683594 L255.460859,220 Z M264.847344,214.462891 C263.839531,214.462891 263.136406,215.201172 263.060234,216.320312 L266.540703,216.320312 C266.517266,215.201172 265.849297,214.462891 264.847344,214.462891 Z M266.511406,218.365234 L267.519219,218.365234 C267.214531,219.449219 266.241875,220.111328 264.859063,220.111328 C263.107109,220.111328 262.011406,218.845703 262.011406,216.847656 C262.011406,214.861328 263.124688,213.572266 264.859063,213.572266 C266.564141,213.572266 267.60125,214.785156 267.60125,216.748047 L267.60125,217.134766 L263.060234,217.134766 L263.060234,217.181641 C263.112969,218.429688 263.810234,219.220703 264.8825,219.220703 C265.696953,219.220703 266.247734,218.921875 266.511406,218.365234 Z M271.386172,220.111328 C269.768984,220.111328 268.731875,218.828125 268.731875,216.841797 C268.731875,214.861328 269.780703,213.572266 271.386172,213.572266 C272.265078,213.572266 273.009219,213.988281 273.366641,214.679688 L273.454531,214.679688 L273.454531,211.175781 L274.462344,211.175781 L274.462344,220 L273.501406,220 L273.501406,218.992188 L273.407656,218.992188 C273.009219,219.695312 272.259219,220.111328 271.386172,220.111328 Z M271.620547,214.480469 C270.472109,214.480469 269.774844,215.371094 269.774844,216.841797 C269.774844,218.318359 270.46625,219.203125 271.620547,219.203125 C272.768984,219.203125 273.477969,218.300781 273.477969,216.841797 C273.477969,215.394531 272.763125,214.480469 271.620547,214.480469 Z M277.116406,220.058594 C277.538281,220.058594 277.878125,219.712891 277.878125,219.296875 C277.878125,218.875 277.538281,218.535156 277.116406,218.535156 C276.700391,218.535156 276.354688,218.875 276.354688,219.296875 C276.354688,219.712891 276.700391,220.058594 277.116406,220.058594 Z" id="Sorry,-Ill-arrive-1" fill="#000000"></path>
            <path d="M52.8457031,190 L51.0761719,190 L51.0761719,183.056641 L48.5390625,183.056641 L48.5390625,181.544922 L55.3828125,181.544922 L55.3828125,183.056641 L52.8457031,183.056641 L52.8457031,190 Z M58.4392969,190.140625 C56.4529688,190.140625 55.2576563,188.880859 55.2576563,186.765625 C55.2576563,184.673828 56.4705469,183.396484 58.4392969,183.396484 C60.4080469,183.396484 61.6209375,184.667969 61.6209375,186.765625 C61.6209375,188.880859 60.425625,190.140625 58.4392969,190.140625 Z M58.4392969,188.746094 C59.3475,188.746094 59.8689844,188.019531 59.8689844,186.765625 C59.8689844,185.523438 59.3416406,184.791016 58.4392969,184.791016 C57.5310938,184.791016 57.0096094,185.523438 57.0096094,186.765625 C57.0096094,188.025391 57.5252344,188.746094 58.4392969,188.746094 Z M64.1500781,190.158203 C64.7828906,190.158203 65.1871875,189.730469 65.1871875,189.138672 C65.1871875,188.546875 64.7828906,188.125 64.1500781,188.125 C63.523125,188.125 63.1129688,188.546875 63.1129688,189.138672 C63.1129688,189.730469 63.523125,190.158203 64.1500781,190.158203 Z M64.1500781,185.833984 C64.7828906,185.833984 65.1871875,185.40625 65.1871875,184.814453 C65.1871875,184.222656 64.7828906,183.800781 64.1500781,183.800781 C63.523125,183.800781 63.1129688,184.222656 63.1129688,184.814453 C63.1129688,185.40625 63.523125,185.833984 64.1500781,185.833984 Z M77.2005469,184.1875 L78.2728125,184.1875 L78.2728125,184.152344 C78.2728125,182.541016 76.9134375,181.345703 75.0794531,181.345703 C72.5189063,181.345703 70.6204688,183.636719 70.6204688,186.753906 C70.6204688,188.828125 71.9329688,190.199219 73.9017188,190.199219 C75.7357031,190.199219 77.1067969,189.279297 77.5286719,187.773438 L76.4153906,187.773438 C76.1107031,188.646484 75.1614844,189.220703 74.0189063,189.220703 C72.6067969,189.220703 71.7161719,188.230469 71.7161719,186.642578 C71.7161719,184.205078 73.1517188,182.324219 74.9974219,182.324219 C76.2571875,182.324219 77.1126563,183.044922 77.2005469,184.175781 L77.2005469,184.1875 Z M84.9914063,183.683594 L83.971875,183.683594 L83.1632813,187.480469 C82.9523438,188.482422 82.2257813,189.203125 81.2121094,189.203125 C80.3859375,189.203125 79.9875,188.828125 79.9875,188.019531 C79.9875,187.873047 80.0226563,187.539062 80.0695313,187.310547 L80.8371094,183.683594 L79.8117188,183.683594 L79.0207031,187.457031 C78.9679688,187.714844 78.9328125,188.089844 78.9328125,188.277344 C78.9328125,189.320312 79.6710938,190.111328 80.8195313,190.111328 C81.76875,190.111328 82.425,189.689453 82.7765625,189.144531 L82.8703125,189.144531 L82.6769531,190 L83.6496094,190 L84.9914063,183.683594 Z M86.1670313,185.458984 C86.1670313,186.296875 86.6533594,186.794922 87.631875,187.111328 L88.5986719,187.421875 C89.1846094,187.609375 89.3896875,187.908203 89.3896875,188.277344 C89.3896875,188.851562 88.7861719,189.261719 87.9307031,189.261719 C87.1396875,189.261719 86.6064844,188.863281 86.4482813,188.306641 L85.4111719,188.306641 C85.5049219,189.378906 86.4951563,190.111328 87.8838281,190.111328 C89.3486719,190.111328 90.4267969,189.308594 90.4267969,188.201172 C90.4267969,187.351562 89.9814844,186.835938 88.9209375,186.496094 L88.0654688,186.220703 C87.49125,186.033203 87.1807031,185.751953 87.1807031,185.365234 C87.1807031,184.820312 87.7432031,184.427734 88.5166406,184.427734 C89.2549219,184.427734 89.7764063,184.755859 89.9053125,185.300781 L90.9072656,185.300781 C90.7373438,184.263672 89.8760156,183.572266 88.5342188,183.572266 C87.1807031,183.572266 86.1670313,184.333984 86.1670313,185.458984 Z M93.6883594,190.046875 C93.9110157,190.046875 94.1395313,190.035156 94.3153125,189.994141 L94.4969532,189.138672 C94.3621875,189.15625 94.2391407,189.162109 94.0575,189.162109 C93.5535938,189.162109 93.260625,188.962891 93.260625,188.482422 C93.260625,188.324219 93.2840625,188.136719 93.3309375,187.914062 L94.0516407,184.527344 L95.4754688,184.527344 L95.6629688,183.683594 L94.2274219,183.683594 L94.573125,182.048828 L93.5477344,182.048828 L93.21375,183.683594 L92.1473438,183.683594 L91.9715625,184.527344 L93.0321094,184.527344 L92.2410938,188.224609 C92.2000782,188.423828 92.1766407,188.605469 92.1766407,188.769531 C92.1766407,189.625 92.8094532,190.046875 93.6883594,190.046875 Z M98.6842969,189.203125 C99.8620313,189.203125 100.817109,187.949219 100.817109,186.414062 C100.817109,185.212891 100.219453,184.480469 99.2292188,184.480469 C97.9284375,184.480469 97.0436719,185.646484 97.0436719,187.375 C97.0436719,188.470703 97.6999219,189.203125 98.6842969,189.203125 Z M99.3229688,183.572266 C100.852266,183.572266 101.895234,184.626953 101.895234,186.173828 C101.895234,188.447266 100.483125,190.111328 98.5553907,190.111328 C97.0260938,190.111328 95.9714063,189.044922 95.9714063,187.498047 C95.9714063,185.201172 97.3600782,183.572266 99.3229688,183.572266 Z M102.660703,190 L103.686094,190 L104.541563,185.96875 C104.729063,185.072266 105.461484,184.480469 106.211484,184.480469 C106.926328,184.480469 107.336484,184.978516 107.336484,185.582031 C107.336484,185.763672 107.307188,185.96875 107.260313,186.197266 L106.451719,190 L107.477109,190 L108.320859,186.039062 C108.525938,185.066406 109.2525,184.480469 110.0025,184.480469 C110.717344,184.480469 111.1275,184.978516 111.1275,185.582031 C111.1275,185.763672 111.098203,185.96875 111.051328,186.197266 L110.242734,190 L111.268125,190 L112.111875,186.021484 C112.164609,185.763672 112.193906,185.517578 112.193906,185.294922 C112.193906,184.287109 111.432188,183.572266 110.406797,183.572266 C109.44,183.572266 108.760313,184.117188 108.379453,184.726562 L108.285703,184.726562 C108.150938,184.146484 107.535703,183.572266 106.615781,183.572266 C105.906797,183.572266 105.209531,184.035156 104.869688,184.65625 L104.775938,184.65625 L104.981016,183.683594 L104.0025,183.683594 L102.660703,190 Z M114.541406,186.261719 L117.969141,186.261719 C117.975,186.226562 117.980859,186.097656 117.980859,185.998047 C117.980859,185.166016 117.488672,184.462891 116.539453,184.462891 C115.566797,184.462891 114.834375,185.183594 114.541406,186.261719 Z M115.9125,190.111328 C114.500391,190.111328 113.346094,189.173828 113.346094,187.46875 C113.346094,185.136719 114.705469,183.572266 116.633203,183.572266 C117.933984,183.572266 119.029688,184.486328 119.035547,186.126953 C119.035547,186.373047 119.000391,186.835938 118.959375,187.076172 L114.406641,187.076172 C114.400781,187.181641 114.394922,187.287109 114.394922,187.392578 C114.394922,188.693359 115.215234,189.191406 115.976953,189.191406 C116.808984,189.191406 117.301172,188.875 117.564844,188.388672 L118.637109,188.388672 C118.379297,189.361328 117.383203,190.111328 115.9125,190.111328 Z M119.765859,190 L120.785391,190 L121.576406,186.267578 C121.828359,185.089844 122.408438,184.550781 123.422109,184.550781 C123.633047,184.550781 124.037344,184.585938 124.218984,184.626953 L124.435781,183.660156 C124.312734,183.613281 123.972891,183.572266 123.6975,183.572266 C122.959219,183.572266 122.420156,183.859375 122.004141,184.486328 L121.910391,184.486328 L122.080313,183.683594 L121.107656,183.683594 L119.765859,190 Z M128.087813,190 L129.224531,184.527344 L128.175703,184.527344 L128.351484,183.683594 L129.400313,183.683594 L129.5175,183.068359 C129.763594,181.773438 130.437422,181.234375 131.714766,181.234375 C132.013594,181.234375 132.201094,181.269531 132.400313,181.310547 L132.224531,182.142578 C132.095625,182.113281 131.890547,182.083984 131.615156,182.083984 C131.035078,182.083984 130.677656,182.388672 130.542891,183.097656 L130.431563,183.683594 L131.878828,183.683594 L131.703047,184.527344 L130.255781,184.527344 L129.119063,190 L128.087813,190 Z M134.6775,189.203125 C135.855234,189.203125 136.810313,187.949219 136.810313,186.414062 C136.810313,185.212891 136.212656,184.480469 135.222422,184.480469 C133.921641,184.480469 133.036875,185.646484 133.036875,187.375 C133.036875,188.470703 133.693125,189.203125 134.6775,189.203125 Z M135.316172,183.572266 C136.845469,183.572266 137.888438,184.626953 137.888438,186.173828 C137.888438,188.447266 136.476328,190.111328 134.548594,190.111328 C133.019297,190.111328 131.964609,189.044922 131.964609,187.498047 C131.964609,185.201172 133.353281,183.572266 135.316172,183.572266 Z M142.316016,183.572266 C140.388281,183.572266 138.982031,185.21875 138.982031,187.433594 C138.982031,189.050781 140.001563,190.111328 141.536719,190.111328 C142.925391,190.111328 144.026953,189.34375 144.284766,188.195312 L143.235938,188.195312 C142.995703,188.828125 142.403906,189.191406 141.624609,189.191406 C140.651953,189.191406 140.042578,188.476562 140.042578,187.298828 C140.042578,185.699219 140.980078,184.480469 142.233984,184.480469 C143.036719,184.480469 143.669531,184.960938 143.733984,185.617188 L144.765234,185.617188 C144.759375,185.523438 144.753516,185.429688 144.735938,185.341797 C144.542578,184.310547 143.564063,183.572266 142.316016,183.572266 Z M151.694766,183.683594 L150.675234,183.683594 L149.866641,187.480469 C149.655703,188.482422 148.929141,189.203125 147.915469,189.203125 C147.089297,189.203125 146.690859,188.828125 146.690859,188.019531 C146.690859,187.873047 146.726016,187.539062 146.772891,187.310547 L147.540469,183.683594 L146.515078,183.683594 L145.724063,187.457031 C145.671328,187.714844 145.636172,188.089844 145.636172,188.277344 C145.636172,189.320312 146.374453,190.111328 147.522891,190.111328 C148.472109,190.111328 149.128359,189.689453 149.479922,189.144531 L149.573672,189.144531 L149.380313,190 L150.352969,190 L151.694766,183.683594 Z M152.870391,185.458984 C152.870391,186.296875 153.356719,186.794922 154.335234,187.111328 L155.302031,187.421875 C155.887969,187.609375 156.093047,187.908203 156.093047,188.277344 C156.093047,188.851562 155.489531,189.261719 154.634063,189.261719 C153.843047,189.261719 153.309844,188.863281 153.151641,188.306641 L152.114531,188.306641 C152.208281,189.378906 153.198516,190.111328 154.587188,190.111328 C156.052031,190.111328 157.130156,189.308594 157.130156,188.201172 C157.130156,187.351562 156.684844,186.835938 155.624297,186.496094 L154.768828,186.220703 C154.194609,186.033203 153.884063,185.751953 153.884063,185.365234 C153.884063,184.820312 154.446563,184.427734 155.22,184.427734 C155.958281,184.427734 156.479766,184.755859 156.608672,185.300781 L157.610625,185.300781 C157.440703,184.263672 156.579375,183.572266 155.237578,183.572266 C153.884063,183.572266 152.870391,184.333984 152.870391,185.458984 Z M164.936484,183.572266 C166.547813,183.572266 167.590781,184.855469 167.590781,186.841797 C167.590781,188.816406 166.541953,190.111328 164.936484,190.111328 C164.034141,190.111328 163.307578,189.71875 162.961875,189.050781 L162.868125,189.050781 L162.868125,192.109375 L161.860313,192.109375 L161.860313,183.683594 L162.82125,183.683594 L162.82125,184.738281 L162.915,184.738281 C163.319297,184.011719 164.075156,183.572266 164.936484,183.572266 Z M164.69625,189.203125 C165.856406,189.203125 166.547813,188.318359 166.547813,186.841797 C166.547813,185.365234 165.856406,184.480469 164.702109,184.480469 C163.559531,184.480469 162.838828,185.388672 162.838828,186.841797 C162.838828,188.289062 163.559531,189.203125 164.69625,189.203125 Z M171.028125,189.226562 C172.065234,189.226562 172.832813,188.546875 172.832813,187.644531 L172.832813,187.064453 L171.133594,187.175781 C170.172656,187.240234 169.750781,187.574219 169.750781,188.207031 C169.750781,188.851562 170.295703,189.226562 171.028125,189.226562 Z M170.840625,190.111328 C169.616016,190.111328 168.707813,189.384766 168.707813,188.230469 C168.707813,187.099609 169.539844,186.449219 171.010547,186.361328 L172.832813,186.25 L172.832813,185.675781 C172.832813,184.896484 172.346484,184.46875 171.403125,184.46875 C170.647266,184.46875 170.119922,184.755859 169.979297,185.253906 L168.959766,185.253906 C169.094531,184.240234 170.090625,183.572266 171.438281,183.572266 C172.979297,183.572266 173.840625,184.363281 173.840625,185.675781 L173.840625,190 L172.879688,190 L172.879688,189.068359 L172.785938,189.068359 C172.375781,189.742188 171.684375,190.111328 170.840625,190.111328 Z M175.613906,190 L176.621719,190 L176.621719,186.085938 C176.621719,185.195312 177.318984,184.550781 178.279922,184.550781 C178.479141,184.550781 178.842422,184.585938 178.924453,184.609375 L178.924453,183.601562 C178.795547,183.583984 178.584609,183.572266 178.420547,183.572266 C177.582656,183.572266 176.856094,184.005859 176.668594,184.621094 L176.574844,184.621094 L176.574844,183.683594 L175.613906,183.683594 L175.613906,190 Z M180.867656,182.048828 L180.867656,183.683594 L179.848125,183.683594 L179.848125,184.527344 L180.867656,184.527344 L180.867656,188.359375 C180.867656,189.566406 181.389141,190.046875 182.689922,190.046875 C182.889141,190.046875 183.0825,190.023438 183.281719,189.988281 L183.281719,189.138672 C183.094219,189.15625 182.994609,189.162109 182.812969,189.162109 C182.156719,189.162109 181.875469,188.845703 181.875469,188.101562 L181.875469,184.527344 L183.281719,184.527344 L183.281719,183.683594 L181.875469,183.683594 L181.875469,182.048828 L180.867656,182.048828 Z M184.738594,190 L185.746406,190 L185.746406,183.683594 L184.738594,183.683594 L184.738594,190 Z M185.2425,182.400391 C185.629219,182.400391 185.945625,182.083984 185.945625,181.697266 C185.945625,181.310547 185.629219,180.994141 185.2425,180.994141 C184.855781,180.994141 184.539375,181.310547 184.539375,181.697266 C184.539375,182.083984 184.855781,182.400391 185.2425,182.400391 Z M192.804844,185.617188 C192.629063,184.492188 191.691563,183.572266 190.156406,183.572266 C188.386875,183.572266 187.261875,184.849609 187.261875,186.818359 C187.261875,188.828125 188.392734,190.111328 190.162266,190.111328 C191.679844,190.111328 192.623203,189.255859 192.804844,188.095703 L191.785313,188.095703 C191.597813,188.810547 191.006016,189.203125 190.156406,189.203125 C189.031406,189.203125 188.304844,188.277344 188.304844,186.818359 C188.304844,185.388672 189.019688,184.480469 190.156406,184.480469 C191.064609,184.480469 191.62125,184.990234 191.785313,185.617188 L192.804844,185.617188 Z M194.226563,190 L195.234375,190 L195.234375,183.683594 L194.226563,183.683594 L194.226563,190 Z M194.730469,182.400391 C195.117188,182.400391 195.433594,182.083984 195.433594,181.697266 C195.433594,181.310547 195.117188,180.994141 194.730469,180.994141 C194.34375,180.994141 194.027344,181.310547 194.027344,181.697266 C194.027344,182.083984 194.34375,182.400391 194.730469,182.400391 Z M200.142422,183.572266 C201.75375,183.572266 202.796719,184.855469 202.796719,186.841797 C202.796719,188.816406 201.747891,190.111328 200.142422,190.111328 C199.240078,190.111328 198.513516,189.71875 198.167813,189.050781 L198.074063,189.050781 L198.074063,192.109375 L197.06625,192.109375 L197.06625,183.683594 L198.027188,183.683594 L198.027188,184.738281 L198.120938,184.738281 C198.525234,184.011719 199.281094,183.572266 200.142422,183.572266 Z M199.902188,189.203125 C201.062344,189.203125 201.75375,188.318359 201.75375,186.841797 C201.75375,185.365234 201.062344,184.480469 199.908047,184.480469 C198.765469,184.480469 198.044766,185.388672 198.044766,186.841797 C198.044766,188.289062 198.765469,189.203125 199.902188,189.203125 Z M206.234063,189.226562 C207.271172,189.226562 208.03875,188.546875 208.03875,187.644531 L208.03875,187.064453 L206.339531,187.175781 C205.378594,187.240234 204.956719,187.574219 204.956719,188.207031 C204.956719,188.851562 205.501641,189.226562 206.234063,189.226562 Z M206.046563,190.111328 C204.821953,190.111328 203.91375,189.384766 203.91375,188.230469 C203.91375,187.099609 204.745781,186.449219 206.216484,186.361328 L208.03875,186.25 L208.03875,185.675781 C208.03875,184.896484 207.552422,184.46875 206.609063,184.46875 C205.853203,184.46875 205.325859,184.755859 205.185234,185.253906 L204.165703,185.253906 C204.300469,184.240234 205.296563,183.572266 206.644219,183.572266 C208.185234,183.572266 209.046563,184.363281 209.046563,185.675781 L209.046563,190 L208.085625,190 L208.085625,189.068359 L207.991875,189.068359 C207.581719,189.742188 206.890313,190.111328 206.046563,190.111328 Z M210.819844,190 L211.827656,190 L211.827656,186.261719 C211.827656,185.154297 212.478047,184.480469 213.485859,184.480469 C214.493672,184.480469 214.974141,185.019531 214.974141,186.15625 L214.974141,190 L215.981953,190 L215.981953,185.910156 C215.981953,184.410156 215.190938,183.572266 213.772969,183.572266 C212.806172,183.572266 212.190938,183.982422 211.874531,184.679688 L211.780781,184.679688 L211.780781,183.683594 L210.819844,183.683594 L210.819844,190 Z M218.153672,182.048828 L218.153672,183.683594 L217.134141,183.683594 L217.134141,184.527344 L218.153672,184.527344 L218.153672,188.359375 C218.153672,189.566406 218.675156,190.046875 219.975938,190.046875 C220.175156,190.046875 220.368516,190.023438 220.567734,189.988281 L220.567734,189.138672 C220.380234,189.15625 220.280625,189.162109 220.098984,189.162109 C219.442734,189.162109 219.161484,188.845703 219.161484,188.101562 L219.161484,184.527344 L220.567734,184.527344 L220.567734,183.683594 L219.161484,183.683594 L219.161484,182.048828 L218.153672,182.048828 Z M221.7375,185.412109 C221.7375,186.326172 222.276563,186.835938 223.460156,187.123047 L224.544141,187.386719 C225.217969,187.550781 225.546094,187.84375 225.546094,188.277344 C225.546094,188.857422 224.936719,189.261719 224.087109,189.261719 C223.278516,189.261719 222.774609,188.921875 222.604688,188.388672 L221.567578,188.388672 C221.678906,189.4375 222.645703,190.111328 224.051953,190.111328 C225.4875,190.111328 226.583203,189.332031 226.583203,188.201172 C226.583203,187.292969 226.008984,186.777344 224.819531,186.490234 L223.846875,186.255859 C223.102734,186.074219 222.751172,185.804688 222.751172,185.371094 C222.751172,184.808594 223.337109,184.427734 224.087109,184.427734 C224.848828,184.427734 225.341016,184.761719 225.475781,185.265625 L226.471875,185.265625 C226.337109,184.228516 225.417188,183.572266 224.092969,183.572266 C222.751172,183.572266 221.7375,184.363281 221.7375,185.412109 Z" id="To:-Customer-focus-p" fill="#000000"></path>
            <path d="M325.5,200.5 L47.5,200.5" id="Line" stroke="#D1D1D1" stroke-linecap="square"></path>
            <g id="Send" transform="translate(285.000000, 185.000000)">
                <circle id="Oval-5" fill="#339499" cx="15" cy="15" r="15"></circle>
                <g id="up_2" transform="translate(7.000000, 11.000000)" fill-rule="nonzero" fill="#FFFFFF">
                    <path d="M15.8126804,5.99230402 L8.31238037,0.107207315 C8.12587912,-0.0391844659 7.86587739,-0.0325637322 7.6873762,0.108188164 C7.68137616,0.112356774 0.187576201,5.99230402 0.187576201,5.99230402 C-0.0279252359,6.16125534 -0.0629254693,6.4699777 0.109575681,6.68159597 C0.208326339,6.80273088 0.353577307,6.86575046 0.500328286,6.86575046 C0.609829016,6.86575046 0.720079751,6.83043988 0.812330366,6.75834744 L7.99987828,1.1184631 L15.1874262,6.75834744 C15.2796768,6.83068509 15.3901776,6.86575046 15.4994283,6.86575046 C15.6464293,6.86575046 15.7916802,6.80273088 15.8901809,6.68159597 C16.063182,6.4699777 16.0279318,6.16125534 15.8126804,5.99230402 Z" id="Shape"></path>
                </g>
            </g>
        </g>
    </g>
</svg>