<svg width="1443" height="626" viewBox="0 0 1443 626" fill="none" xmlns="http://www.w3.org/2000/svg">
<rect x="168" y="44" width="163" height="221" fill="#C4C4C4"/>
<line x1="168" y1="80.5" x2="331" y2="80.5" stroke="black"/>
<rect x="371" y="44" width="213" height="221" fill="#C4C4C4"/>
<line x1="371" y1="80.5" x2="584" y2="80.5" stroke="black"/>
<rect x="761" y="44" width="324" height="221" fill="#C4C4C4"/>
<line x1="761" y1="80.5" x2="1085" y2="80.5" stroke="black"/>
<rect x="624" y="44" width="97" height="221" fill="#C4C4C4"/>
<line x1="624" y1="80.5" x2="721" y2="80.5" stroke="black"/>
<rect x="166" y="363" width="163" height="221" fill="#C4C4C4" fill-opacity="0.6"/>
<line x1="166" y1="399.5" x2="329" y2="399.5" stroke="black"/>
<rect x="369" y="363" width="213" height="221" fill="#C4C4C4" fill-opacity="0.6"/>
<line x1="369" y1="399.5" x2="582" y2="399.5" stroke="black"/>
<rect x="759" y="363" width="324" height="221" fill="#C4C4C4" fill-opacity="0.6"/>
<line x1="759" y1="399.5" x2="1083" y2="399.5" stroke="black"/>
<rect x="622" y="363" width="97" height="221" fill="#C4C4C4" fill-opacity="0.6"/>
<line x1="622" y1="399.5" x2="719" y2="399.5" stroke="black"/>
<rect x="130.5" y="216.5" width="1005" height="44" stroke="#EB2323" stroke-width="5" stroke-dasharray="15 15"/>
<rect x="130.5" y="172.5" width="1005" height="44" stroke="#EB2323" stroke-width="5" stroke-dasharray="15 15"/>
<rect x="130.5" y="128.5" width="1005" height="44" stroke="#EB2323" stroke-width="5" stroke-dasharray="15 15"/>
<rect x="130.5" y="84.5" width="1005" height="44" stroke="#EB2323" stroke-width="5" stroke-dasharray="15 15"/>
<rect x="130.5" y="402.5" width="1005" height="44" stroke="#EB2323" stroke-opacity="0.4" stroke-width="5" stroke-dasharray="15 15"/>
<path d="M186.552 64.6602H181.19L179.986 68H178.246L183.133 55.2031H184.609L189.505 68H187.773L186.552 64.6602ZM181.7 63.2715H186.051L183.871 57.2861L181.7 63.2715Z" fill="black"/>
<path d="M380.485 68V55.2031H384.669C386.058 55.2031 387.101 55.4902 387.798 56.0645C388.501 56.6387 388.853 57.4883 388.853 58.6133C388.853 59.2109 388.683 59.7412 388.343 60.2041C388.003 60.6611 387.54 61.0156 386.954 61.2676C387.646 61.4609 388.19 61.8301 388.589 62.375C388.993 62.9141 389.195 63.5586 389.195 64.3086C389.195 65.457 388.823 66.3594 388.079 67.0156C387.335 67.6719 386.283 68 384.924 68H380.485ZM382.173 62.0146V66.6201H384.959C385.744 66.6201 386.362 66.418 386.813 66.0137C387.271 65.6035 387.499 65.041 387.499 64.3262C387.499 62.7852 386.661 62.0146 384.985 62.0146H382.173ZM382.173 60.6611H384.722C385.46 60.6611 386.049 60.4766 386.488 60.1074C386.934 59.7383 387.156 59.2373 387.156 58.6045C387.156 57.9014 386.951 57.3916 386.541 57.0752C386.131 56.7529 385.507 56.5918 384.669 56.5918H382.173V60.6611Z" fill="black"/>
<path d="M643.898 63.9395C643.74 65.293 643.239 66.3389 642.396 67.0771C641.558 67.8096 640.441 68.1758 639.047 68.1758C637.535 68.1758 636.322 67.6338 635.408 66.5498C634.5 65.4658 634.046 64.0156 634.046 62.1992V60.9688C634.046 59.7793 634.257 58.7334 634.679 57.8311C635.106 56.9287 635.71 56.2373 636.489 55.7568C637.269 55.2705 638.171 55.0273 639.196 55.0273C640.556 55.0273 641.646 55.4082 642.466 56.1699C643.286 56.9258 643.764 57.9746 643.898 59.3164H642.202C642.056 58.2969 641.736 57.5586 641.244 57.1016C640.758 56.6445 640.075 56.416 639.196 56.416C638.118 56.416 637.271 56.8145 636.656 57.6113C636.047 58.4082 635.742 59.542 635.742 61.0127V62.252C635.742 63.6406 636.032 64.7451 636.612 65.5654C637.192 66.3857 638.004 66.7959 639.047 66.7959C639.984 66.7959 640.702 66.585 641.2 66.1631C641.704 65.7354 642.038 64.9941 642.202 63.9395H643.898Z" fill="black"/>
<path d="M771.485 68V55.2031H775.098C776.211 55.2031 777.195 55.4492 778.051 55.9414C778.906 56.4336 779.565 57.1338 780.028 58.042C780.497 58.9502 780.734 59.9932 780.74 61.1709V61.9883C780.74 63.1953 780.506 64.2529 780.037 65.1611C779.574 66.0693 778.909 66.7666 778.042 67.2529C777.181 67.7393 776.176 67.9883 775.027 68H771.485ZM773.173 56.5918V66.6201H774.948C776.249 66.6201 777.26 66.2158 777.98 65.4072C778.707 64.5986 779.07 63.4473 779.07 61.9531V61.2061C779.07 59.7529 778.728 58.625 778.042 57.8223C777.362 57.0137 776.396 56.6035 775.142 56.5918H773.173Z" fill="black"/>
<path d="M186.552 383.66H181.19L179.986 387H178.246L183.133 374.203H184.609L189.505 387H187.773L186.552 383.66ZM181.7 382.271H186.051L183.871 376.286L181.7 382.271Z" fill="black"/>
<path d="M380.485 387V374.203H384.669C386.058 374.203 387.101 374.49 387.798 375.064C388.501 375.639 388.853 376.488 388.853 377.613C388.853 378.211 388.683 378.741 388.343 379.204C388.003 379.661 387.54 380.016 386.954 380.268C387.646 380.461 388.19 380.83 388.589 381.375C388.993 381.914 389.195 382.559 389.195 383.309C389.195 384.457 388.823 385.359 388.079 386.016C387.335 386.672 386.283 387 384.924 387H380.485ZM382.173 381.015V385.62H384.959C385.744 385.62 386.362 385.418 386.813 385.014C387.271 384.604 387.499 384.041 387.499 383.326C387.499 381.785 386.661 381.015 384.985 381.015H382.173ZM382.173 379.661H384.722C385.46 379.661 386.049 379.477 386.488 379.107C386.934 378.738 387.156 378.237 387.156 377.604C387.156 376.901 386.951 376.392 386.541 376.075C386.131 375.753 385.507 375.592 384.669 375.592H382.173V379.661Z" fill="black"/>
<path d="M643.898 382.939C643.74 384.293 643.239 385.339 642.396 386.077C641.558 386.81 640.441 387.176 639.047 387.176C637.535 387.176 636.322 386.634 635.408 385.55C634.5 384.466 634.046 383.016 634.046 381.199V379.969C634.046 378.779 634.257 377.733 634.679 376.831C635.106 375.929 635.71 375.237 636.489 374.757C637.269 374.271 638.171 374.027 639.196 374.027C640.556 374.027 641.646 374.408 642.466 375.17C643.286 375.926 643.764 376.975 643.898 378.316H642.202C642.056 377.297 641.736 376.559 641.244 376.102C640.758 375.645 640.075 375.416 639.196 375.416C638.118 375.416 637.271 375.814 636.656 376.611C636.047 377.408 635.742 378.542 635.742 380.013V381.252C635.742 382.641 636.032 383.745 636.612 384.565C637.192 385.386 638.004 385.796 639.047 385.796C639.984 385.796 640.702 385.585 641.2 385.163C641.704 384.735 642.038 383.994 642.202 382.939H643.898Z" fill="black"/>
<path d="M771.485 387V374.203H775.098C776.211 374.203 777.195 374.449 778.051 374.941C778.906 375.434 779.565 376.134 780.028 377.042C780.497 377.95 780.734 378.993 780.74 380.171V380.988C780.74 382.195 780.506 383.253 780.037 384.161C779.574 385.069 778.909 385.767 778.042 386.253C777.181 386.739 776.176 386.988 775.027 387H771.485ZM773.173 375.592V385.62H774.948C776.249 385.62 777.26 385.216 777.98 384.407C778.707 383.599 779.07 382.447 779.07 380.953V380.206C779.07 378.753 778.728 377.625 778.042 376.822C777.362 376.014 776.396 375.604 775.142 375.592H773.173Z" fill="black"/>
<path d="M25.0078 67.3945C23.0781 66.8398 21.6719 66.1602 20.7891 65.3555C19.9141 64.543 19.4766 63.543 19.4766 62.3555C19.4766 61.0117 20.0117 59.9023 21.082 59.0273C22.1602 58.1445 23.5586 57.7031 25.2773 57.7031C26.4492 57.7031 27.4922 57.9297 28.4062 58.3828C29.3281 58.8359 30.0391 59.4609 30.5391 60.2578C31.0469 61.0547 31.3008 61.9258 31.3008 62.8711H29.0391C29.0391 61.8398 28.7109 61.0312 28.0547 60.4453C27.3984 59.8516 26.4727 59.5547 25.2773 59.5547C24.168 59.5547 23.3008 59.8008 22.6758 60.293C22.0586 60.7773 21.75 61.4531 21.75 62.3203C21.75 63.0156 22.043 63.6055 22.6289 64.0898C23.2227 64.5664 24.2266 65.0039 25.6406 65.4023C27.0625 65.8008 28.1719 66.2422 28.9688 66.7266C29.7734 67.2031 30.3672 67.7617 30.75 68.4023C31.1406 69.043 31.3359 69.7969 31.3359 70.6641C31.3359 72.0469 30.7969 73.1562 29.7188 73.9922C28.6406 74.8203 27.1992 75.2344 25.3945 75.2344C24.2227 75.2344 23.1289 75.0117 22.1133 74.5664C21.0977 74.1133 20.3125 73.4961 19.7578 72.7148C19.2109 71.9336 18.9375 71.0469 18.9375 70.0547H21.1992C21.1992 71.0859 21.5781 71.9023 22.3359 72.5039C23.1016 73.0977 24.1211 73.3945 25.3945 73.3945C26.582 73.3945 27.4922 73.1523 28.125 72.668C28.7578 72.1836 29.0742 71.5234 29.0742 70.6875C29.0742 69.8516 28.7812 69.207 28.1953 68.7539C27.6094 68.293 26.5469 67.8398 25.0078 67.3945Z" fill="black" fill-opacity="0.6"/>
<path d="M33.3164 68.543C33.3164 67.3008 33.5586 66.1836 34.043 65.1914C34.5352 64.1992 35.2148 63.4336 36.082 62.8945C36.957 62.3555 37.9531 62.0859 39.0703 62.0859C40.7969 62.0859 42.1914 62.6836 43.2539 63.8789C44.3242 65.0742 44.8594 66.6641 44.8594 68.6484V68.8008C44.8594 70.0352 44.6211 71.1445 44.1445 72.1289C43.6758 73.1055 43 73.8672 42.1172 74.4141C41.2422 74.9609 40.2344 75.2344 39.0938 75.2344C37.375 75.2344 35.9805 74.6367 34.9102 73.4414C33.8477 72.2461 33.3164 70.6641 33.3164 68.6953V68.543ZM35.4961 68.8008C35.4961 70.207 35.8203 71.3359 36.4688 72.1875C37.125 73.0391 38 73.4648 39.0938 73.4648C40.1953 73.4648 41.0703 73.0352 41.7188 72.1758C42.3672 71.3086 42.6914 70.0977 42.6914 68.543C42.6914 67.1523 42.3594 66.0273 41.6953 65.168C41.0391 64.3008 40.1641 63.8672 39.0703 63.8672C38 63.8672 37.1367 64.293 36.4805 65.1445C35.8242 65.9961 35.4961 67.2148 35.4961 68.8008Z" fill="black" fill-opacity="0.6"/>
<path d="M55.4062 73.7461C54.5625 74.7383 53.3242 75.2344 51.6914 75.2344C50.3398 75.2344 49.3086 74.8438 48.5977 74.0625C47.8945 73.2734 47.5391 72.1094 47.5312 70.5703V62.3203H49.6992V70.5117C49.6992 72.4336 50.4805 73.3945 52.043 73.3945C53.6992 73.3945 54.8008 72.7773 55.3477 71.543V62.3203H57.5156V75H55.4531L55.4062 73.7461Z" fill="black" fill-opacity="0.6"/>
<path d="M66.9492 64.2656C66.6211 64.2109 66.2656 64.1836 65.8828 64.1836C64.4609 64.1836 63.4961 64.7891 62.9883 66V75H60.8203V62.3203H62.9297L62.9648 63.7852C63.6758 62.6523 64.6836 62.0859 65.9883 62.0859C66.4102 62.0859 66.7305 62.1406 66.9492 62.25V64.2656Z" fill="black" fill-opacity="0.6"/>
<path d="M73.8047 73.4648C74.5781 73.4648 75.2539 73.2305 75.832 72.7617C76.4102 72.293 76.7305 71.707 76.793 71.0039H78.8438C78.8047 71.7305 78.5547 72.4219 78.0938 73.0781C77.6328 73.7344 77.0156 74.2578 76.2422 74.6484C75.4766 75.0391 74.6641 75.2344 73.8047 75.2344C72.0781 75.2344 70.7031 74.6602 69.6797 73.5117C68.6641 72.3555 68.1562 70.7773 68.1562 68.7773V68.4141C68.1562 67.1797 68.3828 66.082 68.8359 65.1211C69.2891 64.1602 69.9375 63.4141 70.7812 62.8828C71.6328 62.3516 72.6367 62.0859 73.793 62.0859C75.2148 62.0859 76.3945 62.5117 77.332 63.3633C78.2773 64.2148 78.7812 65.3203 78.8438 66.6797H76.793C76.7305 65.8594 76.418 65.1875 75.8555 64.6641C75.3008 64.1328 74.6133 63.8672 73.793 63.8672C72.6914 63.8672 71.8359 64.2656 71.2266 65.0625C70.625 65.8516 70.3242 66.9961 70.3242 68.4961V68.9062C70.3242 70.3672 70.625 71.4922 71.2266 72.2812C71.8281 73.0703 72.6875 73.4648 73.8047 73.4648Z" fill="black" fill-opacity="0.6"/>
<path d="M86.543 75.2344C84.8242 75.2344 83.4258 74.6719 82.3477 73.5469C81.2695 72.4141 80.7305 70.9023 80.7305 69.0117V68.6133C80.7305 67.3555 80.9688 66.2344 81.4453 65.25C81.9297 64.2578 82.6016 63.4844 83.4609 62.9297C84.3281 62.3672 85.2656 62.0859 86.2734 62.0859C87.9219 62.0859 89.2031 62.6289 90.1172 63.7148C91.0312 64.8008 91.4883 66.3555 91.4883 68.3789V69.2812H82.8984C82.9297 70.5312 83.293 71.543 83.9883 72.3164C84.6914 73.082 85.582 73.4648 86.6602 73.4648C87.4258 73.4648 88.0742 73.3086 88.6055 72.9961C89.1367 72.6836 89.6016 72.2695 90 71.7539L91.3242 72.7852C90.2617 74.418 88.668 75.2344 86.543 75.2344ZM86.2734 63.8672C85.3984 63.8672 84.6641 64.1875 84.0703 64.8281C83.4766 65.4609 83.1094 66.3516 82.9688 67.5H89.3203V67.3359C89.2578 66.2344 88.9609 65.3828 88.4297 64.7812C87.8984 64.1719 87.1797 63.8672 86.2734 63.8672Z" fill="black" fill-opacity="0.6"/>
<path d="M31.7695 378.789H26.2852V394H24.0469V378.789H18.5742V376.938H31.7695V378.789Z" fill="black" fill-opacity="0.6"/>
<path d="M40.4531 394C40.3281 393.75 40.2266 393.305 40.1484 392.664C39.1406 393.711 37.9375 394.234 36.5391 394.234C35.2891 394.234 34.2617 393.883 33.457 393.18C32.6602 392.469 32.2617 391.57 32.2617 390.484C32.2617 389.164 32.7617 388.141 33.7617 387.414C34.7695 386.68 36.1836 386.312 38.0039 386.312H40.1133V385.316C40.1133 384.559 39.8867 383.957 39.4336 383.512C38.9805 383.059 38.3125 382.832 37.4297 382.832C36.6562 382.832 36.0078 383.027 35.4844 383.418C34.9609 383.809 34.6992 384.281 34.6992 384.836H32.5195C32.5195 384.203 32.7422 383.594 33.1875 383.008C33.6406 382.414 34.25 381.945 35.0156 381.602C35.7891 381.258 36.6367 381.086 37.5586 381.086C39.0195 381.086 40.1641 381.453 40.9922 382.188C41.8203 382.914 42.25 383.918 42.2812 385.199V391.035C42.2812 392.199 42.4297 393.125 42.7266 393.812V394H40.4531ZM36.8555 392.348C37.5352 392.348 38.1797 392.172 38.7891 391.82C39.3984 391.469 39.8398 391.012 40.1133 390.449V387.848H38.4141C35.7578 387.848 34.4297 388.625 34.4297 390.18C34.4297 390.859 34.6562 391.391 35.1094 391.773C35.5625 392.156 36.1445 392.348 36.8555 392.348Z" fill="black" fill-opacity="0.6"/>
<path d="M51.8086 383.266C51.4805 383.211 51.125 383.184 50.7422 383.184C49.3203 383.184 48.3555 383.789 47.8477 385V394H45.6797V381.32H47.7891L47.8242 382.785C48.5352 381.652 49.543 381.086 50.8477 381.086C51.2695 381.086 51.5898 381.141 51.8086 381.25V383.266Z" fill="black" fill-opacity="0.6"/>
<path d="M53.0625 387.555C53.0625 385.578 53.5195 384.008 54.4336 382.844C55.3477 381.672 56.5586 381.086 58.0664 381.086C59.6133 381.086 60.8203 381.633 61.6875 382.727L61.793 381.32H63.7734V393.695C63.7734 395.336 63.2852 396.629 62.3086 397.574C61.3398 398.52 60.0352 398.992 58.3945 398.992C57.4805 398.992 56.5859 398.797 55.7109 398.406C54.8359 398.016 54.168 397.48 53.707 396.801L54.832 395.5C55.7617 396.648 56.8984 397.223 58.2422 397.223C59.2969 397.223 60.1172 396.926 60.7031 396.332C61.2969 395.738 61.5938 394.902 61.5938 393.824V392.734C60.7266 393.734 59.543 394.234 58.043 394.234C56.5586 394.234 55.3555 393.637 54.4336 392.441C53.5195 391.246 53.0625 389.617 53.0625 387.555ZM55.2422 387.801C55.2422 389.23 55.5352 390.355 56.1211 391.176C56.707 391.988 57.5273 392.395 58.582 392.395C59.9492 392.395 60.9531 391.773 61.5938 390.531V384.742C60.9297 383.531 59.9336 382.926 58.6055 382.926C57.5508 382.926 56.7266 383.336 56.1328 384.156C55.5391 384.977 55.2422 386.191 55.2422 387.801Z" fill="black" fill-opacity="0.6"/>
<path d="M72.3164 394.234C70.5977 394.234 69.1992 393.672 68.1211 392.547C67.043 391.414 66.5039 389.902 66.5039 388.012V387.613C66.5039 386.355 66.7422 385.234 67.2188 384.25C67.7031 383.258 68.375 382.484 69.2344 381.93C70.1016 381.367 71.0391 381.086 72.0469 381.086C73.6953 381.086 74.9766 381.629 75.8906 382.715C76.8047 383.801 77.2617 385.355 77.2617 387.379V388.281H68.6719C68.7031 389.531 69.0664 390.543 69.7617 391.316C70.4648 392.082 71.3555 392.465 72.4336 392.465C73.1992 392.465 73.8477 392.309 74.3789 391.996C74.9102 391.684 75.375 391.27 75.7734 390.754L77.0977 391.785C76.0352 393.418 74.4414 394.234 72.3164 394.234ZM72.0469 382.867C71.1719 382.867 70.4375 383.188 69.8438 383.828C69.25 384.461 68.8828 385.352 68.7422 386.5H75.0938V386.336C75.0312 385.234 74.7344 384.383 74.2031 383.781C73.6719 383.172 72.9531 382.867 72.0469 382.867Z" fill="black" fill-opacity="0.6"/>
<path d="M82.7227 378.25V381.32H85.0898V382.996H82.7227V390.859C82.7227 391.367 82.8281 391.75 83.0391 392.008C83.25 392.258 83.6094 392.383 84.1172 392.383C84.3672 392.383 84.7109 392.336 85.1484 392.242V394C84.5781 394.156 84.0234 394.234 83.4844 394.234C82.5156 394.234 81.7852 393.941 81.293 393.355C80.8008 392.77 80.5547 391.938 80.5547 390.859V382.996H78.2461V381.32H80.5547V378.25H82.7227Z" fill="black" fill-opacity="0.6"/>
<path d="M248.293 338.707C248.683 339.098 249.317 339.098 249.707 338.707L256.071 332.343C256.462 331.953 256.462 331.319 256.071 330.929C255.681 330.538 255.047 330.538 254.657 330.929L249 336.586L243.343 330.929C242.953 330.538 242.319 330.538 241.929 330.929C241.538 331.319 241.538 331.953 241.929 332.343L248.293 338.707ZM248 290V338H250V290H248Z" fill="black"/>
<path d="M478.293 338.707C478.683 339.098 479.317 339.098 479.707 338.707L486.071 332.343C486.462 331.953 486.462 331.319 486.071 330.929C485.681 330.538 485.047 330.538 484.657 330.929L479 336.586L473.343 330.929C472.953 330.538 472.319 330.538 471.929 330.929C471.538 331.319 471.538 331.953 471.929 332.343L478.293 338.707ZM478 290V338H480V290H478Z" fill="black"/>
<path d="M668.293 338.707C668.683 339.098 669.317 339.098 669.707 338.707L676.071 332.343C676.462 331.953 676.462 331.319 676.071 330.929C675.681 330.538 675.047 330.538 674.657 330.929L669 336.586L663.343 330.929C662.953 330.538 662.319 330.538 661.929 330.929C661.538 331.319 661.538 331.953 661.929 332.343L668.293 338.707ZM668 290V338H670V290H668Z" fill="black"/>
<path d="M918.293 338.707C918.683 339.098 919.317 339.098 919.707 338.707L926.071 332.343C926.462 331.953 926.462 331.319 926.071 330.929C925.681 330.538 925.047 330.538 924.657 330.929L919 336.586L913.343 330.929C912.953 330.538 912.319 330.538 911.929 330.929C911.538 331.319 911.538 331.953 911.929 332.343L918.293 338.707ZM918 290V338H920V290H918Z" fill="black"/>
<path d="M1186.1 292.031H1181.49L1179.94 295H1178.37L1184.55 283.625H1185.84L1188.09 295H1186.64L1186.1 292.031ZM1182.14 290.797H1185.88L1184.94 285.492L1182.14 290.797Z" fill="black"/>
<path d="M1190.98 295H1189.57L1191.65 283H1193.06L1190.98 295Z" fill="black"/>
<path d="M1197.02 284.5L1196.66 286.547H1198.2L1198.01 287.664H1196.48L1195.59 292.922C1195.58 293.057 1195.58 293.182 1195.59 293.297C1195.62 293.703 1195.84 293.906 1196.25 293.906C1196.42 293.906 1196.65 293.88 1196.94 293.828L1196.83 295.008C1196.49 295.102 1196.15 295.148 1195.8 295.148C1195.23 295.138 1194.81 294.932 1194.53 294.531C1194.25 294.125 1194.14 293.581 1194.2 292.898L1195.06 287.664H1193.57L1193.77 286.547H1195.26L1195.62 284.5H1197.02Z" fill="black"/>
<path d="M1202.1 295.156C1201.05 295.135 1200.23 294.747 1199.63 293.992C1199.04 293.237 1198.79 292.271 1198.88 291.094L1198.92 290.758C1199.01 289.919 1199.26 289.154 1199.66 288.461C1200.08 287.768 1200.58 287.247 1201.16 286.898C1201.75 286.544 1202.39 286.375 1203.07 286.391C1203.94 286.411 1204.62 286.701 1205.12 287.258C1205.61 287.815 1205.88 288.57 1205.93 289.523C1205.95 289.862 1205.93 290.201 1205.9 290.539L1205.81 291.188H1200.29C1200.2 291.953 1200.32 292.604 1200.66 293.141C1201.01 293.677 1201.53 293.956 1202.22 293.977C1203.05 293.997 1203.82 293.622 1204.53 292.852L1205.34 293.539C1204.99 294.049 1204.53 294.451 1203.97 294.742C1203.41 295.029 1202.79 295.167 1202.1 295.156ZM1203 287.57C1202.42 287.555 1201.91 287.753 1201.47 288.164C1201.04 288.576 1200.69 289.188 1200.44 290L1204.55 290.008L1204.58 289.883C1204.66 289.227 1204.55 288.682 1204.26 288.25C1203.97 287.812 1203.55 287.586 1203 287.57Z" fill="black"/>
<path d="M1212 287.836L1211.34 287.766C1210.43 287.766 1209.72 288.174 1209.2 288.992L1208.16 295H1206.74L1208.21 286.547L1209.58 286.539L1209.37 287.523C1209.97 286.737 1210.67 286.354 1211.48 286.375C1211.66 286.375 1211.88 286.414 1212.16 286.492L1212 287.836Z" fill="black"/>
<path d="M1219.73 284.5L1219.37 286.547H1220.91L1220.71 287.664H1219.18L1218.3 292.922C1218.28 293.057 1218.28 293.182 1218.29 293.297C1218.33 293.703 1218.55 293.906 1218.95 293.906C1219.12 293.906 1219.35 293.88 1219.64 293.828L1219.53 295.008C1219.19 295.102 1218.85 295.148 1218.5 295.148C1217.94 295.138 1217.52 294.932 1217.23 294.531C1216.95 294.125 1216.84 293.581 1216.91 292.898L1217.77 287.664H1216.27L1216.47 286.547H1217.96L1218.32 284.5H1219.73Z" fill="black"/>
<path d="M1226.32 295C1226.28 294.849 1226.27 294.701 1226.27 294.555L1226.29 294.109C1225.51 294.828 1224.69 295.177 1223.82 295.156C1223.08 295.146 1222.47 294.911 1222 294.453C1221.54 293.99 1221.33 293.411 1221.37 292.719C1221.42 291.823 1221.81 291.125 1222.54 290.625C1223.27 290.12 1224.24 289.867 1225.43 289.867L1226.91 289.875L1227 289.203C1227.05 288.698 1226.95 288.299 1226.7 288.008C1226.46 287.711 1226.09 287.557 1225.59 287.547C1225.11 287.536 1224.68 287.656 1224.3 287.906C1223.93 288.151 1223.71 288.477 1223.62 288.883L1222.2 288.891C1222.25 288.396 1222.44 287.958 1222.78 287.578C1223.12 287.193 1223.55 286.896 1224.09 286.688C1224.62 286.474 1225.17 286.372 1225.73 286.383C1226.61 286.404 1227.3 286.672 1227.79 287.188C1228.28 287.698 1228.48 288.378 1228.41 289.227L1227.72 293.414L1227.68 294.016C1227.67 294.302 1227.7 294.586 1227.77 294.867L1227.76 295H1226.32ZM1224.1 293.906C1224.55 293.917 1224.98 293.81 1225.38 293.586C1225.79 293.357 1226.14 293.042 1226.43 292.641L1226.73 290.898L1225.66 290.891C1224.77 290.891 1224.09 291.031 1223.62 291.312C1223.14 291.594 1222.88 291.992 1222.81 292.508C1222.77 292.904 1222.86 293.234 1223.09 293.5C1223.32 293.76 1223.66 293.896 1224.1 293.906Z" fill="black"/>
<path d="M1237.35 290.812C1237.25 291.677 1237.01 292.456 1236.64 293.148C1236.27 293.841 1235.82 294.354 1235.3 294.688C1234.77 295.021 1234.19 295.18 1233.55 295.164C1232.53 295.143 1231.77 294.76 1231.27 294.016L1230.98 295H1229.68L1231.77 283H1233.18L1232.33 287.484C1233.01 286.734 1233.83 286.37 1234.8 286.391C1235.61 286.411 1236.24 286.711 1236.7 287.289C1237.15 287.867 1237.39 288.664 1237.41 289.68C1237.42 290.013 1237.4 290.336 1237.37 290.648L1237.35 290.812ZM1236.01 289.992C1236.02 289.232 1235.9 288.651 1235.62 288.25C1235.35 287.844 1234.94 287.63 1234.38 287.609C1233.5 287.589 1232.76 288.031 1232.15 288.938L1231.52 292.617C1231.83 293.477 1232.41 293.917 1233.27 293.938C1233.83 293.958 1234.31 293.794 1234.72 293.445C1235.14 293.096 1235.45 292.609 1235.66 291.984C1235.88 291.354 1235.99 290.69 1236.01 289.992Z" fill="black"/>
<path d="M1240.01 295H1238.6L1240.68 283H1242.09L1240.01 295Z" fill="black"/>
<path d="M1245.98 295.156C1244.92 295.135 1244.1 294.747 1243.51 293.992C1242.91 293.237 1242.66 292.271 1242.76 291.094L1242.8 290.758C1242.89 289.919 1243.13 289.154 1243.54 288.461C1243.95 287.768 1244.45 287.247 1245.04 286.898C1245.63 286.544 1246.26 286.375 1246.95 286.391C1247.82 286.411 1248.5 286.701 1248.99 287.258C1249.49 287.815 1249.76 288.57 1249.8 289.523C1249.82 289.862 1249.81 290.201 1249.77 290.539L1249.69 291.188H1244.16C1244.07 291.953 1244.2 292.604 1244.54 293.141C1244.89 293.677 1245.41 293.956 1246.09 293.977C1246.93 293.997 1247.7 293.622 1248.41 292.852L1249.22 293.539C1248.86 294.049 1248.41 294.451 1247.84 294.742C1247.29 295.029 1246.66 295.167 1245.98 295.156ZM1246.88 287.57C1246.29 287.555 1245.78 287.753 1245.34 288.164C1244.91 288.576 1244.57 289.188 1244.31 290L1248.42 290.008L1248.45 289.883C1248.54 289.227 1248.43 288.682 1248.13 288.25C1247.84 287.812 1247.42 287.586 1246.88 287.57Z" fill="black"/>
<path d="M1257.55 282.852L1258.34 283.43C1257.75 284.159 1257.39 284.872 1257.25 285.57L1257.06 286.617H1255.66L1255.8 285.742C1255.98 284.586 1256.57 283.622 1257.55 282.852Z" fill="black"/>
<path d="M1262.34 292.711C1262.41 292.128 1262.09 291.716 1261.38 291.477L1259.91 291.047C1258.67 290.62 1258.07 289.911 1258.11 288.922C1258.15 288.177 1258.48 287.568 1259.12 287.094C1259.77 286.615 1260.53 286.38 1261.4 286.391C1262.25 286.401 1262.95 286.651 1263.48 287.141C1264.01 287.625 1264.27 288.258 1264.25 289.039L1262.84 289.031C1262.85 288.609 1262.72 288.266 1262.45 288C1262.17 287.734 1261.8 287.596 1261.34 287.586C1260.85 287.576 1260.43 287.695 1260.08 287.945C1259.75 288.18 1259.56 288.487 1259.51 288.867C1259.44 289.357 1259.74 289.714 1260.41 289.938L1261.12 290.133C1262.09 290.383 1262.77 290.708 1263.18 291.109C1263.59 291.51 1263.77 292.008 1263.74 292.602C1263.71 293.128 1263.54 293.586 1263.23 293.977C1262.91 294.367 1262.5 294.667 1261.98 294.875C1261.46 295.078 1260.9 295.172 1260.31 295.156C1259.42 295.146 1258.68 294.885 1258.09 294.375C1257.51 293.859 1257.23 293.198 1257.25 292.391L1258.66 292.398C1258.66 292.872 1258.82 293.253 1259.12 293.539C1259.42 293.826 1259.83 293.969 1260.36 293.969C1260.88 293.979 1261.32 293.872 1261.7 293.648C1262.07 293.419 1262.28 293.107 1262.34 292.711Z" fill="black"/>
<path d="M1269.88 286.391C1270.58 286.401 1271.19 286.594 1271.7 286.969C1272.2 287.344 1272.57 287.862 1272.81 288.523C1273.06 289.18 1273.14 289.898 1273.06 290.68L1273.05 290.852C1272.95 291.674 1272.7 292.419 1272.31 293.086C1271.92 293.747 1271.42 294.263 1270.8 294.633C1270.18 295.003 1269.5 295.177 1268.76 295.156C1268.05 295.146 1267.45 294.953 1266.94 294.578C1266.43 294.203 1266.06 293.693 1265.83 293.047C1265.59 292.401 1265.51 291.69 1265.58 290.914C1265.66 290.039 1265.89 289.253 1266.29 288.555C1266.68 287.857 1267.19 287.318 1267.81 286.938C1268.44 286.552 1269.12 286.37 1269.88 286.391ZM1267 290.922C1266.96 291.25 1266.96 291.591 1267 291.945C1267.05 292.56 1267.23 293.049 1267.55 293.414C1267.86 293.779 1268.29 293.969 1268.81 293.984C1269.28 294 1269.71 293.885 1270.11 293.641C1270.51 293.391 1270.84 293.016 1271.11 292.516C1271.38 292.016 1271.55 291.461 1271.63 290.852C1271.67 290.372 1271.68 289.969 1271.66 289.641C1271.59 289.01 1271.4 288.513 1271.09 288.148C1270.77 287.784 1270.35 287.591 1269.82 287.57C1269.09 287.555 1268.47 287.841 1267.96 288.43C1267.45 289.018 1267.14 289.789 1267.02 290.742L1267 290.922Z" fill="black"/>
<path d="M1279.48 294.164C1278.82 294.846 1277.98 295.177 1276.96 295.156C1276.15 295.135 1275.55 294.846 1275.16 294.289C1274.78 293.732 1274.64 292.971 1274.73 292.008L1275.64 286.547H1277.05L1276.14 292.031C1276.11 292.26 1276.11 292.484 1276.12 292.703C1276.15 293.078 1276.26 293.372 1276.46 293.586C1276.66 293.799 1276.93 293.914 1277.29 293.93C1278.3 293.961 1279.08 293.552 1279.63 292.703L1280.7 286.547H1282.11L1280.64 295H1279.3L1279.48 294.164Z" fill="black"/>
<path d="M1288.02 287.836L1287.35 287.766C1286.45 287.766 1285.73 288.174 1285.21 288.992L1284.17 295H1282.76L1284.23 286.547L1285.59 286.539L1285.38 287.523C1285.98 286.737 1286.69 286.354 1287.5 286.375C1287.67 286.375 1287.9 286.414 1288.17 286.492L1288.02 287.836Z" fill="black"/>
<path d="M1291.5 293.984C1292.01 293.995 1292.46 293.849 1292.87 293.547C1293.27 293.24 1293.54 292.839 1293.66 292.344L1295 292.336C1294.92 292.867 1294.71 293.352 1294.36 293.789C1294.02 294.227 1293.58 294.568 1293.05 294.812C1292.53 295.057 1291.99 295.172 1291.44 295.156C1290.73 295.146 1290.14 294.964 1289.65 294.609C1289.16 294.25 1288.81 293.753 1288.58 293.117C1288.35 292.477 1288.27 291.758 1288.34 290.961L1288.38 290.57C1288.48 289.758 1288.72 289.031 1289.09 288.391C1289.47 287.75 1289.96 287.253 1290.56 286.898C1291.17 286.539 1291.83 286.37 1292.56 286.391C1293.45 286.411 1294.16 286.708 1294.69 287.281C1295.22 287.854 1295.48 288.581 1295.48 289.461L1294.16 289.453C1294.15 288.901 1294 288.456 1293.7 288.117C1293.41 287.773 1293.01 287.591 1292.5 287.57C1291.77 287.555 1291.15 287.828 1290.66 288.391C1290.18 288.953 1289.88 289.74 1289.76 290.75L1289.73 290.953C1289.7 291.286 1289.7 291.63 1289.72 291.984C1289.76 292.594 1289.93 293.076 1290.23 293.43C1290.54 293.784 1290.96 293.969 1291.5 293.984Z" fill="black"/>
<path d="M1299.79 295.156C1298.74 295.135 1297.91 294.747 1297.32 293.992C1296.73 293.237 1296.48 292.271 1296.57 291.094L1296.61 290.758C1296.7 289.919 1296.95 289.154 1297.35 288.461C1297.76 287.768 1298.26 287.247 1298.85 286.898C1299.44 286.544 1300.08 286.375 1300.76 286.391C1301.63 286.411 1302.31 286.701 1302.8 287.258C1303.3 287.815 1303.57 288.57 1303.62 289.523C1303.63 289.862 1303.62 290.201 1303.59 290.539L1303.5 291.188H1297.98C1297.88 291.953 1298.01 292.604 1298.35 293.141C1298.7 293.677 1299.22 293.956 1299.91 293.977C1300.74 293.997 1301.51 293.622 1302.22 292.852L1303.03 293.539C1302.68 294.049 1302.22 294.451 1301.66 294.742C1301.1 295.029 1300.48 295.167 1299.79 295.156ZM1300.69 287.57C1300.1 287.555 1299.59 287.753 1299.16 288.164C1298.72 288.576 1298.38 289.188 1298.12 290L1302.23 290.008L1302.27 289.883C1302.35 289.227 1302.24 288.682 1301.95 288.25C1301.65 287.812 1301.23 287.586 1300.69 287.57Z" fill="black"/>
<path d="M1305.41 286.828L1304.63 286.25C1305.25 285.484 1305.62 284.742 1305.74 284.023L1305.92 283H1307.31L1307.16 283.945C1306.98 285.117 1306.39 286.078 1305.41 286.828Z" fill="black"/>
<path d="M1184.48 311.711C1184.55 311.128 1184.23 310.716 1183.52 310.477L1182.05 310.047C1180.81 309.62 1180.21 308.911 1180.25 307.922C1180.29 307.177 1180.62 306.568 1181.27 306.094C1181.91 305.615 1182.67 305.38 1183.54 305.391C1184.39 305.401 1185.09 305.651 1185.62 306.141C1186.15 306.625 1186.41 307.258 1186.39 308.039L1184.98 308.031C1184.99 307.609 1184.86 307.266 1184.59 307C1184.31 306.734 1183.94 306.596 1183.48 306.586C1182.99 306.576 1182.57 306.695 1182.22 306.945C1181.89 307.18 1181.7 307.487 1181.65 307.867C1181.58 308.357 1181.88 308.714 1182.55 308.938L1183.26 309.133C1184.23 309.383 1184.91 309.708 1185.32 310.109C1185.73 310.51 1185.91 311.008 1185.88 311.602C1185.85 312.128 1185.68 312.586 1185.37 312.977C1185.05 313.367 1184.64 313.667 1184.12 313.875C1183.6 314.078 1183.04 314.172 1182.45 314.156C1181.56 314.146 1180.82 313.885 1180.23 313.375C1179.65 312.859 1179.37 312.198 1179.39 311.391L1180.8 311.398C1180.8 311.872 1180.96 312.253 1181.26 312.539C1181.56 312.826 1181.97 312.969 1182.5 312.969C1183.02 312.979 1183.46 312.872 1183.84 312.648C1184.21 312.419 1184.42 312.107 1184.48 311.711Z" fill="black"/>
<path d="M1194.91 312L1197.6 305.547H1199.06L1195.21 314H1194.06L1193.19 307.609L1190.14 314H1188.99L1188.08 305.547H1189.43L1189.95 311.844L1192.95 305.547H1194.09L1194.91 312Z" fill="black"/>
<path d="M1200.6 314H1199.2L1200.66 305.547H1202.07L1200.6 314ZM1201.77 302.461C1202.01 302.451 1202.2 302.523 1202.36 302.68C1202.52 302.831 1202.6 303.031 1202.6 303.281C1202.6 303.526 1202.52 303.727 1202.36 303.883C1202.21 304.039 1202.01 304.122 1201.77 304.133C1201.52 304.143 1201.32 304.073 1201.16 303.922C1201.01 303.771 1200.93 303.573 1200.94 303.328C1200.94 303.083 1201.02 302.88 1201.17 302.719C1201.32 302.557 1201.52 302.471 1201.77 302.461Z" fill="black"/>
<path d="M1206.65 303.5L1206.29 305.547H1207.83L1207.63 306.664H1206.1L1205.22 311.922C1205.2 312.057 1205.2 312.182 1205.21 312.297C1205.25 312.703 1205.47 312.906 1205.88 312.906C1206.05 312.906 1206.28 312.88 1206.56 312.828L1206.45 314.008C1206.11 314.102 1205.77 314.148 1205.42 314.148C1204.86 314.138 1204.44 313.932 1204.16 313.531C1203.88 313.125 1203.77 312.581 1203.83 311.898L1204.69 306.664H1203.2L1203.39 305.547H1204.88L1205.24 303.5H1206.65Z" fill="black"/>
<path d="M1211.64 312.984C1212.15 312.995 1212.6 312.849 1213.01 312.547C1213.41 312.24 1213.68 311.839 1213.8 311.344L1215.14 311.336C1215.06 311.867 1214.85 312.352 1214.5 312.789C1214.16 313.227 1213.72 313.568 1213.2 313.812C1212.67 314.057 1212.13 314.172 1211.58 314.156C1210.88 314.146 1210.28 313.964 1209.79 313.609C1209.3 313.25 1208.95 312.753 1208.72 312.117C1208.49 311.477 1208.41 310.758 1208.48 309.961L1208.52 309.57C1208.62 308.758 1208.86 308.031 1209.23 307.391C1209.61 306.75 1210.1 306.253 1210.7 305.898C1211.31 305.539 1211.97 305.37 1212.7 305.391C1213.59 305.411 1214.3 305.708 1214.83 306.281C1215.36 306.854 1215.62 307.581 1215.62 308.461L1214.3 308.453C1214.29 307.901 1214.14 307.456 1213.84 307.117C1213.55 306.773 1213.15 306.591 1212.64 306.57C1211.91 306.555 1211.29 306.828 1210.8 307.391C1210.32 307.953 1210.02 308.74 1209.9 309.75L1209.88 309.953C1209.84 310.286 1209.84 310.63 1209.86 310.984C1209.9 311.594 1210.07 312.076 1210.38 312.43C1210.68 312.784 1211.1 312.969 1211.64 312.984Z" fill="black"/>
<path d="M1218.91 306.578C1219.65 305.771 1220.51 305.378 1221.47 305.398C1222.26 305.409 1222.85 305.682 1223.23 306.219C1223.61 306.75 1223.76 307.497 1223.66 308.461L1222.73 314H1221.32L1222.25 308.438C1222.28 308.182 1222.28 307.945 1222.26 307.727C1222.17 306.997 1221.74 306.625 1220.97 306.609C1220.1 306.589 1219.36 307.042 1218.73 307.969L1217.69 314H1216.27L1218.36 302H1219.77L1218.91 306.578Z" fill="black"/>
<path d="M1236.48 309.812C1236.37 310.672 1236.14 311.445 1235.78 312.133C1235.42 312.82 1234.98 313.336 1234.45 313.68C1233.91 314.018 1233.33 314.18 1232.68 314.164C1231.7 314.143 1230.95 313.812 1230.43 313.172L1229.67 317.25H1228.26L1230.29 305.547L1231.57 305.539L1231.41 306.484C1232.11 305.734 1232.95 305.37 1233.92 305.391C1234.73 305.411 1235.37 305.711 1235.82 306.289C1236.27 306.867 1236.51 307.664 1236.54 308.68C1236.54 309.013 1236.53 309.336 1236.5 309.648L1236.48 309.812ZM1235.09 309.648L1235.12 308.992C1235.12 308.232 1234.98 307.651 1234.69 307.25C1234.4 306.844 1233.98 306.63 1233.44 306.609C1232.62 306.589 1231.91 306.977 1231.32 307.773L1230.61 311.828C1230.93 312.578 1231.5 312.964 1232.32 312.984C1233.02 313 1233.62 312.727 1234.11 312.164C1234.6 311.596 1234.93 310.758 1235.09 309.648Z" fill="black"/>
<path d="M1242.79 314C1242.75 313.849 1242.73 313.701 1242.73 313.555L1242.76 313.109C1241.98 313.828 1241.16 314.177 1240.29 314.156C1239.54 314.146 1238.94 313.911 1238.47 313.453C1238.01 312.99 1237.79 312.411 1237.84 311.719C1237.89 310.823 1238.28 310.125 1239.01 309.625C1239.74 309.12 1240.71 308.867 1241.9 308.867L1243.38 308.875L1243.47 308.203C1243.52 307.698 1243.42 307.299 1243.17 307.008C1242.93 306.711 1242.56 306.557 1242.06 306.547C1241.58 306.536 1241.15 306.656 1240.77 306.906C1240.4 307.151 1240.18 307.477 1240.09 307.883L1238.67 307.891C1238.72 307.396 1238.91 306.958 1239.25 306.578C1239.59 306.193 1240.02 305.896 1240.55 305.688C1241.09 305.474 1241.64 305.372 1242.2 305.383C1243.08 305.404 1243.77 305.672 1244.26 306.188C1244.75 306.698 1244.95 307.378 1244.88 308.227L1244.19 312.414L1244.15 313.016C1244.14 313.302 1244.17 313.586 1244.24 313.867L1244.23 314H1242.79ZM1240.57 312.906C1241.02 312.917 1241.45 312.81 1241.85 312.586C1242.26 312.357 1242.61 312.042 1242.9 311.641L1243.2 309.898L1242.13 309.891C1241.24 309.891 1240.56 310.031 1240.09 310.312C1239.61 310.594 1239.34 310.992 1239.28 311.508C1239.23 311.904 1239.33 312.234 1239.55 312.5C1239.79 312.76 1240.13 312.896 1240.57 312.906Z" fill="black"/>
<path d="M1251.41 306.836L1250.74 306.766C1249.84 306.766 1249.12 307.174 1248.6 307.992L1247.56 314H1246.15L1247.62 305.547L1248.98 305.539L1248.77 306.523C1249.37 305.737 1250.08 305.354 1250.89 305.375C1251.06 305.375 1251.29 305.414 1251.56 305.492L1251.41 306.836Z" fill="black"/>
<path d="M1255.6 303.5L1255.24 305.547H1256.78L1256.59 306.664H1255.05L1254.17 311.922C1254.16 312.057 1254.15 312.182 1254.16 312.297C1254.2 312.703 1254.42 312.906 1254.83 312.906C1255 312.906 1255.23 312.88 1255.52 312.828L1255.41 314.008C1255.07 314.102 1254.72 314.148 1254.38 314.148C1253.81 314.138 1253.39 313.932 1253.11 313.531C1252.83 313.125 1252.72 312.581 1252.78 311.898L1253.64 306.664H1252.15L1252.34 305.547H1253.84L1254.2 303.5H1255.6Z" fill="black"/>
<path d="M1258.55 314H1257.15L1258.62 305.547H1260.02L1258.55 314ZM1259.72 302.461C1259.96 302.451 1260.16 302.523 1260.31 302.68C1260.47 302.831 1260.55 303.031 1260.55 303.281C1260.55 303.526 1260.47 303.727 1260.31 303.883C1260.16 304.039 1259.96 304.122 1259.72 304.133C1259.47 304.143 1259.27 304.073 1259.12 303.922C1258.96 303.771 1258.89 303.573 1258.89 303.328C1258.9 303.083 1258.97 302.88 1259.12 302.719C1259.28 302.557 1259.47 302.471 1259.72 302.461Z" fill="black"/>
<path d="M1264.6 303.5L1264.24 305.547H1265.78L1265.59 306.664H1264.05L1263.17 311.922C1263.16 312.057 1263.15 312.182 1263.16 312.297C1263.2 312.703 1263.42 312.906 1263.83 312.906C1264 312.906 1264.23 312.88 1264.52 312.828L1264.41 314.008C1264.07 314.102 1263.72 314.148 1263.38 314.148C1262.81 314.138 1262.39 313.932 1262.11 313.531C1261.83 313.125 1261.72 312.581 1261.78 311.898L1262.64 306.664H1261.15L1261.34 305.547H1262.84L1263.2 303.5H1264.6Z" fill="black"/>
<path d="M1267.55 314H1266.15L1267.62 305.547H1269.02L1267.55 314ZM1268.72 302.461C1268.96 302.451 1269.16 302.523 1269.31 302.68C1269.47 302.831 1269.55 303.031 1269.55 303.281C1269.55 303.526 1269.47 303.727 1269.31 303.883C1269.16 304.039 1268.96 304.122 1268.72 304.133C1268.47 304.143 1268.27 304.073 1268.12 303.922C1267.96 303.771 1267.89 303.573 1267.89 303.328C1267.9 303.083 1267.97 302.88 1268.12 302.719C1268.28 302.557 1268.47 302.471 1268.72 302.461Z" fill="black"/>
<path d="M1274.56 305.391C1275.27 305.401 1275.88 305.594 1276.38 305.969C1276.89 306.344 1277.26 306.862 1277.5 307.523C1277.74 308.18 1277.83 308.898 1277.75 309.68L1277.73 309.852C1277.64 310.674 1277.39 311.419 1277 312.086C1276.61 312.747 1276.1 313.263 1275.48 313.633C1274.86 314.003 1274.18 314.177 1273.45 314.156C1272.74 314.146 1272.14 313.953 1271.62 313.578C1271.12 313.203 1270.75 312.693 1270.52 312.047C1270.28 311.401 1270.2 310.69 1270.27 309.914C1270.34 309.039 1270.58 308.253 1270.98 307.555C1271.37 306.857 1271.88 306.318 1272.5 305.938C1273.12 305.552 1273.81 305.37 1274.56 305.391ZM1271.69 309.922C1271.65 310.25 1271.65 310.591 1271.69 310.945C1271.74 311.56 1271.92 312.049 1272.23 312.414C1272.55 312.779 1272.97 312.969 1273.5 312.984C1273.97 313 1274.4 312.885 1274.8 312.641C1275.19 312.391 1275.53 312.016 1275.8 311.516C1276.07 311.016 1276.24 310.461 1276.32 309.852C1276.36 309.372 1276.37 308.969 1276.34 308.641C1276.28 308.01 1276.09 307.513 1275.77 307.148C1275.46 306.784 1275.03 306.591 1274.51 306.57C1273.78 306.555 1273.16 306.841 1272.65 307.43C1272.14 308.018 1271.82 308.789 1271.7 309.742L1271.69 309.922Z" fill="black"/>
<path d="M1281.61 305.539L1281.41 306.609C1282.17 305.776 1283.03 305.37 1284 305.391C1284.8 305.411 1285.39 305.688 1285.77 306.219C1286.15 306.75 1286.29 307.497 1286.19 308.461L1285.27 314H1283.85L1284.78 308.438C1284.81 308.182 1284.82 307.945 1284.79 307.727C1284.7 306.997 1284.27 306.625 1283.5 306.609C1282.65 306.594 1281.91 307.047 1281.27 307.969L1280.22 314H1278.8L1280.27 305.547L1281.61 305.539Z" fill="black"/>
<path d="M1293.18 309L1297.59 310.977L1297.34 312.438L1291.63 309.477L1291.84 308.336L1298.56 305.383L1298.28 306.984L1293.18 309Z" fill="black"/>
<path d="M1301.12 314H1299.66L1301.64 302.625H1303.1L1301.12 314Z" fill="black"/>
<path d="M1303.85 314L1305.83 302.625L1308.78 302.633C1309.71 302.633 1310.51 302.865 1311.17 303.328C1311.84 303.792 1312.33 304.432 1312.62 305.25C1312.91 306.062 1312.99 306.974 1312.88 307.984L1312.8 308.555C1312.57 310.211 1311.92 311.534 1310.87 312.523C1309.81 313.508 1308.48 314 1306.88 314H1303.85ZM1307.08 303.859L1305.53 312.773L1306.98 312.781C1308.08 312.781 1309.02 312.438 1309.78 311.75C1310.55 311.062 1311.05 310.12 1311.28 308.922C1311.46 307.964 1311.53 307.148 1311.47 306.477C1311.39 305.669 1311.12 305.039 1310.66 304.586C1310.21 304.128 1309.59 303.888 1308.82 303.867L1307.08 303.859Z" fill="black"/>
<path d="M1319.76 308.891L1315.09 306.867L1315.34 305.445L1321.31 308.406L1321.11 309.539L1314.11 312.508L1314.39 310.938L1319.76 308.891Z" fill="black"/>
<path d="M1182.98 322.5L1182.62 324.547H1184.16L1183.96 325.664H1182.43L1181.55 330.922C1181.53 331.057 1181.53 331.182 1181.54 331.297C1181.58 331.703 1181.8 331.906 1182.2 331.906C1182.38 331.906 1182.6 331.88 1182.89 331.828L1182.78 333.008C1182.44 333.102 1182.1 333.148 1181.75 333.148C1181.19 333.138 1180.77 332.932 1180.48 332.531C1180.2 332.125 1180.09 331.581 1180.16 330.898L1181.02 325.664H1179.52L1179.72 324.547H1181.21L1181.57 322.5H1182.98Z" fill="black"/>
<path d="M1188.94 324.391C1189.65 324.401 1190.25 324.594 1190.76 324.969C1191.26 325.344 1191.64 325.862 1191.88 326.523C1192.12 327.18 1192.2 327.898 1192.12 328.68L1192.11 328.852C1192.01 329.674 1191.77 330.419 1191.38 331.086C1190.98 331.747 1190.48 332.263 1189.86 332.633C1189.24 333.003 1188.56 333.177 1187.82 333.156C1187.12 333.146 1186.51 332.953 1186 332.578C1185.49 332.203 1185.12 331.693 1184.89 331.047C1184.66 330.401 1184.57 329.69 1184.64 328.914C1184.72 328.039 1184.96 327.253 1185.35 326.555C1185.75 325.857 1186.26 325.318 1186.88 324.938C1187.5 324.552 1188.19 324.37 1188.94 324.391ZM1186.06 328.922C1186.03 329.25 1186.03 329.591 1186.06 329.945C1186.11 330.56 1186.3 331.049 1186.61 331.414C1186.93 331.779 1187.35 331.969 1187.88 331.984C1188.34 332 1188.78 331.885 1189.17 331.641C1189.57 331.391 1189.9 331.016 1190.17 330.516C1190.44 330.016 1190.62 329.461 1190.7 328.852C1190.74 328.372 1190.74 327.969 1190.72 327.641C1190.66 327.01 1190.47 326.513 1190.15 326.148C1189.83 325.784 1189.41 325.591 1188.88 325.57C1188.15 325.555 1187.53 325.841 1187.02 326.43C1186.51 327.018 1186.2 327.789 1186.08 328.742L1186.06 328.922Z" fill="black"/>
<path d="M1200.84 322.5L1200.48 324.547H1202.02L1201.82 325.664H1200.29L1199.41 330.922C1199.39 331.057 1199.39 331.182 1199.4 331.297C1199.43 331.703 1199.66 331.906 1200.06 331.906C1200.23 331.906 1200.46 331.88 1200.75 331.828L1200.64 333.008C1200.3 333.102 1199.96 333.148 1199.61 333.148C1199.05 333.138 1198.62 332.932 1198.34 332.531C1198.06 332.125 1197.95 331.581 1198.02 330.898L1198.88 325.664H1197.38L1197.58 324.547H1199.07L1199.43 322.5H1200.84Z" fill="black"/>
<path d="M1207.43 333C1207.39 332.849 1207.38 332.701 1207.38 332.555L1207.4 332.109C1206.62 332.828 1205.8 333.177 1204.93 333.156C1204.18 333.146 1203.58 332.911 1203.11 332.453C1202.65 331.99 1202.43 331.411 1202.48 330.719C1202.53 329.823 1202.92 329.125 1203.65 328.625C1204.38 328.12 1205.35 327.867 1206.54 327.867L1208.02 327.875L1208.11 327.203C1208.16 326.698 1208.06 326.299 1207.81 326.008C1207.57 325.711 1207.2 325.557 1206.7 325.547C1206.22 325.536 1205.79 325.656 1205.41 325.906C1205.04 326.151 1204.82 326.477 1204.73 326.883L1203.31 326.891C1203.36 326.396 1203.55 325.958 1203.89 325.578C1204.23 325.193 1204.66 324.896 1205.2 324.688C1205.73 324.474 1206.28 324.372 1206.84 324.383C1207.72 324.404 1208.41 324.672 1208.9 325.188C1209.39 325.698 1209.59 326.378 1209.52 327.227L1208.83 331.414L1208.79 332.016C1208.78 332.302 1208.81 332.586 1208.88 332.867L1208.87 333H1207.43ZM1205.21 331.906C1205.66 331.917 1206.09 331.81 1206.49 331.586C1206.9 331.357 1207.25 331.042 1207.54 330.641L1207.84 328.898L1206.77 328.891C1205.88 328.891 1205.2 329.031 1204.73 329.312C1204.25 329.594 1203.98 329.992 1203.92 330.508C1203.88 330.904 1203.97 331.234 1204.2 331.5C1204.43 331.76 1204.77 331.896 1205.21 331.906Z" fill="black"/>
<path d="M1218.46 328.812C1218.36 329.677 1218.12 330.456 1217.75 331.148C1217.38 331.841 1216.93 332.354 1216.41 332.688C1215.88 333.021 1215.3 333.18 1214.66 333.164C1213.64 333.143 1212.88 332.76 1212.38 332.016L1212.09 333H1210.79L1212.88 321H1214.29L1213.44 325.484C1214.11 324.734 1214.94 324.37 1215.91 324.391C1216.72 324.411 1217.35 324.711 1217.8 325.289C1218.26 325.867 1218.5 326.664 1218.52 327.68C1218.53 328.013 1218.51 328.336 1218.48 328.648L1218.46 328.812ZM1217.12 327.992C1217.13 327.232 1217.01 326.651 1216.73 326.25C1216.46 325.844 1216.05 325.63 1215.49 325.609C1214.61 325.589 1213.87 326.031 1213.26 326.938L1212.62 330.617C1212.94 331.477 1213.52 331.917 1214.38 331.938C1214.93 331.958 1215.42 331.794 1215.83 331.445C1216.24 331.096 1216.56 330.609 1216.77 329.984C1216.99 329.354 1217.1 328.69 1217.12 327.992Z" fill="black"/>
<path d="M1221.12 333H1219.71L1221.79 321H1223.2L1221.12 333Z" fill="black"/>
<path d="M1227.09 333.156C1226.03 333.135 1225.21 332.747 1224.62 331.992C1224.02 331.237 1223.77 330.271 1223.87 329.094L1223.91 328.758C1223.99 327.919 1224.24 327.154 1224.65 326.461C1225.06 325.768 1225.56 325.247 1226.15 324.898C1226.74 324.544 1227.37 324.375 1228.05 324.391C1228.92 324.411 1229.61 324.701 1230.1 325.258C1230.6 325.815 1230.87 326.57 1230.91 327.523C1230.93 327.862 1230.92 328.201 1230.88 328.539L1230.8 329.188H1225.27C1225.18 329.953 1225.3 330.604 1225.65 331.141C1226 331.677 1226.52 331.956 1227.2 331.977C1228.04 331.997 1228.81 331.622 1229.52 330.852L1230.33 331.539C1229.97 332.049 1229.52 332.451 1228.95 332.742C1228.4 333.029 1227.77 333.167 1227.09 333.156ZM1227.98 325.57C1227.4 325.555 1226.89 325.753 1226.45 326.164C1226.02 326.576 1225.68 327.188 1225.42 328L1229.53 328.008L1229.56 327.883C1229.65 327.227 1229.54 326.682 1229.24 326.25C1228.95 325.812 1228.53 325.586 1227.98 325.57Z" fill="black"/>
<path d="M1238.66 320.852L1239.45 321.43C1238.86 322.159 1238.5 322.872 1238.36 323.57L1238.17 324.617H1236.77L1236.91 323.742C1237.09 322.586 1237.68 321.622 1238.66 320.852Z" fill="black"/>
<path d="M1242.57 322.5L1242.21 324.547H1243.75L1243.55 325.664H1242.02L1241.14 330.922C1241.12 331.057 1241.12 331.182 1241.13 331.297C1241.17 331.703 1241.39 331.906 1241.8 331.906C1241.97 331.906 1242.2 331.88 1242.48 331.828L1242.38 333.008C1242.04 333.102 1241.69 333.148 1241.34 333.148C1240.78 333.138 1240.36 332.932 1240.08 332.531C1239.8 332.125 1239.69 331.581 1239.75 330.898L1240.61 325.664H1239.12L1239.31 324.547H1240.8L1241.16 322.5H1242.57Z" fill="black"/>
<path d="M1249.16 333C1249.13 332.849 1249.11 332.701 1249.11 332.555L1249.13 332.109C1248.36 332.828 1247.53 333.177 1246.66 333.156C1245.92 333.146 1245.31 332.911 1244.84 332.453C1244.38 331.99 1244.17 331.411 1244.21 330.719C1244.26 329.823 1244.65 329.125 1245.38 328.625C1246.12 328.12 1247.08 327.867 1248.27 327.867L1249.75 327.875L1249.84 327.203C1249.9 326.698 1249.8 326.299 1249.55 326.008C1249.3 325.711 1248.93 325.557 1248.44 325.547C1247.95 325.536 1247.52 325.656 1247.15 325.906C1246.78 326.151 1246.55 326.477 1246.47 326.883L1245.05 326.891C1245.09 326.396 1245.29 325.958 1245.62 325.578C1245.96 325.193 1246.4 324.896 1246.93 324.688C1247.46 324.474 1248.01 324.372 1248.58 324.383C1249.46 324.404 1250.14 324.672 1250.63 325.188C1251.12 325.698 1251.33 326.378 1251.25 327.227L1250.56 331.414L1250.52 332.016C1250.51 332.302 1250.54 332.586 1250.62 332.867L1250.6 333H1249.16ZM1246.95 331.906C1247.4 331.917 1247.83 331.81 1248.23 331.586C1248.63 331.357 1248.98 331.042 1249.27 330.641L1249.58 328.898L1248.51 328.891C1247.62 328.891 1246.93 329.031 1246.46 329.312C1245.99 329.594 1245.72 329.992 1245.66 330.508C1245.61 330.904 1245.7 331.234 1245.93 331.5C1246.16 331.76 1246.5 331.896 1246.95 331.906Z" fill="black"/>
<path d="M1257.78 325.836L1257.12 325.766C1256.21 325.766 1255.5 326.174 1254.98 326.992L1253.94 333H1252.52L1253.99 324.547L1255.36 324.539L1255.15 325.523C1255.75 324.737 1256.45 324.354 1257.27 324.375C1257.44 324.375 1257.66 324.414 1257.94 324.492L1257.78 325.836Z" fill="black"/>
<path d="M1258.11 328.758C1258.23 327.836 1258.48 327.036 1258.85 326.359C1259.23 325.677 1259.68 325.174 1260.21 324.852C1260.75 324.523 1261.33 324.367 1261.97 324.383C1262.95 324.404 1263.69 324.773 1264.19 325.492L1264.47 324.547H1265.77L1264.36 332.82C1264.21 333.898 1263.77 334.76 1263.05 335.406C1262.32 336.057 1261.43 336.367 1260.37 336.336C1259.79 336.326 1259.24 336.19 1258.72 335.93C1258.2 335.669 1257.79 335.312 1257.48 334.859L1258.29 333.992C1258.8 334.747 1259.47 335.135 1260.31 335.156C1260.98 335.177 1261.55 334.99 1262.02 334.594C1262.48 334.198 1262.79 333.635 1262.95 332.906L1263.1 332.156C1262.41 332.844 1261.61 333.177 1260.69 333.156C1260.16 333.141 1259.7 333 1259.31 332.734C1258.93 332.464 1258.63 332.076 1258.41 331.57C1258.2 331.06 1258.08 330.492 1258.06 329.867C1258.05 329.56 1258.07 329.19 1258.11 328.758ZM1259.48 329.562C1259.46 330.307 1259.59 330.885 1259.86 331.297C1260.14 331.703 1260.55 331.917 1261.1 331.938C1261.95 331.958 1262.67 331.544 1263.28 330.695L1263.95 326.812C1263.63 326.042 1263.07 325.641 1262.25 325.609C1261.48 325.589 1260.85 325.901 1260.36 326.547C1259.87 327.193 1259.58 328.065 1259.49 329.164L1259.48 329.562Z" fill="black"/>
<path d="M1270.15 333.156C1269.1 333.135 1268.27 332.747 1267.68 331.992C1267.09 331.237 1266.84 330.271 1266.93 329.094L1266.97 328.758C1267.06 327.919 1267.3 327.154 1267.71 326.461C1268.12 325.768 1268.62 325.247 1269.21 324.898C1269.8 324.544 1270.43 324.375 1271.12 324.391C1271.99 324.411 1272.67 324.701 1273.16 325.258C1273.66 325.815 1273.93 326.57 1273.98 327.523C1273.99 327.862 1273.98 328.201 1273.95 328.539L1273.86 329.188H1268.34C1268.24 329.953 1268.37 330.604 1268.71 331.141C1269.06 331.677 1269.58 331.956 1270.27 331.977C1271.1 331.997 1271.87 331.622 1272.58 330.852L1273.39 331.539C1273.04 332.049 1272.58 332.451 1272.02 332.742C1271.46 333.029 1270.84 333.167 1270.15 333.156ZM1271.05 325.57C1270.46 325.555 1269.95 325.753 1269.52 326.164C1269.08 326.576 1268.74 327.188 1268.48 328L1272.59 328.008L1272.62 327.883C1272.71 327.227 1272.6 326.682 1272.3 326.25C1272.01 325.812 1271.59 325.586 1271.05 325.57Z" fill="black"/>
<path d="M1278.52 322.5L1278.16 324.547H1279.7L1279.51 325.664H1277.98L1277.09 330.922C1277.08 331.057 1277.08 331.182 1277.09 331.297C1277.12 331.703 1277.34 331.906 1277.75 331.906C1277.92 331.906 1278.15 331.88 1278.44 331.828L1278.33 333.008C1277.99 333.102 1277.65 333.148 1277.3 333.148C1276.73 333.138 1276.31 332.932 1276.03 332.531C1275.75 332.125 1275.64 331.581 1275.7 330.898L1276.56 325.664H1275.07L1275.27 324.547H1276.76L1277.12 322.5H1278.52Z" fill="black"/>
<path d="M1281.55 324.828L1280.77 324.25C1281.39 323.484 1281.76 322.742 1281.88 322.023L1282.06 321H1283.45L1283.3 321.945C1283.12 323.117 1282.53 324.078 1281.55 324.828Z" fill="black"/>
<path d="M1186.9 347.812C1186.79 348.672 1186.56 349.445 1186.2 350.133C1185.84 350.82 1185.4 351.336 1184.87 351.68C1184.34 352.018 1183.75 352.18 1183.1 352.164C1182.12 352.143 1181.37 351.812 1180.85 351.172L1180.09 355.25H1178.68L1180.71 343.547L1181.99 343.539L1181.84 344.484C1182.53 343.734 1183.37 343.37 1184.34 343.391C1185.16 343.411 1185.79 343.711 1186.24 344.289C1186.7 344.867 1186.93 345.664 1186.96 346.68C1186.97 347.013 1186.95 347.336 1186.92 347.648L1186.9 347.812ZM1185.51 347.648L1185.55 346.992C1185.55 346.232 1185.4 345.651 1185.11 345.25C1184.82 344.844 1184.41 344.63 1183.86 344.609C1183.04 344.589 1182.34 344.977 1181.74 345.773L1181.03 349.828C1181.35 350.578 1181.92 350.964 1182.74 350.984C1183.45 351 1184.04 350.727 1184.53 350.164C1185.03 349.596 1185.35 348.758 1185.51 347.648Z" fill="black"/>
<path d="M1193.21 352C1193.17 351.849 1193.16 351.701 1193.16 351.555L1193.18 351.109C1192.4 351.828 1191.58 352.177 1190.71 352.156C1189.97 352.146 1189.36 351.911 1188.89 351.453C1188.43 350.99 1188.22 350.411 1188.26 349.719C1188.31 348.823 1188.7 348.125 1189.43 347.625C1190.16 347.12 1191.13 346.867 1192.32 346.867L1193.8 346.875L1193.89 346.203C1193.94 345.698 1193.84 345.299 1193.59 345.008C1193.35 344.711 1192.98 344.557 1192.48 344.547C1192 344.536 1191.57 344.656 1191.2 344.906C1190.83 345.151 1190.6 345.477 1190.52 345.883L1189.09 345.891C1189.14 345.396 1189.33 344.958 1189.67 344.578C1190.01 344.193 1190.45 343.896 1190.98 343.688C1191.51 343.474 1192.06 343.372 1192.62 343.383C1193.51 343.404 1194.19 343.672 1194.68 344.188C1195.17 344.698 1195.38 345.378 1195.3 346.227L1194.61 350.414L1194.57 351.016C1194.56 351.302 1194.59 351.586 1194.66 351.867L1194.65 352H1193.21ZM1190.99 350.906C1191.45 350.917 1191.87 350.81 1192.27 350.586C1192.68 350.357 1193.03 350.042 1193.32 349.641L1193.62 347.898L1192.55 347.891C1191.66 347.891 1190.98 348.031 1190.51 348.312C1190.03 348.594 1189.77 348.992 1189.7 349.508C1189.66 349.904 1189.75 350.234 1189.98 350.5C1190.21 350.76 1190.55 350.896 1190.99 350.906Z" fill="black"/>
<path d="M1201.83 344.836L1201.16 344.766C1200.26 344.766 1199.54 345.174 1199.02 345.992L1197.98 352H1196.57L1198.04 343.547L1199.41 343.539L1199.2 344.523C1199.79 343.737 1200.5 343.354 1201.31 343.375C1201.48 343.375 1201.71 343.414 1201.98 343.492L1201.83 344.836Z" fill="black"/>
<path d="M1206.02 341.5L1205.66 343.547H1207.2L1207.01 344.664H1205.48L1204.59 349.922C1204.58 350.057 1204.58 350.182 1204.59 350.297C1204.62 350.703 1204.84 350.906 1205.25 350.906C1205.42 350.906 1205.65 350.88 1205.94 350.828L1205.83 352.008C1205.49 352.102 1205.15 352.148 1204.8 352.148C1204.23 352.138 1203.81 351.932 1203.53 351.531C1203.25 351.125 1203.14 350.581 1203.2 349.898L1204.06 344.664H1202.57L1202.77 343.547H1204.26L1204.62 341.5H1206.02Z" fill="black"/>
<path d="M1208.98 352H1207.57L1209.04 343.547H1210.45L1208.98 352ZM1210.14 340.461C1210.38 340.451 1210.58 340.523 1210.73 340.68C1210.9 340.831 1210.98 341.031 1210.98 341.281C1210.97 341.526 1210.89 341.727 1210.73 341.883C1210.58 342.039 1210.39 342.122 1210.14 342.133C1209.9 342.143 1209.7 342.073 1209.54 341.922C1209.38 341.771 1209.31 341.573 1209.31 341.328C1209.32 341.083 1209.4 340.88 1209.55 340.719C1209.7 340.557 1209.9 340.471 1210.14 340.461Z" fill="black"/>
<path d="M1215.02 341.5L1214.66 343.547H1216.2L1216.01 344.664H1214.48L1213.59 349.922C1213.58 350.057 1213.58 350.182 1213.59 350.297C1213.62 350.703 1213.84 350.906 1214.25 350.906C1214.42 350.906 1214.65 350.88 1214.94 350.828L1214.83 352.008C1214.49 352.102 1214.15 352.148 1213.8 352.148C1213.23 352.138 1212.81 351.932 1212.53 351.531C1212.25 351.125 1212.14 350.581 1212.2 349.898L1213.06 344.664H1211.57L1211.77 343.547H1213.26L1213.62 341.5H1215.02Z" fill="black"/>
<path d="M1217.98 352H1216.57L1218.04 343.547H1219.45L1217.98 352ZM1219.14 340.461C1219.38 340.451 1219.58 340.523 1219.73 340.68C1219.9 340.831 1219.98 341.031 1219.98 341.281C1219.97 341.526 1219.89 341.727 1219.73 341.883C1219.58 342.039 1219.39 342.122 1219.14 342.133C1218.9 342.143 1218.7 342.073 1218.54 341.922C1218.38 341.771 1218.31 341.573 1218.31 341.328C1218.32 341.083 1218.4 340.88 1218.55 340.719C1218.7 340.557 1218.9 340.471 1219.14 340.461Z" fill="black"/>
<path d="M1224.98 343.391C1225.69 343.401 1226.3 343.594 1226.8 343.969C1227.31 344.344 1227.68 344.862 1227.92 345.523C1228.17 346.18 1228.25 346.898 1228.17 347.68L1228.16 347.852C1228.06 348.674 1227.81 349.419 1227.42 350.086C1227.03 350.747 1226.53 351.263 1225.91 351.633C1225.29 352.003 1224.61 352.177 1223.87 352.156C1223.16 352.146 1222.56 351.953 1222.05 351.578C1221.54 351.203 1221.17 350.693 1220.94 350.047C1220.7 349.401 1220.62 348.69 1220.69 347.914C1220.77 347.039 1221 346.253 1221.4 345.555C1221.79 344.857 1222.3 344.318 1222.92 343.938C1223.55 343.552 1224.23 343.37 1224.98 343.391ZM1222.11 347.922C1222.07 348.25 1222.07 348.591 1222.11 348.945C1222.16 349.56 1222.34 350.049 1222.66 350.414C1222.97 350.779 1223.4 350.969 1223.92 350.984C1224.39 351 1224.82 350.885 1225.22 350.641C1225.61 350.391 1225.95 350.016 1226.22 349.516C1226.49 349.016 1226.66 348.461 1226.74 347.852C1226.78 347.372 1226.79 346.969 1226.77 346.641C1226.7 346.01 1226.51 345.513 1226.2 345.148C1225.88 344.784 1225.46 344.591 1224.93 344.57C1224.2 344.555 1223.58 344.841 1223.07 345.43C1222.56 346.018 1222.24 346.789 1222.12 347.742L1222.11 347.922Z" fill="black"/>
<path d="M1232.03 343.539L1231.83 344.609C1232.59 343.776 1233.45 343.37 1234.42 343.391C1235.22 343.411 1235.81 343.688 1236.19 344.219C1236.57 344.75 1236.71 345.497 1236.61 346.461L1235.69 352H1234.27L1235.2 346.438C1235.23 346.182 1235.24 345.945 1235.21 345.727C1235.12 344.997 1234.69 344.625 1233.92 344.609C1233.07 344.594 1232.33 345.047 1231.69 345.969L1230.64 352H1229.23L1230.7 343.547L1232.03 343.539Z" fill="black"/>
<path d="M1243.6 347L1248.02 348.977L1247.76 350.438L1242.05 347.477L1242.26 346.336L1248.98 343.383L1248.7 344.984L1243.6 347Z" fill="black"/>
<path d="M1251.55 352H1250.09L1252.06 340.625H1253.52L1251.55 352Z" fill="black"/>
<path d="M1254.27 352L1256.25 340.625L1259.2 340.633C1260.13 340.633 1260.93 340.865 1261.59 341.328C1262.27 341.792 1262.75 342.432 1263.04 343.25C1263.33 344.062 1263.42 344.974 1263.3 345.984L1263.22 346.555C1262.99 348.211 1262.35 349.534 1261.29 350.523C1260.23 351.508 1258.9 352 1257.3 352H1254.27ZM1257.5 341.859L1255.95 350.773L1257.4 350.781C1258.5 350.781 1259.44 350.438 1260.2 349.75C1260.97 349.062 1261.47 348.12 1261.7 346.922C1261.89 345.964 1261.95 345.148 1261.89 344.477C1261.81 343.669 1261.54 343.039 1261.09 342.586C1260.63 342.128 1260.01 341.888 1259.24 341.867L1257.5 341.859Z" fill="black"/>
<path d="M1270.18 346.891L1265.51 344.867L1265.77 343.445L1271.73 346.406L1271.53 347.539L1264.53 350.508L1264.81 348.938L1270.18 346.891Z" fill="black"/>
<path d="M1188.85 419.859H1185.31L1183.55 430H1182.09L1183.85 419.859H1180.31L1180.53 418.625H1189.07L1188.85 419.859Z" fill="black"/>
<path d="M1193.25 422.836L1192.59 422.766C1191.68 422.766 1190.97 423.174 1190.45 423.992L1189.41 430H1187.99L1189.46 421.547L1190.83 421.539L1190.62 422.523C1191.22 421.737 1191.92 421.354 1192.73 421.375C1192.91 421.375 1193.13 421.414 1193.41 421.492L1193.25 422.836Z" fill="black"/>
<path d="M1198.69 429.164C1198.03 429.846 1197.18 430.177 1196.16 430.156C1195.36 430.135 1194.76 429.846 1194.37 429.289C1193.98 428.732 1193.84 427.971 1193.94 427.008L1194.84 421.547H1196.26L1195.34 427.031C1195.32 427.26 1195.31 427.484 1195.33 427.703C1195.35 428.078 1195.47 428.372 1195.66 428.586C1195.86 428.799 1196.14 428.914 1196.49 428.93C1197.5 428.961 1198.28 428.552 1198.84 427.703L1199.9 421.547H1201.31L1199.84 430H1198.51L1198.69 429.164Z" fill="black"/>
<path d="M1204.77 421.539L1204.56 422.609C1205.32 421.776 1206.19 421.37 1207.16 421.391C1207.95 421.411 1208.54 421.688 1208.92 422.219C1209.3 422.75 1209.44 423.497 1209.34 424.461L1208.42 430H1207.01L1207.94 424.438C1207.97 424.182 1207.97 423.945 1207.95 423.727C1207.86 422.997 1207.43 422.625 1206.66 422.609C1205.81 422.594 1205.06 423.047 1204.42 423.969L1203.38 430H1201.96L1203.43 421.547L1204.77 421.539Z" fill="black"/>
<path d="M1214.17 428.984C1214.68 428.995 1215.13 428.849 1215.54 428.547C1215.95 428.24 1216.21 427.839 1216.34 427.344L1217.67 427.336C1217.59 427.867 1217.38 428.352 1217.03 428.789C1216.69 429.227 1216.25 429.568 1215.73 429.812C1215.2 430.057 1214.66 430.172 1214.11 430.156C1213.41 430.146 1212.81 429.964 1212.32 429.609C1211.84 429.25 1211.48 428.753 1211.25 428.117C1211.02 427.477 1210.94 426.758 1211.02 425.961L1211.05 425.57C1211.15 424.758 1211.39 424.031 1211.77 423.391C1212.14 422.75 1212.63 422.253 1213.23 421.898C1213.84 421.539 1214.51 421.37 1215.23 421.391C1216.12 421.411 1216.83 421.708 1217.36 422.281C1217.89 422.854 1218.16 423.581 1218.16 424.461L1216.84 424.453C1216.83 423.901 1216.67 423.456 1216.38 423.117C1216.08 422.773 1215.68 422.591 1215.17 422.57C1214.44 422.555 1213.83 422.828 1213.34 423.391C1212.85 423.953 1212.55 424.74 1212.43 425.75L1212.41 425.953C1212.38 426.286 1212.37 426.63 1212.39 426.984C1212.43 427.594 1212.6 428.076 1212.91 428.43C1213.21 428.784 1213.64 428.969 1214.17 428.984Z" fill="black"/>
<path d="M1223.98 430C1223.94 429.849 1223.92 429.701 1223.92 429.555L1223.95 429.109C1223.17 429.828 1222.35 430.177 1221.48 430.156C1220.73 430.146 1220.12 429.911 1219.66 429.453C1219.19 428.99 1218.98 428.411 1219.02 427.719C1219.08 426.823 1219.47 426.125 1220.2 425.625C1220.93 425.12 1221.89 424.867 1223.09 424.867L1224.56 424.875L1224.66 424.203C1224.71 423.698 1224.61 423.299 1224.36 423.008C1224.11 422.711 1223.74 422.557 1223.25 422.547C1222.77 422.536 1222.34 422.656 1221.96 422.906C1221.59 423.151 1221.36 423.477 1221.28 423.883L1219.86 423.891C1219.91 423.396 1220.1 422.958 1220.44 422.578C1220.78 422.193 1221.21 421.896 1221.74 421.688C1222.27 421.474 1222.82 421.372 1223.39 421.383C1224.27 421.404 1224.96 421.672 1225.45 422.188C1225.93 422.698 1226.14 423.378 1226.06 424.227L1225.38 428.414L1225.34 429.016C1225.33 429.302 1225.36 429.586 1225.43 429.867L1225.41 430H1223.98ZM1221.76 428.906C1222.21 428.917 1222.64 428.81 1223.04 428.586C1223.45 428.357 1223.79 428.042 1224.09 427.641L1224.39 425.898L1223.32 425.891C1222.43 425.891 1221.75 426.031 1221.27 426.312C1220.8 426.594 1220.53 426.992 1220.47 427.508C1220.42 427.904 1220.51 428.234 1220.74 428.5C1220.98 428.76 1221.32 428.896 1221.76 428.906Z" fill="black"/>
<path d="M1231.07 419.5L1230.71 421.547H1232.25L1232.05 422.664H1230.52L1229.64 427.922C1229.62 428.057 1229.62 428.182 1229.63 428.297C1229.67 428.703 1229.89 428.906 1230.3 428.906C1230.47 428.906 1230.7 428.88 1230.98 428.828L1230.88 430.008C1230.54 430.102 1230.19 430.148 1229.84 430.148C1229.28 430.138 1228.86 429.932 1228.58 429.531C1228.3 429.125 1228.19 428.581 1228.25 427.898L1229.11 422.664H1227.62L1227.81 421.547H1229.3L1229.66 419.5H1231.07Z" fill="black"/>
<path d="M1236.15 430.156C1235.1 430.135 1234.27 429.747 1233.68 428.992C1233.09 428.237 1232.84 427.271 1232.93 426.094L1232.97 425.758C1233.06 424.919 1233.3 424.154 1233.71 423.461C1234.12 422.768 1234.62 422.247 1235.21 421.898C1235.8 421.544 1236.43 421.375 1237.12 421.391C1237.99 421.411 1238.67 421.701 1239.16 422.258C1239.66 422.815 1239.93 423.57 1239.98 424.523C1239.99 424.862 1239.98 425.201 1239.95 425.539L1239.86 426.188H1234.34C1234.24 426.953 1234.37 427.604 1234.71 428.141C1235.06 428.677 1235.58 428.956 1236.27 428.977C1237.1 428.997 1237.87 428.622 1238.58 427.852L1239.39 428.539C1239.04 429.049 1238.58 429.451 1238.02 429.742C1237.46 430.029 1236.84 430.167 1236.15 430.156ZM1237.05 422.57C1236.46 422.555 1235.95 422.753 1235.52 423.164C1235.08 423.576 1234.74 424.188 1234.48 425L1238.59 425.008L1238.62 424.883C1238.71 424.227 1238.6 423.682 1238.3 423.25C1238.01 422.812 1237.59 422.586 1237.05 422.57Z" fill="black"/>
<path d="M1248.45 419.5L1248.09 421.547H1249.62L1249.43 422.664H1247.9L1247.02 427.922C1247 428.057 1247 428.182 1247.01 428.297C1247.04 428.703 1247.27 428.906 1247.67 428.906C1247.84 428.906 1248.07 428.88 1248.36 428.828L1248.25 430.008C1247.91 430.102 1247.57 430.148 1247.22 430.148C1246.66 430.138 1246.23 429.932 1245.95 429.531C1245.67 429.125 1245.56 428.581 1245.62 427.898L1246.48 422.664H1244.99L1245.19 421.547H1246.68L1247.04 419.5H1248.45Z" fill="black"/>
<path d="M1255.04 430C1255 429.849 1254.98 429.701 1254.98 429.555L1255.01 429.109C1254.23 429.828 1253.41 430.177 1252.54 430.156C1251.79 430.146 1251.19 429.911 1250.72 429.453C1250.26 428.99 1250.04 428.411 1250.09 427.719C1250.14 426.823 1250.53 426.125 1251.26 425.625C1251.99 425.12 1252.96 424.867 1254.15 424.867L1255.62 424.875L1255.72 424.203C1255.77 423.698 1255.67 423.299 1255.42 423.008C1255.18 422.711 1254.81 422.557 1254.31 422.547C1253.83 422.536 1253.4 422.656 1253.02 422.906C1252.65 423.151 1252.43 423.477 1252.34 423.883L1250.92 423.891C1250.97 423.396 1251.16 422.958 1251.5 422.578C1251.84 422.193 1252.27 421.896 1252.8 421.688C1253.34 421.474 1253.89 421.372 1254.45 421.383C1255.33 421.404 1256.02 421.672 1256.51 422.188C1257 422.698 1257.2 423.378 1257.12 424.227L1256.44 428.414L1256.4 429.016C1256.39 429.302 1256.42 429.586 1256.49 429.867L1256.48 430H1255.04ZM1252.82 428.906C1253.27 428.917 1253.7 428.81 1254.1 428.586C1254.51 428.357 1254.86 428.042 1255.15 427.641L1255.45 425.898L1254.38 425.891C1253.49 425.891 1252.81 426.031 1252.34 426.312C1251.86 426.594 1251.59 426.992 1251.53 427.508C1251.48 427.904 1251.58 428.234 1251.8 428.5C1252.04 428.76 1252.38 428.896 1252.82 428.906Z" fill="black"/>
<path d="M1266.07 425.812C1265.97 426.677 1265.73 427.456 1265.36 428.148C1264.99 428.841 1264.54 429.354 1264.02 429.688C1263.49 430.021 1262.91 430.18 1262.27 430.164C1261.24 430.143 1260.49 429.76 1259.99 429.016L1259.7 430H1258.4L1260.48 418H1261.9L1261.05 422.484C1261.72 421.734 1262.55 421.37 1263.52 421.391C1264.33 421.411 1264.96 421.711 1265.41 422.289C1265.87 422.867 1266.11 423.664 1266.13 424.68C1266.14 425.013 1266.12 425.336 1266.09 425.648L1266.07 425.812ZM1264.73 424.992C1264.74 424.232 1264.61 423.651 1264.34 423.25C1264.07 422.844 1263.66 422.63 1263.1 422.609C1262.22 422.589 1261.48 423.031 1260.87 423.938L1260.23 427.617C1260.55 428.477 1261.13 428.917 1261.99 428.938C1262.54 428.958 1263.03 428.794 1263.44 428.445C1263.85 428.096 1264.17 427.609 1264.38 426.984C1264.6 426.354 1264.71 425.69 1264.73 424.992Z" fill="black"/>
<path d="M1268.73 430H1267.32L1269.4 418H1270.81L1268.73 430Z" fill="black"/>
<path d="M1274.7 430.156C1273.64 430.135 1272.82 429.747 1272.23 428.992C1271.63 428.237 1271.38 427.271 1271.48 426.094L1271.52 425.758C1271.6 424.919 1271.85 424.154 1272.26 423.461C1272.67 422.768 1273.17 422.247 1273.76 421.898C1274.35 421.544 1274.98 421.375 1275.66 421.391C1276.53 421.411 1277.22 421.701 1277.71 422.258C1278.21 422.815 1278.48 423.57 1278.52 424.523C1278.54 424.862 1278.53 425.201 1278.49 425.539L1278.41 426.188H1272.88C1272.79 426.953 1272.91 427.604 1273.26 428.141C1273.61 428.677 1274.12 428.956 1274.81 428.977C1275.65 428.997 1276.42 428.622 1277.12 427.852L1277.94 428.539C1277.58 429.049 1277.12 429.451 1276.56 429.742C1276.01 430.029 1275.38 430.167 1274.7 430.156ZM1275.59 422.57C1275.01 422.555 1274.5 422.753 1274.06 423.164C1273.63 423.576 1273.29 424.188 1273.03 425L1277.14 425.008L1277.17 424.883C1277.26 424.227 1277.15 423.682 1276.85 423.25C1276.56 422.812 1276.14 422.586 1275.59 422.57Z" fill="black"/>
<path d="M1111.72 112H1110.3L1111.97 102.406L1108.95 103.469L1109.19 102.094L1113.41 100.57H1113.66L1111.72 112Z" fill="black"/>
<path d="M1114.42 156H1107.18L1107.35 154.898L1111.55 150.82L1112.31 150.063C1113.19 149.182 1113.68 148.37 1113.77 147.625C1113.84 147.052 1113.73 146.586 1113.44 146.227C1113.15 145.862 1112.73 145.669 1112.2 145.648C1111.52 145.628 1110.95 145.828 1110.49 146.25C1110.03 146.667 1109.76 147.24 1109.66 147.969L1108.26 147.977C1108.33 147.279 1108.54 146.661 1108.9 146.125C1109.26 145.583 1109.74 145.169 1110.33 144.883C1110.92 144.591 1111.57 144.453 1112.26 144.469C1113.2 144.49 1113.95 144.776 1114.5 145.328C1115.06 145.875 1115.3 146.586 1115.22 147.461C1115.13 148.461 1114.55 149.513 1113.49 150.617L1112.77 151.344L1109.12 154.82H1114.61L1114.42 156Z" fill="black"/>
<path d="M1110.25 193.609L1111.19 193.617C1111.88 193.617 1112.45 193.437 1112.92 193.078C1113.4 192.714 1113.67 192.221 1113.73 191.602C1113.8 190.997 1113.69 190.523 1113.4 190.18C1113.11 189.831 1112.68 189.651 1112.13 189.641C1111.53 189.63 1111.03 189.805 1110.61 190.164C1110.2 190.518 1109.95 190.997 1109.85 191.602L1108.45 191.609C1108.54 190.672 1108.94 189.911 1109.65 189.328C1110.36 188.74 1111.21 188.451 1112.2 188.461C1113.15 188.482 1113.9 188.781 1114.44 189.359C1114.98 189.932 1115.22 190.69 1115.15 191.633C1115.1 192.169 1114.9 192.659 1114.53 193.102C1114.17 193.544 1113.66 193.911 1113.02 194.203C1113.53 194.411 1113.92 194.742 1114.17 195.195C1114.43 195.643 1114.53 196.169 1114.49 196.773C1114.41 197.799 1114 198.625 1113.27 199.25C1112.54 199.875 1111.65 200.177 1110.6 200.156C1109.63 200.135 1108.85 199.833 1108.27 199.25C1107.7 198.667 1107.43 197.914 1107.47 196.992L1108.88 197C1108.85 197.583 1108.99 198.055 1109.3 198.414C1109.62 198.768 1110.07 198.956 1110.66 198.977C1111.33 198.997 1111.89 198.807 1112.33 198.406C1112.77 198.005 1113.02 197.469 1113.09 196.797C1113.14 196.177 1113 195.695 1112.66 195.352C1112.33 195.003 1111.82 194.818 1111.15 194.797L1110.06 194.789L1110.25 193.609Z" fill="black"/>
<path d="M1113.7 240.18H1115.23L1115.02 241.359H1113.49L1113.03 244H1111.61L1112.07 241.359H1107.04L1107.2 240.43L1113.45 232.625H1115L1113.7 240.18ZM1108.9 240.18H1112.27L1113.29 234.586L1113.06 234.914L1108.9 240.18Z" fill="black"/>
<path d="M1113.7 426.18H1115.23L1115.02 427.359H1113.49L1113.03 430H1111.61L1112.07 427.359H1107.04L1107.2 426.43L1113.45 418.625H1115L1113.7 426.18ZM1108.9 426.18H1112.27L1113.29 420.586L1113.06 420.914L1108.9 426.18Z" fill="black"/>
<path d="M1102.7 63.5469L1101.93 68H1100.46L1102.44 56.625L1106.23 56.6328C1107.41 56.6328 1108.31 56.9453 1108.95 57.5703C1109.58 58.1901 1109.85 59.0156 1109.77 60.0469C1109.67 61.1354 1109.24 61.9922 1108.46 62.6172C1107.69 63.2422 1106.67 63.5547 1105.41 63.5547L1102.7 63.5469ZM1102.91 62.3203L1105.45 62.3281C1106.24 62.3281 1106.9 62.1276 1107.41 61.7266C1107.92 61.3255 1108.22 60.7682 1108.3 60.0547C1108.39 59.4141 1108.26 58.8958 1107.91 58.5C1107.56 58.099 1107.05 57.888 1106.38 57.8672L1103.69 57.8594L1102.91 62.3203Z" fill="black"/>
<path d="M1115.2 68C1115.16 67.849 1115.14 67.7005 1115.14 67.5547L1115.16 67.1094C1114.39 67.8281 1113.57 68.1771 1112.7 68.1562C1111.95 68.1458 1111.34 67.9115 1110.88 67.4531C1110.41 66.9896 1110.2 66.4115 1110.24 65.7188C1110.29 64.8229 1110.68 64.125 1111.41 63.625C1112.15 63.1198 1113.11 62.8672 1114.3 62.8672L1115.78 62.875L1115.88 62.2031C1115.93 61.6979 1115.83 61.2995 1115.58 61.0078C1115.33 60.7109 1114.96 60.5573 1114.47 60.5469C1113.98 60.5365 1113.55 60.6562 1113.18 60.9062C1112.81 61.151 1112.58 61.4766 1112.5 61.8828L1111.08 61.8906C1111.12 61.3958 1111.32 60.9583 1111.66 60.5781C1111.99 60.1927 1112.43 59.8958 1112.96 59.6875C1113.49 59.474 1114.04 59.3724 1114.61 59.3828C1115.49 59.4036 1116.17 59.6719 1116.66 60.1875C1117.15 60.6979 1117.36 61.3776 1117.28 62.2266L1116.59 66.4141L1116.55 67.0156C1116.54 67.3021 1116.58 67.5859 1116.65 67.8672L1116.63 68H1115.2ZM1112.98 66.9062C1113.43 66.9167 1113.86 66.8099 1114.26 66.5859C1114.66 66.3568 1115.01 66.0417 1115.3 65.6406L1115.61 63.8984L1114.54 63.8906C1113.65 63.8906 1112.97 64.0312 1112.49 64.3125C1112.02 64.5938 1111.75 64.9922 1111.69 65.5078C1111.64 65.9036 1111.73 66.2344 1111.96 66.5C1112.2 66.7604 1112.53 66.8958 1112.98 66.9062Z" fill="black"/>
<path d="M1123.81 60.8359L1123.15 60.7656C1122.24 60.7656 1121.53 61.1745 1121.01 61.9922L1119.97 68H1118.55L1120.02 59.5469L1121.39 59.5391L1121.18 60.5234C1121.78 59.737 1122.48 59.3542 1123.3 59.375C1123.47 59.375 1123.69 59.4141 1123.97 59.4922L1123.81 60.8359Z" fill="black"/>
<path d="M1128.01 57.5L1127.65 59.5469H1129.19L1128.99 60.6641H1127.46L1126.58 65.9219C1126.56 66.0573 1126.56 66.1823 1126.57 66.2969C1126.61 66.7031 1126.83 66.9062 1127.23 66.9062C1127.41 66.9062 1127.64 66.8802 1127.92 66.8281L1127.81 68.0078C1127.47 68.1016 1127.13 68.1484 1126.78 68.1484C1126.22 68.138 1125.8 67.9323 1125.52 67.5312C1125.23 67.125 1125.12 66.5807 1125.19 65.8984L1126.05 60.6641H1124.55L1124.75 59.5469H1126.24L1126.6 57.5H1128.01Z" fill="black"/>
<path d="M1130.96 68H1129.55L1131.02 59.5469H1132.43L1130.96 68ZM1132.12 56.4609C1132.36 56.4505 1132.56 56.5234 1132.72 56.6797C1132.88 56.8307 1132.96 57.0312 1132.96 57.2812C1132.96 57.526 1132.88 57.7266 1132.72 57.8828C1132.57 58.0391 1132.37 58.1224 1132.12 58.1328C1131.88 58.1432 1131.68 58.0729 1131.52 57.9219C1131.37 57.7708 1131.29 57.5729 1131.3 57.3281C1131.3 57.0833 1131.38 56.8802 1131.53 56.7188C1131.68 56.5573 1131.88 56.4714 1132.12 56.4609Z" fill="black"/>
<path d="M1137.01 57.5L1136.65 59.5469H1138.19L1137.99 60.6641H1136.46L1135.58 65.9219C1135.56 66.0573 1135.56 66.1823 1135.57 66.2969C1135.61 66.7031 1135.83 66.9062 1136.23 66.9062C1136.41 66.9062 1136.64 66.8802 1136.92 66.8281L1136.81 68.0078C1136.47 68.1016 1136.13 68.1484 1135.78 68.1484C1135.22 68.138 1134.8 67.9323 1134.52 67.5312C1134.23 67.125 1134.12 66.5807 1134.19 65.8984L1135.05 60.6641H1133.55L1133.75 59.5469H1135.24L1135.6 57.5H1137.01Z" fill="black"/>
<path d="M1139.96 68H1138.55L1140.02 59.5469H1141.43L1139.96 68ZM1141.12 56.4609C1141.36 56.4505 1141.56 56.5234 1141.72 56.6797C1141.88 56.8307 1141.96 57.0312 1141.96 57.2812C1141.96 57.526 1141.88 57.7266 1141.72 57.8828C1141.57 58.0391 1141.37 58.1224 1141.12 58.1328C1140.88 58.1432 1140.68 58.0729 1140.52 57.9219C1140.37 57.7708 1140.29 57.5729 1140.3 57.3281C1140.3 57.0833 1140.38 56.8802 1140.53 56.7188C1140.68 56.5573 1140.88 56.4714 1141.12 56.4609Z" fill="black"/>
<path d="M1146.97 59.3906C1147.68 59.401 1148.28 59.5938 1148.79 59.9688C1149.29 60.3438 1149.67 60.862 1149.91 61.5234C1150.15 62.1797 1150.23 62.8984 1150.16 63.6797L1150.14 63.8516C1150.04 64.6745 1149.8 65.4193 1149.41 66.0859C1149.02 66.7474 1148.51 67.263 1147.89 67.6328C1147.27 68.0026 1146.59 68.1771 1145.85 68.1562C1145.15 68.1458 1144.54 67.9531 1144.03 67.5781C1143.53 67.2031 1143.16 66.6927 1142.92 66.0469C1142.69 65.401 1142.6 64.6901 1142.67 63.9141C1142.75 63.0391 1142.99 62.2526 1143.38 61.5547C1143.78 60.8568 1144.29 60.3177 1144.91 59.9375C1145.53 59.5521 1146.22 59.3698 1146.97 59.3906ZM1144.09 63.9219C1144.06 64.25 1144.06 64.5911 1144.09 64.9453C1144.15 65.5599 1144.33 66.0495 1144.64 66.4141C1144.96 66.7786 1145.38 66.9688 1145.91 66.9844C1146.38 67 1146.81 66.8854 1147.2 66.6406C1147.6 66.3906 1147.93 66.0156 1148.2 65.5156C1148.47 65.0156 1148.65 64.4609 1148.73 63.8516C1148.77 63.3724 1148.78 62.9688 1148.75 62.6406C1148.69 62.0104 1148.5 61.513 1148.18 61.1484C1147.86 60.7839 1147.44 60.5911 1146.91 60.5703C1146.18 60.5547 1145.57 60.8411 1145.05 61.4297C1144.54 62.0182 1144.23 62.7891 1144.11 63.7422L1144.09 63.9219Z" fill="black"/>
<path d="M1154.02 59.5391L1153.81 60.6094C1154.57 59.776 1155.44 59.3698 1156.41 59.3906C1157.2 59.4115 1157.79 59.6875 1158.17 60.2188C1158.55 60.75 1158.69 61.4974 1158.59 62.4609L1157.67 68H1156.26L1157.19 62.4375C1157.22 62.1823 1157.22 61.9453 1157.2 61.7266C1157.11 60.9974 1156.68 60.625 1155.91 60.6094C1155.06 60.5938 1154.31 61.0469 1153.67 61.9688L1152.62 68H1151.21L1152.68 59.5469L1154.02 59.5391Z" fill="black"/>
<path d="M177.852 24.8594H174.312L172.555 35H171.094L172.852 24.8594H169.312L169.531 23.625H178.07L177.852 24.8594Z" fill="black"/>
<path d="M181.867 35C181.831 34.849 181.812 34.7005 181.812 34.5547L181.836 34.1094C181.06 34.8281 180.237 35.1771 179.367 35.1562C178.622 35.1458 178.016 34.9115 177.547 34.4531C177.083 33.9896 176.872 33.4115 176.914 32.7188C176.966 31.8229 177.357 31.125 178.086 30.625C178.82 30.1198 179.784 29.8672 180.977 29.8672L182.453 29.875L182.547 29.2031C182.599 28.6979 182.5 28.2995 182.25 28.0078C182.005 27.7109 181.635 27.5573 181.141 27.5469C180.656 27.5365 180.227 27.6562 179.852 27.9062C179.482 28.151 179.255 28.4766 179.172 28.8828L177.75 28.8906C177.797 28.3958 177.99 27.9583 178.328 27.5781C178.667 27.1927 179.102 26.8958 179.633 26.6875C180.164 26.474 180.714 26.3724 181.281 26.3828C182.161 26.4036 182.846 26.6719 183.336 27.1875C183.826 27.6979 184.031 28.3776 183.953 29.2266L183.266 33.4141L183.227 34.0156C183.216 34.3021 183.247 34.5859 183.32 34.8672L183.305 35H181.867ZM179.648 33.9062C180.102 33.9167 180.529 33.8099 180.93 33.5859C181.336 33.3568 181.685 33.0417 181.977 32.6406L182.281 30.8984L181.211 30.8906C180.32 30.8906 179.638 31.0312 179.164 31.3125C178.69 31.5938 178.422 31.9922 178.359 32.5078C178.312 32.9036 178.404 33.2344 178.633 33.5C178.867 33.7604 179.206 33.8958 179.648 33.9062Z" fill="black"/>
<path d="M192.898 30.8125C192.794 31.6771 192.557 32.4557 192.188 33.1484C191.818 33.8411 191.37 34.3542 190.844 34.6875C190.318 35.0208 189.734 35.1797 189.094 35.1641C188.073 35.1432 187.315 34.7604 186.82 34.0156L186.531 35H185.227L187.312 23H188.727L187.875 27.4844C188.552 26.7344 189.375 26.3698 190.344 26.3906C191.156 26.4115 191.789 26.7109 192.242 27.2891C192.695 27.8672 192.935 28.6641 192.961 29.6797C192.966 30.013 192.951 30.3359 192.914 30.6484L192.898 30.8125ZM191.555 29.9922C191.57 29.2318 191.443 28.651 191.172 28.25C190.901 27.8438 190.487 27.6302 189.93 27.6094C189.049 27.5885 188.305 28.0312 187.695 28.9375L187.062 32.6172C187.375 33.4766 187.961 33.9167 188.82 33.9375C189.372 33.9583 189.854 33.7943 190.266 33.4453C190.682 33.0964 190.997 32.6094 191.211 31.9844C191.424 31.3542 191.539 30.6901 191.555 29.9922Z" fill="black"/>
<path d="M195.555 35H194.148L196.227 23H197.641L195.555 35Z" fill="black"/>
<path d="M201.523 35.1562C200.471 35.1354 199.648 34.7474 199.055 33.9922C198.461 33.237 198.211 32.2708 198.305 31.0938L198.344 30.7578C198.432 29.9193 198.68 29.1536 199.086 28.4609C199.497 27.7682 199.997 27.2474 200.586 26.8984C201.174 26.5443 201.81 26.375 202.492 26.3906C203.362 26.4115 204.044 26.7005 204.539 27.2578C205.034 27.8151 205.305 28.5703 205.352 29.5234C205.367 29.862 205.357 30.2005 205.32 30.5391L205.234 31.1875H199.711C199.617 31.9531 199.742 32.6042 200.086 33.1406C200.435 33.6771 200.953 33.9557 201.641 33.9766C202.474 33.9974 203.245 33.6224 203.953 32.8516L204.766 33.5391C204.411 34.0495 203.953 34.4505 203.391 34.7422C202.833 35.0286 202.211 35.1667 201.523 35.1562ZM202.422 27.5703C201.839 27.5547 201.328 27.7526 200.891 28.1641C200.458 28.5755 200.115 29.1875 199.859 30L203.969 30.0078L204 29.8828C204.083 29.2266 203.977 28.6823 203.68 28.25C203.388 27.8125 202.969 27.5859 202.422 27.5703Z" fill="black"/>
<path d="M175.852 343.859H172.312L170.555 354H169.094L170.852 343.859H167.312L167.531 342.625H176.07L175.852 343.859Z" fill="black"/>
<path d="M179.867 354C179.831 353.849 179.812 353.701 179.812 353.555L179.836 353.109C179.06 353.828 178.237 354.177 177.367 354.156C176.622 354.146 176.016 353.911 175.547 353.453C175.083 352.99 174.872 352.411 174.914 351.719C174.966 350.823 175.357 350.125 176.086 349.625C176.82 349.12 177.784 348.867 178.977 348.867L180.453 348.875L180.547 348.203C180.599 347.698 180.5 347.299 180.25 347.008C180.005 346.711 179.635 346.557 179.141 346.547C178.656 346.536 178.227 346.656 177.852 346.906C177.482 347.151 177.255 347.477 177.172 347.883L175.75 347.891C175.797 347.396 175.99 346.958 176.328 346.578C176.667 346.193 177.102 345.896 177.633 345.688C178.164 345.474 178.714 345.372 179.281 345.383C180.161 345.404 180.846 345.672 181.336 346.188C181.826 346.698 182.031 347.378 181.953 348.227L181.266 352.414L181.227 353.016C181.216 353.302 181.247 353.586 181.32 353.867L181.305 354H179.867ZM177.648 352.906C178.102 352.917 178.529 352.81 178.93 352.586C179.336 352.357 179.685 352.042 179.977 351.641L180.281 349.898L179.211 349.891C178.32 349.891 177.638 350.031 177.164 350.312C176.69 350.594 176.422 350.992 176.359 351.508C176.312 351.904 176.404 352.234 176.633 352.5C176.867 352.76 177.206 352.896 177.648 352.906Z" fill="black"/>
<path d="M190.898 349.812C190.794 350.677 190.557 351.456 190.188 352.148C189.818 352.841 189.37 353.354 188.844 353.688C188.318 354.021 187.734 354.18 187.094 354.164C186.073 354.143 185.315 353.76 184.82 353.016L184.531 354H183.227L185.312 342H186.727L185.875 346.484C186.552 345.734 187.375 345.37 188.344 345.391C189.156 345.411 189.789 345.711 190.242 346.289C190.695 346.867 190.935 347.664 190.961 348.68C190.966 349.013 190.951 349.336 190.914 349.648L190.898 349.812ZM189.555 348.992C189.57 348.232 189.443 347.651 189.172 347.25C188.901 346.844 188.487 346.63 187.93 346.609C187.049 346.589 186.305 347.031 185.695 347.938L185.062 351.617C185.375 352.477 185.961 352.917 186.82 352.938C187.372 352.958 187.854 352.794 188.266 352.445C188.682 352.096 188.997 351.609 189.211 350.984C189.424 350.354 189.539 349.69 189.555 348.992Z" fill="black"/>
<path d="M193.555 354H192.148L194.227 342H195.641L193.555 354Z" fill="black"/>
<path d="M199.523 354.156C198.471 354.135 197.648 353.747 197.055 352.992C196.461 352.237 196.211 351.271 196.305 350.094L196.344 349.758C196.432 348.919 196.68 348.154 197.086 347.461C197.497 346.768 197.997 346.247 198.586 345.898C199.174 345.544 199.81 345.375 200.492 345.391C201.362 345.411 202.044 345.701 202.539 346.258C203.034 346.815 203.305 347.57 203.352 348.523C203.367 348.862 203.357 349.201 203.32 349.539L203.234 350.188H197.711C197.617 350.953 197.742 351.604 198.086 352.141C198.435 352.677 198.953 352.956 199.641 352.977C200.474 352.997 201.245 352.622 201.953 351.852L202.766 352.539C202.411 353.049 201.953 353.451 201.391 353.742C200.833 354.029 200.211 354.167 199.523 354.156ZM200.422 346.57C199.839 346.555 199.328 346.753 198.891 347.164C198.458 347.576 198.115 348.188 197.859 349L201.969 349.008L202 348.883C202.083 348.227 201.977 347.682 201.68 347.25C201.388 346.812 200.969 346.586 200.422 346.57Z" fill="black"/>
</svg>
