<?xml version="1.0" encoding="UTF-8" standalone="no"?>
<svg width="53px" height="43px" viewBox="0 0 53 43" version="1.1" xmlns="http://www.w3.org/2000/svg" xmlns:xlink="http://www.w3.org/1999/xlink">
    <!-- Generator: Sketch 39.1 (31720) - http://www.bohemiancoding.com/sketch -->
    <title>Artboard 6</title>
    <desc>Created with Sketch.</desc>
    <defs></defs>
    <g id="Page-1" stroke="none" stroke-width="1" fill="none" fill-rule="evenodd">
        <g id="Artboard-6" fill="#16213B">
            <g id="hands-leaf" transform="translate(26.000000, 21.500000) scale(-1, 1) rotate(298.000000) translate(-26.000000, -21.500000) translate(14.000000, -2.000000)">
                <g id="Layer_12" transform="translate(-0.000000, -0.000000)">
                    <g id="Group" transform="translate(-0.000000, -0.000000)">
                        <path d="M15.059,1.723 C14.55,1.23 13.883,0.958 13.182,0.958 C12.01,0.958 10.867,1.691 9.875,3.08 C8.645,4.805 7.725,7.477 8.441,9.564 C8.912,10.932 9.512,12.267 10.078,13.482 C8.87,13.533 7.234,14.207 6.004,16.99 C5.596,17.913 5.028,19.139 4.408,20.483 C1.101,27.639 1.0658141e-13,30.238 1.0658141e-13,31.529 C1.0658141e-13,34.905 2.296,44.366 2.558,45.434 C2.778,46.329 3.579,46.957 4.5,46.957 L14.5,46.957 C15.604,46.957 16.5,46.061 16.5,44.957 L16.5,36.93 C18.726,33.15 24,22.55 24,19.413 C24,16.151 16.917,3.524 15.059,1.723 L15.059,1.723 Z M12.8,35.322 C12.604,35.638 12.5,36.003 12.5,36.375 L12.5,42.958 L6.079,42.958 C5.289,39.578 4.03,33.761 4.001,31.606 C4.225,30.415 6.701,25.056 8.039,22.161 C8.67,20.795 9.247,19.547 9.662,18.607 C9.942,17.974 10.172,17.67 10.299,17.536 C10.591,17.715 11.023,18.192 11.405,18.738 L8.514,25.042 C8.054,26.046 8.494,27.233 9.498,27.694 C9.769,27.817 10.052,27.876 10.331,27.876 C11.089,27.876 11.813,27.443 12.15,26.71 L15.484,19.44 C15.531,19.338 15.561,19.234 15.589,19.129 C16.256,17.299 15.25,15.104 13.97,12.367 C13.346,11.031 12.699,9.65 12.223,8.263 C12.012,7.651 12.494,6.374 13.018,5.554 C15.173,8.716 19.856,17.652 19.998,19.41 C19.958,21.158 15.584,30.824 12.8,35.322 L12.8,35.322 Z" id="Shape"></path>
                    </g>
                </g>
            </g>
        </g>
    </g>
</svg>