<?xml version="1.0" encoding="UTF-8"?>
<svg width="13px" height="23px" viewBox="0 0 13 23" version="1.1" xmlns="http://www.w3.org/2000/svg" xmlns:xlink="http://www.w3.org/1999/xlink">
    <!-- Generator: Sketch 55.2 (78181) - https://sketchapp.com -->
    <title>left-arrow</title>
    <desc>Created with Sketch.</desc>
    <g id="Page-1" stroke="none" stroke-width="1" fill="none" fill-rule="evenodd">
        <g id="left-arrow" transform="translate(6.500000, 11.500000) scale(-1, 1) translate(-6.500000, -11.500000) " fill="#FFFFFF" fill-rule="nonzero">
            <path d="M4.37553103,11.0322483 L12.6263172,2.78110345 C12.8535034,2.55445517 12.9784828,2.25142069 12.9784828,1.92830345 C12.9784828,1.6050069 12.8535034,1.30215172 12.6263172,1.07514483 L11.9033379,0.352524138 C11.6765103,0.125158621 11.3732966,0 11.0501793,0 C10.7270621,0 10.4242069,0.125158621 10.1972,0.352524138 L0.373324138,10.1762207 C0.14542069,10.4039448 0.0206206897,10.7082345 0.0215124374,11.0317103 C0.0206206897,11.3566207 0.145241379,11.6605517 0.373324138,11.8884552 L10.1880552,21.7026483 C10.4150621,21.9300138 10.7179172,22.0551724 11.0412138,22.0551724 C11.364331,22.0551724 11.6671862,21.9300138 11.8943724,21.7026483 L12.6171724,20.9800276 C13.0875034,20.5096966 13.0875034,19.7440414 12.6171724,19.2738897 L4.37553103,11.0322483 Z" id="Shape"></path>
        </g>
    </g>
</svg>