<?xml version="1.0" encoding="UTF-8"?>
<svg width="150px" height="150px" viewBox="0 0 150 150" version="1.1" xmlns="http://www.w3.org/2000/svg" xmlns:xlink="http://www.w3.org/1999/xlink">
    <!-- Generator: Sketch 41.2 (35397) - http://www.bohemiancoding.com/sketch -->
    <title>Saphie-square</title>
    <desc>Created with Sketch.</desc>
    <defs></defs>
    <g id="Page-1" stroke="none" stroke-width="1" fill="none" fill-rule="evenodd">
        <g id="Artboard-Copy" transform="translate(-347.000000, -901.000000)">
            <g id="Saphie-square" transform="translate(347.000000, 901.000000)">
                <rect id="Rectangle-2" fill="#DD4814" x="0" y="0" width="150" height="150" rx="3"></rect>
                <g id="Page-1" transform="translate(36.000000, 51.000000)">
                    <path d="M10.6882353,32.1659295 C9.91372549,32.4752173 8.98431373,32.4752173 7.9,32.4752173 C4.49215686,32.4752173 2.32352941,30.9287784 1.39411765,27.8359006 L2.63333333,27.3719689 C3.25294118,30.0009151 5.11176471,31.2380662 7.9,31.2380662 C9.44901961,31.2380662 10.6882353,30.9287784 11.4627451,30.1555589 C12.5470588,29.3823395 13.0117647,28.1451883 13.0117647,26.5987494 C13.0117647,25.2069544 12.3921569,23.9698033 11.3078431,23.0419399 C10.9980392,22.7326521 10.5333333,22.4233643 10.0686275,22.1140766 C9.44901961,21.8047888 8.6745098,21.495501 7.74509804,21.0315693 C6.04117647,20.2583499 4.80196078,19.6397743 4.18235294,19.0211987 C3.09803922,18.0933354 2.63333333,16.8561842 2.63333333,15.3097453 C2.63333333,13.9179503 3.09803922,12.6807991 4.18235294,11.7529358 C5.26666667,10.8250724 6.50588235,10.3611408 8.20980392,10.3611408 C10.6882353,10.3611408 12.5470588,11.2890041 13.6313725,13.1447308 L12.3921569,13.6086625 C12.0823529,12.9900869 11.4627451,12.5261553 10.9980392,12.2168675 C10.2235294,11.7529358 9.29411765,11.443648 8.20980392,11.443648 C6.97058824,11.443648 6.04117647,11.9075797 5.11176471,12.5261553 C4.3372549,13.2993747 3.87254902,14.2272381 3.87254902,15.3097453 C3.87254902,16.3922526 4.3372549,17.3201159 5.26666667,18.0933354 C5.73137255,18.4026232 6.81568627,19.0211987 8.36470588,19.6397743 C9.29411765,20.103706 10.0686275,20.5676376 10.8431373,21.0315693 C11.4627451,21.3408571 12.0823529,21.8047888 12.5470588,22.2687205 C13.6313725,23.5058716 14.2509804,24.8976666 14.2509804,26.5987494 C14.2509804,29.3823395 13.0117647,31.2380662 10.6882353,32.1659295 L10.6882353,32.1659295 Z M28.1921569,32.3205734 L28.1921569,30.1555589 C26.7980392,31.7019979 25.0941176,32.4752173 23.0803922,32.4752173 C21.2215686,32.4752173 19.672549,31.8566418 18.4333333,30.6194906 C17.1941176,29.3823395 16.5745098,27.8359006 16.5745098,25.9801739 C16.5745098,24.1244472 17.1941176,22.5780082 18.4333333,21.3408571 C19.672549,20.103706 21.2215686,19.4851304 23.0803922,19.4851304 C25.0941176,19.4851304 26.7980392,20.2583499 28.1921569,21.8047888 L28.1921569,19.6397743 L29.4313725,19.6397743 L29.4313725,32.3205734 L28.1921569,32.3205734 L28.1921569,32.3205734 Z M26.7980392,22.2687205 C25.7137255,21.1862132 24.4745098,20.7222815 23.0803922,20.7222815 C21.5313725,20.7222815 20.2921569,21.1862132 19.3627451,22.2687205 C18.2784314,23.1965838 17.8137255,24.5883788 17.8137255,25.9801739 C17.8137255,27.3719689 18.2784314,28.7637639 19.3627451,29.6916273 C20.2921569,30.7741345 21.6862745,31.2380662 23.0803922,31.2380662 C24.4745098,31.2380662 25.7137255,30.7741345 26.7980392,29.8462712 C27.8823529,28.7637639 28.3470588,27.5266128 28.3470588,25.9801739 C28.3470588,24.5883788 27.8823529,23.3512277 26.7980392,22.2687205 L26.7980392,22.2687205 Z M44.1470588,30.6194906 C42.9078431,31.8566418 41.3588235,32.4752173 39.5,32.4752173 C37.4862745,32.4752173 35.7823529,31.7019979 34.3882353,30.0009151 L34.3882353,38.1970413 L33.1490196,38.1970413 L33.1490196,19.6397743 L34.3882353,19.6397743 L34.3882353,22.1140766 C35.627451,20.2583499 37.3313725,19.4851304 39.5,19.4851304 C41.3588235,19.4851304 42.9078431,20.103706 44.1470588,21.3408571 C45.5411765,22.5780082 46.1607843,24.1244472 46.1607843,25.9801739 C46.0058824,27.8359006 45.5411765,29.3823395 44.1470588,30.6194906 L44.1470588,30.6194906 Z M43.372549,22.2687205 C42.2882353,21.1862132 41.0490196,20.7222815 39.5,20.7222815 C38.1058824,20.7222815 36.8666667,21.1862132 35.7823529,22.2687205 C34.6980392,23.3512277 34.2333333,24.5883788 34.2333333,25.9801739 C34.2333333,27.3719689 34.6980392,28.7637639 35.7823529,29.6916273 C36.8666667,30.7741345 38.1058824,31.2380662 39.5,31.2380662 C41.0490196,31.2380662 42.2882353,30.7741345 43.372549,29.8462712 C44.3019608,28.7637639 44.9215686,27.5266128 44.9215686,25.9801739 C44.9215686,24.5883788 44.3019608,23.3512277 43.372549,22.2687205 L43.372549,22.2687205 Z M57.9333333,32.3205734 L57.9333333,24.7430227 C57.9333333,22.1140766 56.6941176,20.7222815 54.2156863,20.7222815 C53.1313725,20.7222815 52.2019608,21.0315693 51.5823529,21.6501449 C50.8078431,22.2687205 50.3431373,23.0419399 50.3431373,24.1244472 L50.3431373,32.3205734 L49.1039216,32.3205734 L49.1039216,9.58792131 L50.3431373,9.58792131 L50.3431373,21.3408571 C51.1176471,20.103706 52.3568627,19.4851304 54.0607843,19.4851304 C57.4686275,19.4851304 59.172549,21.1862132 59.172549,24.5883788 L59.172549,32.3205734 L57.9333333,32.3205734 Z M61.9607843,17.3201159 C61.8058824,17.3201159 61.6509804,17.3201159 61.3411765,17.165472 C61.1862745,16.8561842 61.0313725,16.7015403 61.0313725,16.3922526 C61.0313725,15.773677 61.3411765,15.4643892 61.9607843,15.3097453 C62.5803922,15.3097453 62.8901961,15.6190331 63.045098,16.3922526 C63.045098,17.0108281 62.7352941,17.3201159 61.9607843,17.3201159 L61.9607843,17.3201159 Z M61.3411765,32.3205734 L61.3411765,19.6397743 L62.5803922,19.6397743 L62.5803922,32.3205734 L61.3411765,32.3205734 L61.3411765,32.3205734 Z M67.072549,25.6708861 C67.072549,27.3719689 67.5372549,28.7637639 68.4666667,29.8462712 C69.3960784,30.7741345 70.6352941,31.3927101 72.3392157,31.3927101 C73.2686275,31.3927101 74.0431373,31.2380662 74.6627451,30.9287784 C75.5921569,30.4648467 76.3666667,29.8462712 77.1411765,28.7637639 L78.2254902,29.2276956 C77.4509804,30.7741345 76.2117647,31.7019979 74.5078431,32.3205734 C73.8882353,32.4752173 73.2686275,32.6298612 72.4941176,32.6298612 C70.4803922,32.6298612 68.9313725,32.0112856 67.6921569,30.7741345 C66.4529412,29.3823395 65.8333333,27.8359006 65.8333333,25.9801739 C65.8333333,24.1244472 66.4529412,22.5780082 67.6921569,21.3408571 C68.9313725,20.103706 70.4803922,19.4851304 72.4941176,19.4851304 C74.3529412,19.4851304 75.9019608,19.9490621 77.1411765,21.1862132 C78.3803922,22.2687205 79,23.8151594 79,25.6708861 L67.072549,25.6708861 Z M75.7470588,21.6501449 C74.8176471,21.0315693 73.5784314,20.5676376 72.3392157,20.5676376 C69.7058824,20.5676376 68.0019608,21.9594327 67.227451,24.4337349 L77.6058824,24.4337349 C77.2960784,23.3512277 76.6764706,22.4233643 75.7470588,21.6501449 L75.7470588,21.6501449 Z M0.154901961,0 L38.5705882,0 L0.154901961,0 Z" id="Shape" fill="#FFFFFF"></path>
                    <path d="M0.0774509804,38 L78.922549,38" id="Line" stroke="#FFFFFF"></path>
                </g>
            </g>
        </g>
    </g>
</svg>