<?xml version="1.0" encoding="UTF-8"?>
<svg width="61px" height="61px" viewBox="0 0 61 61" version="1.1" xmlns="http://www.w3.org/2000/svg" xmlns:xlink="http://www.w3.org/1999/xlink">
    <!-- Generator: Sketch 43.2 (39069) - http://www.bohemiancoding.com/sketch -->
    <title>Artboard</title>
    <desc>Created with Sketch.</desc>
    <defs></defs>
    <g id="Page-1" stroke="none" stroke-width="1" fill="none" fill-rule="evenodd">
        <g id="Artboard">
            <circle id="Oval-2" fill="#41BCC3" cx="30.5" cy="30.5" r="30.5"></circle>
            <g id="tourist" transform="translate(13.000000, 10.000000)" fill-rule="nonzero" fill="#FFFFFF">
                <path d="M14.6666667,16.6102564 C15.0348333,16.6102564 15.3333333,16.3042939 15.3333333,15.9269231 L15.3333333,15.2435897 C15.3333333,14.8662189 15.0348333,14.5602564 14.6666667,14.5602564 C14.2985,14.5602564 14,14.8662189 14,15.2435897 L14,15.9269231 C14,16.3042939 14.2985,16.6102564 14.6666667,16.6102564 Z" id="Shape"></path>
                <path d="M21.3333333,16.6102564 C21.7015,16.6102564 22,16.3042939 22,15.9269231 L22,15.2435897 C22,14.8662189 21.7015,14.5602564 21.3333333,14.5602564 C20.9651667,14.5602564 20.6666667,14.8662189 20.6666667,15.2435897 L20.6666667,15.9269231 C20.6666667,16.3042939 20.9651667,16.6102564 21.3333333,16.6102564 Z" id="Shape"></path>
                <path d="M16.29625,18.5488731 C16.3195,18.5647606 16.3436667,18.579196 16.3686667,18.5919231 L17.702,19.2752564 C18.0315,19.4439543 18.4320833,19.3068606 18.5966667,18.9691231 C18.76125,18.6313856 18.6275,18.2207877 18.298,18.0520897 L17.64,17.7152064 L18.5546667,16.3095897 C18.759,15.9955981 18.6763333,15.5712481 18.37,15.3618064 C18.0636667,15.1523647 17.6496667,15.2370981 17.4453333,15.5510897 L16.112,17.6010897 C15.9075833,17.9149106 15.99,18.3392606 16.29625,18.5488731 Z" id="Shape"></path>
                <path d="M15.062,20.7170897 C16.5033333,22.3804939 18.9873333,22.5312543 20.6101667,21.0538022 C20.7260833,20.9483127 20.83575,20.8358189 20.9386667,20.7170897 L21.1386667,20.5120897 L20.194,19.5485897 L19.994,19.7535897 C19.0405833,20.8817731 17.3754167,21.0042606 16.27475,20.0270085 C16.1795833,19.9425314 16.0904167,19.8511356 16.008,19.7535897 L15.808,19.5485897 L14.8626667,20.5120897 L15.062,20.7170897 Z" id="Shape"></path>
                <path d="M32.6666667,27.1789 L32.6666667,26.65 C32.6619167,22.5007146 29.3814167,19.1382021 25.3333333,19.1333333 C25.6546667,18.2712229 25.8924167,17.3461604 25.9693333,16.4 C27.47275,16.4 28.6666667,15.1762354 28.6666667,13.6666667 C28.6666667,12.1570979 27.47275,10.9333333 26,10.9333333 L26,6.83333333 L31.3333333,6.83333333 L31.3333333,5.46666667 L25.9606667,5.46666667 C25.6183333,2.35630417 23.05375,0.00427083333 20,0 L16,0 C12.94625,0.00427083333 10.3816667,2.35630417 10.0393333,5.46666667 L10,10.9333333 C8.52725,10.9333333 7.33333333,12.1570979 7.33333333,13.6666667 C7.33333333,15.1762354 8.52725,16.4 10,16.4 C10.1109167,17.3461604 10.3486667,18.2712229 10.7366667,19.1333333 C6.61858333,19.1382021 3.33808333,22.5007146 3.33333333,26.65 L3.33333333,27.1789 C1.23141667,28.8575083 0.00166666667,31.4354687 0,34.1666667 L0,41 L36,41 L36,34.1666667 C35.9983333,31.4354687 34.7685833,28.8575083 32.6666667,27.1789 Z M26,12.3 C26.7364167,12.3 27.3333333,12.9118396 27.3333333,13.6666667 C27.3333333,14.4214937 26.7364167,15.0333333 26,15.0333333 L26,12.3 Z M10,15.0333333 C9.26358333,15.0333333 8.66666667,14.4214937 8.66666667,13.6666667 C8.66666667,12.9118396 9.26358333,12.3 10,12.3 L10,15.0333333 Z M25.3333333,20.5 C28.5059167,20.5040146 31.1270833,23.038925 31.3153333,26.2851 C30.0860833,25.6272208 28.72,25.2835896 27.3333333,25.2833333 L21.3333333,25.2833333 L21.3333333,23.165 C22.5900833,22.569475 23.6755,21.6515875 24.4846667,20.5 L25.3333333,20.5 Z M16,1.36666667 L20,1.36666667 C22.3188333,1.36965625 24.2849167,3.11471875 24.6193333,5.46666667 L11.3806667,5.46666667 C11.7150833,3.11471875 13.6811667,1.36965625 16,1.36666667 Z M11.3333333,10.9333333 L11.3333333,6.83333333 L24.6666667,6.83333333 L24.6666667,7.9171 L23.806,8.7986 C22.29275,10.3519021 19.94175,10.648725 18.106,9.51815 L15.01,7.61438333 C14.6944167,7.42006042 14.2848333,7.52469583 14.0951667,7.84825417 C14.0329167,7.95442708 14,8.07606042 14,8.2 L14,8.96328333 C14.0003333,9.84580833 13.4495,10.6295917 12.6326667,10.9087333 L11.3333333,11.3515333 L11.3333333,10.9333333 Z M11.3333333,12.792 L13.0546667,12.2043333 C14.2715833,11.7896354 15.1478333,10.6952771 15.3073333,9.39105 L17.4193333,10.6893833 C19.7441667,12.1204542 22.717,11.7720396 24.6666667,9.84 L24.6666667,15.7166667 C24.6666667,19.4906312 21.6819167,22.55 18,22.55 C14.3180833,22.55 11.3333333,19.4906312 11.3333333,15.7166667 L11.3333333,12.792 Z M20,23.6433333 L20,26.65 C20,27.7821979 19.1045833,28.7 18,28.7 C16.8954167,28.7 16,27.7821979 16,26.65 L16,23.6433333 C17.31025,24.0031937 18.68975,24.0031937 20,23.6433333 Z M10.6666667,20.5 L11.5153333,20.5 C12.3245,21.6515875 13.4099167,22.569475 14.6666667,23.165 L14.6666667,25.2833333 L8.66666667,25.2833333 C7.28,25.2835896 5.91391667,25.6272208 4.68466667,26.2851 C4.87291667,23.038925 7.49408333,20.5040146 10.6666667,20.5 Z M12,26.65 L12,31.4333333 C11.99825,32.0781437 11.70225,32.6850292 11.2,33.0733333 L8,35.5333333 L8,33.825 L9.33333333,32.8 C10.1706667,32.1529687 10.6640833,31.1414646 10.6666667,30.0666667 L10.6666667,26.65 L12,26.65 Z M6.66666667,39.6333333 L1.33333333,39.6333333 L1.33333333,38.2666667 L6.66666667,38.2666667 L6.66666667,39.6333333 Z M6.66666667,33.4833333 L6.66666667,36.9 L1.33333333,36.9 L1.33333333,34.1666667 C1.33808333,30.0173812 4.61858333,26.6548687 8.66666667,26.65 L9.33333333,26.65 L9.33333333,30.0666667 C9.33158333,30.7114771 9.03558333,31.3183625 8.53333333,31.7066667 L6.93333333,32.9366667 C6.7655,33.0657312 6.66666667,33.2682542 6.66666667,33.4833333 Z M28,38.2666667 L28,39.6333333 L8,39.6333333 L8,37.2416667 L12,34.1666667 C12.8373333,33.5196354 13.33075,32.5081312 13.3333333,31.4333333 L13.3333333,26.65 L14.6666667,26.65 C14.6666667,28.5369396 16.1590833,30.0666667 18,30.0666667 C19.8409167,30.0666667 21.3333333,28.5369396 21.3333333,26.65 L22.6666667,26.65 L22.6666667,31.4333333 C22.66925,32.5081312 23.1626667,33.5196354 24,34.1666667 L28,37.2416667 L28,38.2666667 Z M28,35.5333333 L24.8,33.0733333 C24.29775,32.6849437 24.00175,32.0781437 24,31.4333333 L24,26.65 L25.3333333,26.65 L25.3333333,30.0666667 C25.3359167,31.1414646 25.8293333,32.1529687 26.6666667,32.8 L28,33.825 L28,35.5333333 Z M34.6666667,39.6333333 L29.3333333,39.6333333 L29.3333333,38.2666667 L34.6666667,38.2666667 L34.6666667,39.6333333 Z M34.6666667,36.9 L29.3333333,36.9 L29.3333333,33.4833333 C29.3333333,33.2682542 29.2345,33.0657312 29.0666667,32.9366667 L27.4666667,31.7066667 C26.9644167,31.3182771 26.6684167,30.7114771 26.6666667,30.0666667 L26.6666667,26.65 L27.3333333,26.65 C31.3814167,26.6548687 34.6619167,30.0173812 34.6666667,34.1666667 L34.6666667,36.9 Z" id="Shape"></path>
            </g>
        </g>
    </g>
</svg>