<?xml version="1.0" encoding="UTF-8"?>
<svg width="150px" height="150px" viewBox="0 0 150 150" version="1.1" xmlns="http://www.w3.org/2000/svg" xmlns:xlink="http://www.w3.org/1999/xlink">
    <!-- Generator: Sketch 43.2 (39069) - http://www.bohemiancoding.com/sketch -->
    <title>Artboard 4</title>
    <desc>Created with Sketch.</desc>
    <defs></defs>
    <g id="Page-1" stroke="none" stroke-width="1" fill="none" fill-rule="evenodd">
        <g id="Artboard-4" fill-rule="nonzero">
            <rect id="Rectangle-2" fill="#289061" x="0" y="0" width="150" height="150" rx="3"></rect>
            <g id="select-word" transform="translate(28.000000, 38.000000)" fill="#FFFFFF">
                <path d="M78.5148765,50.4545455 L82.4504164,53.7611191 C83.0303782,54.2483932 82.920249,54.8211577 82.1868945,55.045798 L68.6978913,59.1777337 L74.0946243,69.645844 C74.785116,70.9851994 74.2409373,72.5862316 72.8763301,73.2231739 L69.8740586,74.62451 C68.5107215,75.2608594 66.8502335,74.6996294 66.1552725,73.3516049 L60.7585394,62.8834946 L48.9257871,70.570707 C48.2893671,70.9841607 47.77335,70.7117977 47.7732283,69.9469961 L47.7701251,50.4545455 L2.71186256,50.4545455 C1.21414223,50.4545455 0,49.2323474 0,47.7240005 L0,2.73054494 C0,1.22250661 1.22288685,0 2.71186256,0 L91.2881375,0 C92.7858577,0 94,1.22219813 94,2.73054494 L94,50.4545455 L78.5148765,50.4545455 Z M50.5687806,26.9747111 L78.5459534,50.4545455 L87.8247577,50.4545455 L52.3984633,19.6167732 C50.0349633,18.4813601 42.4941926,19.6600549 40.946292,24.8390834 L40.946292,50.4545455 L47.7682913,50.4545455 L47.7682913,38.9358305 L47.7662306,25.9922078 C47.7661101,25.2342881 48.2308981,25.0104619 48.8161258,25.5021603 L50.5687806,26.9747111 Z M12.2608696,32.7272727 C16.0228091,32.7272727 19.0724638,29.6746687 19.0724638,25.9090909 C19.0724638,22.1435131 16.0228091,19.0909091 12.2608696,19.0909091 C8.49892996,19.0909091 5.44927536,22.1435131 5.44927536,25.9090909 C5.44927536,29.6746687 8.49892996,32.7272727 12.2608696,32.7272727 Z M22.6116879,17.6611057 L31.4105169,22.7460248 C32.7029898,23.4929561 34.3724682,23.0478247 35.1248562,21.7433903 C35.8824895,20.4298616 35.4341396,18.7729445 34.1351546,18.0222499 L25.3363256,12.9373307 C24.0438527,12.1903995 22.3743742,12.6355308 21.6219864,13.9399653 C20.8643529,15.253494 21.312703,16.9104109 22.6116879,17.6611057 Z M60.0831798,0.0103402488 L54.5109218,0.0103402488 L52.0486925,11.6101791 C51.7356304,13.0850503 52.6758551,14.5307369 54.147748,14.8438999 C55.6299027,15.1592463 57.0662146,14.2177722 57.378761,12.7459354 L60.0831798,0.0103402488 Z M35.7118653,4.8162984 L40.1916959,14.8878935 C40.8043811,16.2653382 42.4106315,16.8744796 43.7853125,16.2618402 C45.1695778,15.6449296 45.7798752,14.0407793 45.1698566,12.6693301 L40.690026,2.5977349 C40.0773407,1.22029031 38.4710905,0.611148792 37.0964093,1.22378819 C35.7121442,1.84069879 35.1018467,3.44484919 35.7118653,4.8162984 Z" id="Combined-Shape-Copy"></path>
            </g>
        </g>
    </g>
</svg>