<?xml version="1.0" encoding="UTF-8"?>
<svg width="689px" height="121px" viewBox="0 0 689 121" version="1.1" xmlns="http://www.w3.org/2000/svg" xmlns:xlink="http://www.w3.org/1999/xlink">
    <!-- Generator: Sketch 43.2 (39069) - http://www.bohemiancoding.com/sketch -->
    <title>Artboard 3</title>
    <desc>Created with Sketch.</desc>
    <defs></defs>
    <g id="Page-1" stroke="none" stroke-width="1" fill="none" fill-rule="evenodd">
        <g id="Artboard-3" fill="#16213B">
            <path d="M8.132,38 C7.72666464,38 7.48600038,37.8100019 7.41,37.43 L0.722,12.122 C0.69666654,12.0713331 0.684,12.0080004 0.684,11.932 C0.684,11.5773316 0.88666464,11.4 1.292,11.4 L5.624,11.4 C6.0040019,11.4 6.23199962,11.5899981 6.308,11.97 L9.88,27.132 C9.90533346,27.2333338 9.95599962,27.284 10.032,27.284 C10.1080004,27.284 10.1586665,27.2333338 10.184,27.132 L13.604,11.97 C13.6800004,11.5899981 13.9079981,11.4 14.288,11.4 L18.582,11.4 C18.9873354,11.4 19.2279996,11.5899981 19.304,11.97 L23.028,27.132 C23.0533335,27.2333338 23.0976663,27.284 23.161,27.284 C23.2243336,27.284 23.2686665,27.2333338 23.294,27.132 L26.714,11.97 C26.7900004,11.5899981 27.0179981,11.4 27.398,11.4 L31.54,11.4 C31.7680011,11.4 31.9263329,11.469666 32.015,11.609 C32.1036671,11.748334 32.1226669,11.9193323 32.072,12.122 L25.954,37.43 C25.8779996,37.8100019 25.6373354,38 25.232,38 L21.052,38 C20.6466646,38 20.4060004,37.8100019 20.33,37.43 L16.53,21.28 C16.5046665,21.1786662 16.4540004,21.128 16.378,21.128 C16.3019996,21.128 16.2513335,21.1786662 16.226,21.28 L12.692,37.43 C12.6159996,37.8100019 12.3880019,38 12.008,38 L8.132,38 Z M37.734,16.606 C36.7713285,16.606 35.986003,16.3083363 35.378,15.713 C34.769997,15.1176637 34.466,14.351338 34.466,13.414 C34.466,12.476662 34.769997,11.7103363 35.378,11.115 C35.986003,10.5196637 36.7713285,10.222 37.734,10.222 C38.7220049,10.222 39.5136637,10.5133304 40.109,11.096 C40.7043363,11.6786696 41.002,12.4513285 41.002,13.414 C41.002,14.3766715 40.7043363,15.1493304 40.109,15.732 C39.5136637,16.3146696 38.7220049,16.606 37.734,16.606 Z M35.72,38 C35.2893312,38 35.074,37.7846688 35.074,37.354 L35.074,19.114 C35.074,18.6833312 35.2893312,18.468 35.72,18.468 L39.786,18.468 C40.2166688,18.468 40.432,18.6833312 40.432,19.114 L40.432,37.354 C40.432,37.7846688 40.2166688,38 39.786,38 L35.72,38 Z M54.834,18.164 C56.8606768,18.164 58.4946605,18.7846605 59.736,20.026 C60.9773395,21.2673395 61.598,22.9519894 61.598,25.08 L61.598,37.354 C61.598,37.7846688 61.3826688,38 60.952,38 L56.886,38 C56.4553312,38 56.24,37.7846688 56.24,37.354 L56.24,26.182 C56.24,25.1686616 55.9613361,24.3453365 55.404,23.712 C54.8466639,23.0786635 54.099338,22.762 53.162,22.762 C52.224662,22.762 51.4646696,23.0786635 50.882,23.712 C50.2993304,24.3453365 50.008,25.1686616 50.008,26.182 L50.008,37.354 C50.008,37.7846688 49.7926688,38 49.362,38 L45.296,38 C44.8653312,38 44.65,37.7846688 44.65,37.354 L44.65,19.114 C44.65,18.6833312 44.8653312,18.468 45.296,18.468 L49.362,18.468 C49.7926688,18.468 50.008,18.6833312 50.008,19.114 L50.008,20.178 C50.008,20.2793338 50.0333331,20.3426665 50.084,20.368 C50.1346669,20.3933335 50.1853331,20.3680004 50.236,20.292 C51.2746719,18.8733262 52.8073232,18.164 54.834,18.164 Z M77.216,12.046 C77.216,11.6153312 77.4313312,11.4 77.862,11.4 L81.928,11.4 C82.3586688,11.4 82.574,11.6153312 82.574,12.046 L82.574,37.354 C82.574,37.7846688 82.3586688,38 81.928,38 L77.862,38 C77.4313312,38 77.216,37.7846688 77.216,37.354 L77.216,36.328 C77.216,36.2266662 77.1843336,36.1696667 77.121,36.157 C77.0576663,36.1443333 77.0006669,36.1759996 76.95,36.252 C75.9113281,37.6200068 74.4673426,38.304 72.618,38.304 C70.8953247,38.304 69.3690066,37.7910051 68.039,36.765 C66.7089933,35.7389949 65.7906692,34.3900084 65.284,32.718 C64.8533312,31.5019939 64.638,29.9820091 64.638,28.158 C64.638,26.283324 64.8786643,24.712673 65.36,23.446 C65.9173361,21.8246586 66.8356603,20.5326715 68.115,19.57 C69.3943397,18.6073285 70.8953247,18.126 72.618,18.126 C74.492676,18.126 75.9366616,18.7466605 76.95,19.988 C77.0006669,20.0640004 77.0576663,20.0893335 77.121,20.064 C77.1843336,20.0386665 77.216,19.9753338 77.216,19.874 L77.216,12.046 Z M76.418,31.996 C76.9246692,31.058662 77.178,29.8046745 77.178,28.234 C77.178,26.5619916 76.9120027,25.257338 76.38,24.32 C75.7466635,23.3319951 74.8980053,22.838 73.834,22.838 C72.6686608,22.838 71.782003,23.3193285 71.174,24.282 C70.565997,25.2953384 70.262,26.6253251 70.262,28.272 C70.262,29.7666741 70.5279973,31.0079951 71.06,31.996 C71.668003,33.0853388 72.5926605,33.63 73.834,33.63 C74.9486722,33.63 75.809997,33.0853388 76.418,31.996 Z M95.266,38.304 C93.1126559,38.304 91.2760076,37.7466722 89.756,36.632 C88.2359924,35.5173278 87.1973361,33.997343 86.64,32.072 C86.2853316,30.8813274 86.108,29.5893403 86.108,28.196 C86.108,26.6506589 86.2979981,25.3080057 86.678,24.168 C87.2606696,22.293324 88.3056591,20.8240053 89.813,19.76 C91.3203409,18.6959947 93.1506559,18.164 95.304,18.164 C97.3813437,18.164 99.1609926,18.6959947 100.643,19.76 C102.125007,20.8240053 103.15733,22.2806574 103.74,24.13 C104.120002,25.2953392 104.31,26.6253259 104.31,28.12 C104.31,29.4373399 104.145335,30.7166605 103.816,31.958 C103.23333,33.9340099 102.188341,35.485661 100.681,36.613 C99.1736591,37.740339 97.3686772,38.304 95.266,38.304 Z M95.266,33.706 C96.0766707,33.706 96.7733304,33.4526692 97.356,32.946 C97.9386696,32.4393308 98.3566654,31.7426711 98.61,30.856 C98.8126677,30.1719966 98.914,29.2853388 98.914,28.196 C98.914,27.1319947 98.8126677,26.2326703 98.61,25.498 C98.3566654,24.6366624 97.9386696,23.9653357 97.356,23.484 C96.7733304,23.0026643 96.0513376,22.762 95.19,22.762 C94.3539958,22.762 93.6446696,23.0026643 93.062,23.484 C92.4793304,23.9653357 92.0613346,24.6366624 91.808,25.498 C91.6053323,26.2326703 91.504,27.1319947 91.504,28.196 C91.504,29.2346719 91.6053323,30.1213297 91.808,30.856 C92.0613346,31.7426711 92.4856637,32.4393308 93.081,32.946 C93.6763363,33.4526692 94.4046624,33.706 95.266,33.706 Z M112.822,38 C112.467332,38 112.226667,37.8226684 112.1,37.468 L106.742,19.19 C106.716667,19.1393331 106.704,19.0633338 106.704,18.962 C106.704,18.632665 106.893998,18.468 107.274,18.468 L111.454,18.468 C111.859335,18.468 112.1,18.6579981 112.176,19.038 L114.798,30.286 C114.823333,30.3873338 114.874,30.438 114.95,30.438 C115.026,30.438 115.076667,30.3873338 115.102,30.286 L117.914,19.038 C117.99,18.6579981 118.230665,18.468 118.636,18.468 L122.36,18.468 C122.765335,18.468 123.006,18.6579981 123.082,19.038 L125.97,30.324 C125.995333,30.4253338 126.046,30.476 126.122,30.476 C126.198,30.476 126.248667,30.4253338 126.274,30.324 L129.162,19.038 C129.238,18.6579981 129.478665,18.468 129.884,18.468 L134.064,18.506 C134.292001,18.506 134.450333,18.575666 134.539,18.715 C134.627667,18.854334 134.646667,19.0253323 134.596,19.228 L129.162,37.468 C129.035333,37.8226684 128.794668,38 128.44,38 L124.184,38 C123.829332,38 123.588667,37.8226684 123.462,37.468 L120.612,27.512 C120.561333,27.4106662 120.504334,27.36 120.441,27.36 C120.377666,27.36 120.333333,27.4106662 120.308,27.512 L117.8,37.43 C117.724,37.8100019 117.483335,38 117.078,38 L112.822,38 Z" id="Window"></path>
            <path d="M306.16,18.164 C308.186677,18.164 309.82066,18.7846605 311.062,20.026 C312.30334,21.2673395 312.924,22.9519894 312.924,25.08 L312.924,37.354 C312.924,37.7846688 312.708669,38 312.278,38 L308.212,38 C307.781331,38 307.566,37.7846688 307.566,37.354 L307.566,26.182 C307.566,25.1686616 307.287336,24.3453365 306.73,23.712 C306.172664,23.0786635 305.425338,22.762 304.488,22.762 C303.550662,22.762 302.79067,23.0786635 302.208,23.712 C301.62533,24.3453365 301.334,25.1686616 301.334,26.182 L301.334,37.354 C301.334,37.7846688 301.118669,38 300.688,38 L296.622,38 C296.191331,38 295.976,37.7846688 295.976,37.354 L295.976,12.046 C295.976,11.6153312 296.191331,11.4 296.622,11.4 L300.688,11.4 C301.118669,11.4 301.334,11.6153312 301.334,12.046 L301.334,20.178 C301.334,20.2793338 301.359333,20.3426665 301.41,20.368 C301.460667,20.3933335 301.511333,20.3680004 301.562,20.292 C302.600672,18.8733262 304.133323,18.164 306.16,18.164 Z M326.186,33.782 C327.858008,33.7059996 329.137329,33.1233388 330.024,32.034 C330.176001,31.8566658 330.340666,31.768 330.518,31.768 C330.670001,31.768 330.809333,31.8313327 330.936,31.958 L333.102,34.048 C333.254001,34.2000008 333.33,34.3519992 333.33,34.504 C333.33,34.6813342 333.279334,34.8333327 333.178,34.96 C332.341996,35.9986719 331.271673,36.8156637 329.967,37.411 C328.662327,38.0063363 327.237341,38.304 325.692,38.304 C323.361322,38.304 321.429674,37.7086726 319.897,36.518 C318.364326,35.3273274 317.332003,33.6933437 316.8,31.616 C316.495998,30.5013278 316.344,29.3233395 316.344,28.082 C316.344,26.6126593 316.483332,25.3713384 316.762,24.358 C317.268669,22.483324 318.288326,20.9760057 319.821,19.836 C321.353674,18.6959943 323.171323,18.126 325.274,18.126 C327.756679,18.126 329.726326,18.8606593 331.183,20.33 C332.639674,21.7993407 333.583331,23.8639867 334.014,26.524 C334.115334,27.3600042 334.191333,28.2846616 334.242,29.298 C334.242,29.7286688 334.026669,29.944 333.596,29.944 L321.93,29.944 C321.777999,29.944 321.702,30.0199992 321.702,30.172 C321.778,30.7040027 321.866666,31.0966654 321.968,31.35 C322.221335,32.1353373 322.721663,32.7369979 323.469,33.155 C324.216337,33.5730021 325.121995,33.782 326.186,33.782 Z M325.198,22.762 C324.387329,22.762 323.709669,22.9583314 323.165,23.351 C322.620331,23.7436686 322.246668,24.2946631 322.044,25.004 C321.917333,25.4853357 321.841333,25.8019992 321.816,25.954 C321.790667,26.1060008 321.853999,26.182 322.006,26.182 L328.466,26.182 C328.592667,26.182 328.656,26.1313338 328.656,26.03 C328.656,25.7513319 328.605334,25.4600015 328.504,25.156 C328.275999,24.4213297 327.883336,23.8386688 327.326,23.408 C326.768664,22.9773312 326.059338,22.762 325.198,22.762 Z M345.376,18.164 C347.022675,18.164 348.491994,18.4489972 349.784,19.019 C351.076006,19.5890028 352.082996,20.3679951 352.805,21.356 C353.527004,22.3440049 353.888,23.4459939 353.888,24.662 L353.888,37.354 C353.888,37.7846688 353.672669,38 353.242,38 L349.176,38 C348.745331,38 348.53,37.7846688 348.53,37.354 L348.53,36.442 C348.53,36.3406662 348.504667,36.2836667 348.454,36.271 C348.403333,36.2583333 348.34,36.2899996 348.264,36.366 C347.098661,37.6580065 345.363345,38.304 343.058,38.304 C341.107324,38.304 339.536673,37.8226715 338.346,36.86 C337.155327,35.8973285 336.56,34.478676 336.56,32.604 C336.56,30.6533236 337.243993,29.1396721 338.612,28.063 C339.980007,26.986328 341.930654,26.448 344.464,26.448 L348.302,26.448 C348.454001,26.448 348.53,26.3720008 348.53,26.22 L348.53,25.422 C348.53,24.5859958 348.270336,23.933669 347.751,23.465 C347.231664,22.996331 346.478005,22.762 345.49,22.762 C344.729996,22.762 344.103002,22.8886654 343.609,23.142 C343.114998,23.3953346 342.779334,23.7499977 342.602,24.206 C342.449999,24.5606684 342.196668,24.7253335 341.842,24.7 L337.624,24.168 C337.421332,24.1426665 337.263001,24.0856671 337.149,23.997 C337.034999,23.9083329 336.990667,23.7880008 337.016,23.636 C337.142667,22.5973281 337.579663,21.6600042 338.327,20.824 C339.074337,19.9879958 340.062327,19.335669 341.291,18.867 C342.519673,18.398331 343.881326,18.164 345.376,18.164 Z M344.616,34.314 C345.705339,34.314 346.629996,34.0226696 347.39,33.44 C348.150004,32.8573304 348.53,32.1100046 348.53,31.198 L348.53,29.868 C348.53,29.7159992 348.454001,29.64 348.302,29.64 L345.604,29.64 C344.463994,29.64 343.56467,29.8553312 342.906,30.286 C342.24733,30.7166688 341.918,31.3246627 341.918,32.11 C341.918,32.7940034 342.164998,33.3323314 342.659,33.725 C343.153002,34.1176686 343.805329,34.314 344.616,34.314 Z M368.822,22.116 C368.822,22.5466688 368.606669,22.762 368.176,22.762 L364.756,22.762 C364.603999,22.762 364.528,22.8379992 364.528,22.99 L364.528,30.856 C364.528,31.6920042 364.698998,32.3063314 365.041,32.699 C365.383002,33.0916686 365.933996,33.288 366.694,33.288 L367.758,33.288 C368.188669,33.288 368.404,33.5033312 368.404,33.934 L368.404,37.202 C368.404,37.6073354 368.188669,37.8353331 367.758,37.886 C366.795329,37.9366669 366.098669,37.962 365.668,37.962 C363.565323,37.962 361.994672,37.6073369 360.956,36.898 C359.917328,36.1886631 359.385333,34.871343 359.36,32.946 L359.36,22.99 C359.36,22.8379992 359.284001,22.762 359.132,22.762 L357.194,22.762 C356.763331,22.762 356.548,22.5466688 356.548,22.116 L356.548,19.114 C356.548,18.6833312 356.763331,18.468 357.194,18.468 L359.132,18.468 C359.284001,18.468 359.36,18.3920008 359.36,18.24 L359.36,13.946 C359.36,13.5153312 359.575331,13.3 360.006,13.3 L363.882,13.3 C364.312669,13.3 364.528,13.5153312 364.528,13.946 L364.528,18.24 C364.528,18.3920008 364.603999,18.468 364.756,18.468 L368.176,18.468 C368.606669,18.468 368.822,18.6833312 368.822,19.114 L368.822,22.116 Z M371.824,29.07 C371.393331,29.07 371.178,28.8546688 371.178,28.424 L371.178,25.118 C371.178,24.6873312 371.393331,24.472 371.824,24.472 L383.87,24.472 C384.300669,24.472 384.516,24.6873312 384.516,25.118 L384.516,28.424 C384.516,28.8546688 384.300669,29.07 383.87,29.07 L371.824,29.07 Z M395.384,38.266 C393.686658,38.266 392.204673,38.0253357 390.938,37.544 C389.671327,37.0626643 388.696003,36.3913376 388.012,35.53 C387.327997,34.6686624 386.986,33.6933388 386.986,32.604 L386.986,32.414 C386.986,31.9833312 387.201331,31.768 387.632,31.768 L391.47,31.768 C391.900669,31.768 392.116,31.8439992 392.116,31.996 L392.116,32.262 C392.116,32.8193361 392.419997,33.2943314 393.028,33.687 C393.636003,34.0796686 394.408662,34.276 395.346,34.276 C396.207338,34.276 396.903997,34.111335 397.436,33.782 C397.968003,33.452665 398.234,33.0220027 398.234,32.49 C398.234,32.0339977 398.006002,31.6920011 397.55,31.464 C397.093998,31.2359989 396.346672,30.9953346 395.308,30.742 C394.06666,30.412665 393.142003,30.1213346 392.534,29.868 C390.887325,29.3106639 389.582671,28.6266707 388.62,27.816 C387.657329,27.0053293 387.176,25.8400076 387.176,24.32 C387.176,22.445324 387.910659,20.9570055 389.38,19.855 C390.849341,18.7529945 392.774655,18.202 395.156,18.202 C396.777341,18.202 398.202327,18.4616641 399.431,18.981 C400.659673,19.5003359 401.609663,20.228662 402.281,21.166 C402.952337,22.103338 403.288,23.1673274 403.288,24.358 C403.288,24.4846673 403.231001,24.5923329 403.117,24.681 C403.002999,24.7696671 402.844668,24.814 402.642,24.814 L398.918,24.814 C398.487331,24.814 398.272,24.7380008 398.272,24.586 L398.272,24.358 C398.272,23.8006639 397.993336,23.3320019 397.436,22.952 C396.878664,22.5719981 396.131338,22.382 395.194,22.382 C394.357996,22.382 393.667669,22.5339985 393.123,22.838 C392.578331,23.1420015 392.306,23.5599973 392.306,24.092 C392.306,24.5986692 392.565664,24.9786654 393.085,25.232 C393.604336,25.4853346 394.459327,25.7513319 395.65,26.03 C396.38467,26.1820008 397.093997,26.3719989 397.778,26.6 C399.602009,27.1320027 401.033328,27.8159958 402.072,28.652 C403.110672,29.4880042 403.63,30.703992 403.63,32.3 C403.63,34.174676 402.882674,35.6376614 401.388,36.689 C399.893326,37.7403386 397.892013,38.266 395.384,38.266 Z M416.132,33.782 C417.804008,33.7059996 419.083329,33.1233388 419.97,32.034 C420.122001,31.8566658 420.286666,31.768 420.464,31.768 C420.616001,31.768 420.755333,31.8313327 420.882,31.958 L423.048,34.048 C423.200001,34.2000008 423.276,34.3519992 423.276,34.504 C423.276,34.6813342 423.225334,34.8333327 423.124,34.96 C422.287996,35.9986719 421.217673,36.8156637 419.913,37.411 C418.608327,38.0063363 417.183341,38.304 415.638,38.304 C413.307322,38.304 411.375674,37.7086726 409.843,36.518 C408.310326,35.3273274 407.278003,33.6933437 406.746,31.616 C406.441998,30.5013278 406.29,29.3233395 406.29,28.082 C406.29,26.6126593 406.429332,25.3713384 406.708,24.358 C407.214669,22.483324 408.234326,20.9760057 409.767,19.836 C411.299674,18.6959943 413.117323,18.126 415.22,18.126 C417.702679,18.126 419.672326,18.8606593 421.129,20.33 C422.585674,21.7993407 423.529331,23.8639867 423.96,26.524 C424.061334,27.3600042 424.137333,28.2846616 424.188,29.298 C424.188,29.7286688 423.972669,29.944 423.542,29.944 L411.876,29.944 C411.723999,29.944 411.648,30.0199992 411.648,30.172 C411.724,30.7040027 411.812666,31.0966654 411.914,31.35 C412.167335,32.1353373 412.667663,32.7369979 413.415,33.155 C414.162337,33.5730021 415.067995,33.782 416.132,33.782 Z M415.144,22.762 C414.333329,22.762 413.655669,22.9583314 413.111,23.351 C412.566331,23.7436686 412.192668,24.2946631 411.99,25.004 C411.863333,25.4853357 411.787333,25.8019992 411.762,25.954 C411.736667,26.1060008 411.799999,26.182 411.952,26.182 L418.412,26.182 C418.538667,26.182 418.602,26.1313338 418.602,26.03 C418.602,25.7513319 418.551334,25.4600015 418.45,25.156 C418.221999,24.4213297 417.829336,23.8386688 417.272,23.408 C416.714664,22.9773312 416.005338,22.762 415.144,22.762 Z M437.678,18.164 C439.704677,18.164 441.33866,18.7846605 442.58,20.026 C443.82134,21.2673395 444.442,22.9519894 444.442,25.08 L444.442,37.354 C444.442,37.7846688 444.226669,38 443.796,38 L439.73,38 C439.299331,38 439.084,37.7846688 439.084,37.354 L439.084,26.182 C439.084,25.1686616 438.805336,24.3453365 438.248,23.712 C437.690664,23.0786635 436.943338,22.762 436.006,22.762 C435.068662,22.762 434.30867,23.0786635 433.726,23.712 C433.14333,24.3453365 432.852,25.1686616 432.852,26.182 L432.852,37.354 C432.852,37.7846688 432.636669,38 432.206,38 L428.14,38 C427.709331,38 427.494,37.7846688 427.494,37.354 L427.494,19.114 C427.494,18.6833312 427.709331,18.468 428.14,18.468 L432.206,18.468 C432.636669,18.468 432.852,18.6833312 432.852,19.114 L432.852,20.178 C432.852,20.2793338 432.877333,20.3426665 432.928,20.368 C432.978667,20.3933335 433.029333,20.3680004 433.08,20.292 C434.118672,18.8733262 435.651323,18.164 437.678,18.164 Z M456.07,38.266 C454.372658,38.266 452.890673,38.0253357 451.624,37.544 C450.357327,37.0626643 449.382003,36.3913376 448.698,35.53 C448.013997,34.6686624 447.672,33.6933388 447.672,32.604 L447.672,32.414 C447.672,31.9833312 447.887331,31.768 448.318,31.768 L452.156,31.768 C452.586669,31.768 452.802,31.8439992 452.802,31.996 L452.802,32.262 C452.802,32.8193361 453.105997,33.2943314 453.714,33.687 C454.322003,34.0796686 455.094662,34.276 456.032,34.276 C456.893338,34.276 457.589997,34.111335 458.122,33.782 C458.654003,33.452665 458.92,33.0220027 458.92,32.49 C458.92,32.0339977 458.692002,31.6920011 458.236,31.464 C457.779998,31.2359989 457.032672,30.9953346 455.994,30.742 C454.75266,30.412665 453.828003,30.1213346 453.22,29.868 C451.573325,29.3106639 450.268671,28.6266707 449.306,27.816 C448.343329,27.0053293 447.862,25.8400076 447.862,24.32 C447.862,22.445324 448.596659,20.9570055 450.066,19.855 C451.535341,18.7529945 453.460655,18.202 455.842,18.202 C457.463341,18.202 458.888327,18.4616641 460.117,18.981 C461.345673,19.5003359 462.295663,20.228662 462.967,21.166 C463.638337,22.103338 463.974,23.1673274 463.974,24.358 C463.974,24.4846673 463.917001,24.5923329 463.803,24.681 C463.688999,24.7696671 463.530668,24.814 463.328,24.814 L459.604,24.814 C459.173331,24.814 458.958,24.7380008 458.958,24.586 L458.958,24.358 C458.958,23.8006639 458.679336,23.3320019 458.122,22.952 C457.564664,22.5719981 456.817338,22.382 455.88,22.382 C455.043996,22.382 454.353669,22.5339985 453.809,22.838 C453.264331,23.1420015 452.992,23.5599973 452.992,24.092 C452.992,24.5986692 453.251664,24.9786654 453.771,25.232 C454.290336,25.4853346 455.145327,25.7513319 456.336,26.03 C457.07067,26.1820008 457.779997,26.3719989 458.464,26.6 C460.288009,27.1320027 461.719328,27.8159958 462.758,28.652 C463.796672,29.4880042 464.316,30.703992 464.316,32.3 C464.316,34.174676 463.568674,35.6376614 462.074,36.689 C460.579326,37.7403386 458.578013,38.266 456.07,38.266 Z M470.358,16.606 C469.395329,16.606 468.610003,16.3083363 468.002,15.713 C467.393997,15.1176637 467.09,14.351338 467.09,13.414 C467.09,12.476662 467.393997,11.7103363 468.002,11.115 C468.610003,10.5196637 469.395329,10.222 470.358,10.222 C471.346005,10.222 472.137664,10.5133304 472.733,11.096 C473.328336,11.6786696 473.626,12.4513285 473.626,13.414 C473.626,14.3766715 473.328336,15.1493304 472.733,15.732 C472.137664,16.3146696 471.346005,16.606 470.358,16.606 Z M468.344,38 C467.913331,38 467.698,37.7846688 467.698,37.354 L467.698,19.114 C467.698,18.6833312 467.913331,18.468 468.344,18.468 L472.41,18.468 C472.840669,18.468 473.056,18.6833312 473.056,19.114 L473.056,37.354 C473.056,37.7846688 472.840669,38 472.41,38 L468.344,38 Z M488.484,22.116 C488.484,22.5466688 488.268669,22.762 487.838,22.762 L484.418,22.762 C484.265999,22.762 484.19,22.8379992 484.19,22.99 L484.19,30.856 C484.19,31.6920042 484.360998,32.3063314 484.703,32.699 C485.045002,33.0916686 485.595996,33.288 486.356,33.288 L487.42,33.288 C487.850669,33.288 488.066,33.5033312 488.066,33.934 L488.066,37.202 C488.066,37.6073354 487.850669,37.8353331 487.42,37.886 C486.457329,37.9366669 485.760669,37.962 485.33,37.962 C483.227323,37.962 481.656672,37.6073369 480.618,36.898 C479.579328,36.1886631 479.047333,34.871343 479.022,32.946 L479.022,22.99 C479.022,22.8379992 478.946001,22.762 478.794,22.762 L476.856,22.762 C476.425331,22.762 476.21,22.5466688 476.21,22.116 L476.21,19.114 C476.21,18.6833312 476.425331,18.468 476.856,18.468 L478.794,18.468 C478.946001,18.468 479.022,18.3920008 479.022,18.24 L479.022,13.946 C479.022,13.5153312 479.237331,13.3 479.668,13.3 L483.544,13.3 C483.974669,13.3 484.19,13.5153312 484.19,13.946 L484.19,18.24 C484.19,18.3920008 484.265999,18.468 484.418,18.468 L487.838,18.468 C488.268669,18.468 488.484,18.6833312 488.484,19.114 L488.484,22.116 Z M494.678,16.606 C493.715329,16.606 492.930003,16.3083363 492.322,15.713 C491.713997,15.1176637 491.41,14.351338 491.41,13.414 C491.41,12.476662 491.713997,11.7103363 492.322,11.115 C492.930003,10.5196637 493.715329,10.222 494.678,10.222 C495.666005,10.222 496.457664,10.5133304 497.053,11.096 C497.648336,11.6786696 497.946,12.4513285 497.946,13.414 C497.946,14.3766715 497.648336,15.1493304 497.053,15.732 C496.457664,16.3146696 495.666005,16.606 494.678,16.606 Z M492.664,38 C492.233331,38 492.018,37.7846688 492.018,37.354 L492.018,19.114 C492.018,18.6833312 492.233331,18.468 492.664,18.468 L496.73,18.468 C497.160669,18.468 497.376,18.6833312 497.376,19.114 L497.376,37.354 C497.376,37.7846688 497.160669,38 496.73,38 L492.664,38 Z M507.18,38 C506.825332,38 506.584667,37.8226684 506.458,37.468 L500.568,19.19 C500.542667,19.1393331 500.53,19.0633338 500.53,18.962 C500.53,18.8099992 500.580666,18.6896671 500.682,18.601 C500.783334,18.5123329 500.922666,18.468 501.1,18.468 L505.584,18.468 C505.938668,18.468 506.179333,18.6579981 506.306,19.038 L509.346,30.438 C509.371333,30.5393338 509.422,30.59 509.498,30.59 C509.574,30.59 509.624667,30.5393338 509.65,30.438 L512.69,19.038 C512.816667,18.6579981 513.057332,18.468 513.412,18.468 L517.896,18.506 C518.124001,18.506 518.288666,18.575666 518.39,18.715 C518.491334,18.854334 518.504,19.0253323 518.428,19.228 L512.576,37.468 C512.449333,37.8226684 512.196002,38 511.816,38 L507.18,38 Z M530.778,33.782 C532.450008,33.7059996 533.729329,33.1233388 534.616,32.034 C534.768001,31.8566658 534.932666,31.768 535.11,31.768 C535.262001,31.768 535.401333,31.8313327 535.528,31.958 L537.694,34.048 C537.846001,34.2000008 537.922,34.3519992 537.922,34.504 C537.922,34.6813342 537.871334,34.8333327 537.77,34.96 C536.933996,35.9986719 535.863673,36.8156637 534.559,37.411 C533.254327,38.0063363 531.829341,38.304 530.284,38.304 C527.953322,38.304 526.021674,37.7086726 524.489,36.518 C522.956326,35.3273274 521.924003,33.6933437 521.392,31.616 C521.087998,30.5013278 520.936,29.3233395 520.936,28.082 C520.936,26.6126593 521.075332,25.3713384 521.354,24.358 C521.860669,22.483324 522.880326,20.9760057 524.413,19.836 C525.945674,18.6959943 527.763323,18.126 529.866,18.126 C532.348679,18.126 534.318326,18.8606593 535.775,20.33 C537.231674,21.7993407 538.175331,23.8639867 538.606,26.524 C538.707334,27.3600042 538.783333,28.2846616 538.834,29.298 C538.834,29.7286688 538.618669,29.944 538.188,29.944 L526.522,29.944 C526.369999,29.944 526.294,30.0199992 526.294,30.172 C526.37,30.7040027 526.458666,31.0966654 526.56,31.35 C526.813335,32.1353373 527.313663,32.7369979 528.061,33.155 C528.808337,33.5730021 529.713995,33.782 530.778,33.782 Z M529.79,22.762 C528.979329,22.762 528.301669,22.9583314 527.757,23.351 C527.212331,23.7436686 526.838668,24.2946631 526.636,25.004 C526.509333,25.4853357 526.433333,25.8019992 526.408,25.954 C526.382667,26.1060008 526.445999,26.182 526.598,26.182 L533.058,26.182 C533.184667,26.182 533.248,26.1313338 533.248,26.03 C533.248,25.7513319 533.197334,25.4600015 533.096,25.156 C532.867999,24.4213297 532.475336,23.8386688 531.918,23.408 C531.360664,22.9773312 530.651338,22.762 529.79,22.762 Z M571.4,18.164 C573.37601,18.164 574.921328,18.7593274 576.036,19.95 C577.150672,21.1406726 577.708,22.8126559 577.708,24.966 L577.708,37.354 C577.708,37.7846688 577.492669,38 577.062,38 L572.996,38 C572.565331,38 572.35,37.7846688 572.35,37.354 L572.35,26.144 C572.35,25.1053281 572.084003,24.282003 571.552,23.674 C571.019997,23.065997 570.310671,22.762 569.424,22.762 C568.537329,22.762 567.815336,23.065997 567.258,23.674 C566.700664,24.282003 566.422,25.0926616 566.422,26.106 L566.422,37.354 C566.422,37.7846688 566.206669,38 565.776,38 L561.748,38 C561.317331,38 561.102,37.7846688 561.102,37.354 L561.102,26.144 C561.102,25.1306616 560.823336,24.3136698 560.266,23.693 C559.708664,23.0723302 558.986671,22.762 558.1,22.762 C557.289329,22.762 556.611669,23.0026643 556.067,23.484 C555.522331,23.9653357 555.199334,24.6366624 555.098,25.498 L555.098,37.354 C555.098,37.7846688 554.882669,38 554.452,38 L550.386,38 C549.955331,38 549.74,37.7846688 549.74,37.354 L549.74,19.114 C549.74,18.6833312 549.955331,18.468 550.386,18.468 L554.452,18.468 C554.882669,18.468 555.098,18.6833312 555.098,19.114 L555.098,20.33 C555.098,20.4313338 555.129666,20.4946665 555.193,20.52 C555.256334,20.5453335 555.313333,20.5073338 555.364,20.406 C556.402672,18.9113259 557.998656,18.164 560.152,18.164 C561.418673,18.164 562.520662,18.4236641 563.458,18.943 C564.395338,19.4623359 565.117331,20.2159951 565.624,21.204 C565.649333,21.3053338 565.693666,21.3496667 565.757,21.337 C565.820334,21.3243333 565.877333,21.2800004 565.928,21.204 C566.51067,20.1906616 567.270662,19.4306692 568.208,18.924 C569.145338,18.4173308 570.209327,18.164 571.4,18.164 Z M589.298,18.164 C590.944675,18.164 592.413994,18.4489972 593.706,19.019 C594.998006,19.5890028 596.004996,20.3679951 596.727,21.356 C597.449004,22.3440049 597.81,23.4459939 597.81,24.662 L597.81,37.354 C597.81,37.7846688 597.594669,38 597.164,38 L593.098,38 C592.667331,38 592.452,37.7846688 592.452,37.354 L592.452,36.442 C592.452,36.3406662 592.426667,36.2836667 592.376,36.271 C592.325333,36.2583333 592.262,36.2899996 592.186,36.366 C591.020661,37.6580065 589.285345,38.304 586.98,38.304 C585.029324,38.304 583.458673,37.8226715 582.268,36.86 C581.077327,35.8973285 580.482,34.478676 580.482,32.604 C580.482,30.6533236 581.165993,29.1396721 582.534,28.063 C583.902007,26.986328 585.852654,26.448 588.386,26.448 L592.224,26.448 C592.376001,26.448 592.452,26.3720008 592.452,26.22 L592.452,25.422 C592.452,24.5859958 592.192336,23.933669 591.673,23.465 C591.153664,22.996331 590.400005,22.762 589.412,22.762 C588.651996,22.762 588.025002,22.8886654 587.531,23.142 C587.036998,23.3953346 586.701334,23.7499977 586.524,24.206 C586.371999,24.5606684 586.118668,24.7253335 585.764,24.7 L581.546,24.168 C581.343332,24.1426665 581.185001,24.0856671 581.071,23.997 C580.956999,23.9083329 580.912667,23.7880008 580.938,23.636 C581.064667,22.5973281 581.501663,21.6600042 582.249,20.824 C582.996337,19.9879958 583.984327,19.335669 585.213,18.867 C586.441673,18.398331 587.803326,18.164 589.298,18.164 Z M588.538,34.314 C589.627339,34.314 590.551996,34.0226696 591.312,33.44 C592.072004,32.8573304 592.452,32.1100046 592.452,31.198 L592.452,29.868 C592.452,29.7159992 592.376001,29.64 592.224,29.64 L589.526,29.64 C588.385994,29.64 587.48667,29.8553312 586.828,30.286 C586.16933,30.7166688 585.84,31.3246627 585.84,32.11 C585.84,32.7940034 586.086998,33.3323314 586.581,33.725 C587.075002,34.1176686 587.727329,34.314 588.538,34.314 Z M612.744,22.116 C612.744,22.5466688 612.528669,22.762 612.098,22.762 L608.678,22.762 C608.525999,22.762 608.45,22.8379992 608.45,22.99 L608.45,30.856 C608.45,31.6920042 608.620998,32.3063314 608.963,32.699 C609.305002,33.0916686 609.855996,33.288 610.616,33.288 L611.68,33.288 C612.110669,33.288 612.326,33.5033312 612.326,33.934 L612.326,37.202 C612.326,37.6073354 612.110669,37.8353331 611.68,37.886 C610.717329,37.9366669 610.020669,37.962 609.59,37.962 C607.487323,37.962 605.916672,37.6073369 604.878,36.898 C603.839328,36.1886631 603.307333,34.871343 603.282,32.946 L603.282,22.99 C603.282,22.8379992 603.206001,22.762 603.054,22.762 L601.116,22.762 C600.685331,22.762 600.47,22.5466688 600.47,22.116 L600.47,19.114 C600.47,18.6833312 600.685331,18.468 601.116,18.468 L603.054,18.468 C603.206001,18.468 603.282,18.3920008 603.282,18.24 L603.282,13.946 C603.282,13.5153312 603.497331,13.3 603.928,13.3 L607.804,13.3 C608.234669,13.3 608.45,13.5153312 608.45,13.946 L608.45,18.24 C608.45,18.3920008 608.525999,18.468 608.678,18.468 L612.098,18.468 C612.528669,18.468 612.744,18.6833312 612.744,19.114 L612.744,22.116 Z M625.398,33.782 C627.070008,33.7059996 628.349329,33.1233388 629.236,32.034 C629.388001,31.8566658 629.552666,31.768 629.73,31.768 C629.882001,31.768 630.021333,31.8313327 630.148,31.958 L632.314,34.048 C632.466001,34.2000008 632.542,34.3519992 632.542,34.504 C632.542,34.6813342 632.491334,34.8333327 632.39,34.96 C631.553996,35.9986719 630.483673,36.8156637 629.179,37.411 C627.874327,38.0063363 626.449341,38.304 624.904,38.304 C622.573322,38.304 620.641674,37.7086726 619.109,36.518 C617.576326,35.3273274 616.544003,33.6933437 616.012,31.616 C615.707998,30.5013278 615.556,29.3233395 615.556,28.082 C615.556,26.6126593 615.695332,25.3713384 615.974,24.358 C616.480669,22.483324 617.500326,20.9760057 619.033,19.836 C620.565674,18.6959943 622.383323,18.126 624.486,18.126 C626.968679,18.126 628.938326,18.8606593 630.395,20.33 C631.851674,21.7993407 632.795331,23.8639867 633.226,26.524 C633.327334,27.3600042 633.403333,28.2846616 633.454,29.298 C633.454,29.7286688 633.238669,29.944 632.808,29.944 L621.142,29.944 C620.989999,29.944 620.914,30.0199992 620.914,30.172 C620.99,30.7040027 621.078666,31.0966654 621.18,31.35 C621.433335,32.1353373 621.933663,32.7369979 622.681,33.155 C623.428337,33.5730021 624.333995,33.782 625.398,33.782 Z M624.41,22.762 C623.599329,22.762 622.921669,22.9583314 622.377,23.351 C621.832331,23.7436686 621.458668,24.2946631 621.256,25.004 C621.129333,25.4853357 621.053333,25.8019992 621.028,25.954 C621.002667,26.1060008 621.065999,26.182 621.218,26.182 L627.678,26.182 C627.804667,26.182 627.868,26.1313338 627.868,26.03 C627.868,25.7513319 627.817334,25.4600015 627.716,25.156 C627.487999,24.4213297 627.095336,23.8386688 626.538,23.408 C625.980664,22.9773312 625.271338,22.762 624.41,22.762 Z M646.488,18.202 C647.298671,18.202 647.969997,18.3539985 648.502,18.658 C648.806002,18.8100008 648.92,19.0759981 648.844,19.456 L648.122,23.446 C648.096667,23.6740011 648.027001,23.8133331 647.913,23.864 C647.798999,23.9146669 647.615335,23.9146669 647.362,23.864 C646.956665,23.7626662 646.589335,23.712 646.26,23.712 C646.082666,23.712 645.791335,23.7373331 645.386,23.788 C644.473995,23.8640004 643.701337,24.1996637 643.068,24.795 C642.434663,25.3903363 642.118,26.1819951 642.118,27.17 L642.118,37.354 C642.118,37.7846688 641.902669,38 641.472,38 L637.406,38 C636.975331,38 636.76,37.7846688 636.76,37.354 L636.76,19.114 C636.76,18.6833312 636.975331,18.468 637.406,18.468 L641.472,18.468 C641.902669,18.468 642.118,18.6833312 642.118,19.114 L642.118,20.292 C642.118,20.3933338 642.143333,20.4566665 642.194,20.482 C642.244667,20.5073335 642.308,20.4820004 642.384,20.406 C643.397338,18.9366593 644.765325,18.202 646.488,18.202 Z M654.278,16.606 C653.315329,16.606 652.530003,16.3083363 651.922,15.713 C651.313997,15.1176637 651.01,14.351338 651.01,13.414 C651.01,12.476662 651.313997,11.7103363 651.922,11.115 C652.530003,10.5196637 653.315329,10.222 654.278,10.222 C655.266005,10.222 656.057664,10.5133304 656.653,11.096 C657.248336,11.6786696 657.546,12.4513285 657.546,13.414 C657.546,14.3766715 657.248336,15.1493304 656.653,15.732 C656.057664,16.3146696 655.266005,16.606 654.278,16.606 Z M652.264,38 C651.833331,38 651.618,37.7846688 651.618,37.354 L651.618,19.114 C651.618,18.6833312 651.833331,18.468 652.264,18.468 L656.33,18.468 C656.760669,18.468 656.976,18.6833312 656.976,19.114 L656.976,37.354 C656.976,37.7846688 656.760669,38 656.33,38 L652.264,38 Z M669.022,18.164 C670.668675,18.164 672.137994,18.4489972 673.43,19.019 C674.722006,19.5890028 675.728996,20.3679951 676.451,21.356 C677.173004,22.3440049 677.534,23.4459939 677.534,24.662 L677.534,37.354 C677.534,37.7846688 677.318669,38 676.888,38 L672.822,38 C672.391331,38 672.176,37.7846688 672.176,37.354 L672.176,36.442 C672.176,36.3406662 672.150667,36.2836667 672.1,36.271 C672.049333,36.2583333 671.986,36.2899996 671.91,36.366 C670.744661,37.6580065 669.009345,38.304 666.704,38.304 C664.753324,38.304 663.182673,37.8226715 661.992,36.86 C660.801327,35.8973285 660.206,34.478676 660.206,32.604 C660.206,30.6533236 660.889993,29.1396721 662.258,28.063 C663.626007,26.986328 665.576654,26.448 668.11,26.448 L671.948,26.448 C672.100001,26.448 672.176,26.3720008 672.176,26.22 L672.176,25.422 C672.176,24.5859958 671.916336,23.933669 671.397,23.465 C670.877664,22.996331 670.124005,22.762 669.136,22.762 C668.375996,22.762 667.749002,22.8886654 667.255,23.142 C666.760998,23.3953346 666.425334,23.7499977 666.248,24.206 C666.095999,24.5606684 665.842668,24.7253335 665.488,24.7 L661.27,24.168 C661.067332,24.1426665 660.909001,24.0856671 660.795,23.997 C660.680999,23.9083329 660.636667,23.7880008 660.662,23.636 C660.788667,22.5973281 661.225663,21.6600042 661.973,20.824 C662.720337,19.9879958 663.708327,19.335669 664.937,18.867 C666.165673,18.398331 667.527326,18.164 669.022,18.164 Z M668.262,34.314 C669.351339,34.314 670.275996,34.0226696 671.036,33.44 C671.796004,32.8573304 672.176,32.1100046 672.176,31.198 L672.176,29.868 C672.176,29.7159992 672.100001,29.64 671.948,29.64 L669.25,29.64 C668.109994,29.64 667.21067,29.8553312 666.552,30.286 C665.89333,30.7166688 665.564,31.3246627 665.564,32.11 C665.564,32.7940034 665.810998,33.3323314 666.305,33.725 C666.799002,34.1176686 667.451329,34.314 668.262,34.314 Z M681.98,38 C681.549331,38 681.334,37.7846688 681.334,37.354 L681.334,12.046 C681.334,11.6153312 681.549331,11.4 681.98,11.4 L686.046,11.4 C686.476669,11.4 686.692,11.6153312 686.692,12.046 L686.692,37.354 C686.692,37.7846688 686.476669,38 686.046,38 L681.98,38 Z" id="heat-sensitive-mater"></path>
            <path d="M182.156,38 C181.877332,38 181.725333,37.8606681 181.7,37.582 L178.774,19.342 L178.774,19.228 C178.774,19.1013327 178.818333,18.9936671 178.907,18.905 C178.995667,18.8163329 179.103333,18.772 179.23,18.772 L180.978,18.772 C181.256668,18.772 181.408667,18.9113319 181.434,19.19 L183.448,34.01 C183.473333,34.0860004 183.511333,34.124 183.562,34.124 C183.612667,34.124 183.650667,34.0860004 183.676,34.01 L189.452,19.19 C189.553334,18.9113319 189.743332,18.772 190.022,18.772 L191.618,18.772 C191.922002,18.772 192.086667,18.9113319 192.112,19.19 L194.278,34.01 C194.303333,34.0860004 194.341333,34.124 194.392,34.124 C194.442667,34.124 194.480667,34.0860004 194.506,34.01 L200.282,19.19 C200.383334,18.9113319 200.585998,18.772 200.89,18.772 L202.562,18.81 C202.739334,18.81 202.859666,18.8606662 202.923,18.962 C202.986334,19.0633338 202.98,19.2026658 202.904,19.38 L195.456,37.582 C195.354666,37.8606681 195.164668,38 194.886,38 L193.062,38 C192.783332,38 192.631333,37.8606681 192.606,37.582 L190.326,23.56 C190.326,23.4839996 190.300667,23.446 190.25,23.446 C190.199333,23.446 190.161333,23.4839996 190.136,23.56 L184.55,37.582 C184.448666,37.8606681 184.258668,38 183.98,38 L182.156,38 Z M209.136,15.314 C208.603997,15.314 208.173335,15.1620015 207.844,14.858 C207.514665,14.5539985 207.35,14.1486692 207.35,13.642 C207.35,13.0086635 207.565331,12.4766688 207.996,12.046 C208.426669,11.6153312 208.97133,11.4 209.63,11.4 C210.162003,11.4 210.592665,11.5519985 210.922,11.856 C211.251335,12.1600015 211.416,12.5526643 211.416,13.034 C211.416,13.69267 211.200669,14.2373312 210.77,14.668 C210.339331,15.0986688 209.79467,15.314 209.136,15.314 Z M205.564,38 C205.234665,38 205.095333,37.835335 205.146,37.506 L207.35,19.266 C207.375333,19.1139992 207.438666,18.9936671 207.54,18.905 C207.641334,18.8163329 207.767999,18.772 207.92,18.772 L209.554,18.772 C209.883335,18.772 210.022667,18.936665 209.972,19.266 L207.73,37.506 C207.679333,37.835335 207.502002,38 207.198,38 L205.564,38 Z M224.336,20.52 C224.310667,20.6720008 224.247334,20.7923329 224.146,20.881 C224.044666,20.9696671 223.930667,21.014 223.804,21.014 L219.776,21.014 C219.674666,21.014 219.598667,21.0773327 219.548,21.204 L218.218,32.3 C218.192667,32.5026677 218.18,32.7813316 218.18,33.136 C218.18,34.0226711 218.414331,34.6559981 218.883,35.036 C219.351669,35.4160019 220.079995,35.606 221.068,35.606 L221.904,35.606 C222.030667,35.606 222.138333,35.6503329 222.227,35.739 C222.315667,35.8276671 222.347333,35.9479992 222.322,36.1 L222.132,37.43 C222.081333,37.759335 221.904002,37.9366665 221.6,37.962 L220.346,37.962 C218.749992,37.962 217.540337,37.6896694 216.717,37.145 C215.893663,36.6003306 215.482,35.6186738 215.482,34.2 C215.482,33.9973323 215.507333,33.6426692 215.558,33.136 L217.04,21.204 C217.04,21.0773327 216.976667,21.014 216.85,21.014 L214.76,21.014 C214.430665,21.014 214.291333,20.849335 214.342,20.52 L214.494,19.266 C214.544667,18.936665 214.721998,18.772 215.026,18.772 L217.154,18.772 C217.204667,18.772 217.249,18.7530002 217.287,18.715 C217.325,18.6769998 217.344,18.6326669 217.344,18.582 L217.876,14.326 C217.926667,13.996665 218.103998,13.832 218.408,13.832 L220.004,13.832 C220.130667,13.832 220.238333,13.8763329 220.327,13.965 C220.415667,14.0536671 220.447333,14.1739992 220.422,14.326 L219.89,18.582 C219.89,18.7086673 219.940666,18.772 220.042,18.772 L224.07,18.772 C224.399335,18.772 224.538667,18.936665 224.488,19.266 L224.336,20.52 Z M237.37,18.506 C239.118009,18.506 240.498662,18.9999951 241.512,19.988 C242.525338,20.9760049 243.032,22.3186582 243.032,24.016 C243.032,24.2186677 243.006667,24.5733308 242.956,25.08 L241.436,37.506 C241.385333,37.835335 241.208002,38 240.904,38 L239.232,38 C239.105333,38 238.997667,37.9556671 238.909,37.867 C238.820333,37.7783329 238.788667,37.6580008 238.814,37.506 L240.296,25.612 C240.321333,25.4346658 240.334,25.181335 240.334,24.852 C240.334,23.6359939 239.992003,22.6670036 239.308,21.945 C238.623997,21.2229964 237.686673,20.862 236.496,20.862 C235.25466,20.862 234.178005,21.2293297 233.266,21.964 C232.353995,22.6986703 231.758668,23.6613274 231.48,24.852 L229.922,37.506 C229.896667,37.6580008 229.833334,37.7783329 229.732,37.867 C229.630666,37.9556671 229.504001,38 229.352,38 L227.718,38 C227.388665,38 227.249333,37.835335 227.3,37.506 L230.454,11.894 C230.504667,11.564665 230.681998,11.4 230.986,11.4 L232.62,11.4 C232.949335,11.4 233.088667,11.564665 233.038,11.894 L231.974,20.672 C231.974,20.7480004 231.993,20.8049998 232.031,20.843 C232.069,20.8810002 232.113333,20.8620004 232.164,20.786 C233.380006,19.2659924 235.115322,18.506 237.37,18.506 Z" id="with"></path>
            <path d="M64.596,91.708 C64.3559988,91.708 64.1520008,91.6240008 63.984,91.456 C63.8159992,91.2879992 63.732,91.0840012 63.732,90.844 L63.732,89.188 C63.732,88.9479988 63.8159992,88.7440008 63.984,88.576 C64.1520008,88.4079992 64.3559988,88.324 64.596,88.324 L67.404,88.324 C68.796007,88.324 69.8279966,87.8800044 70.5,86.992 C71.1720034,86.1039956 71.508,84.7000096 71.508,82.78 L71.508,67.804 C71.508,65.6439892 71.7839972,63.9400062 72.336,62.692 C72.8880028,61.4439938 73.7399942,60.5080031 74.892,59.884 C75.1320012,59.7399993 75.1320012,59.6200005 74.892,59.524 C73.7399942,58.9479971 72.8880028,58.0360062 72.336,56.788 C71.7839972,55.5399938 71.508,53.8360108 71.508,51.676 L71.508,37.204 C71.508,35.2839904 71.1720034,33.8800044 70.5,32.992 C69.8279966,32.1039956 68.796007,31.66 67.404,31.66 L64.596,31.66 C64.3559988,31.66 64.1520008,31.5760008 63.984,31.408 C63.8159992,31.2399992 63.732,31.0360012 63.732,30.796 L63.732,29.068 C63.732,28.8279988 63.8159992,28.6240008 63.984,28.456 C64.1520008,28.2879992 64.3559988,28.204 64.596,28.204 L68.484,28.204 C70.884012,28.204 72.6239946,28.8399936 73.704,30.112 C74.7840054,31.3840064 75.324,33.4359858 75.324,36.268 L75.324,51.604 C75.324,53.5720098 75.6119971,55.0719948 76.188,56.104 C76.7640029,57.1360052 77.6279942,57.7719988 78.78,58.012 C79.3080026,58.1560007 79.572,58.4679976 79.572,58.948 L79.572,60.532 C79.572,61.0120024 79.3080026,61.3239993 78.78,61.468 C77.579994,61.7080012 76.7040028,62.3439948 76.152,63.376 C75.5999972,64.4080052 75.324,65.9319899 75.324,67.948 L75.324,83.716 C75.324,86.5480142 74.7840054,88.5879938 73.704,89.836 C72.6239946,91.0840062 70.884012,91.708 68.484,91.708 L64.596,91.708 Z" id="}" transform="translate(71.652000, 59.956000) rotate(90.000000) translate(-71.652000, -59.956000) "></path>
            <path d="M204.596,91.708 C204.355999,91.708 204.152001,91.6240008 203.984,91.456 C203.815999,91.2879992 203.732,91.0840012 203.732,90.844 L203.732,89.188 C203.732,88.9479988 203.815999,88.7440008 203.984,88.576 C204.152001,88.4079992 204.355999,88.324 204.596,88.324 L207.404,88.324 C208.796007,88.324 209.827997,87.8800044 210.5,86.992 C211.172003,86.1039956 211.508,84.7000096 211.508,82.78 L211.508,67.804 C211.508,65.6439892 211.783997,63.9400062 212.336,62.692 C212.888003,61.4439938 213.739994,60.5080031 214.892,59.884 C215.132001,59.7399993 215.132001,59.6200005 214.892,59.524 C213.739994,58.9479971 212.888003,58.0360062 212.336,56.788 C211.783997,55.5399938 211.508,53.8360108 211.508,51.676 L211.508,37.204 C211.508,35.2839904 211.172003,33.8800044 210.5,32.992 C209.827997,32.1039956 208.796007,31.66 207.404,31.66 L204.596,31.66 C204.355999,31.66 204.152001,31.5760008 203.984,31.408 C203.815999,31.2399992 203.732,31.0360012 203.732,30.796 L203.732,29.068 C203.732,28.8279988 203.815999,28.6240008 203.984,28.456 C204.152001,28.2879992 204.355999,28.204 204.596,28.204 L208.484,28.204 C210.884012,28.204 212.623995,28.8399936 213.704,30.112 C214.784005,31.3840064 215.324,33.4359858 215.324,36.268 L215.324,51.604 C215.324,53.5720098 215.611997,55.0719948 216.188,56.104 C216.764003,57.1360052 217.627994,57.7719988 218.78,58.012 C219.308003,58.1560007 219.572,58.4679976 219.572,58.948 L219.572,60.532 C219.572,61.0120024 219.308003,61.3239993 218.78,61.468 C217.579994,61.7080012 216.704003,62.3439948 216.152,63.376 C215.599997,64.4080052 215.324,65.9319899 215.324,67.948 L215.324,83.716 C215.324,86.5480142 214.784005,88.5879938 213.704,89.836 C212.623995,91.0840062 210.884012,91.708 208.484,91.708 L204.596,91.708 Z" id="}-copy" transform="translate(211.652000, 59.956000) rotate(90.000000) translate(-211.652000, -59.956000) "></path>
            <path d="M487.596,90.708 C487.355999,90.708 487.152001,90.6240008 486.984,90.456 C486.815999,90.2879992 486.732,90.0840012 486.732,89.844 L486.732,88.188 C486.732,87.9479988 486.815999,87.7440008 486.984,87.576 C487.152001,87.4079992 487.355999,87.324 487.596,87.324 L490.404,87.324 C491.796007,87.324 492.827997,86.8800044 493.5,85.992 C494.172003,85.1039956 494.508,83.7000096 494.508,81.78 L494.508,66.804 C494.508,64.6439892 494.783997,62.9400062 495.336,61.692 C495.888003,60.4439938 496.739994,59.5080031 497.892,58.884 C498.132001,58.7399993 498.132001,58.6200005 497.892,58.524 C496.739994,57.9479971 495.888003,57.0360062 495.336,55.788 C494.783997,54.5399938 494.508,52.8360108 494.508,50.676 L494.508,36.204 C494.508,34.2839904 494.172003,32.8800044 493.5,31.992 C492.827997,31.1039956 491.796007,30.66 490.404,30.66 L487.596,30.66 C487.355999,30.66 487.152001,30.5760008 486.984,30.408 C486.815999,30.2399992 486.732,30.0360012 486.732,29.796 L486.732,28.068 C486.732,27.8279988 486.815999,27.6240008 486.984,27.456 C487.152001,27.2879992 487.355999,27.204 487.596,27.204 L491.484,27.204 C493.884012,27.204 495.623995,27.8399936 496.704,29.112 C497.784005,30.3840064 498.324,32.4359858 498.324,35.268 L498.324,50.604 C498.324,52.5720098 498.611997,54.0719948 499.188,55.104 C499.764003,56.1360052 500.627994,56.7719988 501.78,57.012 C502.308003,57.1560007 502.572,57.4679976 502.572,57.948 L502.572,59.532 C502.572,60.0120024 502.308003,60.3239993 501.78,60.468 C500.579994,60.7080012 499.704003,61.3439948 499.152,62.376 C498.599997,63.4080052 498.324,64.9319899 498.324,66.948 L498.324,82.716 C498.324,85.5480142 497.784005,87.5879938 496.704,88.836 C495.623995,90.0840062 493.884012,90.708 491.484,90.708 L487.596,90.708 Z" id="}-copy-2" transform="translate(494.652000, 58.956000) rotate(90.000000) translate(-494.652000, -58.956000) "></path>
            <path d="M27.872,115.16 C26.6773274,115.16 25.6160046,114.968002 24.688,114.584 C23.7599954,114.199998 23.0453358,113.688003 22.544,113.048 C22.0426642,112.407997 21.792,111.693337 21.792,110.904 L21.792,110.616 C21.792,110.338665 21.9306653,110.2 22.208,110.2 L23.584,110.2 C23.7120006,110.2 23.813333,110.226666 23.888,110.28 C23.962667,110.333334 24,110.402666 24,110.488 L24,110.776 C24,111.480004 24.362663,112.093331 25.088,112.616 C25.813337,113.138669 26.7306611,113.4 27.84,113.4 C28.9493389,113.4 29.8453299,113.149336 30.528,112.648 C31.2106701,112.146664 31.552,111.512004 31.552,110.744 C31.552,110.210664 31.381335,109.773335 31.04,109.432 C30.698665,109.090665 30.2826691,108.824001 29.792,108.632 C29.3013309,108.439999 28.5653382,108.194668 27.584,107.896 C26.3893274,107.554665 25.4080038,107.213335 24.64,106.872 C23.8719962,106.530665 23.221336,106.056003 22.688,105.448 C22.154664,104.839997 21.888,104.066671 21.888,103.128 C21.888,101.76266 22.4266613,100.674671 23.504,99.864 C24.5813387,99.0533293 25.9946579,98.648 27.744,98.648 C28.9173392,98.648 29.9573288,98.8399981 30.864,99.224 C31.7706712,99.6080019 32.4693309,100.135997 32.96,100.808 C33.4506691,101.480003 33.696,102.231996 33.696,103.064 C33.696,103.341335 33.5573347,103.48 33.28,103.48 L31.968,103.48 C31.6906653,103.48 31.552,103.405334 31.552,103.256 L31.552,103.064 C31.552,102.338663 31.2053368,101.730669 30.512,101.24 C29.8186632,100.749331 28.8853392,100.504 27.712,100.504 C26.6239946,100.504 25.7493366,100.722664 25.088,101.16 C24.4266634,101.597336 24.096,102.199996 24.096,102.968 C24.096,103.693337 24.4106635,104.247998 25.04,104.632 C25.6693365,105.016002 26.6559933,105.399998 28,105.784 C29.2373395,106.125335 30.2399962,106.455998 31.008,106.776 C31.7760038,107.096002 32.4373306,107.56533 32.992,108.184 C33.5466694,108.80267 33.824,109.602662 33.824,110.584 C33.824,111.970674 33.2853387,113.079996 32.208,113.912 C31.1306613,114.744004 29.6853424,115.16 27.872,115.16 Z M47.776,99.224 C47.776,98.9466653 47.9146653,98.808 48.192,98.808 L49.632,98.808 C49.9093347,98.808 50.048,98.9466653 50.048,99.224 L50.048,114.584 C50.048,114.861335 49.9093347,115 49.632,115 L48.192,115 C47.9146653,115 47.776,114.861335 47.776,114.584 L47.776,113.368 C47.776,113.304 47.7546669,113.261333 47.712,113.24 C47.6693331,113.218667 47.6266669,113.24 47.584,113.304 C46.6666621,114.584006 45.2586762,115.224 43.36,115.224 C42.3359949,115.224 41.3920043,115.016002 40.528,114.6 C39.6639957,114.183998 38.9813358,113.581337 38.48,112.792 C37.9786642,112.002663 37.728,111.053339 37.728,109.944 L37.728,99.224 C37.728,98.9466653 37.8666653,98.808 38.144,98.808 L39.584,98.808 C39.8613347,98.808 40,98.9466653 40,99.224 L40,109.272 C40,110.488006 40.3413299,111.45333 41.024,112.168 C41.7066701,112.88267 42.6346608,113.24 43.808,113.24 C45.0240061,113.24 45.9893298,112.877337 46.704,112.152 C47.4186702,111.426663 47.776,110.466673 47.776,109.272 L47.776,99.224 Z M67.584,102.936 C67.8400013,103.810671 67.968,105.133324 67.968,106.904 C67.968,108.653342 67.8186682,110.007995 67.52,110.968 C67.1359981,112.290673 66.4373384,113.335996 65.424,114.104 C64.4106616,114.872004 63.1573408,115.256 61.664,115.256 C60.8106624,115.256 60.0373368,115.085335 59.344,114.744 C58.6506632,114.402665 58.0693357,113.92267 57.6,113.304 C57.5573331,113.261333 57.5146669,113.245333 57.472,113.256 C57.4293331,113.266667 57.408,113.304 57.408,113.368 L57.408,114.584 C57.408,114.861335 57.2693347,115 56.992,115 L55.552,115 C55.2746653,115 55.136,114.861335 55.136,114.584 L55.136,93.016 C55.136,92.7386653 55.2746653,92.6 55.552,92.6 L56.992,92.6 C57.2693347,92.6 57.408,92.7386653 57.408,93.016 L57.408,100.408 C57.408,100.472 57.4293331,100.514667 57.472,100.536 C57.5146669,100.557333 57.5573331,100.536 57.6,100.472 C58.0693357,99.8533302 58.6559965,99.3786683 59.36,99.048 C60.0640035,98.7173317 60.8319958,98.552 61.664,98.552 C63.1786742,98.552 64.4479949,98.9413294 65.472,99.72 C66.4960051,100.498671 67.1999981,101.57066 67.584,102.936 Z M65.12,110.776 C65.3333344,110.327998 65.4826662,109.821336 65.568,109.256 C65.6533338,108.690664 65.696,107.906672 65.696,106.904 C65.696,105.858661 65.6373339,105.04267 65.52,104.456 C65.4026661,103.86933 65.2160013,103.341336 64.96,102.872 C64.6826653,102.167996 64.2346698,101.602669 63.616,101.176 C62.9973302,100.749331 62.2613376,100.536 61.408,100.536 C60.5973293,100.536 59.8986696,100.754664 59.312,101.192 C58.7253304,101.629336 58.3040013,102.210663 58.048,102.936 C57.8346656,103.384002 57.6853338,103.90133 57.6,104.488 C57.5146662,105.07467 57.472,105.879995 57.472,106.904 C57.472,107.928005 57.5146662,108.727997 57.6,109.304 C57.6853338,109.880003 57.823999,110.381331 58.016,110.808 C58.2933347,111.55467 58.7199971,112.151998 59.296,112.6 C59.8720029,113.048002 60.5866624,113.272 61.44,113.272 C62.3360045,113.272 63.1093301,113.048002 63.76,112.6 C64.4106699,112.151998 64.8639987,111.544004 65.12,110.776 Z M73.696,95.96 C73.1839974,95.96 72.7680016,95.8053349 72.448,95.496 C72.1279984,95.1866651 71.968,94.7866691 71.968,94.296 C71.968,93.8053309 72.138665,93.4053349 72.48,93.096 C72.821335,92.7866651 73.2266643,92.632 73.696,92.632 C74.2080026,92.632 74.6293317,92.7866651 74.96,93.096 C75.2906683,93.4053349 75.456,93.8053309 75.456,94.296 C75.456,94.7866691 75.2960016,95.1866651 74.976,95.496 C74.6559984,95.8053349 74.229336,95.96 73.696,95.96 Z M69.216,121.656 C68.9386653,121.656 68.8,121.517335 68.8,121.24 L68.8,120.12 C68.8,119.842665 68.9386653,119.704 69.216,119.704 C71.4346778,119.64 72.544,118.541344 72.544,116.408 L72.544,99.224 C72.544,98.9466653 72.6826653,98.808 72.96,98.808 L74.4,98.808 C74.6773347,98.808 74.816,98.9466653 74.816,99.224 L74.816,116.408 C74.816,118.221342 74.3733378,119.543996 73.488,120.376 C72.6026622,121.208004 71.1786765,121.634667 69.216,121.656 Z M86.24,113.304 C87.2000048,113.282667 88.0266632,113.064002 88.72,112.648 C89.4133368,112.231998 89.9519981,111.65067 90.336,110.904 C90.3786669,110.797333 90.4533328,110.722667 90.56,110.68 C90.6666672,110.637333 90.7733328,110.648 90.88,110.712 L91.808,111.224 C92.0640013,111.373334 92.1280006,111.554666 92,111.768 C91.4879974,112.834672 90.7200051,113.682664 89.696,114.312 C88.6719949,114.941336 87.456007,115.256 86.048,115.256 C84.5546592,115.256 83.2960051,114.904004 82.272,114.2 C81.2479949,113.495996 80.5120022,112.514673 80.064,111.256 C79.6586646,110.189328 79.456,108.717343 79.456,106.84 C79.456,105.922662 79.4719998,105.192003 79.504,104.648 C79.5360002,104.103997 79.6159994,103.597336 79.744,103.128 C80.1066685,101.741326 80.8373278,100.632004 81.936,99.8 C83.0346722,98.9679958 84.3626589,98.552 85.92,98.552 C87.7760093,98.552 89.2319947,99.0319952 90.288,99.992 C91.3440053,100.952005 92.0213318,102.306658 92.32,104.056 C92.4480006,104.73867 92.512,105.805326 92.512,107.256 C92.512,107.533335 92.3733347,107.672 92.096,107.672 L81.856,107.672 C81.7493328,107.672 81.696,107.725333 81.696,107.832 C81.696,108.898672 81.7599994,109.677331 81.888,110.168 C82.1226678,111.128005 82.6186629,111.890664 83.376,112.456 C84.1333371,113.021336 85.0879942,113.304 86.24,113.304 Z M85.92,100.536 C84.853328,100.536 83.9786701,100.807997 83.296,101.352 C82.6133299,101.896003 82.1653344,102.626662 81.952,103.544 C81.8239994,103.970669 81.7386669,104.695995 81.696,105.72 C81.696,105.826667 81.7493328,105.88 81.856,105.88 L90.08,105.88 C90.1866672,105.88 90.24,105.826667 90.24,105.72 C90.1973331,104.781329 90.1333338,104.098669 90.048,103.672 C89.8133322,102.711995 89.3386702,101.949336 88.624,101.384 C87.9093298,100.818664 87.0080054,100.536 85.92,100.536 Z M103.136,115.256 C101.599992,115.256 100.282672,114.856004 99.184,114.056 C98.0853278,113.255996 97.3333354,112.17334 96.928,110.808 C96.6506653,109.869329 96.512,108.546675 96.512,106.84 C96.512,105.303992 96.6506653,104.002672 96.928,102.936 C97.3120019,101.613327 98.0586611,100.552004 99.168,99.752 C100.277339,98.951996 101.599992,98.552 103.136,98.552 C104.693341,98.552 106.042661,98.9466627 107.184,99.736 C108.325339,100.525337 109.066665,101.506661 109.408,102.68 C109.493334,102.978668 109.557333,103.266665 109.6,103.544 L109.6,103.608 C109.6,103.842668 109.472001,103.981333 109.216,104.024 L107.808,104.184 L107.712,104.184 C107.519999,104.184 107.392,104.066668 107.328,103.832 C107.328,103.746666 107.306667,103.618668 107.264,103.448 C107.071999,102.637329 106.60267,101.949336 105.856,101.384 C105.10933,100.818664 104.202672,100.536 103.136,100.536 C102.069328,100.536 101.17867,100.818664 100.464,101.384 C99.7493298,101.949336 99.2853344,102.701329 99.072,103.64 C98.879999,104.450671 98.784,105.527993 98.784,106.872 C98.784,108.280007 98.879999,109.367996 99.072,110.136 C99.2853344,111.096005 99.7493298,111.858664 100.464,112.424 C101.17867,112.989336 102.069328,113.272 103.136,113.272 C104.181339,113.272 105.082663,113.000003 105.84,112.456 C106.597337,111.911997 107.061332,111.224004 107.232,110.392 C107.253333,110.349333 107.264,110.296 107.264,110.232 L107.296,110.2 C107.317333,109.922665 107.477332,109.805333 107.776,109.848 L109.152,110.072 C109.429335,110.114667 109.557333,110.274665 109.536,110.552 L109.408,111.096 C109.087998,112.33334 108.352006,113.335996 107.2,114.104 C106.047994,114.872004 104.693341,115.256 103.136,115.256 Z M120.928,100.28 C120.928,100.557335 120.789335,100.696 120.512,100.696 L117.024,100.696 C116.917333,100.696 116.864,100.749333 116.864,100.856 L116.864,110.2 C116.864,111.224005 117.093331,111.943998 117.552,112.36 C118.010669,112.776002 118.730662,112.984 119.712,112.984 L120.416,112.984 C120.693335,112.984 120.832,113.122665 120.832,113.4 L120.832,114.52 C120.832,114.797335 120.693335,114.946667 120.416,114.968 L119.328,114.968 C117.791992,114.968 116.629337,114.680003 115.84,114.104 C115.050663,113.527997 114.656,112.461341 114.656,110.904 L114.656,100.856 C114.656,100.749333 114.602667,100.696 114.496,100.696 L112.672,100.696 C112.394665,100.696 112.256,100.557335 112.256,100.28 L112.256,99.224 C112.256,98.9466653 112.394665,98.808 112.672,98.808 L114.496,98.808 C114.602667,98.808 114.656,98.7546672 114.656,98.648 L114.656,95.064 C114.656,94.7866653 114.794665,94.648 115.072,94.648 L116.448,94.648 C116.725335,94.648 116.864,94.7866653 116.864,95.064 L116.864,98.648 C116.864,98.7546672 116.917333,98.808 117.024,98.808 L120.512,98.808 C120.789335,98.808 120.928,98.9466653 120.928,99.224 L120.928,100.28 Z" id="subject"></path>
            <path d="M169.088,98.648 C169.792004,98.648 170.378664,98.7759987 170.848,99.032 C171.061334,99.1173338 171.136,99.2879987 171.072,99.544 L170.752,100.952 C170.688,101.208001 170.517335,101.293334 170.24,101.208 C169.834665,101.079999 169.312003,101.026667 168.672,101.048 C167.562661,101.090667 166.645337,101.501329 165.92,102.28 C165.194663,103.058671 164.832,104.045327 164.832,105.24 L164.832,114.584 C164.832,114.861335 164.693335,115 164.416,115 L162.976,115 C162.698665,115 162.56,114.861335 162.56,114.584 L162.56,99.224 C162.56,98.9466653 162.698665,98.808 162.976,98.808 L164.416,98.808 C164.693335,98.808 164.832,98.9466653 164.832,99.224 L164.832,101.016 C164.832,101.101334 164.848,101.149333 164.88,101.16 C164.912,101.170667 164.949333,101.144 164.992,101.08 C165.440002,100.311996 166.010663,99.7146688 166.704,99.288 C167.397337,98.8613312 168.191996,98.648 169.088,98.648 Z M180.512,113.304 C181.472005,113.282667 182.298663,113.064002 182.992,112.648 C183.685337,112.231998 184.223998,111.65067 184.608,110.904 C184.650667,110.797333 184.725333,110.722667 184.832,110.68 C184.938667,110.637333 185.045333,110.648 185.152,110.712 L186.08,111.224 C186.336001,111.373334 186.400001,111.554666 186.272,111.768 C185.759997,112.834672 184.992005,113.682664 183.968,114.312 C182.943995,114.941336 181.728007,115.256 180.32,115.256 C178.826659,115.256 177.568005,114.904004 176.544,114.2 C175.519995,113.495996 174.784002,112.514673 174.336,111.256 C173.930665,110.189328 173.728,108.717343 173.728,106.84 C173.728,105.922662 173.744,105.192003 173.776,104.648 C173.808,104.103997 173.887999,103.597336 174.016,103.128 C174.378668,101.741326 175.109328,100.632004 176.208,99.8 C177.306672,98.9679958 178.634659,98.552 180.192,98.552 C182.048009,98.552 183.503995,99.0319952 184.56,99.992 C185.616005,100.952005 186.293332,102.306658 186.592,104.056 C186.720001,104.73867 186.784,105.805326 186.784,107.256 C186.784,107.533335 186.645335,107.672 186.368,107.672 L176.128,107.672 C176.021333,107.672 175.968,107.725333 175.968,107.832 C175.968,108.898672 176.031999,109.677331 176.16,110.168 C176.394668,111.128005 176.890663,111.890664 177.648,112.456 C178.405337,113.021336 179.359994,113.304 180.512,113.304 Z M180.192,100.536 C179.125328,100.536 178.25067,100.807997 177.568,101.352 C176.88533,101.896003 176.437334,102.626662 176.224,103.544 C176.095999,103.970669 176.010667,104.695995 175.968,105.72 C175.968,105.826667 176.021333,105.88 176.128,105.88 L184.352,105.88 C184.458667,105.88 184.512,105.826667 184.512,105.72 C184.469333,104.781329 184.405334,104.098669 184.32,103.672 C184.085332,102.711995 183.61067,101.949336 182.896,101.384 C182.18133,100.818664 181.280005,100.536 180.192,100.536 Z M191.712,115 C191.434665,115 191.296,114.861335 191.296,114.584 L191.296,93.016 C191.296,92.7386653 191.434665,92.6 191.712,92.6 L193.152,92.6 C193.429335,92.6 193.568,92.7386653 193.568,93.016 L193.568,114.584 C193.568,114.861335 193.429335,115 193.152,115 L191.712,115 Z M204.32,98.552 C206.24001,98.552 207.727995,99.0426618 208.784,100.024 C209.840005,101.005338 210.368,102.306659 210.368,103.928 L210.368,114.584 C210.368,114.861335 210.229335,115 209.952,115 L208.512,115 C208.234665,115 208.096,114.861335 208.096,114.584 L208.096,113.432 C208.096,113.368 208.074667,113.325333 208.032,113.304 C207.989333,113.282667 207.946667,113.304 207.904,113.368 C207.327997,113.98667 206.608004,114.455998 205.744,114.776 C204.879996,115.096002 203.936005,115.256 202.912,115.256 C201.418659,115.256 200.165338,114.872004 199.152,114.104 C198.138662,113.335996 197.632,112.162675 197.632,110.584 C197.632,108.983992 198.213328,107.720005 199.376,106.792 C200.538672,105.863995 202.154656,105.4 204.224,105.4 L207.936,105.4 C208.042667,105.4 208.096,105.346667 208.096,105.24 L208.096,104.056 C208.096,102.967995 207.792003,102.109336 207.184,101.48 C206.575997,100.850664 205.632006,100.536 204.352,100.536 C203.349328,100.536 202.528003,100.727998 201.888,101.112 C201.247997,101.496002 200.842668,102.02933 200.672,102.712 C200.608,102.968001 200.448001,103.074667 200.192,103.032 L198.624,102.84 C198.346665,102.797333 198.218667,102.680001 198.24,102.488 C198.453334,101.314661 199.109328,100.365337 200.208,99.64 C201.306672,98.914663 202.677325,98.552 204.32,98.552 Z M203.424,113.304 C204.682673,113.304 205.775995,112.989336 206.704,112.36 C207.632005,111.730664 208.096,110.882672 208.096,109.816 L208.096,107.352 C208.096,107.245333 208.042667,107.192 207.936,107.192 L204.576,107.192 C203.167993,107.192 202.037338,107.479997 201.184,108.056 C200.330662,108.632003 199.904,109.431995 199.904,110.456 C199.904,111.394671 200.234663,112.103998 200.896,112.584 C201.557337,113.064002 202.399995,113.304 203.424,113.304 Z M222.336,100.28 C222.336,100.557335 222.197335,100.696 221.92,100.696 L218.432,100.696 C218.325333,100.696 218.272,100.749333 218.272,100.856 L218.272,110.2 C218.272,111.224005 218.501331,111.943998 218.96,112.36 C219.418669,112.776002 220.138662,112.984 221.12,112.984 L221.824,112.984 C222.101335,112.984 222.24,113.122665 222.24,113.4 L222.24,114.52 C222.24,114.797335 222.101335,114.946667 221.824,114.968 L220.736,114.968 C219.199992,114.968 218.037337,114.680003 217.248,114.104 C216.458663,113.527997 216.064,112.461341 216.064,110.904 L216.064,100.856 C216.064,100.749333 216.010667,100.696 215.904,100.696 L214.08,100.696 C213.802665,100.696 213.664,100.557335 213.664,100.28 L213.664,99.224 C213.664,98.9466653 213.802665,98.808 214.08,98.808 L215.904,98.808 C216.010667,98.808 216.064,98.7546672 216.064,98.648 L216.064,95.064 C216.064,94.7866653 216.202665,94.648 216.48,94.648 L217.856,94.648 C218.133335,94.648 218.272,94.7866653 218.272,95.064 L218.272,98.648 C218.272,98.7546672 218.325333,98.808 218.432,98.808 L221.92,98.808 C222.197335,98.808 222.336,98.9466653 222.336,99.224 L222.336,100.28 Z M228.096,95.896 C227.583997,95.896 227.168002,95.7413349 226.848,95.432 C226.527998,95.1226651 226.368,94.7226691 226.368,94.232 C226.368,93.7413309 226.527998,93.3466682 226.848,93.048 C227.168002,92.7493318 227.583997,92.6 228.096,92.6 C228.608003,92.6 229.023998,92.7493318 229.344,93.048 C229.664002,93.3466682 229.824,93.7413309 229.824,94.232 C229.824,94.7226691 229.664002,95.1226651 229.344,95.432 C229.023998,95.7413349 228.608003,95.896 228.096,95.896 Z M227.392,115 C227.114665,115 226.976,114.861335 226.976,114.584 L226.976,99.224 C226.976,98.9466653 227.114665,98.808 227.392,98.808 L228.832,98.808 C229.109335,98.808 229.248,98.9466653 229.248,99.224 L229.248,114.584 C229.248,114.861335 229.109335,115 228.832,115 L227.392,115 Z M240.768,115.256 C239.210659,115.256 237.882672,114.861337 236.784,114.072 C235.685328,113.282663 234.922669,112.194674 234.496,110.808 C234.197332,109.826662 234.048,108.514675 234.048,106.872 C234.048,105.250659 234.186665,103.949338 234.464,102.968 C234.890669,101.60266 235.653328,100.525337 236.752,99.736 C237.850672,98.9466627 239.189325,98.552 240.768,98.552 C242.304008,98.552 243.621328,98.9466627 244.72,99.736 C245.818672,100.525337 246.570665,101.591993 246.976,102.936 C247.274668,103.960005 247.424,105.271992 247.424,106.872 C247.424,108.514675 247.274668,109.826662 246.976,110.808 C246.549331,112.194674 245.786672,113.282663 244.688,114.072 C243.589328,114.861337 242.282674,115.256 240.768,115.256 Z M240.768,113.272 C241.792005,113.272 242.666663,112.989336 243.392,112.424 C244.117337,111.858664 244.607999,111.096005 244.864,110.136 C245.034668,109.45333 245.12,108.376007 245.12,106.904 C245.12,105.367992 245.034668,104.29067 244.864,103.672 C244.629332,102.711995 244.144004,101.949336 243.408,101.384 C242.671996,100.818664 241.770672,100.536 240.704,100.536 C239.679995,100.536 238.805337,100.818664 238.08,101.384 C237.354663,101.949336 236.864001,102.711995 236.608,103.672 C236.437332,104.29067 236.352,105.367992 236.352,106.904 C236.352,108.440008 236.437332,109.51733 236.608,110.136 C236.842668,111.096005 237.327996,111.858664 238.064,112.424 C238.800004,112.989336 239.701328,113.272 240.768,113.272 Z M258.752,98.584 C260.437342,98.584 261.786662,99.0853283 262.8,100.088 C263.813338,101.090672 264.32,102.434658 264.32,104.12 L264.32,114.584 C264.32,114.861335 264.181335,115 263.904,115 L262.464,115 C262.186665,115 262.048,114.861335 262.048,114.584 L262.048,104.568 C262.048,103.373327 261.696004,102.408004 260.992,101.672 C260.287996,100.935996 259.370672,100.568 258.24,100.568 C257.151995,100.568 256.25067,100.87733 255.536,101.496 C254.82133,102.11467 254.410667,102.925328 254.304,103.928 L254.304,114.584 C254.304,114.861335 254.165335,115 253.888,115 L252.448,115 C252.170665,115 252.032,114.861335 252.032,114.584 L252.032,99.224 C252.032,98.9466653 252.170665,98.808 252.448,98.808 L253.888,98.808 C254.165335,98.808 254.304,98.9466653 254.304,99.224 L254.304,100.408 C254.304,100.472 254.325333,100.52 254.368,100.552 C254.410667,100.584 254.442667,100.568 254.464,100.504 C255.402671,99.2239936 256.83199,98.584 258.752,98.584 Z" id="relation"></path>
            <path d="M460.768,113.256 C459.210659,113.256 457.882672,112.861337 456.784,112.072 C455.685328,111.282663 454.922669,110.194674 454.496,108.808 C454.197332,107.826662 454.048,106.514675 454.048,104.872 C454.048,103.250659 454.186665,101.949338 454.464,100.968 C454.890669,99.6026598 455.653328,98.5253373 456.752,97.736 C457.850672,96.9466627 459.189325,96.552 460.768,96.552 C462.304008,96.552 463.621328,96.9466627 464.72,97.736 C465.818672,98.5253373 466.570665,99.5919933 466.976,100.936 C467.274668,101.960005 467.424,103.271992 467.424,104.872 C467.424,106.514675 467.274668,107.826662 466.976,108.808 C466.549331,110.194674 465.786672,111.282663 464.688,112.072 C463.589328,112.861337 462.282674,113.256 460.768,113.256 Z M460.768,111.272 C461.792005,111.272 462.666663,110.989336 463.392,110.424 C464.117337,109.858664 464.607999,109.096005 464.864,108.136 C465.034668,107.45333 465.12,106.376007 465.12,104.904 C465.12,103.367992 465.034668,102.29067 464.864,101.672 C464.629332,100.711995 464.144004,99.9493362 463.408,99.384 C462.671996,98.8186638 461.770672,98.536 460.704,98.536 C459.679995,98.536 458.805337,98.8186638 458.08,99.384 C457.354663,99.9493362 456.864001,100.711995 456.608,101.672 C456.437332,102.29067 456.352,103.367992 456.352,104.904 C456.352,106.440008 456.437332,107.51733 456.608,108.136 C456.842668,109.096005 457.327996,109.858664 458.064,110.424 C458.800004,110.989336 459.701328,111.272 460.768,111.272 Z M484.48,100.936 C484.736001,101.810671 484.864,103.133324 484.864,104.904 C484.864,106.653342 484.714668,108.007995 484.416,108.968 C484.031998,110.290673 483.333338,111.335996 482.32,112.104 C481.306662,112.872004 480.053341,113.256 478.56,113.256 C477.706662,113.256 476.933337,113.085335 476.24,112.744 C475.546663,112.402665 474.965336,111.92267 474.496,111.304 C474.453333,111.261333 474.410667,111.245333 474.368,111.256 C474.325333,111.266667 474.304,111.304 474.304,111.368 L474.304,112.584 C474.304,112.861335 474.165335,113 473.888,113 L472.448,113 C472.170665,113 472.032,112.861335 472.032,112.584 L472.032,91.016 C472.032,90.7386653 472.170665,90.6 472.448,90.6 L473.888,90.6 C474.165335,90.6 474.304,90.7386653 474.304,91.016 L474.304,98.408 C474.304,98.4720003 474.325333,98.5146666 474.368,98.536 C474.410667,98.5573334 474.453333,98.5360003 474.496,98.472 C474.965336,97.8533302 475.551996,97.3786683 476.256,97.048 C476.960004,96.7173317 477.727996,96.552 478.56,96.552 C480.074674,96.552 481.343995,96.9413294 482.368,97.72 C483.392005,98.4986706 484.095998,99.5706598 484.48,100.936 Z M482.016,108.776 C482.229334,108.327998 482.378666,107.821336 482.464,107.256 C482.549334,106.690664 482.592,105.906672 482.592,104.904 C482.592,103.858661 482.533334,103.04267 482.416,102.456 C482.298666,101.86933 482.112001,101.341336 481.856,100.872 C481.578665,100.167996 481.13067,99.6026688 480.512,99.176 C479.89333,98.7493312 479.157338,98.536 478.304,98.536 C477.493329,98.536 476.79467,98.7546645 476.208,99.192 C475.62133,99.6293355 475.200001,100.210663 474.944,100.936 C474.730666,101.384002 474.581334,101.90133 474.496,102.488 C474.410666,103.07467 474.368,103.879995 474.368,104.904 C474.368,105.928005 474.410666,106.727997 474.496,107.304 C474.581334,107.880003 474.719999,108.381331 474.912,108.808 C475.189335,109.55467 475.615997,110.151998 476.192,110.6 C476.768003,111.048002 477.482662,111.272 478.336,111.272 C479.232004,111.272 480.00533,111.048002 480.656,110.6 C481.30667,110.151998 481.759999,109.544004 482.016,108.776 Z M490.592,93.96 C490.079997,93.96 489.664002,93.8053349 489.344,93.496 C489.023998,93.1866651 488.864,92.7866691 488.864,92.296 C488.864,91.8053309 489.034665,91.4053349 489.376,91.096 C489.717335,90.7866651 490.122664,90.632 490.592,90.632 C491.104003,90.632 491.525332,90.7866651 491.856,91.096 C492.186668,91.4053349 492.352,91.8053309 492.352,92.296 C492.352,92.7866691 492.192002,93.1866651 491.872,93.496 C491.551998,93.8053349 491.125336,93.96 490.592,93.96 Z M486.112,119.656 C485.834665,119.656 485.696,119.517335 485.696,119.24 L485.696,118.12 C485.696,117.842665 485.834665,117.704 486.112,117.704 C488.330678,117.64 489.44,116.541344 489.44,114.408 L489.44,97.224 C489.44,96.9466653 489.578665,96.808 489.856,96.808 L491.296,96.808 C491.573335,96.808 491.712,96.9466653 491.712,97.224 L491.712,114.408 C491.712,116.221342 491.269338,117.543996 490.384,118.376 C489.498662,119.208004 488.074676,119.634667 486.112,119.656 Z M503.136,111.304 C504.096005,111.282667 504.922663,111.064002 505.616,110.648 C506.309337,110.231998 506.847998,109.65067 507.232,108.904 C507.274667,108.797333 507.349333,108.722667 507.456,108.68 C507.562667,108.637333 507.669333,108.648 507.776,108.712 L508.704,109.224 C508.960001,109.373334 509.024001,109.554666 508.896,109.768 C508.383997,110.834672 507.616005,111.682664 506.592,112.312 C505.567995,112.941336 504.352007,113.256 502.944,113.256 C501.450659,113.256 500.192005,112.904004 499.168,112.2 C498.143995,111.495996 497.408002,110.514673 496.96,109.256 C496.554665,108.189328 496.352,106.717343 496.352,104.84 C496.352,103.922662 496.368,103.192003 496.4,102.648 C496.432,102.103997 496.511999,101.597336 496.64,101.128 C497.002668,99.7413264 497.733328,98.6320042 498.832,97.8 C499.930672,96.9679958 501.258659,96.552 502.816,96.552 C504.672009,96.552 506.127995,97.0319952 507.184,97.992 C508.240005,98.9520048 508.917332,100.306658 509.216,102.056 C509.344001,102.73867 509.408,103.805326 509.408,105.256 C509.408,105.533335 509.269335,105.672 508.992,105.672 L498.752,105.672 C498.645333,105.672 498.592,105.725333 498.592,105.832 C498.592,106.898672 498.655999,107.677331 498.784,108.168 C499.018668,109.128005 499.514663,109.890664 500.272,110.456 C501.029337,111.021336 501.983994,111.304 503.136,111.304 Z M502.816,98.536 C501.749328,98.536 500.87467,98.8079973 500.192,99.352 C499.50933,99.8960027 499.061334,100.626662 498.848,101.544 C498.719999,101.970669 498.634667,102.695995 498.592,103.72 C498.592,103.826667 498.645333,103.88 498.752,103.88 L506.976,103.88 C507.082667,103.88 507.136,103.826667 507.136,103.72 C507.093333,102.781329 507.029334,102.098669 506.944,101.672 C506.709332,100.711995 506.23467,99.9493362 505.52,99.384 C504.80533,98.8186638 503.904005,98.536 502.816,98.536 Z M520.032,113.256 C518.495992,113.256 517.178672,112.856004 516.08,112.056 C514.981328,111.255996 514.229335,110.17334 513.824,108.808 C513.546665,107.869329 513.408,106.546675 513.408,104.84 C513.408,103.303992 513.546665,102.002672 513.824,100.936 C514.208002,99.6133267 514.954661,98.552004 516.064,97.752 C517.173339,96.951996 518.495992,96.552 520.032,96.552 C521.589341,96.552 522.938661,96.9466627 524.08,97.736 C525.221339,98.5253373 525.962665,99.5066608 526.304,100.68 C526.389334,100.978668 526.453333,101.266665 526.496,101.544 L526.496,101.608 C526.496,101.842668 526.368001,101.981333 526.112,102.024 L524.704,102.184 L524.608,102.184 C524.415999,102.184 524.288,102.066668 524.224,101.832 C524.224,101.746666 524.202667,101.618668 524.16,101.448 C523.967999,100.637329 523.49867,99.9493362 522.752,99.384 C522.00533,98.8186638 521.098672,98.536 520.032,98.536 C518.965328,98.536 518.07467,98.8186638 517.36,99.384 C516.64533,99.9493362 516.181334,100.701329 515.968,101.64 C515.775999,102.450671 515.68,103.527993 515.68,104.872 C515.68,106.280007 515.775999,107.367996 515.968,108.136 C516.181334,109.096005 516.64533,109.858664 517.36,110.424 C518.07467,110.989336 518.965328,111.272 520.032,111.272 C521.077339,111.272 521.978663,111.000003 522.736,110.456 C523.493337,109.911997 523.957332,109.224004 524.128,108.392 C524.149333,108.349333 524.16,108.296 524.16,108.232 L524.192,108.2 C524.213333,107.922665 524.373332,107.805333 524.672,107.848 L526.048,108.072 C526.325335,108.114667 526.453333,108.274665 526.432,108.552 L526.304,109.096 C525.983998,110.33334 525.248006,111.335996 524.096,112.104 C522.943994,112.872004 521.589341,113.256 520.032,113.256 Z M537.824,98.28 C537.824,98.5573347 537.685335,98.696 537.408,98.696 L533.92,98.696 C533.813333,98.696 533.76,98.7493328 533.76,98.856 L533.76,108.2 C533.76,109.224005 533.989331,109.943998 534.448,110.36 C534.906669,110.776002 535.626662,110.984 536.608,110.984 L537.312,110.984 C537.589335,110.984 537.728,111.122665 537.728,111.4 L537.728,112.52 C537.728,112.797335 537.589335,112.946667 537.312,112.968 L536.224,112.968 C534.687992,112.968 533.525337,112.680003 532.736,112.104 C531.946663,111.527997 531.552,110.461341 531.552,108.904 L531.552,98.856 C531.552,98.7493328 531.498667,98.696 531.392,98.696 L529.568,98.696 C529.290665,98.696 529.152,98.5573347 529.152,98.28 L529.152,97.224 C529.152,96.9466653 529.290665,96.808 529.568,96.808 L531.392,96.808 C531.498667,96.808 531.552,96.7546672 531.552,96.648 L531.552,93.064 C531.552,92.7866653 531.690665,92.648 531.968,92.648 L533.344,92.648 C533.621335,92.648 533.76,92.7866653 533.76,93.064 L533.76,96.648 C533.76,96.7546672 533.813333,96.808 533.92,96.808 L537.408,96.808 C537.685335,96.808 537.824,96.9466653 537.824,97.224 L537.824,98.28 Z" id="object"></path>
        </g>
    </g>
</svg>