<?xml version="1.0" encoding="UTF-8"?>
<svg width="40px" height="40px" viewBox="0 0 40 40" version="1.1" xmlns="http://www.w3.org/2000/svg" xmlns:xlink="http://www.w3.org/1999/xlink">
    <!-- Generator: Sketch 43.2 (39069) - http://www.bohemiancoding.com/sketch -->
    <title>Artboard</title>
    <desc>Created with Sketch.</desc>
    <defs>
        <linearGradient x1="0%" y1="50%" x2="72.8493012%" y2="50%" id="linearGradient-1">
            <stop stop-color="#FDE1CC" stop-opacity="0" offset="0%"></stop>
            <stop stop-color="#FDE1CC" offset="100%"></stop>
        </linearGradient>
    </defs>
    <g id="Page-1" stroke="none" stroke-width="1" fill="none" fill-rule="evenodd">
        <g id="Artboard">
            <g id="animal-trade-logo">
                <rect id="Rectangle" fill="#399597" fill-rule="nonzero" x="0" y="0" width="40" height="40"></rect>
                <path d="M19.319,10.3 C19.5570012,10.3 19.676,10.4189988 19.676,10.657 L19.676,12.505 C19.676,12.7430012 19.5570012,12.862 19.319,12.862 L15.686,12.862 C15.6019996,12.862 15.56,12.9039996 15.56,12.988 L15.56,24.643 C15.56,24.8810012 15.4410012,25 15.203,25 L12.956,25 C12.7179988,25 12.599,24.8810012 12.599,24.643 L12.599,12.988 C12.599,12.9039996 12.5570004,12.862 12.473,12.862 L8.945,12.862 C8.70699881,12.862 8.588,12.7430012 8.588,12.505 L8.588,10.657 C8.588,10.4189988 8.70699881,10.3 8.945,10.3 L19.319,10.3 Z M24.38,25.147 C23.4419953,25.147 22.6230035,25.0140013 21.923,24.748 C21.2229965,24.4819987 20.6840019,24.1110024 20.306,23.635 C19.9279981,23.1589976 19.739,22.620003 19.739,22.018 L19.739,21.913 C19.739,21.6749988 19.8579988,21.556 20.096,21.556 L22.217,21.556 C22.4550012,21.556 22.574,21.5979996 22.574,21.682 L22.574,21.829 C22.574,22.1370015 22.7419983,22.3994989 23.078,22.6165 C23.4140017,22.8335011 23.8409974,22.942 24.359,22.942 C24.8350024,22.942 25.2199985,22.8510009 25.514,22.669 C25.8080015,22.4869991 25.955,22.2490015 25.955,21.955 C25.955,21.7029987 25.8290013,21.5140006 25.577,21.388 C25.3249987,21.2619994 24.9120029,21.1290007 24.338,20.989 C23.6519966,20.8069991 23.1410017,20.6460007 22.805,20.506 C21.8949954,20.1979985 21.1740027,19.8200022 20.642,19.372 C20.1099973,18.9239978 19.844,18.2800042 19.844,17.44 C19.844,16.4039948 20.2499959,15.581503 21.062,14.9725 C21.8740041,14.363497 22.9379934,14.059 24.254,14.059 C25.1500045,14.059 25.9374966,14.2024986 26.6165,14.4895 C27.2955034,14.7765014 27.8204981,15.1789974 28.1915,15.697 C28.5625019,16.2150026 28.748,16.8029967 28.748,17.461 C28.748,17.5310003 28.7165003,17.5904998 28.6535,17.6395 C28.5904997,17.6885002 28.5030006,17.713 28.391,17.713 L26.333,17.713 C26.0949988,17.713 25.976,17.6710004 25.976,17.587 L25.976,17.461 C25.976,17.1529985 25.8220015,16.894001 25.514,16.684 C25.2059985,16.473999 24.7930026,16.369 24.275,16.369 C23.8129977,16.369 23.4315015,16.4529992 23.1305,16.621 C22.8294985,16.7890008 22.679,17.0199985 22.679,17.314 C22.679,17.5940014 22.8224986,17.8039993 23.1095,17.944 C23.3965014,18.0840007 23.8689967,18.2309992 24.527,18.385 C24.933002,18.4690004 25.3249981,18.5739994 25.703,18.7 C26.711005,18.9940015 27.5019971,19.3719977 28.076,19.834 C28.6500029,20.2960023 28.937,20.9679956 28.937,21.85 C28.937,22.8860052 28.5240041,23.6944971 27.698,24.2755 C26.8719959,24.8565029 25.7660069,25.147 24.38,25.147 Z" id="Ts" fill="#FDE1CC"></path>
            </g>
            <rect id="Rectangle-4" fill="url(#linearGradient-1)" fill-rule="nonzero" x="7" y="28.5" width="26" height="3"></rect>
        </g>
    </g>
</svg>